<svg id="Verified_badge" data-name="Verified badge" xmlns="http://www.w3.org/2000/svg" width="15.42" height="18.817" viewBox="0 0 15.42 18.817">
  <path id="Path_3078" data-name="Path 3078" d="M31.706-504.2l-3.806,1.69.016,3.071a23.867,23.867,0,0,0,.1,3.593,10.829,10.829,0,0,0,1.1,3.4,10.3,10.3,0,0,0,6.1,5.247l.389.112.341-.1a10.292,10.292,0,0,0,6.154-5.255,10.943,10.943,0,0,0,1.1-3.412,23.821,23.821,0,0,0,.1-3.593l.012-3.071-3.822-1.7c-2.1-.931-3.862-1.694-3.906-1.69S33.8-505.134,31.706-504.2Zm8.431,4.488a6.373,6.373,0,0,1,.574.614c0,.02-1.534,1.578-3.412,3.453l-3.412,3.412-1.706-1.706-1.706-1.706.6-.6.6-.6,1.112,1.1,1.112,1.1,2.814-2.814c1.55-1.55,2.822-2.814,2.834-2.814S39.824-500.027,40.137-499.714Z" transform="translate(-27.9 505.9)" fill="#00ac0d"/>
</svg>
