<svg xmlns="http://www.w3.org/2000/svg" width="317" height="36" viewBox="0 0 317 36">
  <g id="Group_6621" data-name="Group 6621" transform="translate(-50 -319)">
    <g id="Group_6617" data-name="Group 6617" transform="translate(50 319)">
      <g id="Rectangle_3188" data-name="Rectangle 3188" fill="#fff7f7" stroke="#707070" stroke-width="0.3">
        <rect width="317" height="36" rx="5" stroke="none"/>
        <rect x="0.15" y="0.15" width="316.7" height="35.7" rx="4.85" fill="none"/>
      </g>
      <g id="Group_8408" data-name="Group 8408" transform="translate(105.334 4.005)">
        <g id="Group_3575" data-name="Group 3575" transform="translate(13.106 5.997)">
          <g id="Group_2481" data-name="Group 2481" transform="translate(0 0)">
            <g id="Group_8405" data-name="Group 8405">
              <path id="Path_8084" data-name="Path 8084" d="M5.812-.355v-.988H4.882V-4.609A6.105,6.105,0,0,0,2.9-4.942,2.288,2.288,0,0,0,.38-2.558c0,1.349.693,2.2,2.545,2.2ZM3.666-1.342H3.058c-1,0-1.425-.465-1.425-1.33a1.142,1.142,0,0,1,1.13-1.282,2.29,2.29,0,0,1,.9.171Zm-.1-4.2a.636.636,0,0,0,.627-.646.631.631,0,0,0-.627-.646.636.636,0,0,0-.627.646A.631.631,0,0,0,3.561-5.54Zm-1.576,0a.638.638,0,0,0,.636-.646.633.633,0,0,0-.636-.646.636.636,0,0,0-.627.646A.631.631,0,0,0,1.985-5.54ZM5.67-.355H6.8v-.988H5.67Zm.3,0h4.872v-.988H10.1c-1.5,0-2.156-.608-2.156-1.415a1.134,1.134,0,0,1,1.2-1.206,2.631,2.631,0,0,1,.988.2l.218-1a4.164,4.164,0,0,0-1.178-.18A2.192,2.192,0,0,0,6.686-2.757a1.64,1.64,0,0,0,.741,1.415H5.974Zm6.021,0h2.2v-.988h-.95V-7.05H11.995Zm2.061,0h1.13v-.988h-1.13Zm.3,0h.294c.7,0,1.092-.247,1.263-.7a1.291,1.291,0,0,0,1.349.788,1.42,1.42,0,0,0,1.377-.788c.209.513.712.7,1.539.7h1.766a18.958,18.958,0,0,0,.142-2.213,11.7,11.7,0,0,0-.3-2.631l-1.225.171a11.8,11.8,0,0,1,.275,2.545c0,.294-.028.76-.066,1.14h-.332c-.836,0-1.045-.266-1.045-1.054V-4.628H18.2v2.27c0,.684-.152,1.092-.7,1.092s-.722-.389-.722-1.1v-1.88H15.518V-2.53c0,.94-.237,1.187-.855,1.187h-.3Zm15.2,0V-1.523c-.864,0-1.6,0-2.27.038v-.009l.57-.665a4.456,4.456,0,0,0,1.51-2.906A1.736,1.736,0,0,0,27.437-6.86a3.791,3.791,0,0,0-1.7.37l.18,1.1A2.45,2.45,0,0,1,27.1-5.749a.84.84,0,0,1,.921.893c0,.522-.256,1.168-1.377,2.393L25.689-1.38V-.355Zm5.47-1.406V-2.871h-.959V-6.765H32.442L30.105-2.729l.085.969h2.688V-.355h1.2V-1.76ZM32.9-2.852c-.3,0-1.225,0-1.643.019l1.633-2.821H32.9Zm10.57,2.5v-.988h-.931V-4.609a6.105,6.105,0,0,0-1.985-.332,2.288,2.288,0,0,0-2.517,2.384c0,1.349.693,2.2,2.545,2.2Zm-2.146-.988h-.608c-1,0-1.425-.465-1.425-1.33a1.142,1.142,0,0,1,1.13-1.282,2.29,2.29,0,0,1,.9.171Zm-.1-4.2a.636.636,0,0,0,.627-.646.631.631,0,0,0-.627-.646.636.636,0,0,0-.627.646A.631.631,0,0,0,41.217-5.54Zm-1.576,0a.638.638,0,0,0,.636-.646.633.633,0,0,0-.636-.646.636.636,0,0,0-.627.646A.631.631,0,0,0,39.64-5.54ZM43.325-.355h1.13v-.988h-1.13Zm5.822,0V-2.681a1.99,1.99,0,0,0-2.194-2.26,2.291,2.291,0,0,0-2.422,2.46c0,.864-.256,1.14-.712,1.14h-.19v.988h.142a1.293,1.293,0,0,0,1.254-.731c.285.465.836.731,1.956.731Zm-1.225-.988H47.1c-.978,0-1.339-.418-1.339-1.254,0-.807.408-1.358,1.1-1.358s1.054.418,1.054,1.415Zm2.317.988h4.653v-.988h-.617a3.694,3.694,0,0,0-3.153-3.7L50.818-4a2.622,2.622,0,0,1,2.241,2.659H50.239Zm4.511,0h1.13v-.988H54.75Zm.3,0h4.805a10.919,10.919,0,0,0,.161-1.757c0-1.823-.845-2.764-2.982-2.764a9.9,9.9,0,0,0-1.216.085v.978a7.994,7.994,0,0,1,1.092-.076c1.368,0,1.861.617,1.861,1.823a6.007,6.007,0,0,1-.047.722H55.054ZM57.3-5.616a.657.657,0,0,0,.655-.655.657.657,0,0,0-.655-.655.657.657,0,0,0-.655.655A.651.651,0,0,0,57.3-5.616Z" transform="translate(-0.38 11.751)"/>
              <g id="money-24-hours-service-by-telephone" transform="translate(65.168)">
                <path id="Path_677" data-name="Path 677" d="M11.753,14.708H6.7v-1.36a1.918,1.918,0,0,1,.379-1.4,4.11,4.11,0,0,1,1.8-.6,4.341,4.341,0,0,0,1.4-.384q.218-.175.219-.9,0-.7-.219-.881a1.821,1.821,0,0,0-1.034-.186,1.881,1.881,0,0,0-1.061.188q-.22.189-.22.917v.284H6.723V10.1a2.155,2.155,0,0,1,.518-1.693,3.284,3.284,0,0,1,2.011-.436,3.191,3.191,0,0,1,1.978.44,2.129,2.129,0,0,1,.522,1.673,2.229,2.229,0,0,1-.4,1.558,3.814,3.814,0,0,1-1.824.658,4.632,4.632,0,0,0-1.37.365q-.191.149-.191.853V13.7h3.782v1ZM18.318,12.3v.978h-.768v1.434H16.283V13.274H12.677V11.851l2.916-3.82H17.55V12.3l.768,0ZM16.283,8.988h-.039L13.715,12.3h2.568ZM11.049,6.13c.3.3.379.866.759.821.952-.113,3.49-1.5,3.752-2.467.178-.648-.987-1.749-1.4-2.161-1.4-1.4-4.057-1-5.945.888L1.723,9.7C-.165,11.589-.561,14.25.835,15.647c.412.412,1.513,1.577,2.161,1.4.966-.263,2.346-2.8,2.462-3.748.047-.383-.517-.464-.816-.763-1-1-.368-3.235,1.4-5S10.054,5.134,11.049,6.13ZM8.49,16.695h-1.1v-.96H6.943v2.35h.446V17.07h1.1v1.015h.446v-2.35H8.49Zm2.66-.767a1.614,1.614,0,0,1,.183.952,1.758,1.758,0,0,1-.184,1.017q-.185.21-.9.21a1.156,1.156,0,0,1-.828-.207,1.481,1.481,0,0,1-.187-.914,1.884,1.884,0,0,1,.184-1.056c.122-.143.424-.215.9-.215A1.126,1.126,0,0,1,11.15,15.928Zm-.268.976a1.681,1.681,0,0,0-.079-.7c-.053-.072-.223-.107-.512-.107s-.475.038-.525.115a2.192,2.192,0,0,0-.076.8,1.211,1.211,0,0,0,.088.609c.059.069.233.1.522.1s.442-.038.5-.116A1.626,1.626,0,0,0,10.882,16.9Zm2.266.4c0,.183-.031.3-.091.345a.853.853,0,0,1-.443.071.865.865,0,0,1-.437-.07c-.062-.047-.093-.156-.093-.33V15.736h-.446v1.589a.784.784,0,0,0,.191.631,1.447,1.447,0,0,0,.806.15,1.3,1.3,0,0,0,.772-.158.837.837,0,0,0,.188-.649V15.736h-.445l0,1.573Zm2.359-.212v.015c.26.015.392.168.392.456v.518h-.445v-.429a.319.319,0,0,0-.358-.364h-.642v.792h-.446v-2.35h1.158a.894.894,0,0,1,.6.151.724.724,0,0,1,.163.542,1,1,0,0,1-.082.488A.481.481,0,0,1,15.507,17.1Zm-.036-.588a.538.538,0,0,0-.064-.324.387.387,0,0,0-.283-.073h-.671v.808h.64a.413.413,0,0,0,.3-.082A.509.509,0,0,0,15.471,16.509Zm1.775.206a1.791,1.791,0,0,1-.524-.069c-.053-.03-.079-.119-.079-.268a.267.267,0,0,1,.1-.246.932.932,0,0,1,.414-.059.7.7,0,0,1,.341.051c.049.035.078.117.087.249a.386.386,0,0,0,0,.048h.437v-.09a.556.556,0,0,0-.184-.49,1.394,1.394,0,0,0-.715-.126,1.389,1.389,0,0,0-.747.136.647.647,0,0,0-.186.549.663.663,0,0,0,.155.525,1.47,1.47,0,0,0,.713.155l.247.015a.5.5,0,0,1,.272.067.3.3,0,0,1,.063.226c0,.155-.029.252-.083.3a.729.729,0,0,1-.382.063,1.142,1.142,0,0,1-.47-.055c-.058-.036-.085-.137-.085-.3l0-.05h-.434l0,.086a.646.646,0,0,0,.181.543,1.362,1.362,0,0,0,.736.134,1.5,1.5,0,0,0,.8-.136.753.753,0,0,0,.18-.606.624.624,0,0,0-.154-.5A1.421,1.421,0,0,0,17.246,16.714Z" transform="translate(-0.001 -1.488)" fill="#c00"/>
              </g>
            </g>
          </g>
        </g>
      </g>
      <g id="Group_8409" data-name="Group 8409" transform="translate(214.667 3.853)">
        <g id="Group_8404" data-name="Group 8404" transform="translate(13.463 3.147)">
          <g id="Group_4587" data-name="Group 4587" transform="translate(0 7.55)">
            <path id="Path_8083" data-name="Path 8083" d="M2.978,2.067a10.435,10.435,0,0,0,1.643-.152L4.545.965a9.234,9.234,0,0,1-1.425.123c-1.168,0-1.548-.351-1.548-.817,0-.57.807-.9,1.681-1.33a3.34,3.34,0,0,0,2.108.7h.769v-.988H5.5a2.452,2.452,0,0,1-1.168-.3A2.118,2.118,0,0,0,5.418-3.413c0-.826-.589-1.557-2-1.557A5.132,5.132,0,0,0,.67-3.916l-.1.893a4.646,4.646,0,0,1,1.9,1.292C1.42-1.266.29-.763.29.4.29,1.307,1.059,2.067,2.978,2.067ZM1.829-3.479a2.97,2.97,0,0,1,1.444-.57.79.79,0,0,1,.9.8,1.226,1.226,0,0,1-.693,1A6.27,6.27,0,0,0,1.829-3.479ZM9,1.07a.627.627,0,1,0-1.254,0A.627.627,0,1,0,9,1.07Zm-1.567,0a.632.632,0,1,0-1.263,0,.631.631,0,0,0,.627.646A.638.638,0,0,0,7.432,1.07ZM5.988-.355H9.027V-4.818H7.774v3.476H5.988ZM9.872,2.057A2.069,2.069,0,0,0,12.218-.317V-.355h.94v-.988h-.94V-4.818H10.965V-.25c0,1.026-.38,1.33-1.016,1.33A2.576,2.576,0,0,1,9.179.965l-.1,1A3.4,3.4,0,0,0,9.872,2.057ZM13.016-.355h.294c.7,0,1.092-.247,1.263-.7a1.291,1.291,0,0,0,1.349.788A1.42,1.42,0,0,0,17.3-1.057c.209.513.712.7,1.539.7H20.6a18.959,18.959,0,0,0,.142-2.213,11.7,11.7,0,0,0-.3-2.631l-1.225.171a11.8,11.8,0,0,1,.275,2.545c0,.294-.028.76-.066,1.14h-.332c-.836,0-1.045-.266-1.045-1.054V-4.628h-1.2v2.27c0,.684-.152,1.092-.7,1.092s-.722-.389-.722-1.1v-1.88H14.175V-2.53c0,.94-.237,1.187-.855,1.187h-.3ZM27.907-.982c0,1.4-.494,1.833-1.187,1.833-.665,0-1.3-.38-1.3-1.833A6.886,6.886,0,0,1,25.685-2.8l-1.292.237a6.539,6.539,0,0,0-.228,1.7c0,1.9.931,2.7,2.45,2.7a2.284,2.284,0,0,0,2.5-2.184h.95v-.988h-.9V-7.05H27.907Zm2,.627H33.89v-.988h-.94V-4.818H31.7v3.476H29.911ZM31.354,1.07a.632.632,0,1,0-1.263,0,.631.631,0,0,0,.627.646A.638.638,0,0,0,31.354,1.07Zm1.567,0a.627.627,0,1,0-1.254,0,.627.627,0,1,0,1.254,0Zm7.5-3.713c0-1.425-.617-2.3-1.928-2.3a2.684,2.684,0,0,0-2.441,1.766h-.009a9.086,9.086,0,0,0,.1-1.406v-.237H34.9v3.476H33.738v.988h6.553A18.18,18.18,0,0,0,40.424-2.643ZM39.142-2.5c0,.342-.019.779-.047,1.159H36.141c.237-1.33,1.083-2.593,2.1-2.593C38.914-3.935,39.142-3.394,39.142-2.5Zm3.78,4.539c2.127,0,2.973-1.064,2.973-2.374V-.355h.94v-.988h-.94V-4.609a6.105,6.105,0,0,0-1.985-.332,2.288,2.288,0,0,0-2.517,2.384c0,1.349.693,2.2,2.545,2.2h.741v.142c0,.893-.655,1.263-1.643,1.263A7.978,7.978,0,0,1,41.554.889l-.076,1.026A9.987,9.987,0,0,0,42.922,2.038Zm1.757-3.381h-.608c-1,0-1.425-.465-1.425-1.33a1.142,1.142,0,0,1,1.13-1.282,2.29,2.29,0,0,1,.9.171Zm2,.988h2.583V-4.818H48.012v3.476h-1.33ZM49.247-5.54a.636.636,0,0,0,.627-.646.631.631,0,0,0-.627-.646.636.636,0,0,0-.627.646A.631.631,0,0,0,49.247-5.54Zm-1.576,0a.638.638,0,0,0,.636-.646.633.633,0,0,0-.636-.646.636.636,0,0,0-.627.646A.631.631,0,0,0,47.67-5.54Z" transform="translate(-0.29 7.05)"/>
          </g>
          <g id="Layer_10" data-name="Layer 10" transform="translate(56.705)">
            <path id="Path_2878" data-name="Path 2878" d="M251.21,257.605V256H248.5a.5.5,0,0,0-.5.5v1.5Z" transform="translate(-238.77 -244.764)" fill="#8d8d8d"/>
            <path id="Path_2879" data-name="Path 2879" d="M426,282.809a.4.4,0,0,0,.18-.76l-1.383-.692V280.4a.4.4,0,1,0-.8,0v1.2a.4.4,0,0,0,.222.359l1.605.8A.4.4,0,0,0,426,282.809Z" transform="translate(-422.792 -267.56)" fill="#c3c3c3"/>
            <ellipse id="Ellipse_563" data-name="Ellipse 563" cx="2.829" cy="2.829" rx="2.829" ry="2.829" transform="translate(1.973 16.412)" fill="none"/>
            <ellipse id="Ellipse_564" data-name="Ellipse 564" cx="0.789" cy="0.789" rx="0.789" ry="0.789" transform="translate(4.078 18.517)" fill="#fff"/>
            <ellipse id="Ellipse_565" data-name="Ellipse 565" cx="2.829" cy="2.829" rx="2.829" ry="2.829" transform="translate(17.235 16.412)" fill="none"/>
            <path id="Path_2880" data-name="Path 2880" d="M26.809,320l1.605.8h.8a2.809,2.809,0,0,1,2.809,2.809H28.414l-.8.8H24Z" transform="translate(-8.35 -305.554)" fill="#c00"/>
            <path id="Path_2881" data-name="Path 2881" d="M203.169,186.843h-.86a.4.4,0,0,0,0,.807h.86Z" transform="translate(-188.417 -179.076)" fill="#c3c3c3"/>
            <path id="Path_2882" data-name="Path 2882" d="M136.222,187.6l1.32.66a.44.44,0,0,0,.087.032.417.417,0,0,0,.093.011h1.605a.4.4,0,0,0,0-.8h-1.51l-1.235-.617a.4.4,0,1,0-.359.718Z" transform="translate(-121.669 -179.076)" fill="#c3c3c3"/>
            <path id="Path_2883" data-name="Path 2883" d="M180.414,72l.4,1.605h-.8v.318a.885.885,0,0,1-.885.885H176l.754-.754A2.906,2.906,0,0,0,177.605,72Z" transform="translate(-164.764 -69.994)" fill="#fff"/>
            <path id="Path_2884" data-name="Path 2884" d="M228.742,112.878l-1.693,4.74h2.809l1.375-3.85a1.323,1.323,0,1,0-2.491-.89Z" transform="translate(-217.819 -107.987)" fill="#7b7b7b"/>
            <path id="Path_2885" data-name="Path 2885" d="M108.039,222.561v.125a1.321,1.321,0,0,1-1.144,1.31l-.03,0a1.418,1.418,0,0,0-1.233,1.4v.556a1.416,1.416,0,0,0,1.416,1.416h3.8l1.146-1.528a4.009,4.009,0,0,0,.6-3.676l-.736-2.2a.652.652,0,0,1,.412-.826l.015,0a.67.67,0,0,1,.825.358c.359.792,1.023,2.254,1.423,3.135a1.246,1.246,0,0,0,1.135.73v1.605h-1.2l-3.21,4.013H105.23l-1.2-.8H96a7.107,7.107,0,0,1,6.95-5.618Z" transform="translate(-95.599 -209.72)" fill="#c00"/>
            <path id="Path_2886" data-name="Path 2886" d="M351.223,153.3v5.518H344V153.3a1.3,1.3,0,0,1,1.3-1.3h4.615A1.3,1.3,0,0,1,351.223,153.3Z" transform="translate(-343.599 -145.981)" fill="#fd8282"/>
            <path id="Path_2887" data-name="Path 2887" d="M349.919,152H345.3a1.3,1.3,0,0,0-1.3,1.3v1.1h7.223v-1.1a1.3,1.3,0,0,0-1.3-1.3Z" transform="translate(-343.599 -145.981)" fill="#c00"/>
            <path id="Path_2888" data-name="Path 2888" d="M296,324.013h7.223a2.006,2.006,0,1,0,0-4.013c-.134,0-.268,0-.4.01a8.463,8.463,0,0,0-2.809.622q-.361.147-.7.326a8.475,8.475,0,0,0-3.03,2.658Z" transform="translate(-295.198 -305.554)" fill="#c00"/>
            <path id="Path_2889" data-name="Path 2889" d="M344,320.812v.773a.2.2,0,0,0,.2.2h2.408a.2.2,0,0,0,.2-.2V320.19A8.463,8.463,0,0,0,344,320.812Z" transform="translate(-339.184 -305.734)" fill="#717171"/>
            <ellipse id="Ellipse_566" data-name="Ellipse 566" cx="0.855" cy="0.789" rx="0.855" ry="0.789" transform="translate(19.208 18.517)" fill="#fff"/>
            <path id="Path_2890" data-name="Path 2890" d="M106.809,192H105a1,1,0,1,0,0,2.006h1.806Z" transform="translate(-87.146 -183.974)"/>
            <path id="Path_2891" data-name="Path 2891" d="M255.682,165.986l-.144.5h1.605l.174-.608Z" transform="translate(-245.255 -159.166)" fill="#fdc9a6"/>
            <path id="Path_2892" data-name="Path 2892" d="M207.539,224.8a.8.8,0,0,0,.8.8h2.809l-.8,4.815h1.605l.792-4.362A1.72,1.72,0,0,0,211.058,224h-2.717A.8.8,0,0,0,207.539,224.8Z" transform="translate(-198.31 -214.369)" fill="#d9d9d9"/>
            <path id="Path_2893" data-name="Path 2893" d="M210.408,353.605v-.8a.8.8,0,0,0-.8-.8H208v1.605Z" transform="translate(-195.961 -335.949)" fill="#dbdbdb"/>
            <path id="Path_2894" data-name="Path 2894" d="M184,41.605h2.809V40.5a.5.5,0,0,0-.5-.5H184.5a.5.5,0,0,0-.5.5Z" transform="translate(-171.159 -39.599)" fill="#c00"/>
            <path id="Path_2895" data-name="Path 2895" d="M144.4,64.8h4.414a.4.4,0,1,0,0-.8H144.4a.4.4,0,0,0,0,.8Z" transform="translate(-131.56 -62.395)" fill="#e08122"/>
            <path id="Path_2896" data-name="Path 2896" d="M384.4,224.8h2.408a.4.4,0,0,0,0-.8H384.4a.4.4,0,1,0,0,.8Z" transform="translate(-381.592 -214.369)" fill="#c38325"/>
            <path id="Path_2897" data-name="Path 2897" d="M245.008,114.809h1.605l.522-1.825a.772.772,0,0,0-1.484-.424Z" transform="translate(-234.574 -107.987)" fill="#b5b5b5"/>
            <path id="Path_2898" data-name="Path 2898" d="M192.8,168h3.612a.8.8,0,0,1,.8.8v.8H192.8a.8.8,0,0,1,0-1.605Z" transform="translate(-181.968 -161.178)" fill="#d9d9d9"/>
            <path id="Path_2899" data-name="Path 2899" d="M104.8,192H104v2.006h.8Z" transform="translate(-85.139 -183.974)" fill="#fff"/>
            <path id="Path_2900" data-name="Path 2900" d="M210.408,376H208v.4h2.408Z" transform="translate(-195.961 -358.745)" fill="#c3c3c3"/>
            <path id="Path_2901" data-name="Path 2901" d="M456.8,288H456v.4h.8Z" transform="translate(-454.796 -275.159)" fill="#a8a8a8"/>
            <path id="Path_2902" data-name="Path 2902" d="M384.4,224h2.408a.4.4,0,0,1,0,.8H384.4a.4.4,0,1,1,0-.8Z" transform="translate(-381.592 -214.369)"/>
            <path id="Path_2903" data-name="Path 2903" d="M270.835,72.4c0,.222-.612.4-1.367.4h-4.1c-.755,0-1.367-.18-1.367-.4s.612-.4,1.367-.4h4.1C270.223,72,270.835,72.18,270.835,72.4Z" transform="translate(-259.198 -69.994)"/>
            <path id="Path_2904" data-name="Path 2904" d="M272.572,40h2.862c.316,0,.572.18.572.4s-.256.4-.572.4h-2.862c-.316,0-.572-.18-.572-.4S272.256,40,272.572,40Z" transform="translate(-264.369 -39.599)"/>
            <path id="Path_2905" data-name="Path 2905" d="M305.891,104.4c0,.222-.738.4-1.649.4h-6.594c-.911,0-1.649-.18-1.649-.4s.738-.4,1.649-.4h6.594C305.153,104,305.891,104.18,305.891,104.4Z" transform="translate(-295.859 -100.388)"/>
            <path id="Path_2906" data-name="Path 2906" d="M17.706,37.618l4.715,0-.037.082-.228.212c-.207-.032-.625-.09-.052-.3l.011.037.041.261c-.012-.1-.262.16,0-.08l.228-.132.037-.082a1.708,1.708,0,0,1,1.605,1.7V44.44h.8v-.7a.9.9,0,0,1,.229-.6,1.2,1.2,0,0,1-.111-1.225.4.4,0,0,1-.095-.418l1.693-4.739a1.7,1.7,0,0,1,.156-.322,1.178,1.178,0,0,1,1.118-.823h.038a2.49,2.49,0,0,0,.584-1.606V32.9a.9.9,0,0,1,.9-.9h1.806a.9.9,0,0,1,.9.9v.7h1.2a.4.4,0,0,1,0,.8H32.165l.277,1.107a.4.4,0,0,1-.389.5h-.4a1.288,1.288,0,0,1-1.284,1.2h-.475a1.726,1.726,0,0,1-.1.7l-.181.5h.835a1.205,1.205,0,0,1,1.2,1.2v.555l.5.248h.442a1.406,1.406,0,0,1,1.269-.8h1.806a.4.4,0,0,1,.4.4v2.006a.4.4,0,0,1-.4.4H34.245L35.3,44.747a.847.847,0,0,0,.769.5.4.4,0,0,1,.4.4v1.2h.4a3.214,3.214,0,0,1,3.21,3.21.4.4,0,0,1-.4.4h-.919a2.809,2.809,0,1,1-5.5.8H32.165l-.2.251a.4.4,0,0,1-.313.15H25.631a.4.4,0,0,1-.223-.067l-1.1-.735H23.6a2.809,2.809,0,1,1-5.56,0H16.4a.4.4,0,0,1-.392-.485,7.536,7.536,0,0,1,1.985-3.687l-.568-.284a.4.4,0,0,1-.222-.359v-.8h-.8a.4.4,0,0,1-.4-.4V39.323A1.707,1.707,0,0,1,17.706,37.618Zm5.518,1.705a.9.9,0,0,0-.9-.9H17.706a.9.9,0,0,0-.9.9v.7h6.421Zm-5.989,9.882a8.889,8.889,0,0,1,6.283-3.145c.034-.01.4-.015.509-.015a2.4,2.4,0,0,1,1.8.817,1.83,1.83,0,0,1,1.382-.979l.029,0A.923.923,0,0,0,28,45.242H23.351A6.7,6.7,0,0,0,17.234,49.205Zm5.989-2.317a8.069,8.069,0,0,0-2.006.465v.3h2.006ZM25.8,41.23h1.957l.143-.4H26.835a1.2,1.2,0,0,1-.788-.293Zm2.24.8H26.032a.4.4,0,1,0,0,.8h2.809a.4.4,0,0,1,.4.467l-.725,4.348h.8l.732-4.033V43.61a1.319,1.319,0,0,0-1.294-1.578Zm2.006,6.822a.4.4,0,0,0-.4-.4h-1.2v.8h1.605Zm-2.407-.814c0-.006,0-.013,0-.019s0-.016,0-.024,0-.007,0-.011l.247-1.479a1.71,1.71,0,0,1-.541.168l-.029,0a1.021,1.021,0,0,0-.885,1.007v.556a1.016,1.016,0,0,0,1.015,1.015h.189v-1.2S27.638,48.044,27.638,48.04Zm.6-3.6.134-.8H25.731a.1.1,0,0,0-.1.1v.7Zm-.772-7.757-.5,1.738h.77l.438-1.534a.37.37,0,1,0-.712-.2Zm1.3,1.738.277-.775a.9.9,0,0,0-.02-.671c-.01-.022-.02-.044-.032-.066a1.2,1.2,0,0,1-.039.2l-.375,1.314Zm2.49-5.518a.1.1,0,0,0-.1-.1H29.343a.1.1,0,0,0-.1.1v.7h2.006Zm-.4,3.027v-.319a.4.4,0,0,1,.4-.4h.289l-.2-.8H29.219a3.282,3.282,0,0,1-.454,1.311,1.727,1.727,0,0,1,.86.7h.739A.485.485,0,0,0,30.848,35.93Zm0,3.694a.4.4,0,0,0-.4-.4H26.835a.4.4,0,1,0,0,.8h4.013Zm1.2,1.605a.4.4,0,0,1-.18-.042l-.718-.359h-2.4l-.143.4h.14a2.122,2.122,0,0,1,2.082,2.535l-.722,3.979a1.206,1.206,0,0,1,.74,1.111v.4h.2l1.026-1.368a3.607,3.607,0,0,0,.535-3.308l-.735-2.2a1.052,1.052,0,0,1,.332-1.149Zm3.21-.8h-1.4a.6.6,0,1,0,0,1.2h1.4Zm.8,12.841A2.006,2.006,0,0,0,37.9,50.459h-.942a1.2,1.2,0,1,1-2.1.8h-.8A2.009,2.009,0,0,0,36.065,53.268Zm0-2.408a.4.4,0,1,0,.4.4A.4.4,0,0,0,36.065,50.86Zm-.969-.4.685-.685a.4.4,0,0,1,.284-.118h3.177a2.412,2.412,0,0,0-2.374-2.006H35.054l-2.247,2.809Zm-9.343.4h5.705L34.548,47a.4.4,0,0,1,.313-.15h.8V46a1.651,1.651,0,0,1-1.1-.916l-1.251-2.755a1.412,1.412,0,0,1-.6-.475.248.248,0,0,0-.082.276l.735,2.2a4.41,4.41,0,0,1-.655,4.044L31.57,49.9a.4.4,0,0,1-.321.161h-3.8a1.811,1.811,0,0,1-1.273-.522,2.424,2.424,0,0,1-.926.989Zm-6.943.4a2.006,2.006,0,1,0,3.973-.4h-.831a1.2,1.2,0,1,1-2.27,0h-.832a2.017,2.017,0,0,0-.04.4Zm1.605,0a.4.4,0,1,0,.4-.4A.4.4,0,0,0,20.414,51.262Zm3.612-1.2a1.605,1.605,0,1,0,0-3.21v1a.6.6,0,0,1-.6.6H21.016a.6.6,0,0,1-.6-.6V47.7a8.076,8.076,0,0,0-2.835,2.357ZM18.007,45.8l.581.29a.406.406,0,0,1,.041.024l0,0a7.488,7.488,0,0,1,1.345-.867H18.007Zm5.217-1.357V40.828H16.8V44.44Z" transform="translate(-16 -32)"/>
          </g>
        </g>
      </g>
      <g id="Group_8410" data-name="Group 8410" transform="translate(0 3.5)">
        <g id="Group_3576" data-name="Group 3576" transform="translate(8.289 3.499)">
          <g id="Group_2476" data-name="Group 2476" transform="translate(0 0)">
            <g id="Group_8406" data-name="Group 8406" transform="translate(0 0)">
              <g id="tag" transform="translate(93.117 9.395) rotate(115)">
                <path id="Path_902" data-name="Path 902" d="M10.013,19.451H3.879L0,15.571V1.389A1.391,1.391,0,0,1,1.389,0H12.5a1.39,1.39,0,0,1,1.389,1.389V15.571Z" transform="translate(0 0)" fill="#c00"/>
                <ellipse id="Ellipse_69" data-name="Ellipse 69" cx="2.439" cy="1.951" rx="2.439" ry="1.951" transform="translate(4.877 14.427)" fill="#fafafa"/>
                <path id="Path_903" data-name="Path 903" d="M.695,0A.7.7,0,0,0,0,.695V6.252a.695.695,0,1,0,1.389,0V.695A.7.7,0,0,0,.695,0Z" transform="translate(6.252 15.283)" fill="#37474f"/>
                <g id="Group_1235" data-name="Group 1235" transform="translate(2.779 2.779)">
                  <path id="Path_904" data-name="Path 904" d="M2.084,0A2.084,2.084,0,1,0,4.168,2.084,2.087,2.087,0,0,0,2.084,0Zm0,2.779a.695.695,0,1,1,.695-.695A.695.695,0,0,1,2.084,2.779Z" transform="translate(0 5.557)" fill="#fafafa"/>
                  <path id="Path_905" data-name="Path 905" d="M2.084,0A2.084,2.084,0,1,0,4.168,2.084,2.087,2.087,0,0,0,2.084,0Zm0,2.779a.695.695,0,1,1,.695-.695A.7.7,0,0,1,2.084,2.779Z" transform="translate(4.168 0)" fill="#fafafa"/>
                  <path id="Path_906" data-name="Path 906" d="M.695,0A.695.695,0,0,0,.161,1.139L7.108,9.476a.694.694,0,1,0,1.066-.891L1.227.249A.694.694,0,0,0,.695,0Z" transform="translate(0 0)" fill="#fafafa"/>
                </g>
              </g>
              <path id="Path_8085" data-name="Path 8085" d="M5.812-.355v-.988H4.882V-4.609A6.105,6.105,0,0,0,2.9-4.942,2.288,2.288,0,0,0,.38-2.558c0,1.349.693,2.2,2.545,2.2ZM3.666-1.342H3.058c-1,0-1.425-.465-1.425-1.33a1.142,1.142,0,0,1,1.13-1.282,2.29,2.29,0,0,1,.9.171Zm-.1-4.2a.636.636,0,0,0,.627-.646.631.631,0,0,0-.627-.646.636.636,0,0,0-.627.646A.631.631,0,0,0,3.561-5.54Zm-1.576,0a.638.638,0,0,0,.636-.646.633.633,0,0,0-.636-.646.636.636,0,0,0-.627.646A.631.631,0,0,0,1.985-5.54ZM5.67-.355H6.8v-.988H5.67ZM9.036,1.07a.627.627,0,1,0-1.254,0,.627.627,0,1,0,1.254,0Zm-1.567,0a.632.632,0,1,0-1.263,0,.631.631,0,0,0,.627.646A.638.638,0,0,0,7.469,1.07ZM6.026-.355H9.065V-4.818H7.811v3.476H6.026ZM9.91,2.057A2.069,2.069,0,0,0,12.256-.317v-4.5H11V-.25c0,1.026-.38,1.33-1.016,1.33A2.576,2.576,0,0,1,9.217.965l-.1,1A3.4,3.4,0,0,0,9.91,2.057Zm4.938-.019c2.127,0,2.973-1.064,2.973-2.374V-.355h.94v-.988h-.94V-4.609a6.105,6.105,0,0,0-1.985-.332A2.288,2.288,0,0,0,13.32-2.558c0,1.349.693,2.2,2.545,2.2h.741v.142c0,.893-.655,1.263-1.643,1.263A7.978,7.978,0,0,1,13.481.889l-.076,1.026A9.987,9.987,0,0,0,14.849,2.038Zm1.757-3.381H16c-1,0-1.425-.465-1.425-1.33A1.142,1.142,0,0,1,15.7-3.954a2.29,2.29,0,0,1,.9.171Zm2,.988h1.13v-.988h-1.13Zm3.243-5.3a.657.657,0,0,0,.655-.655.657.657,0,0,0-.655-.655.657.657,0,0,0-.655.655A.651.651,0,0,0,21.853-5.654Zm2.27,5.3v-2.4a1.944,1.944,0,0,0-2.146-2.184,2.262,2.262,0,0,0-2.469,2.308,1.545,1.545,0,0,0,.532,1.358,1.84,1.84,0,0,0-.532-.066h-.541v.988ZM22.9-1.342h-.722c-.988,0-1.425-.437-1.425-1.33a1.142,1.142,0,0,1,1.13-1.282c.636,0,1.016.4,1.016,1.349Zm10.978.988V-4.818H32.622v3.476H31.331c-1.776,0-2.355-.627-2.355-1.966A4.126,4.126,0,0,1,29.3-4.875l-1.339.218a4.756,4.756,0,0,0-.247,1.491c0,1.738.9,2.811,3.485,2.811ZM31.843-5.54a.636.636,0,0,0,.627-.646.631.631,0,0,0-.627-.646.636.636,0,0,0-.627.646A.631.631,0,0,0,31.843-5.54Zm-1.576,0a.638.638,0,0,0,.636-.646.633.633,0,0,0-.636-.646.636.636,0,0,0-.627.646A.631.631,0,0,0,30.267-5.54ZM35.386-.355h2.2v-.988h-.95V-7.05H35.386Zm2.061,0h1.13v-.988h-1.13Zm5.945,0V-2.681A1.99,1.99,0,0,0,41.2-4.942a2.291,2.291,0,0,0-2.422,2.46c0,.864-.256,1.14-.712,1.14h-.19v.988h.142a1.293,1.293,0,0,0,1.254-.731c.285.465.836.731,1.956.731Zm-1.225-.988H41.35c-.978,0-1.339-.418-1.339-1.254,0-.807.408-1.358,1.1-1.358s1.054.418,1.054,1.415Zm3.77,3.381c2.127,0,2.973-1.064,2.973-2.374V-.355h.94v-.988h-.94V-4.609a6.105,6.105,0,0,0-1.985-.332,2.288,2.288,0,0,0-2.517,2.384c0,1.349.693,2.2,2.545,2.2h.741v.142c0,.893-.655,1.263-1.643,1.263A7.978,7.978,0,0,1,44.569.889l-.076,1.026A9.987,9.987,0,0,0,45.937,2.038Zm1.757-3.381h-.608c-1,0-1.425-.465-1.425-1.33a1.142,1.142,0,0,1,1.13-1.282,2.29,2.29,0,0,1,.9.171Zm8.69-1.3c0-1.425-.617-2.3-1.928-2.3a2.684,2.684,0,0,0-2.441,1.766h-.009a9.086,9.086,0,0,0,.1-1.406v-.237H50.856v3.476H49.7v.988h7.522v-.988h-.874C56.374-1.77,56.383-2.216,56.383-2.643ZM55.1-2.5c0,.342-.019.779-.047,1.159H52.1c.237-1.33,1.083-2.593,2.1-2.593C54.873-3.935,55.1-3.394,55.1-2.5ZM57.077-.355h1.13v-.988h-1.13Zm.427,0h4.805a10.919,10.919,0,0,0,.161-1.757c0-1.823-.845-2.764-2.982-2.764a9.9,9.9,0,0,0-1.216.085v.978a7.994,7.994,0,0,1,1.092-.076c1.368,0,1.861.617,1.861,1.823a6.008,6.008,0,0,1-.047.722H57.5Zm2.251-5.261a.657.657,0,0,0,.655-.655.657.657,0,0,0-.655-.655.657.657,0,0,0-.655.655A.651.651,0,0,0,59.755-5.616Z" transform="translate(-0.38 14.672)"/>
            </g>
          </g>
        </g>
      </g>
    </g>
  </g>
</svg>
