<svg xmlns="http://www.w3.org/2000/svg" width="21.409" height="21.997" viewBox="0 0 21.409 21.997">
  <g id="profits-analytics-svgrepo-com" transform="translate(-6.847 0)">
    <g id="Group_6826" data-name="Group 6826" transform="translate(18.464 9.915)">
      <g id="Group_6825" data-name="Group 6825">
        <path id="Path_4550" data-name="Path 4550" d="M280.854,230.78h-3.249a.367.367,0,0,0-.367.367v11.348a.367.367,0,0,0,.367.367h3.249a.367.367,0,0,0,.367-.367V231.147A.367.367,0,0,0,280.854,230.78Zm-.367,11.348h-2.515V231.514h2.515Z" transform="translate(-277.238 -230.78)" fill="#919191"/>
      </g>
    </g>
    <g id="Group_6828" data-name="Group 6828" transform="translate(24.272 6.728)">
      <g id="Group_6827" data-name="Group 6827">
        <path id="Path_4551" data-name="Path 4551" d="M416.05,156.6H412.8a.367.367,0,0,0-.367.367v4.282a.367.367,0,1,0,.734,0v-3.915h2.515v13.8h-2.515v-8.417a.367.367,0,1,0-.734,0V171.5a.367.367,0,0,0,.367.367h3.249a.367.367,0,0,0,.367-.367V156.966A.367.367,0,0,0,416.05,156.6Z" transform="translate(-412.434 -156.599)" fill="#919191"/>
      </g>
    </g>
    <g id="Group_6830" data-name="Group 6830" transform="translate(12.655 13.557)">
      <g id="Group_6829" data-name="Group 6829">
        <path id="Path_4552" data-name="Path 4552" d="M145.657,315.555h-3.249a.367.367,0,0,0-.367.367v2.371a.367.367,0,0,0,.734,0v-2h2.515v6.971h-2.515v-3.42a.367.367,0,1,0-.734,0v3.788a.367.367,0,0,0,.367.367h3.249a.367.367,0,0,0,.367-.367v-7.706A.367.367,0,0,0,145.657,315.555Z" transform="translate(-142.041 -315.555)" fill="#919191"/>
      </g>
    </g>
    <g id="Group_6832" data-name="Group 6832" transform="translate(7.609 0)">
      <g id="Group_6831" data-name="Group 6831" transform="translate(0)">
        <path id="Path_4553" data-name="Path 4553" d="M40.622,3.787,36.893.106a.367.367,0,0,0-.5-.013L32.24,3.774a.367.367,0,0,0,.244.642h1.48A10.509,10.509,0,0,1,32.8,6.223a.367.367,0,1,0,.576.456,11,11,0,0,0,1.5-2.486.367.367,0,0,0-.337-.512H33.452L36.622.87l2.847,2.811h-.985a.367.367,0,0,0-.357.28A9.08,9.08,0,0,1,35.81,7.705a11.725,11.725,0,0,1-3.985,2.609,16.765,16.765,0,0,1-4.742,1.1,18.885,18.885,0,0,0,5.278-3.6.367.367,0,0,0-.519-.52,19.474,19.474,0,0,1-7,4.229.367.367,0,0,0,.109.718A19.053,19.053,0,0,0,32.1,11a12.455,12.455,0,0,0,4.232-2.774,10.173,10.173,0,0,0,2.424-3.806h1.606a.367.367,0,0,0,.258-.629Z" transform="translate(-24.58 0)" fill="#919191"/>
      </g>
    </g>
    <g id="Group_6834" data-name="Group 6834" transform="translate(6.847 17.404)">
      <g id="Group_6833" data-name="Group 6833" transform="translate(0)">
        <path id="Path_4554" data-name="Path 4554" d="M10.463,405.09H7.214a.367.367,0,0,0-.367.367v3.859a.367.367,0,0,0,.367.367h3.249a.367.367,0,0,0,.367-.367v-3.859A.367.367,0,0,0,10.463,405.09Zm-2.882,3.859v-3.124H10.1v3.124Z" transform="translate(-6.847 -405.09)" fill="#919191"/>
      </g>
    </g>
  </g>
</svg>
