<svg id="surface1" xmlns="http://www.w3.org/2000/svg" width="21.695" height="27.119" viewBox="0 0 21.695 27.119">
  <path id="Path_1922" data-name="Path 1922" d="M591.866,363.484l.613.67-2.789,2.556a3.191,3.191,0,0,0-1.031,2.347V380.19h-.909V369.058a4.1,4.1,0,0,1,1.327-3.017Zm0,0" transform="translate(-587.75 -353.071)" fill="#919191"/>
  <path id="Path_1923" data-name="Path 1923" d="M5.537,0H17.28a2.262,2.262,0,0,1,2.258,2.26v22.6a2.262,2.262,0,0,1-2.258,2.26H5.989v-.809a10.281,10.281,0,0,0-1.731-5.72.452.452,0,0,1,.056-.57l3.162-3.164a1.467,1.467,0,0,0-.107-2.17,1.52,1.52,0,0,0-2.022.156L.889,19.3.25,18.665l3.029-3.032V2.26A2.262,2.262,0,0,1,5.537,0ZM4.182,14.728l.526-.526a2.43,2.43,0,0,1,3.236-.214A2.371,2.371,0,0,1,8.115,17.5L5.211,20.4a11.182,11.182,0,0,1,1.678,5.814H17.28a1.356,1.356,0,0,0,1.355-1.356V23.5H7.344v-.9H18.635V3.616H4.182Zm0-12.016H18.635V2.26A1.356,1.356,0,0,0,17.28.9H5.537A1.356,1.356,0,0,0,4.182,2.26Zm0,0" transform="translate(2.157)" fill="#919191"/>
  <path id="Path_1924" data-name="Path 1924" d="M65.478,159.888H63.659a.909.909,0,0,1-.909-.909v-1.819a.909.909,0,0,1,.909-.909h1.819a.909.909,0,0,1,.909.909v1.819A.909.909,0,0,1,65.478,159.888Zm0-2.728H63.659v1.819h1.819Zm0,0" transform="translate(-46.511 -151.734)" fill="#919191"/>
  <path id="Path_1925" data-name="Path 1925" d="M221.728,159.888h-1.819a.909.909,0,0,1-.909-.909v-1.819a.909.909,0,0,1,.909-.909h1.819a.909.909,0,0,1,.909.909v1.819A.909.909,0,0,1,221.728,159.888Zm0-2.728h-1.819v1.819h1.819Zm0,0" transform="translate(-207.263 -151.734)" fill="#919191"/>
  <path id="Path_1926" data-name="Path 1926" d="M377.978,159.888h-1.819a.909.909,0,0,1-.909-.909v-1.819a.909.909,0,0,1,.909-.909h1.819a.909.909,0,0,1,.909.909v1.819A.909.909,0,0,1,377.978,159.888Zm0-2.728h-1.819v1.819h1.819Zm0,0" transform="translate(-368.027 -151.734)" fill="#919191"/>
  <path id="Path_1927" data-name="Path 1927" d="M65.478,316.138H63.659a.909.909,0,0,1-.909-.909v-1.819a.909.909,0,0,1,.909-.909h1.819a.909.909,0,0,1,.909.909v1.819A.909.909,0,0,1,65.478,316.138Zm0-2.728H63.659v1.819h1.819Zm0,0" transform="translate(-46.511 -303.469)" fill="#919191"/>
  <path id="Path_1928" data-name="Path 1928" d="M65.478,472.388H63.659a.909.909,0,0,1-.909-.909v-1.819a.909.909,0,0,1,.909-.909h1.819a.909.909,0,0,1,.909.909v1.819A.909.909,0,0,1,65.478,472.388Zm0-2.728H63.659v1.819h1.819Zm0,0" transform="translate(-46.511 -455.203)" fill="#919191"/>
  <path id="Path_1929" data-name="Path 1929" d="M221.728,316.138h-1.819a.909.909,0,0,1-.909-.909v-1.819a.909.909,0,0,1,.909-.909h1.819a.909.909,0,0,1,.909.909v1.819A.909.909,0,0,1,221.728,316.138Zm0-2.728h-1.819v1.819h1.819Zm0,0" transform="translate(-207.263 -303.469)" fill="#919191"/>
  <path id="Path_1930" data-name="Path 1930" d="M377.978,316.138h-1.819a.909.909,0,0,1-.909-.909v-1.819a.909.909,0,0,1,.909-.909h1.819a.909.909,0,0,1,.909.909v1.819A.909.909,0,0,1,377.978,316.138Zm0-2.728h-1.819v1.819h1.819Zm0,0" transform="translate(-368.027 -303.469)" fill="#919191"/>
  <path id="Path_1931" data-name="Path 1931" d="M221.728,472.388h-1.819a.909.909,0,0,1-.909-.909v-1.819a.909.909,0,0,1,.909-.909h1.819a.909.909,0,0,1,.909.909v1.819A.909.909,0,0,1,221.728,472.388Zm0-2.728h-1.819v1.819h1.819Zm0,0" transform="translate(-207.263 -455.203)" fill="#919191"/>
  <path id="Path_1932" data-name="Path 1932" d="M65.478,628.638H63.659a.909.909,0,0,1-.909-.909V625.91a.909.909,0,0,1,.909-.909h1.819a.909.909,0,0,1,.909.909v1.819A.909.909,0,0,1,65.478,628.638Zm0-2.728H63.659v1.819h1.819Zm0,0" transform="translate(-46.511 -606.938)" fill="#919191"/>
  <path id="Path_1933" data-name="Path 1933" d="M221.728,628.638h-1.819a.909.909,0,0,1-.909-.909V625.91a.909.909,0,0,1,.909-.909h1.819a.909.909,0,0,1,.909.909v1.819A.909.909,0,0,1,221.728,628.638Zm0-2.728h-1.819v1.819h1.819Zm0,0" transform="translate(-207.263 -606.938)" fill="#919191"/>
  <path id="Path_1934" data-name="Path 1934" d="M266.784,843.75h-.909v.909h.909Zm0,0" transform="translate(-252.771 -819.359)" fill="#919191"/>
</svg>
