<svg xmlns="http://www.w3.org/2000/svg" xmlns:xlink="http://www.w3.org/1999/xlink" width="153.12" height="118.182" viewBox="0 0 153.12 118.182">
  <defs>
    <filter id="Union_62" x="62.777" y="42.596" width="69.233" height="70.817" filterUnits="userSpaceOnUse">
      <feOffset dy="3" input="SourceAlpha"/>
      <feGaussianBlur stdDeviation="3" result="blur"/>
      <feFlood flood-opacity="0.549"/>
      <feComposite operator="in" in2="blur"/>
      <feComposite in="SourceGraphic"/>
    </filter>
    <linearGradient id="linear-gradient" x1="0.5" x2="0.5" y2="1" gradientUnits="objectBoundingBox">
      <stop offset="0" stop-color="#d00"/>
      <stop offset="1" stop-color="#6f0000"/>
    </linearGradient>
  </defs>
  <g id="Group_3097" data-name="Group 3097" transform="translate(-89.782 -192.404)">
    <g id="Group_2874" data-name="Group 2874" transform="translate(6509.101 2956)">
      <g id="rotated-right-arrow-with-broken-line" transform="translate(-6368.988 -2750.919) rotate(77)">
        <g id="Group_2875" data-name="Group 2875" transform="translate(0 0)">
          <path id="Path_2011" data-name="Path 2011" d="M.356,32.284c2.38-.6,5.118.357,7.5.6a.537.537,0,0,1,0,1.071,26.28,26.28,0,0,1-7.5-.6C-.12,33.117-.12,32.4.356,32.284Z" transform="translate(63.246 -31.207)"/>
          <path id="Path_2012" data-name="Path 2012" d="M79.789,41.632c1.666-1.666,4.285-2.023,6.427-1.9a.357.357,0,0,1,0,.714,15.07,15.07,0,0,0-3.332.714c-.952.357-1.785.833-2.737,1.19C79.789,42.584,79.432,41.989,79.789,41.632Z" transform="translate(-30.468 -37.341)"/>
          <path id="Path_2013" data-name="Path 2013" d="M149.309,76.861a7.5,7.5,0,0,1,2.38-2.737,16.277,16.277,0,0,1,2.856-2.142.3.3,0,1,1,.357.476,15.9,15.9,0,0,0-2.5,2.38c-.833.833-1.428,1.9-2.261,2.737C149.785,78.051,149.071,77.456,149.309,76.861Z" transform="translate(-112.485 -63.287)"/>
          <path id="Path_2014" data-name="Path 2014" d="M187.764,134.153a.481.481,0,1,1,.833.476c-.238.6-.6,1.309-.833,1.9a14.04,14.04,0,0,1-.476,2.38.458.458,0,0,1-.833,0C185.86,137.6,187.05,135.462,187.764,134.153Z" transform="translate(-153.321 -113.201)"/>
          <path id="Path_2015" data-name="Path 2015" d="M201.167,195.641a16.279,16.279,0,0,1,.238-3.451c.119-.6.833-.6.833,0a26.9,26.9,0,0,1,.119,3.094,9.727,9.727,0,0,1-.119,3.213.58.58,0,0,1-1.071,0A7.676,7.676,0,0,1,201.167,195.641Z" transform="translate(-169.937 -159.811)"/>
          <path id="Path_2016" data-name="Path 2016" d="M177.241,264.245a24.021,24.021,0,0,0,1.666,3.57,9.426,9.426,0,0,1,1.547,3.333c.119.6-.714.714-1.071.476a8.893,8.893,0,0,1-1.9-3.451,13.987,13.987,0,0,1-1.19-3.57C176.17,263.888,177.122,263.65,177.241,264.245Z" transform="translate(-143.155 -217.942)"/>
          <path id="Path_2017" data-name="Path 2017" d="M142.186,312.153c.714.833,1.428,1.785,2.142,2.5a5.284,5.284,0,0,0,1.309.952c.476.238.714.238,1.071.714a.658.658,0,0,1-.357.952c-1.071.238-2.023-.833-2.737-1.547a14.7,14.7,0,0,1-2.023-3.213C141.472,312.153,141.948,311.8,142.186,312.153Z" transform="translate(-102.744 -256.686)"/>
          <path id="Path_2018" data-name="Path 2018" d="M98.248,327.8a3.376,3.376,0,0,0,2.023.833c.6,0,1.309-.119,1.785.357a.575.575,0,0,1,0,.833c-1.19,1.19-3.57-.476-4.285-1.428C97.534,328.038,97.891,327.562,98.248,327.8Z" transform="translate(-49.642 -269.357)"/>
          <path id="Path_2019" data-name="Path 2019" d="M46.848,301.705a13.513,13.513,0,0,0,2.975-.714,4.93,4.93,0,0,0,2.142-2.261.652.652,0,0,1,1.19.357c.119,3.213-3.928,3.809-6.308,3.451C46.491,302.42,46.491,301.705,46.848,301.705Z" transform="translate(9.376 -245.762)"/>
          <path id="Path_2020" data-name="Path 2020" d="M37.515,250.666c.952-1.785.714-3.57,1.071-5.475a.5.5,0,0,1,.952,0,7.866,7.866,0,0,1-1.428,5.832C37.872,251.381,37.4,251.142,37.515,250.666Z" transform="translate(24.66 -202.578)"/>
          <path id="Path_2021" data-name="Path 2021" d="M38.809,168.908c2.142,2.023,2.618,5,2.5,7.736,0,.476-.833.476-.833,0a12.453,12.453,0,0,0-2.38-7.022A.505.505,0,1,1,38.809,168.908Z" transform="translate(22.889 -141.29)"/>
          <path id="Path_2022" data-name="Path 2022" d="M60.28,125.27a14.067,14.067,0,0,1,5.118,5.118c.357.476-.476.952-.714.476A46.087,46.087,0,0,0,59.8,126.1C59.328,125.627,59.8,125.031,60.28,125.27Z" transform="translate(-5.485 -106.221)"/>
          <path id="Path_2023" data-name="Path 2023" d="M98.311,90c1.666,0,3.57,1.428,4.642,2.618a.5.5,0,1,1-.714.714,7.819,7.819,0,0,0-2.023-1.428,19.419,19.419,0,0,1-2.261-1.071C97.6,90.593,97.954,90,98.311,90Z" transform="translate(-50.537 -77.853)"/>
          <path id="Path_2024" data-name="Path 2024" d="M170.864,64.294a23.831,23.831,0,0,1,2.856.476,16.252,16.252,0,0,1,3.451.833.491.491,0,0,1-.238.952,32.081,32.081,0,0,0-3.332-.476,6.452,6.452,0,0,1-2.975-.714A.558.558,0,0,1,170.864,64.294Z" transform="translate(-139.039 -57.147)"/>
          <path id="Path_2025" data-name="Path 2025" d="M230.793,57.534a18.543,18.543,0,0,1,5.118.119.418.418,0,1,1,0,.833,18.442,18.442,0,0,1-5.118.119A.545.545,0,0,1,230.793,57.534Z" transform="translate(-209.561 -51.577)"/>
          <path id="Path_2026" data-name="Path 2026" d="M287.619,60.618a8.823,8.823,0,0,1,2.5-.119,19.285,19.285,0,0,1,2.618.119.477.477,0,0,1,0,.952,19.282,19.282,0,0,0-2.618.119,8.824,8.824,0,0,1-2.5-.119C287.143,61.57,287.143,60.856,287.619,60.618Z" transform="translate(-277.455 -54.066)"/>
        </g>
      </g>
      <g id="Group_2837" data-name="Group 2837" transform="translate(-6346.924 -2735.395)">
        <path id="Path_1990" data-name="Path 1990" d="M88.7,76.665H62.778A2.778,2.778,0,0,1,60,73.888V62.778A2.778,2.778,0,0,1,62.778,60H88.7a2.778,2.778,0,0,1,2.778,2.778v11.11A2.778,2.778,0,0,1,88.7,76.665Z" transform="translate(-60 -60)" fill="#fff17d"/>
      </g>
      <g id="Group_2838" data-name="Group 2838" transform="translate(-6321.926 -2735.395)">
        <path id="Path_1991" data-name="Path 1991" d="M198.7,60H195V76.665h3.7a2.778,2.778,0,0,0,2.778-2.778V62.778A2.778,2.778,0,0,0,198.7,60Z" transform="translate(-195 -60)" fill="#ffda44"/>
      </g>
      <g transform="matrix(1, 0, 0, 1, -6419.32, -2763.6)" filter="url(#Union_62)">
        <path id="Union_62-2" data-name="Union 62" d="M30.727,51.123a5.783,5.783,0,0,1,0-8.178l4.061-4.061a5.782,5.782,0,1,1,3.33-3.329l3.242-3.243a5.783,5.783,0,0,1,8.178,8.179L38.906,51.123a5.783,5.783,0,0,1-8.179,0Zm-18.4,0L1.694,40.49a5.783,5.783,0,0,1,8.178-8.178l3.243,3.244a5.783,5.783,0,1,1,3.328,3.328L20.5,42.944a5.783,5.783,0,1,1-8.178,8.178Zm16.3-27.7a5.784,5.784,0,0,1,6.16-9.491l-4.06-4.06a5.783,5.783,0,1,1,8.178-8.179L49.539,12.326A5.783,5.783,0,0,1,41.36,20.5l-3.242-3.242a5.784,5.784,0,0,1-9.491,6.16Zm-14.2,0a5.785,5.785,0,0,1-1.311-6.16L9.872,20.506a5.783,5.783,0,0,1-8.178-8.179L12.326,1.695A5.783,5.783,0,0,1,20.5,9.873l-4.06,4.06a5.783,5.783,0,1,1-2.019,9.491Z" transform="translate(71.78 48.6)" fill="#fff" opacity="0.629"/>
      </g>
      <g id="Group_2851" data-name="Group 2851" transform="translate(-6398.595 -2763.596)">
        <path id="Path_2006" data-name="Path 2006" d="M-9738.074,2582.337l-21.63-28.1,21.63,13.027Z" transform="translate(9768.085 -2548.156)" fill="#646464"/>
        <path id="Path_2005" data-name="Path 2005" d="M-9770.1,2546.695l43.053,11.856-12.655,7.8-19.608-11.763,14.609,16.134-12.045,8.832Z" transform="translate(9770.098 -2546.695)" fill="#a3a3a3"/>
      </g>
    </g>
    <g id="notifications" transform="translate(107.107 208)">
      <g id="Group_3095" data-name="Group 3095" transform="translate(37.894 1.503)">
        <g id="Group_3081" data-name="Group 3081" transform="translate(36.861)">
          <path id="Path_2189" data-name="Path 2189" d="M237.06,21.531h-9.2V9.5a2,2,0,0,1,2-2h5.192a2,2,0,0,1,2,2Z" transform="translate(-227.861 -7.5)" fill="#4a80aa"/>
        </g>
        <g id="Group_3082" data-name="Group 3082" transform="translate(29.951 76.561)">
          <circle id="Ellipse_511" data-name="Ellipse 511" cx="11.51" cy="11.51" r="11.51" fill="#4a80aa"/>
        </g>
        <g id="Group_3083" data-name="Group 3083" transform="translate(29.951 76.561)">
          <path id="Path_2190" data-name="Path 2190" d="M198.208,401.122a11.512,11.512,0,0,1,9.093-11.253,11.51,11.51,0,1,0,0,22.507,11.512,11.512,0,0,1-9.093-11.253Z" transform="translate(-193.375 -389.612)" fill="#407093"/>
        </g>
        <g id="Group_3085" data-name="Group 3085" transform="translate(4.821 10.705)">
          <g id="Group_3084" data-name="Group 3084">
            <path id="Path_2191" data-name="Path 2191" d="M67.949,130.646l6-9.8a19.693,19.693,0,0,0,2.9-10.285V88.669a27.74,27.74,0,0,1,55.481,0v21.895a19.693,19.693,0,0,0,2.9,10.285l6,9.8Z" transform="translate(-67.949 -60.929)" fill="#ffd064"/>
          </g>
        </g>
        <g id="Group_3087" data-name="Group 3087" transform="translate(4.821 10.705)">
          <g id="Group_3086" data-name="Group 3086">
            <path id="Path_2192" data-name="Path 2192" d="M82.619,110.564V88.669a27.744,27.744,0,0,1,24.855-27.592,28.071,28.071,0,0,0-2.885-.149,27.74,27.74,0,0,0-27.74,27.74v21.895a19.693,19.693,0,0,1-2.9,10.285l-6,9.8h5.77l6-9.8a19.691,19.691,0,0,0,2.9-10.285Z" transform="translate(-67.949 -60.929)" fill="#ebb044"/>
          </g>
        </g>
        <g id="Group_3089" data-name="Group 3089" transform="translate(48.396 22.456)">
          <g id="Group_3088" data-name="Group 3088" transform="translate(0 0)">
            <path id="Path_2193" data-name="Path 2193" d="M285.43,128.591v15.352a9.027,9.027,0,0,0,9.016,9.016h4.769l1.8,3.154a6.023,6.023,0,0,0,5.22,3.031l.075,0c-.048-.558-.075-1.119-.075-1.682V135.565a27.612,27.612,0,0,0-5.07-15.99h-6.719a9.027,9.027,0,0,0-9.016,9.016Z" transform="translate(-285.43 -119.575)" fill="#ebb044"/>
          </g>
        </g>
        <g id="Group_3090" data-name="Group 3090" transform="translate(0 78.927)">
          <path id="Path_2194" data-name="Path 2194" d="M43.89,404.625v2.732a3.206,3.206,0,0,0,3.206,3.206h76.51a3.206,3.206,0,0,0,3.206-3.206v-2.732a3.206,3.206,0,0,0-3.206-3.206H47.1a3.206,3.206,0,0,0-3.206,3.206Z" transform="translate(-43.89 -401.419)" fill="#e29f33"/>
        </g>
        <g id="Group_3091" data-name="Group 3091" transform="translate(0 78.927)">
          <path id="Path_2195" data-name="Path 2195" d="M50.482,407.357v-2.732a3.206,3.206,0,0,1,3.206-3.206H47.1a3.206,3.206,0,0,0-3.206,3.206v2.732a3.206,3.206,0,0,0,3.206,3.206h6.592A3.206,3.206,0,0,1,50.482,407.357Z" transform="translate(-43.89 -401.419)" fill="#d68a1d"/>
        </g>
        <g id="Group_3092" data-name="Group 3092" transform="translate(53.405 27.465)">
          <path id="Path_2196" data-name="Path 2196" d="M338.016,144.575H314.437a4.007,4.007,0,0,0-4.007,4.007v15.352a4.007,4.007,0,0,0,4.007,4.007h6.514a2,2,0,0,1,1.74,1.01l2.666,4.669a1,1,0,0,0,1.74,0l2.666-4.669a2,2,0,0,1,1.74-1.01h6.514a4.007,4.007,0,0,0,4.007-4.007V148.582A4.007,4.007,0,0,0,338.016,144.575Z" transform="translate(-310.43 -144.575)" fill="#e8edf2"/>
        </g>
        <g id="Group_3093" data-name="Group 3093" transform="translate(53.404 27.465)">
          <path id="Path_2197" data-name="Path 2197" d="M314.474,163.934V148.582a4.007,4.007,0,0,1,4.007-4.007h-4.045a4.007,4.007,0,0,0-4.007,4.007v15.352a4.007,4.007,0,0,0,4.007,4.007h4.045A4.007,4.007,0,0,1,314.474,163.934Z" transform="translate(-310.429 -144.575)" fill="#c5d3dd"/>
        </g>
        <g id="Group_3094" data-name="Group 3094" transform="translate(63.925 50.831)">
          <path id="Path_2198" data-name="Path 2198" d="M368.724,262.205a2,2,0,0,0-1.74-1.01h-4.045a2,2,0,0,1,1.74,1.01l2.666,4.669a1,1,0,0,0,1.74,0l1.153-2.019Z" transform="translate(-362.939 -261.195)" fill="#c5d3dd"/>
        </g>
      </g>
      <g id="Group_3096" data-name="Group 3096" transform="translate(36.391 0)">
        <path id="Path_2199" data-name="Path 2199" d="M117.609,78.927H115.92l-4.645-7.584a18.132,18.132,0,0,1-2.346-6.04,1.5,1.5,0,1,0-2.951.572,21.123,21.123,0,0,0,2.733,7.038l3.683,6.014H72.364a1.5,1.5,0,0,0,0,3.005h45.245a1.7,1.7,0,0,1,1.7,1.7v2.732a1.7,1.7,0,0,1-1.7,1.7H41.1a1.7,1.7,0,0,1-1.7-1.7V83.635a1.7,1.7,0,0,1,1.7-1.7h23.18a1.5,1.5,0,1,0,0-3.005H46.313L50,72.913a21.187,21.187,0,0,0,3.12-11.07V39.948A26.238,26.238,0,0,1,99.209,22.8a1.5,1.5,0,0,0,2.274-1.966,29.245,29.245,0,0,0-16.026-9.48V3.506A3.51,3.51,0,0,0,81.951,0H76.758a3.51,3.51,0,0,0-3.506,3.506v7.841a29.293,29.293,0,0,0-23.141,28.6V61.843a18.182,18.182,0,0,1-2.678,9.5l-4.645,7.584H41.1a4.714,4.714,0,0,0-4.709,4.709v2.732A4.714,4.714,0,0,0,41.1,91.076H66.435a13.006,13.006,0,0,0,25.839,0h25.335a4.714,4.714,0,0,0,4.709-4.709V83.635A4.714,4.714,0,0,0,117.609,78.927ZM76.257,3.506a.5.5,0,0,1,.5-.5H81.95a.5.5,0,0,1,.5.5V10.87a29.236,29.236,0,0,0-6.194,0Zm3.1,96.074a10.018,10.018,0,0,1-9.888-8.5H89.242A10.017,10.017,0,0,1,79.354,99.58Z" transform="translate(-36.391 0)"/>
        <path id="Path_2200" data-name="Path 2200" d="M332.019,137.075H308.44a5.516,5.516,0,0,0-5.51,5.51v15.352a5.516,5.516,0,0,0,5.51,5.51h6.514a.5.5,0,0,1,.435.253l2.666,4.669a2.5,2.5,0,0,0,4.35,0l2.666-4.669a.5.5,0,0,1,.435-.252h6.514a5.516,5.516,0,0,0,5.51-5.51V142.585A5.516,5.516,0,0,0,332.019,137.075Zm2.5,20.862a2.507,2.507,0,0,1-2.5,2.5h-6.514a3.514,3.514,0,0,0-3.045,1.768l-2.231,3.907L318,162.209a3.513,3.513,0,0,0-3.045-1.768H308.44a2.507,2.507,0,0,1-2.5-2.5V142.585a2.507,2.507,0,0,1,2.5-2.5h23.579a2.507,2.507,0,0,1,2.5,2.5Z" transform="translate(-249.526 -109.61)"/>
        <path id="Path_2201" data-name="Path 2201" d="M343.675,195.385h-1.448a1.5,1.5,0,0,0,0,3.005h1.448a1.5,1.5,0,0,0,0-3.005Z" transform="translate(-279.747 -156.237)"/>
        <path id="Path_2202" data-name="Path 2202" d="M381.108,195.385H379.66a1.5,1.5,0,0,0,0,3.005h1.448a1.5,1.5,0,0,0,0-3.005Z" transform="translate(-309.68 -156.237)"/>
        <path id="Path_2203" data-name="Path 2203" d="M418.54,195.385h-1.448a1.5,1.5,0,0,0,0,3.005h1.448a1.5,1.5,0,0,0,0-3.005Z" transform="translate(-339.612 -156.237)"/>
      </g>
    </g>
    <g id="Group_1422" data-name="Group 1422" transform="translate(217.792 221)">
      <ellipse id="Ellipse_43" data-name="Ellipse 43" cx="12.555" cy="12.555" rx="12.555" ry="12.555" fill="url(#linear-gradient)"/>
      <text id="_3" data-name="3" transform="translate(8.306 15.767)" fill="#fff" font-size="12" font-family="AvenirNext-DemiBold, Avenir Next" font-weight="300"><tspan x="0" y="0">3</tspan></text>
    </g>
  </g>
</svg>
