<svg xmlns="http://www.w3.org/2000/svg" width="22.474" height="12.701" viewBox="0 0 22.474 12.701">
  <g id="binoculars" transform="translate(-15.119 374.64)">
    <path id="Path_3279" data-name="Path 3279" d="M154.94-374.616a1.355,1.355,0,0,0-.663.394c-.117.108-.273.255-.354.327a1.2,1.2,0,0,0-.188.211c-.045.085-.027.09.367.117a3.046,3.046,0,0,1,2.169,1.156c.17.215.264.3.282.255a5.042,5.042,0,0,0,.027-.775c0-.69-.009-.726-.13-.972a1.464,1.464,0,0,0-.65-.636A1.711,1.711,0,0,0,154.94-374.616Z" transform="translate(-132.387)"/>
    <path id="Path_3280" data-name="Path 3280" d="M317.112-374.608a1.4,1.4,0,0,0-.851.717c-.094.184-.1.269-.117.919-.013.78.022.946.161.739a4.187,4.187,0,0,1,.726-.739,2.942,2.942,0,0,1,1.537-.587c.323-.027.39-.045.39-.108a3.6,3.6,0,0,0-.932-.847A1.623,1.623,0,0,0,317.112-374.608Z" transform="translate(-287.532 -0.003)"/>
    <path id="Path_3281" data-name="Path 3281" d="M81.345-343.79a2.976,2.976,0,0,0-1.049.439c-.148.112-1.1,1.008-1.815,1.7-.278.269-.336.345-.251.327.063-.013.282-.067.493-.121a5.026,5.026,0,0,1,2.115.018,4.615,4.615,0,0,1,2.519,1.569,6.363,6.363,0,0,1,.713,1.12c.054.143.094.036.13-.323.013-.188.063-.668.1-1.062s.085-.847.1-1.008a2.3,2.3,0,0,0-.739-1.842,2.454,2.454,0,0,0-1.125-.695A3.2,3.2,0,0,0,81.345-343.79Z" transform="translate(-60.248 -29.451)"/>
    <path id="Path_3282" data-name="Path 3282" d="M319.308-343.7c-.049.009-.179.045-.291.072a3.327,3.327,0,0,0-.964.453A2.433,2.433,0,0,0,317-341.227c0,.211.031.65.067.972s.085.807.112,1.08c.049.466.112.668.17.515.013-.036.09-.193.17-.345a4.948,4.948,0,0,1,1.967-1.932,4.824,4.824,0,0,1,3.648-.3c.1.031.1.027.045-.054a5.789,5.789,0,0,0-.421-.421c-.2-.179-.614-.578-.923-.883a3.259,3.259,0,0,0-1.474-1.026A3.619,3.619,0,0,0,319.308-343.7Z" transform="translate(-288.352 -29.544)"/>
    <path id="Path_3283" data-name="Path 3283" d="M220.957-330.451a1.037,1.037,0,0,0-.336.17,1.462,1.462,0,0,1-.654.318c-.17.054-.394.134-.493.179l-.188.085-.027.753c-.027.686-.085,1.407-.206,2.51-.067.609-.063.686.045.686a.648.648,0,0,0,.188-.04c.058-.022.229-.076.376-.117a.555.555,0,0,0,.439-.332,1.231,1.231,0,0,1,.834-.578,1.23,1.23,0,0,1,1.318.65c.085.148.134.175.533.3.372.121.444.13.475.076.04-.072.036-.152-.063-1.107-.036-.345-.085-.834-.112-1.089s-.045-.739-.045-1.085c0-.73.063-.645-.659-.878a2.093,2.093,0,0,1-.654-.3,1.014,1.014,0,0,0-.323-.184c-.072-.018-.166-.036-.2-.045A.773.773,0,0,0,220.957-330.451Z" transform="translate(-194.752 -42.185)"/>
    <path id="Path_3284" data-name="Path 3284" d="M18.712-285.836a4.8,4.8,0,0,0-1.425.524,4.386,4.386,0,0,0-2.115,3.218,2.971,2.971,0,0,0-.018,1.013,4.3,4.3,0,0,0,.121.663,1.1,1.1,0,0,1,.063.238,3.345,3.345,0,0,0,.206.493,3.857,3.857,0,0,0,.466.789,6.765,6.765,0,0,0,1.04.981,4.374,4.374,0,0,0,2.77.726,5,5,0,0,0,1.188-.242,4.62,4.62,0,0,0,1.568-1.013,4.461,4.461,0,0,0,1.147-1.972,3.467,3.467,0,0,0,.1-1.12,3.326,3.326,0,0,0-.1-1.12,6.8,6.8,0,0,0-.551-1.255,4.728,4.728,0,0,0-1.6-1.47A4.479,4.479,0,0,0,18.712-285.836Zm1.443.91a3.46,3.46,0,0,1,1.734.919,3.445,3.445,0,0,1,.354,4.576,2.86,2.86,0,0,1-.69.686,3.114,3.114,0,0,1-1.443.641,2.633,2.633,0,0,1-1.223.018,3.47,3.47,0,0,1-2.877-3.428,3.472,3.472,0,0,1,1.3-2.72A3.425,3.425,0,0,1,20.155-284.926Z" transform="translate(0 -84.76)"/>
    <path id="Path_3285" data-name="Path 3285" d="M101.5-178.225c-.067.027-.125.117-.175.278a2.5,2.5,0,0,1-1.568,1.6,2.23,2.23,0,0,1-.811.09c-.511,0-.556.009-.6.09a.2.2,0,0,0,.125.3,3.687,3.687,0,0,0,.636.036,2.376,2.376,0,0,0,1.344-.345,3.018,3.018,0,0,0,1.318-1.788C101.8-178.118,101.637-178.279,101.5-178.225Z" transform="translate(-79.465 -187.603)"/>
    <path id="Path_3286" data-name="Path 3286" d="M326.149-285.669a2.121,2.121,0,0,0-.43.108.462.462,0,0,1-.161.049,4.6,4.6,0,0,0-1.062.52,4.86,4.86,0,0,0-1.152,1.134,5.44,5.44,0,0,0-.641,1.371,3.326,3.326,0,0,0-.1,1.12,3.488,3.488,0,0,0,.376,1.846,3.907,3.907,0,0,0,.852,1.223,4.571,4.571,0,0,0,1.591,1.035,5,5,0,0,0,1.188.242,4.335,4.335,0,0,0,4.275-2.5,3.344,3.344,0,0,0,.206-.493,1.1,1.1,0,0,1,.063-.237,4.424,4.424,0,0,0,.117-.663,4.136,4.136,0,0,0-.117-1.577,1.1,1.1,0,0,1-.063-.238,3.344,3.344,0,0,0-.206-.493,4.616,4.616,0,0,0-.8-1.17,6.053,6.053,0,0,0-.905-.722.247.247,0,0,1-.1-.058,5.716,5.716,0,0,0-.9-.39A4.956,4.956,0,0,0,326.149-285.669Zm1.389.9a3.51,3.51,0,0,1,2.344,1.64,3.7,3.7,0,0,1,.511,1.6,3.893,3.893,0,0,1-.229,1.407,3.646,3.646,0,0,1-1.147,1.542,2.55,2.55,0,0,0-.215.157,4.262,4.262,0,0,1-1.228.488,2.65,2.65,0,0,1-1.241.022,3.507,3.507,0,0,1-2.841-2.792,3.437,3.437,0,0,1,.968-3.088A3.445,3.445,0,0,1,327.539-284.773Z" transform="translate(-293.701 -84.931)"/>
    <path id="Path_3287" data-name="Path 3287" d="M407.428-178.409a.744.744,0,0,0-.175.3,2.388,2.388,0,0,1-.834,1.179,2.13,2.13,0,0,1-1.524.466c-.515,0-.574.009-.618.085-.112.211.049.314.551.345a2.756,2.756,0,0,0,2.832-1.914c.09-.251.076-.39-.045-.471C407.536-178.467,407.509-178.463,407.428-178.409Z" transform="translate(-371.687 -187.397)"/>
    <path id="Path_3288" data-name="Path 3288" d="M248.031-241.92a1.272,1.272,0,0,0-.314.291.659.659,0,0,0-.13.5.589.589,0,0,0,.125.466,1.5,1.5,0,0,0,.3.282.593.593,0,0,0,.48.094.77.77,0,0,0,.757-.515.786.786,0,0,0-.2-.959A.854.854,0,0,0,248.031-241.92Z" transform="translate(-222.049 -126.673)"/>
    <path id="Path_3289" data-name="Path 3289" d="M218.481-220.982a2.653,2.653,0,0,0-.435.157.913.913,0,0,0,0,.645c.031.009.336.013.677.009l.614-.013-.139-.193a1.442,1.442,0,0,1-.193-.412.76.76,0,0,0-.1-.264A1.057,1.057,0,0,0,218.481-220.982Z" transform="translate(-193.777 -146.697)"/>
    <path id="Path_3290" data-name="Path 3290" d="M287.087-220.812a1.166,1.166,0,0,1-.152.367c-.242.359-.264.341.435.341.444,0,.632-.018.668-.058a.76.76,0,0,0,.049-.287c0-.2-.013-.246-.117-.323a.386.386,0,0,0-.188-.094,1.114,1.114,0,0,1-.251-.067,1.344,1.344,0,0,0-.3-.067C287.131-221,287.113-220.978,287.087-220.812Z" transform="translate(-259.488 -146.755)"/>
  </g>
</svg>
