<svg id="ban" xmlns="http://www.w3.org/2000/svg" width="28.152" height="28.152" viewBox="0 0 28.152 28.152">
  <path id="Path_2170" data-name="Path 2170" d="M3.074,5.416A9.711,9.711,0,0,1,4.162,4.162,9.724,9.724,0,0,1,5.416,3.074,13.818,13.818,0,0,1,23.99,4.162a13.84,13.84,0,0,1,1.089,18.59,12.93,12.93,0,0,1-2.326,2.326A13.84,13.84,0,0,1,4.162,23.99,13.818,13.818,0,0,1,3.074,5.416ZM24.8,14.076a10.719,10.719,0,0,0-17.04-8.66L22.72,20.394A10.512,10.512,0,0,0,24.8,14.076ZM6.488,21.664A10.709,10.709,0,0,0,14.076,24.8a10.513,10.513,0,0,0,6.318-2.078L5.416,7.758A10.733,10.733,0,0,0,6.488,21.664Z" transform="translate(0)" fill="#c00"/>
  <path id="Path_2171" data-name="Path 2171" d="M98.453,96.616A13.993,13.993,0,0,1,78.774,76.954,9.71,9.71,0,0,1,79.862,75.7L99.69,95.527A12.687,12.687,0,0,1,98.453,96.616ZM81.116,79.3A10.709,10.709,0,0,0,96.094,94.257Z" transform="translate(-75.7 -71.538)" fill="#e50027"/>
</svg>
