<svg xmlns="http://www.w3.org/2000/svg" width="30.526" height="30.5" viewBox="0 0 30.526 30.5">
  <g id="Page-1" transform="translate(-0.4 -0.5)">
    <g id="add" transform="translate(0.4 0.5)">
      <path id="Shape" d="M15.676.5a15.25,15.25,0,1,0,15.25,15.25A15.283,15.283,0,0,0,15.676.5Zm0,28.37A13.12,13.12,0,1,1,28.8,15.75,13.14,13.14,0,0,1,15.676,28.87Z" transform="translate(-0.4 -0.5)" fill="#c00"/>
      <path id="Shape-2" data-name="Shape" d="M42.819,34.147H36.876V28.178a1.078,1.078,0,0,0-2.156,0V34.12H28.778a1.078,1.078,0,1,0,0,2.156H34.72v5.942a1.078,1.078,0,0,0,2.156,0V36.276h5.942A1.066,1.066,0,0,0,43.9,35.2,1.044,1.044,0,0,0,42.819,34.147Z" transform="translate(-20.522 -20.106)" fill="#c00"/>
    </g>
  </g>
</svg>
