<svg id="calendar-color-icon" xmlns="http://www.w3.org/2000/svg" width="28.887" height="28.445" viewBox="0 0 28.887 28.445">
  <path id="Path_4057" data-name="Path 4057" d="M2.708,6.67h23.47a2.72,2.72,0,0,1,2.708,2.708v6.288H0V9.378A2.718,2.718,0,0,1,2.708,6.67ZM8.536,8.962a2.189,2.189,0,1,1-2.189,2.189A2.189,2.189,0,0,1,8.536,8.962Zm11.7,0a2.189,2.189,0,1,1-2.189,2.189A2.189,2.189,0,0,1,20.24,8.962Z" transform="translate(0 -5.102)" fill="#ef4136" fill-rule="evenodd"/>
  <path id="Path_4058" data-name="Path 4058" d="M26.179,59.042H2.708A2.72,2.72,0,0,1,0,56.333V40H28.887V56.329A2.718,2.718,0,0,1,26.179,59.042Z" transform="translate(0 -30.597)" fill="gray"/>
  <path id="Path_4059" data-name="Path 4059" d="M5.82,58.174H28.712a2.139,2.139,0,0,0,2.13-2.13V40H3.69V56.04a2.137,2.137,0,0,0,2.13,2.13Z" transform="translate(-2.823 -30.597)" fill="#fff" fill-rule="evenodd"/>
  <path id="Path_4060" data-name="Path 4060" d="M77.611,14.63a2.612,2.612,0,1,1-1.845.766l.026-.024A2.6,2.6,0,0,1,77.611,14.63Zm0,.421a2.189,2.189,0,1,1-2.189,2.189,2.189,2.189,0,0,1,2.189-2.189Z" transform="translate(-57.37 -11.191)" fill="#c72b20" fill-rule="evenodd"/>
  <path id="Path_4061" data-name="Path 4061" d="M27.821,14.63a2.612,2.612,0,1,1-1.845.766L26,15.373a2.6,2.6,0,0,1,1.82-.743Zm0,.421a2.189,2.189,0,1,1-2.189,2.189,2.189,2.189,0,0,1,2.189-2.189Z" transform="translate(-19.285 -11.191)" fill="#c72b20" fill-rule="evenodd"/>
  <path id="Path_4062" data-name="Path 4062" d="M80.54,1.072a1.333,1.333,0,0,1,2.614,0V6.058a1.333,1.333,0,0,1-2.614,0Z" transform="translate(-61.607)" fill="#1a1a1a"/>
  <path id="Path_4063" data-name="Path 4063" d="M30.75,1.072a1.333,1.333,0,0,1,2.614,0V6.058a1.333,1.333,0,0,1-2.614,0Z" transform="translate(-23.521)" fill="#1a1a1a"/>
  <path id="Path_4064" data-name="Path 4064" d="M20.623,85.62h3.291a.421.421,0,0,1,.421.421v2.75a.423.423,0,0,1-.421.421H20.623a.423.423,0,0,1-.423-.421v-2.75A.423.423,0,0,1,20.623,85.62Z" transform="translate(-15.451 -65.492)" fill="#1a1a1a" fill-rule="evenodd"/>
  <path id="Path_4065" data-name="Path 4065" d="M53.211,85.62h3.305a.421.421,0,0,1,.421.421v2.75a.423.423,0,0,1-.421.421H53.211a.423.423,0,0,1-.421-.421v-2.75a.423.423,0,0,1,.421-.421Z" transform="translate(-40.38 -65.492)" fill="#1a1a1a" fill-rule="evenodd"/>
  <path id="Path_4066" data-name="Path 4066" d="M85.5,85.62h3.305a.423.423,0,0,1,.421.421v2.75a.423.423,0,0,1-.421.421H85.5a.423.423,0,0,1-.421-.421v-2.75A.421.421,0,0,1,85.5,85.62Z" transform="translate(-65.079 -65.492)" fill="#1a1a1a" fill-rule="evenodd"/>
  <path id="Path_4067" data-name="Path 4067" d="M20.623,56.42h3.291a.423.423,0,0,1,.421.423v2.748a.423.423,0,0,1-.421.421H20.623a.423.423,0,0,1-.423-.421V56.843A.425.425,0,0,1,20.623,56.42Z" transform="translate(-15.451 -43.157)" fill="#1a1a1a" fill-rule="evenodd"/>
  <path id="Path_4068" data-name="Path 4068" d="M53.211,56.42h3.305a.423.423,0,0,1,.421.423v2.748a.423.423,0,0,1-.421.421H53.211a.421.421,0,0,1-.421-.421V56.843a.423.423,0,0,1,.421-.423Z" transform="translate(-40.38 -43.157)" fill="#1a1a1a" fill-rule="evenodd"/>
  <path id="Path_4069" data-name="Path 4069" d="M85.5,56.42h3.305a.423.423,0,0,1,.421.423v2.748a.423.423,0,0,1-.421.421H85.5a.421.421,0,0,1-.421-.421V56.843a.423.423,0,0,1,.421-.423Z" transform="translate(-65.079 -43.157)" fill="#1a1a1a" fill-rule="evenodd"/>
</svg>
