<svg id="Camera_1" xmlns="http://www.w3.org/2000/svg" width="15.357" height="12.281" viewBox="0 0 15.357 12.281">
  <path id="Path_1973" data-name="Path 1973" d="M58.014-329.925a.241.241,0,0,1,.113.149.83.83,0,0,0,.072.241c.041.092.149.41.241.708a4.448,4.448,0,0,0,.215.6,7.157,7.157,0,0,0,1.728.067c1.615,0,1.7.005,1.984.113a1.568,1.568,0,0,1,.877.877l.113.3v3.938c0,3.892,0,3.943-.108,4.225a1.473,1.473,0,0,1-.743.826l-.3.154H48l.5-.309v-.281h8.806c4.456,0,4.728-.005,4.892-.092a.963.963,0,0,0,.451-.451c.087-.164.092-.41.092-4.071A24.563,24.563,0,0,0,62.66-327a.9.9,0,0,0-.441-.451c-.174-.092-.328-.1-2.031-.1-2.107,0-1.984.026-2.138-.462-.051-.154-.118-.364-.154-.461s-.108-.318-.159-.487a2.242,2.242,0,0,0-.138-.374,9.6,9.6,0,0,0-1.933-.062,9.6,9.6,0,0,0-1.933.062,2.239,2.239,0,0,0-.138.374c-.051.169-.123.39-.159.487s-.108.313-.159.477a.944.944,0,0,1-.195.374,8.156,8.156,0,0,1-1.943.072c-1.943,0-1.979.005-2.261.251-.262.226-.262.236-.287,2.672v6.9H48v-9.281l.128-.256a1.6,1.6,0,0,1,.836-.785c.287-.108.369-.113,1.984-.113,1.79,0,1.754.005,1.81-.256.015-.072.056-.21.087-.308.149-.415.195-.554.282-.82.154-.492-.021-.461,2.533-.461A8.994,8.994,0,0,1,58.014-329.925Z" transform="translate(-48 330.007)"/>
  <path id="Path_1974" data-name="Path 1974" d="M130.423-263.793a2.009,2.009,0,0,0,.318.072,5.329,5.329,0,0,1,.99.446,4.859,4.859,0,0,1,.59.523,3.442,3.442,0,0,1,.969,1.754,3.643,3.643,0,0,1-.492,2.836,4.907,4.907,0,0,1-.528.595,2.867,2.867,0,0,1-.933.682,3.488,3.488,0,0,1-.569.241,2.812,2.812,0,0,0-.379.077,3.6,3.6,0,0,1-2.364-.344,3.807,3.807,0,0,1-1.584-1.584,3.579,3.579,0,0,1-.005-3.369,2.93,2.93,0,0,1,.682-.913,2.745,2.745,0,0,1,.913-.682,4.988,4.988,0,0,1,.846-.318A3.673,3.673,0,0,1,130.423-263.793Zm-1.313,1.554a1.85,1.85,0,0,0-.908.544,2.081,2.081,0,0,0-.569,2.056,2.011,2.011,0,0,0,.569.954,2,2,0,0,0,.959.574,2.081,2.081,0,0,0,2.056-.569,2.058,2.058,0,0,0,.543-2.1,1.822,1.822,0,0,0-.549-.913A2.066,2.066,0,0,0,129.11-262.239Z" transform="translate(-122.039 267.259)"/>
  <path id="Path_1975" data-name="Path 1975" d="M170.092-221.718a1.6,1.6,0,0,1,.974,1.42,1.759,1.759,0,0,1-.395,1.02,1.655,1.655,0,0,1-1.108.518,1.568,1.568,0,0,1-1.466-1.01A1.53,1.53,0,0,1,170.092-221.718Z" transform="translate(-161.862 227.374)"/>
</svg>
