<svg id="Camera_1" xmlns="http://www.w3.org/2000/svg" fill="#c00" width="51.038" height="41.911" viewBox="0 0 51.038 41.911">
  <path id="Path_1973" data-name="Path 1973" d="M63.828-329.763a.715.715,0,0,0-.334.441,2.461,2.461,0,0,1-.213.714c-.122.273-.441,1.215-.714,2.1a13.171,13.171,0,0,1-.638,1.777c-.106.152-1.322.2-5.119.2-4.785,0-5.028.015-5.879.334a4.645,4.645,0,0,0-2.6,2.6l-.334.9v11.666c0,11.529,0,11.681.319,12.517a4.363,4.363,0,0,0,2.2,2.446l.9.456H79.824l.046-.881.046-.866H65.925c-13.2,0-14.006-.015-14.492-.273a2.853,2.853,0,0,1-1.337-1.337c-.258-.486-.273-1.215-.273-12.061,0-10.36.03-11.606.243-12.046a2.668,2.668,0,0,1,1.306-1.337c.516-.273.972-.289,6.015-.289,6.243,0,5.879.076,6.334-1.367.152-.456.349-1.079.456-1.367s.319-.942.471-1.443a6.652,6.652,0,0,1,.41-1.109c.106-.137,1.428-.182,5.727-.182s5.62.046,5.727.182a6.649,6.649,0,0,1,.41,1.109c.152.5.365,1.154.471,1.443s.319.927.471,1.413a2.8,2.8,0,0,0,.577,1.109c.258.167,1.291.213,5.757.213,5.757,0,5.864.015,6.7.744.775.668.775.7.851,7.914l.076,6.76H93.5V-321.12l-.38-.76A4.729,4.729,0,0,0,90.64-324.2c-.851-.319-1.094-.334-5.879-.334-5.3,0-5.2.015-5.362-.76-.046-.213-.167-.623-.258-.911-.44-1.23-.577-1.641-.835-2.43-.456-1.458.061-1.367-7.5-1.367C65.044-330.006,64.132-329.976,63.828-329.763Z" transform="translate(-48 330.007)" />
  <path id="Path_1974" data-name="Path 1974" d="M134.823-263.645a5.946,5.946,0,0,1-.942.213,15.8,15.8,0,0,0-2.932,1.322,14.4,14.4,0,0,0-1.747,1.549,10.2,10.2,0,0,0-2.871,5.2c-.684,2.856-.289,5.165,1.458,8.4a14.527,14.527,0,0,0,1.565,1.762,8.494,8.494,0,0,0,2.765,2.02,10.34,10.34,0,0,0,1.686.714,8.327,8.327,0,0,1,1.124.228,10.662,10.662,0,0,0,7-1.018,11.277,11.277,0,0,0,4.694-4.694,10.6,10.6,0,0,0,.015-9.98,8.681,8.681,0,0,0-2.02-2.7,8.134,8.134,0,0,0-2.7-2.02,14.781,14.781,0,0,0-2.506-.942A10.882,10.882,0,0,0,134.823-263.645Zm3.889,4.6a5.481,5.481,0,0,1,2.689,1.61,6.164,6.164,0,0,1,1.686,6.091,5.958,5.958,0,0,1-1.686,2.825,5.929,5.929,0,0,1-2.841,1.7,6.164,6.164,0,0,1-6.091-1.686,6.1,6.1,0,0,1-1.61-6.213,5.4,5.4,0,0,1,1.625-2.7A6.121,6.121,0,0,1,138.712-259.042Z" transform="translate(-114.164 273.915)" />
  <path id="Path_1975" data-name="Path 1975" d="M170.886-221.5A4.754,4.754,0,0,0,168-217.3a5.21,5.21,0,0,0,1.17,3.023,4.9,4.9,0,0,0,3.281,1.534,4.644,4.644,0,0,0,4.344-2.992A4.532,4.532,0,0,0,170.886-221.5Z" transform="translate(-149.771 238.26)" />
  <path id="Path_1976" data-name="Path 1976" d="M270.912-173.6a8.736,8.736,0,0,0-4.177,2.446,8.828,8.828,0,0,0,0,12.775,8.786,8.786,0,0,0,8.507,2.43,8.407,8.407,0,0,0,4.269-2.43,8.92,8.92,0,0,0,2.43-8.6,8.348,8.348,0,0,0-2.415-4.177,9.5,9.5,0,0,0-4.269-2.491A9.771,9.771,0,0,0,270.912-173.6Zm3.114,5.636.076,2.2,2.2.076,2.2.076v1.671l-2.2.076-2.2.076-.076,2.2-.076,2.2h-1.671l-.076-2.2-.076-2.2-2.2-.076-2.2-.076v-1.671l2.2-.076,2.2-.076.046-2.051a19.064,19.064,0,0,1,.106-2.248c.046-.137.319-.182.866-.152l.805.046Z" transform="translate(-231.189 197.586)" />
</svg>
