<svg xmlns="http://www.w3.org/2000/svg" width="27.316" height="25.327" viewBox="0 0 27.316 25.327">
  <g id="Camera_Flip" transform="translate(-62.225 499.759)">
    <path id="Path_3069" data-name="Path 3069" d="M133.4-499.7a2.052,2.052,0,0,0-.918.566,11.4,11.4,0,0,0-.838,1.5L131-496.355h-1.458a8.679,8.679,0,0,0-1.773.08A2.613,2.613,0,0,0,125.9-494.4c-.123.465-.117,9.3,0,9.76a2.612,2.612,0,0,0,1.879,1.869c.459.123,16.124.123,16.583,0a2.612,2.612,0,0,0,1.879-1.869c.123-.475.123-9.3,0-9.77a2.613,2.613,0,0,0-1.879-1.869,8.575,8.575,0,0,0-1.762-.08h-1.458l-.641-1.287c-.726-1.442-.886-1.66-1.436-1.933l-.352-.171-2.536-.011A22.192,22.192,0,0,0,133.4-499.7Zm4.971,1.687c.043.032.427.742.854,1.591.721,1.436.79,1.543.988,1.655s.251.123,1.965.123c1.954,0,2,.005,2.258.352l.155.2v4.581c0,4.543,0,4.581-.112,4.725a1.455,1.455,0,0,1-.256.256c-.144.112-.149.112-8.142.112h-8l-.2-.155c-.374-.283-.358-.027-.342-5.019.016-4.458.016-4.511.128-4.656a1.454,1.454,0,0,1,.256-.256c.139-.107.235-.112,2-.139,1.73-.027,1.863-.032,2.039-.133s.283-.294.961-1.644c.427-.849.812-1.559.854-1.591s1.041-.048,2.3-.048S138.321-498.042,138.369-498.016Z" transform="translate(-60.193 0)" fill="#fff"/>
    <path id="Path_3070" data-name="Path 3070" d="M246.474-392.807a3.99,3.99,0,0,0-2.792,2.493,3.93,3.93,0,0,0,.224,3.246,4.282,4.282,0,0,0,2.04,1.831,4.126,4.126,0,0,0,2.979-.011,4.341,4.341,0,0,0,2-1.826,3.973,3.973,0,0,0-.534-4.511,4.249,4.249,0,0,0-2.109-1.239A4.691,4.691,0,0,0,246.474-392.807Zm1.586,1.692a2.168,2.168,0,0,1,1,.625,2.048,2.048,0,0,1,.577,1.121,2.2,2.2,0,0,1-.625,2.029,2.239,2.239,0,0,1-3.2-.011,2.235,2.235,0,0,1-.085-3.086A2.28,2.28,0,0,1,248.06-391.115Z" transform="translate(-171.533 -101.151)" fill="#fff"/>
    <path id="Path_3071" data-name="Path 3071" d="M63.569-259.733a3.391,3.391,0,0,0-1.287,2.114,5.355,5.355,0,0,0,.064,1.922c.774,2.894,4.9,5.222,10.459,5.9l1,.123-.155.139c-.085.075-.336.283-.566.464-.48.4-.577.523-.609.833a.841.841,0,0,0,1.041.9,32.541,32.541,0,0,0,3.39-2.675.917.917,0,0,0,0-.849,30.985,30.985,0,0,0-3.385-2.675.816.816,0,0,0-.956.427c-.214.416-.107.763.352,1.153.166.144.379.326.464.4l.166.139-.614-.075c-3.946-.47-7.32-1.959-8.516-3.759a2.335,2.335,0,0,1-.475-1.543,1.857,1.857,0,0,1,.481-1.458c.3-.374.384-.609.326-.9a.853.853,0,0,0-.481-.587A.72.72,0,0,0,63.569-259.733Z" transform="translate(0 -227.124)" fill="#fff"/>
    <path id="Path_3072" data-name="Path 3072" d="M360.839-259.757a.754.754,0,0,0-.475.753c0,.262.032.347.3.79a2.431,2.431,0,0,1,.5,1.612,1.531,1.531,0,0,1-.208.988,2.935,2.935,0,0,1-.694.908c-1.532,1.522-4.527,2.712-7.982,3.177a2.406,2.406,0,0,0-.908.2.845.845,0,0,0,.043,1.436c.224.149.374.155,1.372.016,4.789-.673,8.553-2.611,9.712-4.992a3.591,3.591,0,0,0,.384-1.933,4.311,4.311,0,0,0-.812-2.4c-.235-.363-.342-.475-.523-.555A.7.7,0,0,0,360.839-259.757Z" transform="translate(-273.351 -227.1)" fill="#fff"/>
  </g>
</svg>
