<svg xmlns="http://www.w3.org/2000/svg" width="48.982" height="35.016" viewBox="0 0 48.982 35.016">
  <g id="certificate" transform="translate(48.982) rotate(90)">
    <path id="Path_2796" data-name="Path 2796" d="M1.129.268A1.82,1.82,0,0,0,.325,1l-.287.459L.009,16.91C-.01,32.26-.01,32.346.182,32.537a.715.715,0,0,0,1.043-.057l.2-.258V1.828l.249-.191.258-.2h31.14l.258.2.249.191V43.82l-.249.191c-.249.2-.335.2-6.268.2H21.044V42.595l4.871-.029c4.756-.029,4.881-.029,5.149-.23a1.675,1.675,0,0,0,.431-.526c.163-.306.172-1.407.172-18.986s-.01-18.68-.172-18.986a1.675,1.675,0,0,0-.431-.526c-.258-.191-.412-.2-3.56-.23-3.206-.029-3.3-.019-3.493.172A.715.715,0,0,0,24.068,4.3c.249.191.364.2,3.206.2h2.957V41.15H21.044v-1.9l.7-.7a5.841,5.841,0,0,0,1.656-5.34,6.048,6.048,0,0,0-4.479-4.737,7.425,7.425,0,0,0-2.833,0,6.289,6.289,0,0,0-3.416,2.3,5.924,5.924,0,0,0,.593,7.78l.7.7v1.9H4.775V4.5h22.5l-2.688-.5c.306-.3.3-.228,0-.506L27.5,3.081H12.785c-8.5.029-8.575.029-8.843.23a1.675,1.675,0,0,0-.431.526c-.163.306-.172,1.407-.172,18.986s.01,18.68.172,18.986a1.675,1.675,0,0,0,.431.526c.268.2.392.2,5.149.23l4.871.029v1.617H7.943c-5.933,0-6.019,0-6.268-.2l-.249-.191V39.561c0-4.718.008-22.521,0-22.537C1.4,17.041.595,31.88.4,32.023L.038,16.91.009,39.437c-.029,5.024-.038,4.948.689,5.617a2.48,2.48,0,0,0,.785.488c.249.067,2.421.105,6.431.105h6.048v1.244c0,1.4.1,1.713.574,1.962s.766.172,1.847-.431a11.221,11.221,0,0,1,1.12-.574,11.219,11.219,0,0,1,1.12.574c1.081.6,1.378.67,1.847.431s.574-.565.574-1.962V45.648h6.067c6.689,0,6.574.01,7.225-.6a2.865,2.865,0,0,0,.5-.689c.172-.373.182-1.129.182-21.542V1.665l-.239-.488A2.256,2.256,0,0,0,33.552.105C33.37.029,28.336,0,17.455,0H1.636ZM18.7,29.906a4.648,4.648,0,0,1,3.33,5.034,4.574,4.574,0,0,1-9.053,0,4.679,4.679,0,0,1,3.282-5.024A5.526,5.526,0,0,1,18.7,29.906Zm-2.632,10.24a7.248,7.248,0,0,0,2.871,0,6.112,6.112,0,0,1,.6-.144c.038,0,.067,1.636.067,3.637s-.029,3.636-.067,3.636a9.22,9.22,0,0,1-.833-.45,1.812,1.812,0,0,0-2.412,0,8.71,8.71,0,0,1-.842.45c-.029,0-.057-1.636-.057-3.636S15.426,40,15.474,40,15.781,40.069,16.068,40.145Z" transform="translate(0 0)" fill="#fff"/>
    <path id="Path_2797" data-name="Path 2797" d="M2.311.113A3.363,3.363,0,0,0,.292,4.658a3.334,3.334,0,0,0,6.048,0,3.308,3.308,0,0,0,.019-2.68A3.65,3.65,0,0,0,4.77.3,4.023,4.023,0,0,0,2.311.113ZM4.387,1.768a1.853,1.853,0,0,1,.5,2.546,1.9,1.9,0,0,1-3.034.172A1.851,1.851,0,0,1,1.861,2.1,1.906,1.906,0,0,1,4.387,1.768Z" transform="translate(14.187 31.018)" fill="#fff"/>
    <path id="Path_2798" data-name="Path 2798" d="M.215.22A.64.64,0,0,0,.4,1.292a53.446,53.446,0,0,0,8.211,0A.641.641,0,0,0,8.78.211C8.56,0,8.531,0,4.493,0H.416Z" transform="translate(8.556 21.086) rotate(-90)" fill="#fff"/>
    <path id="Path_2799" data-name="Path 2799" d="M.256.2A.693.693,0,0,0,.218,1.244c.211.191.287.191,8.689.191s8.479,0,8.689-.191A.693.693,0,0,0,17.559.2C17.3,0,17.252,0,8.908,0S.515,0,.256.2Z" transform="translate(11.809 25.491) rotate(-90)" fill="#fff"/>
    <path id="Path_2800" data-name="Path 2800" d="M.255.2A.665.665,0,0,0,.226,1.225l.22.211H17.395l.2-.22A.674.674,0,0,0,17.557.2C17.3,0,17.251,0,8.906,0S.514,0,.255.2Z" transform="translate(18.412 25.49) rotate(-90)" fill="#fff"/>
    <path id="Path_2801" data-name="Path 2801" d="M.15.211a.8.8,0,0,0,.048,1c.191.172.478.182,8.7.182s8.508-.01,8.7-.182a.8.8,0,0,0,.048-1L17.5,0H.293Z" transform="translate(21.762 25.48) rotate(-90)" fill="#fff"/>
    <path id="Path_2802" data-name="Path 2802" d="M.255.2A.665.665,0,0,0,.226,1.225l.22.211H17.395l.2-.22A.674.674,0,0,0,17.557.2C17.3,0,17.251,0,8.906,0S.514,0,.255.2Z" transform="translate(25.016 25.49) rotate(-90)" fill="#fff"/>
  </g>
</svg>
