<svg xmlns="http://www.w3.org/2000/svg" width="25" height="23.971" viewBox="0 0 25 23.971">
  <g id="Verified" transform="translate(-52.5 562.025)">
    <path id="Path_3009" data-name="Path 3009" d="M61.076-561.931c-.763.3-1.252.964-1.727,2.353-.25.724-.45,1.086-.636,1.135a10.27,10.27,0,0,1-1.091.088c-1.4.073-1.908.2-2.432.621a1.871,1.871,0,0,0-.646,1.12,4.182,4.182,0,0,0,.25,2.035c.117.421.23.885.25,1.042.034.274.034.279-.152.475-.108.1-.4.352-.656.543a11.141,11.141,0,0,0-.915.793,2.584,2.584,0,0,0-.636.837,1.382,1.382,0,0,0-.186.851,1.378,1.378,0,0,0,.176.837,4.669,4.669,0,0,0,1.463,1.561c.338.264.685.558.778.651.157.166.161.181.127.45a10.587,10.587,0,0,1-.25,1.037,10.642,10.642,0,0,0-.269,1.189,2.058,2.058,0,0,0,1.776,2.466,12.73,12.73,0,0,0,1.321.127,10.19,10.19,0,0,1,1.091.088c.186.049.387.411.636,1.135.577,1.688,1.238,2.4,2.265,2.441a2.623,2.623,0,0,0,.636-.044,5.933,5.933,0,0,0,1.531-.807,3.962,3.962,0,0,1,1.218-.66,3.842,3.842,0,0,1,1.208.656,3.383,3.383,0,0,0,2.182.856,1.411,1.411,0,0,0,.729-.181c.631-.308,1.013-.866,1.482-2.138.333-.905.494-1.2.685-1.257a10.326,10.326,0,0,1,1.091-.088,12.729,12.729,0,0,0,1.321-.127,2.02,2.02,0,0,0,1.751-1.59,4.34,4.34,0,0,0-.3-2.246,7.579,7.579,0,0,1-.2-.846c-.034-.284-.034-.289.152-.484.108-.1.4-.352.656-.543a11.162,11.162,0,0,0,.915-.792,2.591,2.591,0,0,0,.636-.837,1.383,1.383,0,0,0,.186-.851,1.382,1.382,0,0,0-.186-.851,2.584,2.584,0,0,0-.636-.837,11.141,11.141,0,0,0-.915-.793c-.254-.191-.548-.44-.656-.543-.186-.2-.186-.2-.152-.484a7.568,7.568,0,0,1,.2-.846,4.34,4.34,0,0,0,.3-2.246,2.02,2.02,0,0,0-1.751-1.59,12.747,12.747,0,0,0-1.321-.127,10.409,10.409,0,0,1-1.091-.088c-.191-.054-.352-.352-.685-1.257-.47-1.272-.851-1.83-1.482-2.138a1.431,1.431,0,0,0-.734-.181,2.631,2.631,0,0,0-.636.044,5.941,5.941,0,0,0-1.531.807,3.961,3.961,0,0,1-1.218.661,3.671,3.671,0,0,1-1.14-.607,5.38,5.38,0,0,0-1.419-.788A2.216,2.216,0,0,0,61.076-561.931Zm8.146,8.278a1.237,1.237,0,0,1,.641.553,1.243,1.243,0,0,1-.015.9c-.054.1-1.336,1.419-2.877,2.95-2.637,2.627-2.789,2.774-3.014,2.828a1.006,1.006,0,0,1-.793-.117,35.06,35.06,0,0,1-3.033-3.068,1.37,1.37,0,0,1,0-.886,1,1,0,0,1,.93-.577c.435,0,.592.113,1.659,1.179l.978.978,2.348-2.344a23.925,23.925,0,0,1,2.52-2.388A1.057,1.057,0,0,1,69.222-553.653Z" transform="translate(0)" fill="#4880ff"/>
  </g>
</svg>
