<svg xmlns="http://www.w3.org/2000/svg" width="21.308" height="21.308" viewBox="0 0 21.308 21.308">
  <g id="Path_872" data-name="Path 872" transform="translate(0 0)" fill="none">
    <path d="M10.654,0A10.654,10.654,0,1,0,21.308,10.654,10.654,10.654,0,0,0,10.654,0Z" stroke="none"/>
    <path d="M 10.654052734375 1.000001907348633 C 5.330792427062988 1.000001907348633 1.000001907348633 5.330792427062988 1.000001907348633 10.654052734375 C 1.000001907348633 15.9773120880127 5.330792427062988 20.30810356140137 10.654052734375 20.30810356140137 C 15.9773120880127 20.30810356140137 20.30810356140137 15.9773120880127 20.30810356140137 10.654052734375 C 20.30810356140137 5.330792427062988 15.9773120880127 1.000001907348633 10.654052734375 1.000001907348633 M 10.654052734375 1.9073486328125e-06 C 16.53812217712402 1.9073486328125e-06 21.30810356140137 4.769983291625977 21.30810356140137 10.654052734375 C 21.30810356140137 16.53812217712402 16.53812217712402 21.30810356140137 10.654052734375 21.30810356140137 C 4.769983291625977 21.30810356140137 1.9073486328125e-06 16.53812217712402 1.9073486328125e-06 10.654052734375 C 1.9073486328125e-06 4.769983291625977 4.769983291625977 1.9073486328125e-06 10.654052734375 1.9073486328125e-06 Z" stroke="none" fill="#000"/>
  </g>
</svg>
