<svg xmlns="http://www.w3.org/2000/svg" width="23.5" height="26" viewBox="0 0 23.5 26">
  <g id="Group_5385" data-name="Group 5385" transform="translate(-16.5 -286)">
    <g id="Ellipse_591" data-name="Ellipse 591" transform="translate(18 293)" fill="none" stroke="#000" stroke-width="1">
      <circle cx="9.5" cy="9.5" r="9.5" stroke="none"/>
      <circle cx="9.5" cy="9.5" r="9" fill="none"/>
    </g>
    <g id="Group_5382" data-name="Group 5382" transform="translate(8.5 6)">
      <g id="Path_3144" data-name="Path 3144" transform="translate(15 280)" fill="#fff">
        <path d="M 3.989673376083374 10.00638580322266 C 3.602976322174072 9.541672706604004 2.957911252975464 8.735397338867188 2.322770118713379 7.821967601776123 C 1.147340059280396 6.131517887115479 0.5 4.774187564849854 0.5 3.999997615814209 C 0.5 2.070087671279907 2.070090055465698 0.4999977350234985 4 0.4999977350234985 C 5.929910182952881 0.4999977350234985 7.5 2.070087671279907 7.5 3.999997615814209 C 7.5 4.770487785339355 6.854889869689941 6.120107650756836 5.683489799499512 7.800227642059326 C 5.032344818115234 8.73416805267334 4.377149105072021 9.545639038085938 3.989673376083374 10.00638580322266 Z" stroke="none"/>
        <path d="M 4 0.9999980926513672 C 2.345789909362793 0.9999980926513672 1 2.34578800201416 1 3.999997615814209 C 1 4.311587810516357 1.166850090026855 5.277007579803467 2.71235990524292 7.506387710571289 C 3.165857791900635 8.160550117492676 3.626347541809082 8.760746955871582 3.991506099700928 9.217337608337402 C 4.362558841705322 8.757135391235352 4.834246158599854 8.146435737609863 5.298510074615479 7.478097915649414 C 6.83420991897583 5.267377853393555 7 4.309297561645508 7 3.999997615814209 C 7 2.34578800201416 5.654210090637207 0.9999980926513672 4 0.9999980926513672 M 4 -1.9073486328125e-06 C 6.209139823913574 -1.9073486328125e-06 8 1.790857315063477 8 3.999997615814209 C 8 6.209116458892822 4.012077331542969 10.77694702148438 3.986330032348633 10.76855754852295 C 3.960939884185791 10.76025772094727 0 6.209137916564941 0 3.999997615814209 C 0 1.790857315063477 1.790860176086426 -1.9073486328125e-06 4 -1.9073486328125e-06 Z" stroke="none" fill="#000"/>
      </g>
      <g id="Ellipse_590" data-name="Ellipse 590" transform="translate(17 282)" fill="#fff" stroke="#000" stroke-width="1">
        <circle cx="2" cy="2" r="2" stroke="none"/>
        <circle cx="2" cy="2" r="1.5" fill="none"/>
      </g>
    </g>
    <g id="Group_5383" data-name="Group 5383" transform="translate(1.5 21.231)">
      <g id="Path_3144-2" data-name="Path 3144" transform="translate(15 280)" fill="#fff">
        <path d="M 3.989673376083374 10.00638580322266 C 3.602976322174072 9.541672706604004 2.957911252975464 8.735397338867188 2.322770118713379 7.821967601776123 C 1.147340059280396 6.131517887115479 0.5 4.774187564849854 0.5 3.999997615814209 C 0.5 2.070087671279907 2.070090055465698 0.4999977350234985 4 0.4999977350234985 C 5.929910182952881 0.4999977350234985 7.5 2.070087671279907 7.5 3.999997615814209 C 7.5 4.770487785339355 6.854889869689941 6.120107650756836 5.683489799499512 7.800227642059326 C 5.032344818115234 8.73416805267334 4.377149105072021 9.545639038085938 3.989673376083374 10.00638580322266 Z" stroke="none"/>
        <path d="M 4 0.9999980926513672 C 2.345789909362793 0.9999980926513672 1 2.34578800201416 1 3.999997615814209 C 1 4.311587810516357 1.166850090026855 5.277007579803467 2.71235990524292 7.506387710571289 C 3.165857791900635 8.160550117492676 3.626347541809082 8.760746955871582 3.991506099700928 9.217337608337402 C 4.362558841705322 8.757135391235352 4.834246158599854 8.146435737609863 5.298510074615479 7.478097915649414 C 6.83420991897583 5.267377853393555 7 4.309297561645508 7 3.999997615814209 C 7 2.34578800201416 5.654210090637207 0.9999980926513672 4 0.9999980926513672 M 4 -1.9073486328125e-06 C 6.209139823913574 -1.9073486328125e-06 8 1.790857315063477 8 3.999997615814209 C 8 6.209116458892822 4.012077331542969 10.77694702148438 3.986330032348633 10.76855754852295 C 3.960939884185791 10.76025772094727 0 6.209137916564941 0 3.999997615814209 C 0 1.790857315063477 1.790860176086426 -1.9073486328125e-06 4 -1.9073486328125e-06 Z" stroke="none" fill="#000"/>
      </g>
      <g id="Ellipse_590-2" data-name="Ellipse 590" transform="translate(17 282)" fill="#fff" stroke="#000" stroke-width="1">
        <circle cx="2" cy="2" r="2" stroke="none"/>
        <circle cx="2" cy="2" r="1.5" fill="none"/>
      </g>
    </g>
    <g id="Group_5384" data-name="Group 5384" transform="translate(17 19.389)">
      <g id="Path_3144-3" data-name="Path 3144" transform="translate(15 280)" fill="#fff">
        <path d="M 3.989673376083374 10.00638580322266 C 3.602976322174072 9.541672706604004 2.957911252975464 8.735397338867188 2.322770118713379 7.821967601776123 C 1.147340059280396 6.131517887115479 0.5 4.774187564849854 0.5 3.999997615814209 C 0.5 2.070087671279907 2.070090055465698 0.4999977350234985 4 0.4999977350234985 C 5.929910182952881 0.4999977350234985 7.5 2.070087671279907 7.5 3.999997615814209 C 7.5 4.770487785339355 6.854889869689941 6.120107650756836 5.683489799499512 7.800227642059326 C 5.032344818115234 8.73416805267334 4.377149105072021 9.545639038085938 3.989673376083374 10.00638580322266 Z" stroke="none"/>
        <path d="M 4 0.9999980926513672 C 2.345789909362793 0.9999980926513672 1 2.34578800201416 1 3.999997615814209 C 1 4.311587810516357 1.166850090026855 5.277007579803467 2.71235990524292 7.506387710571289 C 3.165857791900635 8.160550117492676 3.626347541809082 8.760746955871582 3.991506099700928 9.217337608337402 C 4.362558841705322 8.757135391235352 4.834246158599854 8.146435737609863 5.298510074615479 7.478097915649414 C 6.83420991897583 5.267377853393555 7 4.309297561645508 7 3.999997615814209 C 7 2.34578800201416 5.654210090637207 0.9999980926513672 4 0.9999980926513672 M 4 -1.9073486328125e-06 C 6.209139823913574 -1.9073486328125e-06 8 1.790857315063477 8 3.999997615814209 C 8 6.209116458892822 4.012077331542969 10.77694702148438 3.986330032348633 10.76855754852295 C 3.960939884185791 10.76025772094727 0 6.209137916564941 0 3.999997615814209 C 0 1.790857315063477 1.790860176086426 -1.9073486328125e-06 4 -1.9073486328125e-06 Z" stroke="none" fill="#000"/>
      </g>
      <g id="Ellipse_590-3" data-name="Ellipse 590" transform="translate(17 282)" fill="#fff" stroke="#000" stroke-width="1">
        <circle cx="2" cy="2" r="2" stroke="none"/>
        <circle cx="2" cy="2" r="1.5" fill="none"/>
      </g>
    </g>
    <line id="Line_532" data-name="Line 532" x2="8" transform="translate(23.5 299.5)" fill="none" stroke="#000" stroke-width="1"/>
    <line id="Line_533" data-name="Line 533" x2="6" transform="translate(25.5 302.5)" fill="none" stroke="#000" stroke-width="1"/>
    <line id="Line_534" data-name="Line 534" x2="4" transform="translate(27.5 305.5)" fill="none" stroke="#000" stroke-width="1"/>
  </g>
</svg>
