<svg xmlns="http://www.w3.org/2000/svg" width="58" height="58" viewBox="0 0 58 58">
  <g id="Group_6675" data-name="Group 6675" transform="translate(-159 -113)">
    <g id="Ellipse_558" data-name="Ellipse 558" transform="translate(159 113)" fill="#fff" stroke="#c00" stroke-width="3">
      <circle cx="29" cy="29" r="29" stroke="none"/>
      <circle cx="29" cy="29" r="27.5" fill="none"/>
    </g>
    <g id="Processing_Time" transform="translate(112.415 537.5)">
      <path id="Path_3300" data-name="Path 3300" d="M223.158-349.488a2.005,2.005,0,0,0-.792.564l-.35.427L222-340.176v8.321l.808.747c.732.686,1.341,1.173,3.536,2.88.427.335,1.3,1.036,1.92,1.554,1.509,1.25,3.475,2.819,3.947,3.139a2.26,2.26,0,0,0,2.179-.046,2.038,2.038,0,0,0,.213-2.789c-.183-.183-1.021-.884-1.859-1.554-.838-.655-1.829-1.448-2.195-1.737-.366-.3-.884-.732-1.173-.945-.823-.64-1.737-1.387-2.728-2.21l-.914-.762-.076-7.5-.076-7.5-.457-.442A1.982,1.982,0,0,0,223.158-349.488Z" transform="translate(-149.483 -61.916)" fill="#c00"/>
    </g>
  </g>
</svg>
