<svg id="Group_5328" data-name="Group 5328" xmlns="http://www.w3.org/2000/svg" width="34.658" height="34.66" viewBox="0 0 34.658 34.66">
  <path id="Path_2235" data-name="Path 2235" d="M144.478,124.4l-5.714-5.714-9.6,9.6-9.6-9.6-5.715,5.714,9.6,9.6-9.6,9.6,5.715,5.714,9.6-9.6,9.6,9.6,5.714-5.714-9.6-9.6Z" transform="translate(-111.839 -116.666)" fill="#d00"/>
  <path id="Path_2236" data-name="Path 2236" d="M136.786,149.346a2.019,2.019,0,0,1-1.428-.592l-8.168-8.168-8.168,8.168a2.019,2.019,0,0,1-2.857,0l-5.713-5.714a2.02,2.02,0,0,1,0-2.857l8.167-8.168-8.168-8.168a2.02,2.02,0,0,1,0-2.856l5.713-5.714a2.079,2.079,0,0,1,2.857,0l8.168,8.168,8.168-8.168a2.019,2.019,0,0,1,2.856,0l5.713,5.714a2.02,2.02,0,0,1,0,2.856l-8.167,8.168,8.167,8.168a2.02,2.02,0,0,1,0,2.857l-5.713,5.714a2.017,2.017,0,0,1-1.428.592Zm-9.6-13.636a2.014,2.014,0,0,1,1.428.592l8.168,8.168,2.857-2.858-8.168-8.168a2.02,2.02,0,0,1,0-2.856l8.168-8.168-2.857-2.858-8.168,8.168a2.02,2.02,0,0,1-2.857,0l-8.168-8.168-2.857,2.858,8.168,8.168a2.02,2.02,0,0,1,0,2.856l-8.168,8.168,2.857,2.858,8.168-8.168A2.015,2.015,0,0,1,127.19,135.71Z" transform="translate(-109.86 -114.686)"/>
</svg>
