<svg id="complaint" xmlns="http://www.w3.org/2000/svg" width="25.178" height="28.025" viewBox="0 0 25.178 28.025">
  <path id="Path_2172" data-name="Path 2172" d="M11.095,176H32.989a1.094,1.094,0,0,1,1.095,1.095v4.379a1.094,1.094,0,0,1-1.095,1.095H11.095A1.094,1.094,0,0,1,10,181.474v-4.379A1.094,1.094,0,0,1,11.095,176Zm0,0" transform="translate(-9.453 -166.367)" fill="#eafaff"/>
  <path id="Path_2173" data-name="Path 2173" d="M30,296v10.181a1.094,1.094,0,0,0,1.095,1.095H50.8a1.094,1.094,0,0,0,1.095-1.095V296Zm0,0" transform="translate(-28.358 -279.798)" fill="#96c8ef"/>
  <path id="Path_2174" data-name="Path 2174" d="M372.189,216H370v2.189h2.189Zm0,0" transform="translate(-367.263 -204.177)" fill="#3a5576"/>
  <path id="Path_2175" data-name="Path 2175" d="M90,23.465h15.326V10H90Zm0,0" transform="translate(-85.074 -9.453)" fill="#ffea91"/>
  <path id="Path_2176" data-name="Path 2176" d="M130,359v4.379h10.947V359Zm0,0" transform="translate(-122.884 -339.35)" fill="#eafaff"/>
  <path id="Path_2177" data-name="Path 2177" d="M52.189,216H50v2.189h2.189Zm0,0" transform="translate(-29.748 -204.177)" fill="#3a5576"/>
  <path id="Path_2178" data-name="Path 2178" d="M180.547,390.095a.547.547,0,1,1,.547-.547A.548.548,0,0,1,180.547,390.095Zm0,0" transform="translate(-165.769 -367.708)"/>
  <path id="Path_2179" data-name="Path 2179" d="M1.642,9.086H4.379V.547A.547.547,0,0,1,4.926,0H20.252A.547.547,0,0,1,20.8.547V9.086h2.737a1.644,1.644,0,0,1,1.642,1.642v4.379a1.645,1.645,0,0,1-1.095,1.548v9.728a1.644,1.644,0,0,1-1.642,1.642H2.737a1.644,1.644,0,0,1-1.642-1.642V16.655A1.645,1.645,0,0,1,0,15.107V10.728A1.644,1.644,0,0,1,1.642,9.086ZM4.379,12.37H3.284v1.095H4.379ZM19.7,1.095H5.474v12.37H19.7Zm2.189,12.37V12.37H20.8v1.095ZM2.737,26.93h19.7a.548.548,0,0,0,.547-.547V16.749H2.189v9.633A.548.548,0,0,0,2.737,26.93ZM1.095,15.107a.548.548,0,0,0,.547.547H23.536a.548.548,0,0,0,.547-.547V10.728a.548.548,0,0,0-.547-.547H20.8v1.095h1.642a.547.547,0,0,1,.547.547v2.189a.547.547,0,0,1-.547.547H2.737a.547.547,0,0,1-.547-.547V11.823a.547.547,0,0,1,.547-.547H4.379V10.181H1.642a.548.548,0,0,0-.547.547Zm0,0"/>
  <path id="Path_2180" data-name="Path 2180" d="M120.547,349h10.947a.547.547,0,0,1,.547.547v4.379a.547.547,0,0,1-.547.547H120.547a.547.547,0,0,1-.547-.547v-4.379A.547.547,0,0,1,120.547,349Zm.547,4.379h9.852v-3.284h-9.852Zm0,0" transform="translate(-113.432 -329.897)"/>
  <path id="Path_2181" data-name="Path 2181" d="M222.737,390.095h-2.189a.547.547,0,0,1,0-1.095h2.189a.547.547,0,0,1,0,1.095Zm0,0" transform="translate(-210.148 -367.708)"/>
  <path id="Path_2182" data-name="Path 2182" d="M167.116,130.379a.547.547,0,0,1-.547-.547,2.737,2.737,0,1,0-5.474,0,.547.547,0,0,1-1.095,0,3.831,3.831,0,1,1,7.663,0A.547.547,0,0,1,167.116,130.379Zm0,0" transform="translate(-151.242 -119.103)"/>
  <path id="Path_2183" data-name="Path 2183" d="M160.547,68.189a.547.547,0,0,1-.547-.547V66.547a.547.547,0,1,1,1.095,0v1.095A.547.547,0,0,1,160.547,68.189Zm0,0" transform="translate(-144.674 -62.387)"/>
  <path id="Path_2184" data-name="Path 2184" d="M280.547,68.189a.547.547,0,0,1-.547-.547V66.547a.547.547,0,0,1,1.095,0v1.095A.547.547,0,0,1,280.547,68.189Zm0,0" transform="translate(-271.242 -62.387)"/>
</svg>
