<svg id="credit" xmlns="http://www.w3.org/2000/svg" width="39.765" height="42.729" viewBox="0 0 39.765 42.729">
  <path id="Path_2587" data-name="Path 2587" d="M1.176,15.659,21.1,35.58a2.305,2.305,0,0,0,3.26,0L36.08,23.857a2.305,2.305,0,0,0,0-3.26L16.159.676a2.305,2.305,0,0,0-3.26,0L1.176,12.4A2.3,2.3,0,0,0,1.176,15.659Zm0,0" transform="translate(3.01 -0.001)" fill="#8cbafa"/>
  <path id="Path_2588" data-name="Path 2588" d="M132.2,132.487l1.463-1.463a2.19,2.19,0,0,0,.179,3.081l19.921,19.921a2.19,2.19,0,0,0,3.081.179l-1.463,1.463a2.305,2.305,0,0,1-3.26,0L132.2,135.747A2.3,2.3,0,0,1,132.2,132.487Zm0,0" transform="translate(-128.012 -120.089)" fill="#5692d8"/>
  <path id="Path_2589" data-name="Path 2589" d="M57.37,155.117a.626.626,0,0,0,.443-1.069l-9.758-9.758a.626.626,0,0,0-.885.885l9.758,9.758A.625.625,0,0,0,57.37,155.117Zm0,0" transform="translate(-22.11 -132.081)" fill="#252d4c"/>
  <path id="Path_2590" data-name="Path 2590" d="M94.526,192.273a.626.626,0,0,0,.443-1.069l-9.758-9.758a.626.626,0,1,0-.885.885l9.758,9.758A.624.624,0,0,0,94.526,192.273Zm0,0" transform="translate(-62.368 -166.136)" fill="#252d4c"/>
  <path id="Path_2591" data-name="Path 2591" d="M216.454,56.175l1.952,1.952a1.965,1.965,0,1,1-2.779,2.779l-1.952-1.952a1.965,1.965,0,0,1,2.779-2.779Zm0,0" transform="translate(-196.959 -50.96)" fill="#ffcd34"/>
  <path id="Path_2592" data-name="Path 2592" d="M86.465,258.109h28.172a2.305,2.305,0,0,1,2.305,2.305v16.578a2.305,2.305,0,0,1-2.305,2.305H86.465a2.305,2.305,0,0,1-2.305-2.305V260.415A2.3,2.3,0,0,1,86.465,258.109Zm0,0" transform="translate(-84.16 -236.569)" fill="#ffcd34"/>
  <path id="Path_2593" data-name="Path 2593" d="M426.934,258.109H429a2.305,2.305,0,0,0-2.305,2.305v16.578A2.305,2.305,0,0,0,429,279.3h-2.063a2.305,2.305,0,0,1-2.305-2.305V260.415A2.3,2.3,0,0,1,426.934,258.109Zm0,0" transform="translate(-424.629 -236.569)" fill="#e69012"/>
  <path id="Path_2594" data-name="Path 2594" d="M116.943,320.516H84.16V324.5h32.783Zm0,0" transform="translate(-84.16 -293.767)" fill="#575b7a"/>
  <path id="Path_2595" data-name="Path 2595" d="M454.313,320.516H452.25V324.5h2.063Zm0,0" transform="translate(-452.25 -293.767)" fill="#252d4c"/>
  <path id="Path_2596" data-name="Path 2596" d="M385.025,440.715v2.456a.344.344,0,0,1-.344.344h-3.907a.344.344,0,0,1-.344-.344v-2.456a.344.344,0,0,1,.344-.344h3.907A.344.344,0,0,1,385.025,440.715Zm0,0" transform="translate(-376.967 -403.62)" fill="#e9e9ea"/>
  <path id="Path_2597" data-name="Path 2597" d="M248.225,440.715v2.456a.344.344,0,0,1-.344.344h-8.264a.344.344,0,0,1-.344-.344v-2.456a.344.344,0,0,1,.344-.344h8.264A.344.344,0,0,1,248.225,440.715Zm0,0" transform="translate(-228.388 -403.62)" fill="#e9e9ea"/>
  <path id="Path_2598" data-name="Path 2598" d="M142.7,471.8h4.117a.626.626,0,1,0,0-1.252H142.7a.626.626,0,1,0,0,1.252Zm0,0" transform="translate(-119.498 -431.277)" fill="#252d4c"/>
</svg>
