<svg id="user_2_" data-name="user (2)" xmlns="http://www.w3.org/2000/svg" width="59.922" height="44.92" viewBox="0 0 59.922 44.92">
  <g id="Group_2293" data-name="Group 2293" transform="translate(7.763)">
    <g id="Group_2292" data-name="Group 2292">
      <path id="Path_1858" data-name="Path 1858" d="M132.645,0A11.645,11.645,0,1,1,121,11.645,11.658,11.658,0,0,1,132.645,0Zm0,20.7a9.057,9.057,0,1,0-9.057-9.057A9.067,9.067,0,0,0,132.645,20.7Z" transform="translate(-121)" fill="#c00"/>
    </g>
  </g>
  <g id="Group_2295" data-name="Group 2295" transform="translate(0 26.634)">
    <g id="Group_2294" data-name="Group 2294">
      <path id="Path_1859" data-name="Path 1859" d="M35.92,305.02A16.6,16.6,0,0,1,47.82,300H53a16.6,16.6,0,0,1,11.9,5.02,16.97,16.97,0,0,1,4.92,11.973,1.294,1.294,0,0,1-1.294,1.294H32.294A1.294,1.294,0,0,1,31,316.992,16.97,16.97,0,0,1,35.92,305.02ZM67.171,315.7A14.32,14.32,0,0,0,53,302.588H47.82A14.32,14.32,0,0,0,33.645,315.7Z" transform="translate(-31 -300)" fill="#c00"/>
    </g>
  </g>
  <g id="Group_6382" data-name="Group 6382" transform="translate(25.264 5.498)">
    <path id="Path_2235" data-name="Path 2235" d="M144.478,124.4l-5.714-5.714-9.6,9.6-9.6-9.6-5.715,5.714,9.6,9.6-9.6,9.6,5.715,5.714,9.6-9.6,9.6,9.6,5.714-5.714-9.6-9.6Z" transform="translate(-111.839 -116.666)" fill="#d00"/>
    <path id="Path_2236" data-name="Path 2236" d="M136.786,149.346a2.019,2.019,0,0,1-1.428-.592l-8.168-8.168-8.168,8.168a2.019,2.019,0,0,1-2.857,0l-5.713-5.714a2.02,2.02,0,0,1,0-2.857l8.167-8.168-8.168-8.168a2.02,2.02,0,0,1,0-2.856l5.713-5.714a2.079,2.079,0,0,1,2.857,0l8.168,8.168,8.168-8.168a2.019,2.019,0,0,1,2.856,0l5.713,5.714a2.02,2.02,0,0,1,0,2.856l-8.167,8.168,8.167,8.168a2.02,2.02,0,0,1,0,2.857l-5.713,5.714a2.017,2.017,0,0,1-1.428.592Zm-9.6-13.636a2.014,2.014,0,0,1,1.428.592l8.168,8.168,2.857-2.858-8.168-8.168a2.02,2.02,0,0,1,0-2.856l8.168-8.168-2.857-2.858-8.168,8.168a2.02,2.02,0,0,1-2.857,0l-8.168-8.168-2.857,2.858,8.168,8.168a2.02,2.02,0,0,1,0,2.856l-8.168,8.168,2.857,2.858,8.168-8.168A2.015,2.015,0,0,1,127.19,135.71Z" transform="translate(-109.86 -114.686)" fill="#fff"/>
  </g>
</svg>
