<svg id="Layer_10" data-name="Layer 10" xmlns="http://www.w3.org/2000/svg" width="25.353" height="23.241" viewBox="0 0 25.353 23.241">
  <path id="Path_2878" data-name="Path 2878" d="M251.381,257.69V256h-2.852a.528.528,0,0,0-.528.528v1.585Z" transform="translate(-238.281 -244.169)" fill="none"/>
  <path id="Path_2879" data-name="Path 2879" d="M426.108,282.958a.423.423,0,0,0,.189-.8l-1.457-.728v-1.006a.423.423,0,1,0-.845,0v1.268a.423.423,0,0,0,.234.378l1.69.845A.421.421,0,0,0,426.108,282.958Z" transform="translate(-422.728 -266.901)" fill="none"/>
  <ellipse id="Ellipse_563" data-name="Ellipse 563" cx="2.978" cy="2.978" rx="2.978" ry="2.978" transform="translate(2.078 17.281)" fill="none"/>
  <ellipse id="Ellipse_564" data-name="Ellipse 564" cx="0.831" cy="0.831" rx="0.831" ry="0.831" transform="translate(4.294 19.498)" fill="#fff"/>
  <ellipse id="Ellipse_565" data-name="Ellipse 565" cx="2.978" cy="2.978" rx="2.978" ry="2.978" transform="translate(18.148 17.281)" fill="none"/>
  <path id="Path_2880" data-name="Path 2880" d="M26.958,320l1.69.845h.845a2.958,2.958,0,0,1,2.958,2.958h-3.8l-.845.845H24Z" transform="translate(-7.52 -304.788)" fill="none"/>
  <path id="Path_2881" data-name="Path 2881" d="M203.236,186.843h-.906a.425.425,0,0,0,0,.849h.906Z" transform="translate(-187.703 -178.664)" fill="none"/>
  <path id="Path_2882" data-name="Path 2882" d="M136.234,187.643l1.39.7a.464.464,0,0,0,.091.033.439.439,0,0,0,.1.011h1.69a.423.423,0,0,0,0-.845h-1.59l-1.3-.65a.423.423,0,1,0-.378.756Z" transform="translate(-120.91 -178.664)" fill="none"/>
  <path id="Path_2883" data-name="Path 2883" d="M180.648,72l.423,1.69h-.845v.335a.932.932,0,0,1-.932.932H176l.794-.794a3.06,3.06,0,0,0,.9-2.164Z" transform="translate(-164.169 -69.887)" fill="#fff"/>
  <path id="Path_2884" data-name="Path 2884" d="M228.831,112.924l-1.783,4.991h2.958l1.448-4.054a1.393,1.393,0,1,0-2.623-.937Z" transform="translate(-217.33 -107.775)" fill="none"/>
  <path id="Path_2885" data-name="Path 2885" d="M108.677,222.744v.132a1.391,1.391,0,0,1-1.205,1.379l-.032,0a1.493,1.493,0,0,0-1.3,1.479v.585a1.491,1.491,0,0,0,1.491,1.491h4l1.207-1.609a4.221,4.221,0,0,0,.627-3.871l-.775-2.318a.687.687,0,0,1,.434-.869l.016-.005a.706.706,0,0,1,.869.377c.378.834,1.077,2.373,1.5,3.3a1.312,1.312,0,0,0,1.195.769v1.69h-1.268l-3.38,4.225h-6.338l-1.268-.845H96a7.484,7.484,0,0,1,7.318-5.916Z" transform="translate(-95.577 -209.223)" fill="none"/>
  <path id="Path_2886" data-name="Path 2886" d="M351.606,153.373v5.81H344v-5.81A1.373,1.373,0,0,1,345.373,152h4.859A1.373,1.373,0,0,1,351.606,153.373Z" transform="translate(-343.578 -145.662)" fill="none"/>
  <path id="Path_2887" data-name="Path 2887" d="M350.233,152h-4.859A1.373,1.373,0,0,0,344,153.373v1.162h7.606v-1.162A1.373,1.373,0,0,0,350.233,152Z" transform="translate(-343.578 -145.662)" fill="none"/>
  <path id="Path_2888" data-name="Path 2888" d="M296,324.225h7.606a2.113,2.113,0,0,0,0-4.225c-.142,0-.282,0-.423.01a8.911,8.911,0,0,0-2.958.655q-.38.154-.742.344a8.924,8.924,0,0,0-3.191,2.8Z" transform="translate(-295.155 -304.788)" fill="none"/>
  <path id="Path_2889" data-name="Path 2889" d="M344,320.845v.814a.211.211,0,0,0,.211.211h2.535a.211.211,0,0,0,.211-.211V320.19A8.911,8.911,0,0,0,344,320.845Z" transform="translate(-338.929 -304.968)" fill="none"/>
  <ellipse id="Ellipse_566" data-name="Ellipse 566" cx="0.9" cy="0.831" rx="0.9" ry="0.831" transform="translate(20.226 19.498)" fill="#fff"/>
  <path id="Path_2890" data-name="Path 2890" d="M106.958,192h-1.9a1.056,1.056,0,1,0,0,2.113h1.9Z" transform="translate(-86.253 -183.549)"/>
  <path id="Path_2891" data-name="Path 2891" d="M255.689,165.992l-.152.53h1.69l.183-.64Z" transform="translate(-244.71 -158.811)" fill="none"/>
  <path id="Path_2892" data-name="Path 2892" d="M207.539,224.845a.845.845,0,0,0,.845.845h2.958l-.845,5.071h1.69l.834-4.593A1.812,1.812,0,0,0,211.245,224h-2.86A.845.845,0,0,0,207.539,224.845Z" transform="translate(-197.821 -213.859)" fill="none"/>
  <path id="Path_2893" data-name="Path 2893" d="M210.535,353.69v-.845a.845.845,0,0,0-.845-.845H208v1.69Z" transform="translate(-195.323 -335.098)" fill="none"/>
  <path id="Path_2894" data-name="Path 2894" d="M184,41.69h2.958V40.528A.528.528,0,0,0,186.43,40h-1.9a.528.528,0,0,0-.528.528Z" transform="translate(-170.478 -39.577)" fill="none"/>
  <path id="Path_2895" data-name="Path 2895" d="M144.423,64.845h4.648a.423.423,0,1,0,0-.845h-4.648a.423.423,0,0,0,0,.845Z" transform="translate(-130.901 -62.31)" fill="#e08122"/>
  <path id="Path_2896" data-name="Path 2896" d="M384.423,224.845h2.535a.423.423,0,0,0,0-.845h-2.535a.423.423,0,1,0,0,.845Z" transform="translate(-381.465 -213.859)" fill="#c38325"/>
  <path id="Path_2897" data-name="Path 2897" d="M245.008,114.958h1.69l.549-1.922a.813.813,0,0,0-1.563-.446Z" transform="translate(-234.021 -107.775)" fill="none"/>
  <path id="Path_2898" data-name="Path 2898" d="M192.845,168h3.8a.845.845,0,0,1,.845.845v.845h-4.648a.845.845,0,0,1,0-1.69Z" transform="translate(-181.436 -160.817)" fill="none"/>
  <path id="Path_2899" data-name="Path 2899" d="M104.845,192H104v2.113h.845Z" transform="translate(-84.14 -183.549)" fill="#fff"/>
  <path id="Path_2900" data-name="Path 2900" d="M210.535,376H208v.422h2.535Z" transform="translate(-195.323 -357.831)" fill="#c3c3c3"/>
  <path id="Path_2901" data-name="Path 2901" d="M456.845,288H456v.423h.845Z" transform="translate(-454.732 -274.478)" fill="#a8a8a8"/>
  <path id="Path_2902" data-name="Path 2902" d="M384.423,224h2.535a.423.423,0,0,1,0,.845h-2.535a.423.423,0,1,1,0-.845Z" transform="translate(-381.465 -213.859)"/>
  <path id="Path_2903" data-name="Path 2903" d="M271.2,72.423c0,.233-.644.423-1.44.423h-4.319c-.8,0-1.439-.189-1.439-.423s.644-.423,1.439-.423h4.319C270.553,72,271.2,72.189,271.2,72.423Z" transform="translate(-258.944 -69.887)"/>
  <path id="Path_2904" data-name="Path 2904" d="M272.6,40h3.014c.333,0,.6.189.6.423s-.27.423-.6.423H272.6c-.333,0-.6-.189-.6-.423S272.27,40,272.6,40Z" transform="translate(-263.965 -39.577)"/>
  <path id="Path_2905" data-name="Path 2905" d="M306.415,104.423c0,.233-.777.423-1.736.423h-6.944c-.959,0-1.736-.189-1.736-.423s.777-.423,1.736-.423h6.944C305.638,104,306.415,104.189,306.415,104.423Z" transform="translate(-295.852 -100.197)"/>
  <path id="Path_2906" data-name="Path 2906" d="M17.8,37.916l4.965,0-.039.086-.24.224c-.218-.034-.658-.1-.054-.313l.011.039.043.274c-.012-.1-.276.168,0-.084l.24-.139.039-.086a1.8,1.8,0,0,1,1.69,1.793V45.1H25.3V44.36a.946.946,0,0,1,.241-.631,1.264,1.264,0,0,1-.117-1.29.416.416,0,0,1-.1-.44l1.782-4.99a1.8,1.8,0,0,1,.164-.34,1.24,1.24,0,0,1,1.177-.866h.04a2.622,2.622,0,0,0,.615-1.691V32.951A.952.952,0,0,1,30.05,32h1.9a.952.952,0,0,1,.951.951v.739H34.17a.423.423,0,0,1,0,.845H33.021l.291,1.165a.423.423,0,0,1-.41.525h-.425a1.356,1.356,0,0,1-1.352,1.268h-.5a1.818,1.818,0,0,1-.1.736l-.19.532h.879a1.269,1.269,0,0,1,1.268,1.268v.584l.522.261h.466a1.481,1.481,0,0,1,1.336-.845h1.9a.423.423,0,0,1,.423.423v2.113a.423.423,0,0,1-.423.423H35.211l1.106,2.437a.891.891,0,0,0,.81.521.423.423,0,0,1,.423.423v1.268h.423a3.384,3.384,0,0,1,3.38,3.38.423.423,0,0,1-.423.423h-.968a2.958,2.958,0,1,1-5.793.845H33.021l-.211.264a.423.423,0,0,1-.33.158H26.141a.423.423,0,0,1-.234-.071l-1.161-.774H24a2.958,2.958,0,1,1-5.855,0H16.423a.423.423,0,0,1-.413-.511,7.935,7.935,0,0,1,2.09-3.882l-.6-.3a.423.423,0,0,1-.234-.378v-.845h-.845A.423.423,0,0,1,16,45.522v-5.81A1.8,1.8,0,0,1,17.8,37.916Zm5.81,1.8a.952.952,0,0,0-.951-.951H17.8a.952.952,0,0,0-.951.951v.739h6.761ZM17.3,50.117a9.36,9.36,0,0,1,6.616-3.312c.036-.01.42-.016.536-.016a2.53,2.53,0,0,1,1.9.86,1.927,1.927,0,0,1,1.455-1.031l.031,0a.972.972,0,0,0,.794-.67H23.74A7.053,7.053,0,0,0,17.3,50.117Zm6.307-2.439a8.5,8.5,0,0,0-2.113.489v.313h2.113Zm2.712-5.959h2.06l.151-.423H27.409a1.26,1.26,0,0,1-.829-.309Zm2.358.845H26.564a.423.423,0,1,0,0,.845h2.958a.423.423,0,0,1,.417.492l-.763,4.579h.839l.771-4.247v-.007a1.389,1.389,0,0,0-1.362-1.662Zm2.113,7.183a.423.423,0,0,0-.423-.423H29.1v.845h1.69Zm-2.535-.857c0-.007,0-.013,0-.02s0-.017,0-.026,0-.007,0-.011l.26-1.557a1.8,1.8,0,0,1-.57.177l-.031,0a1.075,1.075,0,0,0-.932,1.06V49.1a1.07,1.07,0,0,0,1.069,1.069h.2V48.9S28.255,48.894,28.255,48.889Zm.627-3.791.141-.845H26.247a.106.106,0,0,0-.106.106V45.1Zm-.813-8.168-.523,1.83h.811l.462-1.616a.39.39,0,1,0-.75-.214Zm1.366,1.83.292-.816a.952.952,0,0,0-.021-.707c-.01-.024-.021-.047-.033-.069a1.26,1.26,0,0,1-.041.209l-.4,1.383Zm2.622-5.81a.106.106,0,0,0-.106-.106h-1.9a.106.106,0,0,0-.106.106v.739h2.113Zm-.423,3.188V35.8a.423.423,0,0,1,.423-.423h.3l-.211-.845H29.919a3.456,3.456,0,0,1-.478,1.381,1.818,1.818,0,0,1,.905.732h.778A.51.51,0,0,0,31.634,36.138Zm0,3.89a.423.423,0,0,0-.423-.423h-3.8a.423.423,0,1,0,0,.845h4.226Zm1.268,1.69a.422.422,0,0,1-.189-.045l-.756-.378h-2.53l-.151.423h.148a2.234,2.234,0,0,1,2.192,2.669l-.761,4.19a1.27,1.27,0,0,1,.779,1.17v.423h.211l1.08-1.44a3.8,3.8,0,0,0,.564-3.483l-.774-2.318a1.107,1.107,0,0,1,.35-1.21Zm3.38-.845H34.8a.634.634,0,1,0,0,1.268h1.479ZM37.128,54.4a2.112,2.112,0,0,0,1.936-2.958h-.992a1.267,1.267,0,1,1-2.211.845h-.845A2.115,2.115,0,0,0,37.128,54.4Zm0-2.535a.423.423,0,1,0,.423.423A.423.423,0,0,0,37.128,51.86Zm-1.02-.423.721-.721a.423.423,0,0,1,.3-.124h3.345a2.539,2.539,0,0,0-2.5-2.113h-1.91L33.7,51.437Zm-9.838.423h6.007l3.254-4.067a.423.423,0,0,1,.33-.158h.845v-.9a1.739,1.739,0,0,1-1.157-.964l-1.317-2.9a1.487,1.487,0,0,1-.627-.5.261.261,0,0,0-.087.291l.774,2.318a4.644,4.644,0,0,1-.689,4.258L32.4,50.846a.423.423,0,0,1-.338.169h-4a1.907,1.907,0,0,1-1.341-.55,2.552,2.552,0,0,1-.975,1.042Zm-7.311.423a2.113,2.113,0,1,0,4.183-.423h-.875a1.268,1.268,0,1,1-2.39,0H19a2.125,2.125,0,0,0-.042.423Zm1.69,0a.423.423,0,1,0,.423-.423A.423.423,0,0,0,20.648,52.282Zm3.8-1.268a1.69,1.69,0,1,0,0-3.38v1.056a.634.634,0,0,1-.634.634H21.282a.634.634,0,0,1-.634-.634v-.158a8.5,8.5,0,0,0-2.985,2.482Zm-6.338-4.487.612.306a.427.427,0,0,1,.043.025l0,0a7.884,7.884,0,0,1,1.416-.913H18.113ZM23.606,45.1V41.3H16.845v3.8Z" transform="translate(-16 -32)"/>
</svg>
