<svg xmlns="http://www.w3.org/2000/svg" width="24.321" height="24.04" viewBox="0 0 24.321 24.04">
  <g id="tag" transform="translate(24.321 13.613) rotate(133)">
    <path id="Path_902" data-name="Path 902" d="M10.275,19.96H3.981L0,15.978V1.426A1.427,1.427,0,0,1,1.426,0H12.831a1.426,1.426,0,0,1,1.426,1.426V15.978Z" transform="translate(0 0)" fill="#c00"/>
    <ellipse id="Ellipse_69" data-name="Ellipse 69" cx="2.502" cy="2.002" rx="2.502" ry="2.002" transform="translate(5.005 14.804)" fill="#fafafa"/>
    <path id="Path_903" data-name="Path 903" d="M.713,0A.713.713,0,0,0,0,.713v5.7a.713.713,0,1,0,1.426,0V.713A.713.713,0,0,0,.713,0Z" transform="translate(6.416 15.683)" fill="#37474f"/>
  </g>
</svg>
