<svg xmlns="http://www.w3.org/2000/svg" width="16.568" height="21.441" viewBox="0 0 16.568 21.441">
  <g id="documents-svgrepo-com" transform="translate(-149.332 -42.667)">
    <path id="Path_7720" data-name="Path 7720" d="M263.508,325.513a.487.487,0,0,1,.487-.487h6.922a.487.487,0,1,1,0,.975H264A.487.487,0,0,1,263.508,325.513Zm.487,2.123a.487.487,0,0,0,0,.975h6.922a.487.487,0,1,0,0-.975Zm-.487,3.1a.487.487,0,0,1,.487-.487h6.922a.487.487,0,1,1,0,.975H264A.487.487,0,0,1,263.508,330.734Zm.487,2.114a.487.487,0,0,0,0,.975h6.922a.487.487,0,1,0,0-.975Z" transform="translate(-111.568 -275.91)"/>
    <path id="Path_7721" data-name="Path 7721" d="M153.361,42.678h.358a.492.492,0,0,1,.2,0h6.95a1.574,1.574,0,0,1,1.57,1.571v14.83a1.574,1.574,0,0,1-1.57,1.571H150.9a1.574,1.574,0,0,1-1.57-1.571V46.552a.489.489,0,0,1,0-.062,1.067,1.067,0,0,1,.319-.717l2.793-2.795A1.075,1.075,0,0,1,153.361,42.678Zm-3.017,3.784,2.786-2.788a.109.109,0,0,1,.059-.031.128.128,0,0,1,.069.009.121.121,0,0,1,.053.041.106.106,0,0,1,.018.057v1.6q0,.009,0,.017v.877a.418.418,0,0,1-.415.416h-2.491a.1.1,0,0,1-.062-.018.131.131,0,0,1-.05-.121.106.106,0,0,1,.033-.059Zm3.96-2.81v.081q0,.014,0,.027v2.484a1.393,1.393,0,0,1-1.39,1.39h-2.608V59.079a.6.6,0,0,0,.6.6h9.963a.6.6,0,0,0,.6-.6V44.249a.6.6,0,0,0-.6-.6Z" transform="translate(0 0)"/>
    <path id="Path_7722" data-name="Path 7722" d="M311.923,128.52a.487.487,0,0,0,0,.975h.65a.6.6,0,0,1,.6.6v16.338a.6.6,0,0,1-.6.6H302.61a.6.6,0,0,1-.6-.6v-.641a.487.487,0,1,0-.975,0v.641A1.574,1.574,0,0,0,302.61,148h9.963a1.574,1.574,0,0,0,1.57-1.571V130.091a1.574,1.574,0,0,0-1.57-1.571h-.65Z" transform="translate(-148.243 -83.892)"/>
  </g>
</svg>
