<svg id="edit_3_" data-name="edit (3)" xmlns="http://www.w3.org/2000/svg" width="17.501" height="17.5" viewBox="0 0 17.501 17.5">
  <path id="Path_2557" data-name="Path 2557" d="M13.855,91.65a.729.729,0,0,0-.729.729v5.834a.73.73,0,0,1-.729.729H2.188a.73.73,0,0,1-.729-.729V88a.73.73,0,0,1,.729-.729H8.021a.729.729,0,0,0,0-1.458H2.188A2.19,2.19,0,0,0,0,88V98.213A2.19,2.19,0,0,0,2.188,100.4H12.4a2.19,2.19,0,0,0,2.188-2.188V92.379A.729.729,0,0,0,13.855,91.65Zm0,0" transform="translate(0 -82.9)"/>
  <path id="Path_2558" data-name="Path 2558" d="M182.43,74.031a.369.369,0,0,0-.1.186l-.516,2.579a.364.364,0,0,0,.358.436.347.347,0,0,0,.071-.007l2.578-.516a.363.363,0,0,0,.187-.1l5.769-5.769L188.2,68.262Zm0,0" transform="translate(-175.594 -65.946)" fill="#c00"/>
  <path id="Path_2559" data-name="Path 2559" d="M395.032,1.034a1.824,1.824,0,0,0-2.578,0l-1.009,1.009,2.578,2.578,1.009-1.009a1.823,1.823,0,0,0,0-2.578Zm0,0" transform="translate(-378.065 -0.501)" fill="#c00"/>
</svg>
