<svg id="education-svgrepo-com" xmlns="http://www.w3.org/2000/svg" width="24" height="24" viewBox="0 0 24 24">
  <path id="Path_8989" data-name="Path 8989" d="M17.673,5.606Q14.838,4.273,12,2.932L.138,8.524l2.03.98L2,9.531V20H3V10.374l.72-.124.28.135v5.288c0,.914,5.206,3.533,6.249,4.049a3.89,3.89,0,0,0,3.48-.026C20,16.486,20,15.9,20,15.673V10.385l3.854-1.857S20.054,6.727,17.673,5.606ZM19,15.5a51.527,51.527,0,0,1-5.726,3.3,2.884,2.884,0,0,1-2.582.02A40.183,40.183,0,0,1,5,15.521V10.866l7,3.373,7-3.373Zm-7-2.373L5.416,9.958l6.469-1.115-.17-.987L3.865,9.21l-1.4-.676L12,4.039c.825.393,8.523,4.014,9.542,4.494Z"/>
  <path id="Path_8990" data-name="Path 8990" d="M0,0H24V24H0Z" fill="none"/>
</svg>
