<svg xmlns="http://www.w3.org/2000/svg" width="66.549" height="65.778" viewBox="0 0 66.549 65.778">
  <g id="Group_6885" data-name="Group 6885" transform="translate(-151.225 -202.791)">
    <g id="email_1_" data-name="email (1)" transform="translate(151.225 202.791)">
      <path id="Path_2531" data-name="Path 2531" d="M73.827,13.648,49.493,31.24,45.5,34.133a5.989,5.989,0,0,1-7.118,0L34.39,31.24,10.027,13.677A7.193,7.193,0,0,1,15.9,10.668H67.982A7.234,7.234,0,0,1,73.827,13.648Z" transform="translate(-8.667 -10.668)" fill="#ffd54f"/>
      <g id="Group_3522" data-name="Group 3522" transform="translate(0 2.98)">
        <path id="Path_2532" data-name="Path 2532" d="M1.36,32.855,25.722,50.418,2.112,74.028A7.233,7.233,0,0,1,0,68.906V37.079A7.147,7.147,0,0,1,1.36,32.855Z" transform="translate(0 -32.826)" fill="#ffc107"/>
        <path id="Path_2533" data-name="Path 2533" d="M326.737,36.9V68.722a7.234,7.234,0,0,1-2.112,5.121l-23.61-23.61,24.334-17.592A7.192,7.192,0,0,1,326.737,36.9Z" transform="translate(-260.187 -32.642)" fill="#ffc107"/>
      </g>
      <path id="Path_2535" data-name="Path 2535" d="M54.288,162.348,50.3,165.241a5.99,5.99,0,0,1-7.118,0l-3.993-2.893-23.61,23.61A7.234,7.234,0,0,0,20.7,188.07H28a18.787,18.787,0,0,1,37.467,0h7.309a7.234,7.234,0,0,0,5.121-2.112Z" transform="translate(-13.462 -141.776)" fill="#ffa000"/>
    </g>
    <g id="cancel" transform="translate(165.015 229.6)">
      <circle id="Ellipse_510" data-name="Ellipse 510" cx="19.391" cy="19.391" r="19.391" fill="#c00"/>
      <path id="Path_2185" data-name="Path 2185" d="M147.2,164.984l10.561,10.561a19.476,19.476,0,0,0,17.045-16.922L164.184,148Z" transform="translate(-135.836 -136.575)" fill="#670000"/>
      <path id="Path_2186" data-name="Path 2186" d="M144.376,138.7a2.312,2.312,0,0,1,0,3.211l-1.729,1.729a2.312,2.312,0,0,1-3.211,0l-13.587-13.587a2.312,2.312,0,0,1,0-3.211l1.791-1.791a2.312,2.312,0,0,1,3.211,0Z" transform="translate(-115.535 -114.797)" fill="#fff"/>
      <path id="Path_2187" data-name="Path 2187" d="M221,216l-5,5,7.226,7.164a2.312,2.312,0,0,0,3.211,0l1.791-1.791a2.312,2.312,0,0,0,0-3.211Z" transform="translate(-199.325 -199.325)" fill="#d6d6d6"/>
      <path id="Path_2188" data-name="Path 2188" d="M139.435,125.848a2.312,2.312,0,0,1,3.211,0l1.791,1.791a2.312,2.312,0,0,1,0,3.211l-13.649,13.525a2.312,2.312,0,0,1-3.211,0l-1.729-1.729a2.312,2.312,0,0,1,0-3.211Z" transform="translate(-115.535 -115.535)" fill="#fff"/>
    </g>
  </g>
</svg>
