<svg xmlns="http://www.w3.org/2000/svg" width="36.934" height="36.987" viewBox="0 0 36.934 36.987">
  <g id="Exit_Setup" data-name="Exit Setup" transform="translate(-49.5 461.729)">
    <path id="Path_3128" data-name="Path 3128" d="M96.979-461.613a7.544,7.544,0,0,0-3.667,2.051,6.5,6.5,0,0,0-1.755,2.824,12.542,12.542,0,0,0-.426,4.51l.026,2.094.261.417a1.814,1.814,0,0,0,1.721.886,1.809,1.809,0,0,0,1.425-.86l.243-.356.043-2.572c.052-2.425.061-2.6.252-3.076a3.966,3.966,0,0,1,2.242-2.173l.5-.191,9.6-.026c5.97-.017,9.811.009,10.15.061a3.744,3.744,0,0,1,3.146,3.1c.113.687.113,22.673,0,23.36a3.744,3.744,0,0,1-3.146,3.1c-.339.052-4.171.078-10.15.061l-9.6-.026-.5-.191a3.966,3.966,0,0,1-2.242-2.173c-.191-.478-.2-.652-.252-3.076l-.043-2.572-.243-.356a1.809,1.809,0,0,0-1.425-.86,1.814,1.814,0,0,0-1.721.886l-.261.417-.026,2.094c-.043,3,.122,4.067.826,5.484a7.5,7.5,0,0,0,5.11,3.911c.617.122,1.816.13,11.08.113l10.385-.026.826-.278a7.571,7.571,0,0,0,4.841-4.893l.243-.739V-455.8l-.243-.739a7.553,7.553,0,0,0-4.841-4.893l-.826-.278-10.472-.017C99.012-461.735,97.5-461.726,96.979-461.613Z" transform="translate(-38.006 0)" fill="#c00"/>
    <path id="Path_3129" data-name="Path 3129" d="M65.36-333.809a1.885,1.885,0,0,0-.921,2.468,15.036,15.036,0,0,0,1.469,1.625l1.321,1.33H50.786l-.382.2a2.369,2.369,0,0,0-.643.574,1.356,1.356,0,0,0-.261,1.052,1.356,1.356,0,0,0,.261,1.052,2.369,2.369,0,0,0,.643.574l.382.2H67.228l-1.321,1.321a15.687,15.687,0,0,0-1.469,1.634,1.951,1.951,0,0,0,.417,2.147,1.98,1.98,0,0,0,2.051.3,86.9,86.9,0,0,0,6.492-6.544,2.285,2.285,0,0,0,.13-.678,2.285,2.285,0,0,0-.13-.678,86.891,86.891,0,0,0-6.492-6.544A2.109,2.109,0,0,0,65.36-333.809Z" transform="translate(0 -116.681)"/>
  </g>
</svg>
