<svg xmlns="http://www.w3.org/2000/svg" width="62.192" height="48.092" viewBox="0 0 62.192 48.092">
  <path id="remove-card-icon" d="M3.763,0h53.63A3.765,3.765,0,0,1,61.15,3.757V23.873a16.51,16.51,0,0,0-2.659-2.109v-3.24H2.665v20.76a1.6,1.6,0,0,0,1.586,1.586H34.173a16.32,16.32,0,0,0,1.182,2.66H3.763A3.77,3.77,0,0,1,0,39.775V3.763A3.768,3.768,0,0,1,3.763,0ZM9.484,35.29a1.566,1.566,0,0,1,0-3.131H23.73a1.566,1.566,0,0,1,0,3.131Zm0-7.515a1.566,1.566,0,0,1,0-3.131h4.261a1.566,1.566,0,0,1,0,3.131Zm9,0a1.566,1.566,0,1,1,0-3.131h3.1a1.566,1.566,0,0,1,0,3.131Zm8.1,0a1.566,1.566,0,0,1,0-3.131h3.088a1.566,1.566,0,0,1,0,3.131H26.587ZM49.7,23.118A12.487,12.487,0,1,1,37.218,35.6,12.488,12.488,0,0,1,49.7,23.118Zm3.753,6.943,1.79,1.788a.941.941,0,0,1,0,1.328L52.821,35.6l2.428,2.428a.941.941,0,0,1,0,1.328l-1.79,1.789a.94.94,0,0,1-1.326,0L49.7,38.721,47.277,41.15a.94.94,0,0,1-1.326,0l-1.789-1.79a.94.94,0,0,1,0-1.324L46.59,35.6l-2.429-2.429a.94.94,0,0,1,0-1.324l1.789-1.789a.94.94,0,0,1,1.326,0L49.7,32.489l2.427-2.427a.94.94,0,0,1,1.326,0ZM2.665,8.4h55.82V4.251A1.6,1.6,0,0,0,56.9,2.665H4.251A1.6,1.6,0,0,0,2.665,4.251Z" fill-rule="evenodd"/>
</svg>
