<svg xmlns="http://www.w3.org/2000/svg" xmlns:xlink="http://www.w3.org/1999/xlink" width="32" height="32" viewBox="0 0 32 32">
  <defs>
    <clipPath id="clip-path">
      <rect id="Rectangle_3528" data-name="Rectangle 3528" width="32" height="32" fill="#fff"/>
    </clipPath>
  </defs>
  <g id="files" clip-path="url(#clip-path)">
    <path id="Path_8078" data-name="Path 8078" d="M31,4V26a1,1,0,0,1-1,1H26V8a1,1,0,0,0-1-1H21V3h9A1,1,0,0,1,31,4Z" fill="#d3d3d3"/>
    <path id="Path_8079" data-name="Path 8079" d="M26,27v3a1,1,0,0,1-1,1H7a1,1,0,0,1-1-1V8A1,1,0,0,1,7,7H25a1,1,0,0,1,1,1Z" fill="none"/>
    <path id="Path_8080" data-name="Path 8080" d="M21,3V7H7A1,1,0,0,0,6,8V25H2a.979.979,0,0,1-1-1V2A1,1,0,0,1,2,1H20a1,1,0,0,1,1,1Z" fill="#707070"/>
    <path id="Path_8081" data-name="Path 8081" d="M12,13h3m-3,3h8m-8,4h8m-8,4h8M21,7V2a1,1,0,0,0-1-1H2A1,1,0,0,0,1,2V24a.979.979,0,0,0,1,1H3m23,2h4a1,1,0,0,0,1-1V4a1,1,0,0,0-1-1H24m2,27a1,1,0,0,1-1,1H7a1,1,0,0,1-1-1V8A1,1,0,0,1,7,7H25a1,1,0,0,1,1,1Z" fill="none" stroke="#000" stroke-linecap="round" stroke-linejoin="round" stroke-width="2"/>
  </g>
</svg>
