<svg xmlns="http://www.w3.org/2000/svg" width="24.196" height="29.503" viewBox="0 0 24.196 29.503">
  <g id="fingerprint-scan" transform="translate(0)">
    <path id="Path_1890" data-name="Path 1890" d="M109.481,46.6c-6.172-4.577-12.646-4.73-19.051-.079a.992.992,0,0,1-1.166-1.606c7.037-5.111,14.459-5.056,21.4.091A.992.992,0,0,1,109.481,46.6Z" transform="translate(-87.781 -41.107)" fill="#c00"/>
    <path id="Path_1891" data-name="Path 1891" d="M265.579,46.494A16.5,16.5,0,0,0,256,42.985V41a18.461,18.461,0,0,1,10.761,3.9A.992.992,0,0,1,265.579,46.494Z" transform="translate(-243.879 -41)" fill="#333"/>
    <path id="Path_1892" data-name="Path 1892" d="M96.5,112.675a.992.992,0,0,1-1.353-.369c-1.975-3.456-6.757-5.321-10.252-5.321-3.57,0-8.377,2.514-10.288,5.379a.992.992,0,0,1-1.651-1.1c2.3-3.454,7.721-6.263,11.939-6.263C92.244,105,98.806,111.355,96.5,112.675Z" transform="translate(-72.772 -100.766)" fill="#c00"/>
    <path id="Path_1893" data-name="Path 1893" d="M267.605,112.675a.992.992,0,0,1-1.353-.369c-1.975-3.456-6.757-5.321-10.252-5.321V105C263.351,105,269.914,111.355,267.605,112.675Z" transform="translate(-243.879 -100.766)" fill="#333"/>
    <path id="Path_1894" data-name="Path 1894" d="M159.685,240.872v1.058a.992.992,0,0,1-1.985,0v-1.058a5.382,5.382,0,1,0-10.716,0c0,3.366,2.711,5.192,4.22,7.373a.993.993,0,0,1-.814,1.557c-.69,0-.642-.333-2.088-1.977-1.471-1.672-3.3-3.753-3.3-6.953a7.361,7.361,0,1,1,14.685,0Z" transform="translate(-140.222 -220.299)" fill="#c00"/>
    <path id="Path_1895" data-name="Path 1895" d="M256,234.984V233a7.629,7.629,0,0,1,7.343,7.872v1.058a.992.992,0,0,1-1.985,0v-1.058A5.648,5.648,0,0,0,256,234.984Z" transform="translate(-243.879 -220.299)" fill="#333"/>
    <path id="Path_1896" data-name="Path 1896" d="M103.519,184.725a5.2,5.2,0,0,1-9.818-2.561c0-4.278-2.928-2.838-2.279-.241a.992.992,0,0,1-1.925.482c-1.352-5.4,6.188-7.6,6.188-.241a3.2,3.2,0,0,0,2.485,3.306c4.593,1.084,5.956-6.494,1.375-11.373-6.334-6.749-16.561-1.544-16.561,6.479a8.027,8.027,0,0,0,1.4,5.245.992.992,0,0,1-1.615,1.152,10.11,10.11,0,0,1-1.772-6.4A11.768,11.768,0,0,1,92.576,169C101.139,169,106.581,178.6,103.519,184.725Z" transform="translate(-80.455 -160.533)" fill="#c00"/>
    <path id="Path_1897" data-name="Path 1897" d="M266.943,184.725a5.2,5.2,0,0,1-9.818-2.561c0-1.35-.348-2.712-1.125-2.712v-1.984c1.918,0,3.109,1.8,3.109,4.7a3.217,3.217,0,0,0,6.058,1.673c2.365-4.727-2-12.852-9.167-12.852V169C264.563,169,270,178.6,266.943,184.725Z" transform="translate(-243.879 -160.533)" fill="#333"/>
  </g>
</svg>
