<svg xmlns="http://www.w3.org/2000/svg" width="16.379" height="19.538" viewBox="0 0 16.379 19.538">
  <g id="Flash_On" transform="translate(0)">
    <path id="Path_3065" data-name="Path 3065" d="M169.753-533.1l-.953,1.905.259.263c.142.146,1.707,1.776,3.474,3.625s3.237,3.362,3.263,3.362.884-1.009,1.909-2.241l1.871-2.241-3.121-.013c-1.715,0-3.121-.022-3.121-.035s3.638-5.362,4.362-6.409l.082-.116h-7.073Z" transform="translate(-164.456 535)" fill="#fff"/>
    <path id="Path_3066" data-name="Path 3066" d="M68.25-515.488l-.25.224,1.832,1.905c1.009,1.047,1.832,1.927,1.832,1.953s-.582,1.207-1.293,2.629l-1.293,2.586h2.629c1.444,0,2.629.013,2.629.03s-.59,2.013-1.31,4.431l-1.306,4.4.3.168.3.168.095-.116c1.172-1.448,6.008-7.22,6.043-7.211s1.241,1.259,2.707,2.789,2.677,2.784,2.69,2.789a1.176,1.176,0,0,0,.276-.215l.25-.224-2.34-2.435c-1.284-1.34-4.082-4.259-6.215-6.487s-4.642-4.845-5.573-5.815-1.711-1.776-1.724-1.78A1.175,1.175,0,0,0,68.25-515.488Z" transform="translate(-68 516.535)" fill="#fff"/>
  </g>
</svg>
