<svg id="hotel-food-service-yellow-15756" xmlns="http://www.w3.org/2000/svg" width="118.828" height="137.478" viewBox="0 0 118.828 137.478">
  <path id="Path_3365" data-name="Path 3365" d="M104.959,183.253l5.273-4.506a24.645,24.645,0,0,1-13.03,3.307,9.446,9.446,0,0,1-5.91-2.467A30.721,30.721,0,0,0,88,190.223a13.01,13.01,0,0,1-.686,2.565,32.2,32.2,0,0,1,3.458-2.055l12.79-6.552A7.005,7.005,0,0,0,104.959,183.253Z" transform="translate(-49.177 -81.579)" fill="#f9e1e1"/>
  <path id="Path_3366" data-name="Path 3366" d="M93.26,36.347A40.377,40.377,0,0,0,53.727,68.774h79.065A40.377,40.377,0,0,0,93.26,36.347Z" transform="translate(-33.846 -16.589)" fill="#f9e1e1"/>
  <path id="Path_3367" data-name="Path 3367" d="M129.792,59.059h-3.008a50.3,50.3,0,0,0-44.32-48.872,6.435,6.435,0,1,0-10.552-.133A50.3,50.3,0,0,0,26.354,59.061H23.346a6.191,6.191,0,0,0,0,12.382H59.972a4.784,4.784,0,0,0-.764,1.824c-1.268,6.94-3.345,12.2-6.364,16.108-4.471,5.924-5.993,10.972-7,17.2a1.616,1.616,0,0,1-.55.994L43.728,108.8l-2.161-2.6a1.528,1.528,0,0,0-2.151-.2l-10.37,8.6a1.528,1.528,0,0,0-.2,2.151l16.742,20.179a1.531,1.531,0,0,0,2.152.2l10.37-8.6a1.528,1.528,0,0,0,.2-2.151l-2.905-3.5,3.857-3.2a18.367,18.367,0,0,1,3.373-2.223l11.382-5.828a16.207,16.207,0,0,0,3.165-2.12l5.252-4.488a16.192,16.192,0,0,0,3.926-4.974L98.6,76.444a5.193,5.193,0,0,0-.162-5h31.354a6.193,6.193,0,0,0,0-12.385Zm-52.549-56a3.387,3.387,0,1,1-3.388,3.388A3.392,3.392,0,0,1,77.244,3.055Zm-.675,9.83A47.234,47.234,0,0,1,123.73,59.059H29.407A47.234,47.234,0,0,1,76.568,12.885ZM46.963,133.8,32.172,115.972l8.02-6.652,2.134,2.572s0,0,0,0l9.75,11.751a0,0,0,0,1,0,0l2.9,3.5ZM95.884,75.043,83.642,98.636a13.2,13.2,0,0,1-3.194,4.051L75.2,107.175a13.269,13.269,0,0,1-2.572,1.722l-11.382,5.828a21.493,21.493,0,0,0-3.932,2.591l-3.857,3.2-7.774-9.37,1.528-1.2a4.7,4.7,0,0,0,1.654-2.893c.955-5.91,2.311-10.4,6.41-15.827,3.313-4.286,5.583-9.981,6.941-17.412a1.766,1.766,0,0,1,1.714-1.448h.021a1.765,1.765,0,0,1,1.764,1.764c-.024,7.609-.962,13.415-2.864,17.748a1.529,1.529,0,0,0,1.323,2.142c9.73.5,20.348-12.138,28.14-21.353a2.162,2.162,0,0,1,3.574,2.378ZM66.536,90.8c1.477-4.387,2.209-9.868,2.23-16.656a4.767,4.767,0,0,0-.82-2.7h21.4C82.694,79.3,74.022,89.329,66.536,90.8Zm63.257-22.41H23.345a3.136,3.136,0,0,1,0-6.272H129.792a3.136,3.136,0,0,1,0,6.272Z" transform="translate(-17.155)"/>
  <path id="Path_3368" data-name="Path 3368" d="M93.819,49.324C83.79,52.4,76.36,59.563,73.945,68.483a1.529,1.529,0,0,0,1.075,1.874,1.567,1.567,0,0,0,.4.053A1.529,1.529,0,0,0,76.9,69.282C79,61.5,85.831,54.972,94.717,52.247a1.529,1.529,0,1,0-.9-2.922Z" transform="translate(-43.049 -22.481)"/>
</svg>
