<svg id="food_categories" data-name="food categories" xmlns="http://www.w3.org/2000/svg" width="21.173" height="21.173" viewBox="0 0 21.173 21.173">
  <path id="Path_2846" data-name="Path 2846" d="M311.187-539.942a1.762,1.762,0,0,1,.873.5,1.841,1.841,0,0,1,.36,2.121,2.14,2.14,0,0,1-.839.844c-.389.182-.579.2-2.051.2-1.571,0-1.609.008-1.786.323a.554.554,0,0,0,0,.6c.165.289.285.323,1.166.323a7.935,7.935,0,0,1,.984.045,1.848,1.848,0,0,1,.926.513,1.892,1.892,0,0,1,.554,1.53v.393h-1.241v-.372c0-.455-.074-.637-.323-.777-.153-.087-.215-.091-.93-.091a2.927,2.927,0,0,1-1.435-.2,2.123,2.123,0,0,1-.839-.848,1.841,1.841,0,0,1,.36-2.121,1.81,1.81,0,0,1,.926-.509,15.427,15.427,0,0,1,1.609-.046c1.336,0,1.394,0,1.542-.087a.692.692,0,0,0,.331-.529.66.66,0,0,0-.323-.533l-.165-.091h-5.715V-540l2.9,0C310.253-540,311.034-539.979,311.187-539.942Z" transform="translate(-303.889 540)"/>
  <path id="Path_2850" data-name="Path 2850" d="M8.5-1.41C8.32-1.429,0,3.806,0,8.5s3.806,3.431,8.5,3.431S17,13.194,17,8.5,8.68-1.391,8.5-1.41Z" transform="translate(2.173 9)" fill="#fff"/>
  <path id="Path_2847" data-name="Path 2847" d="M15.021-389.827a1.762,1.762,0,0,1,.873.5,1.783,1.783,0,0,1,.5,1.716,2.553,2.553,0,0,1-.083.294c-.021.05.07.087.521.2a9.467,9.467,0,0,1,5.541,3.933A9.626,9.626,0,0,1,23.874-379l.029.36h1.27v1.241H23.7l-.62,1.241-.62,1.241H6.75l-.62-1.241-.62-1.241H4v-1.241H5.323v-.178a8.638,8.638,0,0,1,.207-1.348,9.559,9.559,0,0,1,4.259-5.889,10.091,10.091,0,0,1,2.7-1.108c.327-.079.4-.108.376-.161a2.562,2.562,0,0,1-.141-.691,1.891,1.891,0,0,1,1.48-1.828A1.805,1.805,0,0,1,15.021-389.827Zm-.715,1.261a.7.7,0,0,0-.339.542.671.671,0,0,0,.624.62.681.681,0,0,0,.616-.624.64.64,0,0,0-.314-.517A.557.557,0,0,0,14.305-388.566Zm-.509,2.448a7.975,7.975,0,0,0-4.756,2.208,7.917,7.917,0,0,0-1.9,2.8,8.417,8.417,0,0,0-.575,2.341v.136H22.65v-.136c0-.07-.029-.31-.062-.525a8.181,8.181,0,0,0-3.192-5.26A8.027,8.027,0,0,0,13.8-386.118Zm-6.86,8.742c0,.012.136.289.3.62l.3.6H21.678l.3-.6c.161-.331.3-.608.3-.62s-3.453-.021-7.671-.021S6.936-377.388,6.936-377.376Z" transform="translate(-4 396.088)"/>
</svg>
