<svg xmlns="http://www.w3.org/2000/svg" width="29.224" height="29.224" viewBox="0 0 29.224 29.224">
  <g id="_-Product-Icons" data-name="ðŸ”-Product-Icons" transform="translate(-3 -3)">
    <g id="ic_fluent_image_library_28_filled" transform="translate(3 3)">
      <path id="_-Color" data-name="ðŸŽ¨-Color" d="M30.176,7.088a4.409,4.409,0,0,1,2.048,3.727V25.088a7.136,7.136,0,0,1-7.136,7.136H10.816a4.414,4.414,0,0,1-3.73-2.049l.166.008.165,0h17.67a5.1,5.1,0,0,0,5.1-5.1V7.418Q30.185,7.252,30.176,7.088ZM16.5,18.153l.127.106,10.1,9.912a4.4,4.4,0,0,1-2.315.654H7.418A4.4,4.4,0,0,1,5.1,28.171l10.1-9.912.114-.1a1.021,1.021,0,0,1,1.049-.092l.139.082ZM24.408,3a4.418,4.418,0,0,1,4.418,4.418v16.99a4.4,4.4,0,0,1-.659,2.323L18.055,16.8l-.175-.159a3.059,3.059,0,0,0-3.926-.008l-.184.167L3.659,26.731A4.4,4.4,0,0,1,3,24.408V7.418A4.418,4.418,0,0,1,7.418,3ZM21.349,8.777a1.7,1.7,0,1,0,1.7,1.7A1.7,1.7,0,0,0,21.349,8.777Z" transform="translate(-3 -3)" fill="#212121"/>
    </g>
  </g>
</svg>
