<svg xmlns="http://www.w3.org/2000/svg" width="22.069" height="22.069" fill="#fff" viewBox="0 0 22.069 22.069">
  <path id="gear_1_" data-name="gear (1)" d="M21.55,8.522l-1.7-.369a9.231,9.231,0,0,0-.546-1.316l.939-1.461a.66.66,0,0,0-.088-.823L17.516,1.911a.66.66,0,0,0-.823-.088l-1.461.939a9.231,9.231,0,0,0-1.316-.546l-.369-1.7A.659.659,0,0,0,12.9,0H9.166a.659.659,0,0,0-.644.519l-.369,1.7a9.231,9.231,0,0,0-1.316.546L5.376,1.822a.66.66,0,0,0-.823.088L1.911,4.553a.66.66,0,0,0-.088.823l.939,1.461a9.231,9.231,0,0,0-.546,1.316l-1.7.369A.66.66,0,0,0,0,9.166V12.9a.66.66,0,0,0,.519.644l1.7.369a9.231,9.231,0,0,0,.546,1.316l-.939,1.461a.66.66,0,0,0,.088.823l2.642,2.642a.66.66,0,0,0,.823.088l1.461-.939a9.231,9.231,0,0,0,1.316.546l.369,1.7a.659.659,0,0,0,.644.519H12.9a.659.659,0,0,0,.644-.519l.369-1.7a9.231,9.231,0,0,0,1.316-.546l1.461.939a.659.659,0,0,0,.823-.088l2.642-2.642a.66.66,0,0,0,.088-.823l-.939-1.461a9.231,9.231,0,0,0,.546-1.316l1.7-.369a.66.66,0,0,0,.519-.644V9.166A.66.66,0,0,0,21.55,8.522Zm-6.559,2.513a3.957,3.957,0,1,1-3.957-3.957A3.961,3.961,0,0,1,14.991,11.034Zm0,0" />
</svg>
