<svg xmlns="http://www.w3.org/2000/svg" width="28.521" height="28.503" viewBox="0 0 28.521 28.503">
  <g id="Certification-Warranty-Vaccine-Checklist-Coronavirus" transform="translate(0)">
    <path id="Path_2361" data-name="Path 2361" d="M28.427,7.375v20.9H15.6a.475.475,0,0,0-.475.475v.475a2.375,2.375,0,1,1-4.75,0V7.375A2.375,2.375,0,0,0,8,5H26.052A2.375,2.375,0,0,1,28.427,7.375Z" transform="translate(-5.15 -3.575)" fill="#fff"/>
    <path id="Path_2362" data-name="Path 2362" d="M38.427,54.475v.475a2.375,2.375,0,0,1-2.375,2.375H18a2.368,2.368,0,0,0,2.375-2.375v-.475A.475.475,0,0,1,20.85,54h17.1A.475.475,0,0,1,38.427,54.475Z" transform="translate(-10.399 -29.297)" fill="#d8d7da"/>
    <path id="Path_2363" data-name="Path 2363" d="M46.931,35.76v4.028l-.523.523a.475.475,0,0,1-.67,0l-1.012,1.007a.475.475,0,0,1-.67,0l-.337-.333-.333-.337a.475.475,0,0,1,0-.67l1.007-1.012a.475.475,0,0,1,0-.67L45.4,37.29l1.344-1.344Z" transform="translate(-23.654 -19.722)" fill="#d8d7da"/>
    <path id="Path_2364" data-name="Path 2364" d="M45.859,34.15l2.014,2.014-.879.879-1.473,1.473a.475.475,0,0,1-.67,0l-1.344-1.344a.475.475,0,0,1,0-.67l1.007-1.007Z" transform="translate(-23.717 -18.877)" fill="#5aaae7"/>
    <path id="Path_2365" data-name="Path 2365" d="M50.287,31.663l1.344,1.344.337.337-1.344,1.34L48.61,32.67l1.135-1.135.209-.2Z" transform="translate(-26.468 -17.397)" fill="#c6c5ca"/>
    <path id="Path_2366" data-name="Path 2366" d="M55.5,29.134l-2.009,2.014h0L52.15,29.8l2.009-2.014Z" transform="translate(-28.326 -15.538)" fill="#acabb1"/>
    <path id="Path_2367" data-name="Path 2367" d="M43.739,41.854l-1.012,1.007a.475.475,0,0,1-.67,0l-.337-.333-.333-.337a.475.475,0,0,1,0-.67l1.007-1.012Z" transform="translate(-22.604 -22.216)" fill="#c6c5ca"/>
    <path id="Path_2368" data-name="Path 2368" d="M25.24,24.556A1.9,1.9,0,1,1,23.9,24,1.9,1.9,0,0,1,25.24,24.556Z" transform="translate(-12.494 -13.549)" fill="#d8d7da"/>
    <path id="Path_2369" data-name="Path 2369" d="M33.7,7.375v.95a.475.475,0,0,1-.475.475H31.8v1.425a.475.475,0,0,1-.475.475h-.95a.475.475,0,0,1-.475-.475V8.8H28.475A.475.475,0,0,1,28,8.325v-.95a.475.475,0,0,1,.475-.475H29.9V5.475A.475.475,0,0,1,30.375,5h.95a.475.475,0,0,1,.475.475V6.9h1.425A.475.475,0,0,1,33.7,7.375Z" transform="translate(-15.649 -3.575)" fill="#d8d7da"/>
    <path id="Path_2370" data-name="Path 2370" d="M23.24,22.556A1.9,1.9,0,1,1,21.9,22,1.9,1.9,0,0,1,23.24,22.556Z" transform="translate(-11.445 -12.499)" fill="#ff5023"/>
    <path id="Path_2371" data-name="Path 2371" d="M7.75,7.375v.95H3.475A.475.475,0,0,1,3,7.85V7.375a2.375,2.375,0,1,1,4.75,0Z" transform="translate(-2.525 -3.575)" fill="#d8d7da"/>
    <path id="Path_2372" data-name="Path 2372" d="M31.7,5.375v.95a.475.475,0,0,1-.475.475H29.8V8.226a.475.475,0,0,1-.475.475h-.95a.475.475,0,0,1-.475-.475V6.8H26.475A.475.475,0,0,1,26,6.325v-.95a.475.475,0,0,1,.475-.475H27.9V3.475A.475.475,0,0,1,28.375,3h.95a.475.475,0,0,1,.475.475V4.9h1.425A.475.475,0,0,1,31.7,5.375Z" transform="translate(-14.599 -2.525)" fill="#ff9811"/>
    <path id="Path_2373" data-name="Path 2373" d="M29.552,27.277h-3.8v-3.8H24.8v3.8H12.451a.95.95,0,0,0-.95.95V28.7a1.9,1.9,0,1,1-3.8,0V6.85a2.836,2.836,0,0,0-.732-1.9h5.482V4H4.85A2.853,2.853,0,0,0,2,6.85v.475a.95.95,0,0,0,.95.95h3.8V28.7a2.853,2.853,0,0,0,2.85,2.85H27.652A2.853,2.853,0,0,0,30.5,28.7v-.475A.95.95,0,0,0,29.552,27.277ZM2.95,6.85a1.9,1.9,0,1,1,3.8,0v.475H2.95ZM29.552,28.7a1.9,1.9,0,0,1-1.9,1.9H11.719a2.836,2.836,0,0,0,.732-1.9v-.475h17.1Z" transform="translate(-2 -3.05)"/>
    <path id="Path_2374" data-name="Path 2374" d="M17.449,23.48l-.336-.336-.672.672,1.343,1.344.672-.672-.336-.336.372-.372a2.357,2.357,0,0,0,.833.348v.523H18.85v.95h1.9v-.95h-.475v-.523a2.357,2.357,0,0,0,.833-.348l.372.372-.336.336.672.672,1.343-1.344-.672-.672-.336.336-.372-.372a2.361,2.361,0,0,0,.348-.833h.523v.475h.95v-1.9h-.95v.475h-.523a2.36,2.36,0,0,0-.348-.833l.372-.372.336.336.672-.672-1.343-1.344-.672.672.336.336-.372.372a2.357,2.357,0,0,0-.833-.348V18.95h.475V18h-1.9v.95h.475v.523a2.357,2.357,0,0,0-.833.348l-.372-.372.336-.336-.672-.672-1.343,1.344.672.672.336-.336.372.372a2.36,2.36,0,0,0-.348.833H16.95V20.85H16v1.9h.95v-.475h.523a2.361,2.361,0,0,0,.348.833Zm2.351-3.1A1.425,1.425,0,1,1,18.375,21.8,1.425,1.425,0,0,1,19.8,20.375Z" transform="translate(-9.349 -10.399)"/>
    <path id="Path_2375" data-name="Path 2375" d="M18,36h8.551v.95H18Z" transform="translate(-10.399 -19.848)"/>
    <path id="Path_2376" data-name="Path 2376" d="M34,31h5.7v.95H34Z" transform="translate(-18.798 -17.224)"/>
    <path id="Path_2377" data-name="Path 2377" d="M34,27h5.7v.95H34Z" transform="translate(-18.798 -15.124)"/>
    <path id="Path_2378" data-name="Path 2378" d="M34,23h5.7v.95H34Z" transform="translate(-18.798 -13.024)"/>
    <path id="Path_2379" data-name="Path 2379" d="M34,19h5.7v.95H34Z" transform="translate(-18.798 -10.924)"/>
    <path id="Path_2380" data-name="Path 2380" d="M18,40h8.551v.95H18Z" transform="translate(-10.399 -21.948)"/>
    <path id="Path_2381" data-name="Path 2381" d="M18,44h8.551v.95H18Z" transform="translate(-10.399 -24.048)"/>
    <path id="Path_2382" data-name="Path 2382" d="M18,48h8.551v.95H18Z" transform="translate(-10.399 -26.148)"/>
    <path id="Path_2383" data-name="Path 2383" d="M25.95,6.75h.95V7.7a.95.95,0,0,0,.95.95h.95a.95.95,0,0,0,.95-.95V6.75h.95a.95.95,0,0,0,.95-.95V4.85a.95.95,0,0,0-.95-.95h-.95V2.95A.95.95,0,0,0,28.8,2h-.95a.95.95,0,0,0-.95.95V3.9h-.95a.95.95,0,0,0-.95.95V5.8A.95.95,0,0,0,25.95,6.75Zm0-1.9h1.425a.475.475,0,0,0,.475-.475V2.95h.95V4.375a.475.475,0,0,0,.475.475H30.7V5.8H29.275a.475.475,0,0,0-.475.475V7.7h-.95V6.275a.475.475,0,0,0-.475-.475H25.95Z" transform="translate(-14.074 -2)"/>
    <path id="Path_2384" data-name="Path 2384" d="M45.7,6.85v7.6h-.95V6.85a1.9,1.9,0,0,0-1.9-1.9H40V4h2.85A2.85,2.85,0,0,1,45.7,6.85Z" transform="translate(-21.948 -3.05)"/>
    <path id="Path_2385" data-name="Path 2385" d="M45.689,24.96l-.67.67.67.675-1.344,1.344v0l-1.007-1.007-.67.675.67.67L39.979,31.34a.946.946,0,0,0-.242.917l-.765.765a.946.946,0,0,0,0,1.344L37.29,36.043l.675.675,1.677-1.682a.946.946,0,0,0,1.344,0l.765-.765a1.062,1.062,0,0,0,.242.033.952.952,0,0,0,.675-.276l3.359-3.359.67.67.675-.67-1.012-1.007L47.7,28.319l.675.67.67-.67Zm-5.373,9.406-.675-.675.675-.67.333.337.337.333Zm1.677-1.007-1.344-1.344.675-.675.67.675.675-.675-.675-.67L42.667,30l1.344,1.344Zm2.689-2.689-1.344-1.344.67-.67L45.351,30Zm1.007-1.682-.67-.67,1.34-1.344.675.675Z" transform="translate(-20.526 -14.053)"/>
  </g>
</svg>
