<svg xmlns="http://www.w3.org/2000/svg" width="22.191" height="22.191" viewBox="0 0 22.191 22.191">
  <g id="help1-svgrepo-com" transform="translate(-2.672 -2.672)">
    <path id="Path_4565" data-name="Path 4565" d="M13.768,2.672a11.1,11.1,0,1,0,11.1,11.1,11.1,11.1,0,0,0-11.1-11.1Zm0,21.3A10.208,10.208,0,1,1,23.976,13.768,10.22,10.22,0,0,1,13.768,23.976Z" fill="#919191"/>
    <path id="Path_4566" data-name="Path 4566" d="M15.245,9.013a3.282,3.282,0,0,0-3.526,3.6H12.7a2.418,2.418,0,0,1,2.5-2.774,2.118,2.118,0,0,1,2.221,2.1,2.775,2.775,0,0,1-1.01,2A3.643,3.643,0,0,0,14.84,17.05h.992c.058-1.361.028-1.334,1.216-2.522A3.466,3.466,0,0,0,18.4,11.887a2.9,2.9,0,0,0-3.153-2.874Z" transform="translate(-1.515 -1.062)" fill="#919191"/>
    <path id="Path_4567" data-name="Path 4567" d="M15.821,20.8a.887.887,0,1,0,.887.887A.888.888,0,0,0,15.821,20.8Z" transform="translate(-2.054 -3.036)" fill="#919191"/>
  </g>
</svg>
