<svg xmlns="http://www.w3.org/2000/svg" width="30.534" height="19.903" viewBox="0 0 30.534 19.903">
  <g id="id-card-user-svgrepo-com" transform="translate(0 -89.13)">
    <g id="Group_6816" data-name="Group 6816" transform="translate(0 89.13)">
      <g id="Group_6815" data-name="Group 6815">
        <path id="Path_4544" data-name="Path 4544" d="M28.589,89.13H1.945A1.947,1.947,0,0,0,0,91.075v16.013a1.947,1.947,0,0,0,1.945,1.945H28.589a1.947,1.947,0,0,0,1.945-1.945V91.075A1.947,1.947,0,0,0,28.589,89.13Zm.648,17.958a.649.649,0,0,1-.648.648H1.945a.649.649,0,0,1-.648-.648V91.075a.649.649,0,0,1,.648-.648H28.589a.649.649,0,0,1,.648.648Z" transform="translate(0 -89.13)" fill="#919191"/>
      </g>
    </g>
    <g id="Group_6818" data-name="Group 6818" transform="translate(17.567 94.818)">
      <g id="Group_6817" data-name="Group 6817">
        <path id="Path_4545" data-name="Path 4545" d="M302.177,184.506h-6.957a.648.648,0,1,0,0,1.3h6.957a.648.648,0,1,0,0-1.3Z" transform="translate(-294.571 -184.506)" fill="#919191"/>
      </g>
    </g>
    <g id="Group_6820" data-name="Group 6820" transform="translate(17.567 98.433)">
      <g id="Group_6819" data-name="Group 6819">
        <path id="Path_4546" data-name="Path 4546" d="M302.177,245.129h-6.957a.648.648,0,0,0,0,1.3h6.957a.648.648,0,0,0,0-1.3Z" transform="translate(-294.571 -245.129)" fill="#919191"/>
      </g>
    </g>
    <g id="Group_6822" data-name="Group 6822" transform="translate(17.567 102.048)">
      <g id="Group_6821" data-name="Group 6821">
        <path id="Path_4547" data-name="Path 4547" d="M302.177,305.752h-6.957a.648.648,0,0,0,0,1.3h6.957a.648.648,0,0,0,0-1.3Z" transform="translate(-294.571 -305.752)" fill="#919191"/>
      </g>
    </g>
    <g id="Group_6824" data-name="Group 6824" transform="translate(3.364 91.946)">
      <g id="Group_6823" data-name="Group 6823">
        <path id="Path_4548" data-name="Path 4548" d="M65.022,145.531A1.54,1.54,0,0,1,63.5,144.3a3.717,3.717,0,0,0,1.056-1.38c.019,0,.038,0,.057,0a.584.584,0,0,0,.46-.225,3.952,3.952,0,0,0,.8-2.556,3.419,3.419,0,0,0-3.12-3.538c-.046,0-.087,0-.12,0h0a2.96,2.96,0,0,0-1.285-.246,3.211,3.211,0,0,0-2.455,1.325,4.7,4.7,0,0,0-.843,3.4,4.658,4.658,0,0,0,.376,1.306.583.583,0,0,0,.5.34.575.575,0,0,0,.172-.016,3.813,3.813,0,0,0,1.145,1.579,1.544,1.544,0,0,1-1.521,1.238,2.381,2.381,0,0,0-2.3,2.377v2.362a.583.583,0,0,0,.583.583h9.741a.583.583,0,0,0,.583-.583v-2.362A2.381,2.381,0,0,0,65.022,145.531Zm-5.811-4.557-.008-.054a3.411,3.411,0,0,1-.033-.383,3.344,3.344,0,0,1,.646-2.146,2.067,2.067,0,0,1,1.566-.87,1.656,1.656,0,0,1,.878.194.524.524,0,0,0,.278.061l.2-.009a2.3,2.3,0,0,1,1.973,2.409,3.105,3.105,0,0,1-.018.447,3.464,3.464,0,0,0-1.642-1.463.583.583,0,0,0-.773.335,2.515,2.515,0,0,1-.163.353.886.886,0,0,1-.818.424c-.07,0-.141,0-.21,0a3.122,3.122,0,0,0-.993.195A3.156,3.156,0,0,0,59.211,140.974Zm.813.847a2.339,2.339,0,0,1,.476-.261,2.051,2.051,0,0,1,.753-.121,2.053,2.053,0,0,0,1.819-.925,2.433,2.433,0,0,1,.715.9c-.181,1.309-1,2.306-1.92,2.306C61.042,143.719,60.3,142.939,60.024,141.821Zm1.282,3a2.438,2.438,0,0,0,.561.066,2.482,2.482,0,0,0,.564-.066,2.685,2.685,0,0,0,1.1,1.446,1.77,1.77,0,0,1-3.326,0A2.684,2.684,0,0,0,61.306,144.82Zm-3.724,4.867v-1.779a1.214,1.214,0,0,1,1.212-1.212c.013,0,.226-.012.317-.025a2.936,2.936,0,0,0,5.515,0c.091.012.3.025.317.025a1.214,1.214,0,0,1,1.212,1.212v1.779Z" transform="translate(-56.415 -136.354)" fill="#919191"/>
      </g>
    </g>
  </g>
</svg>
