<svg id="id-card" xmlns="http://www.w3.org/2000/svg" width="30" height="22" viewBox="0 0 30 22">
  <g id="Group_3729" data-name="Group 3729" transform="translate(6.224 4.979)">
    <path id="Path_2561" data-name="Path 2561" d="M8.112,13.224a3.112,3.112,0,1,1,3.112-3.112A3.116,3.116,0,0,1,8.112,13.224Zm0-4.979a1.867,1.867,0,1,0,1.867,1.867A1.87,1.87,0,0,0,8.112,8.245Z" transform="translate(-5 -7)"/>
  </g>
  <g id="Group_3730" data-name="Group 3730" transform="translate(3.734 12.448)">
    <path id="Path_2562" data-name="Path 2562" d="M13.581,17.979a.623.623,0,0,1-.622-.622V16.112a1.87,1.87,0,0,0-1.867-1.867H6.112a1.87,1.87,0,0,0-1.867,1.867v1.245a.622.622,0,1,1-1.245,0V16.112A3.116,3.116,0,0,1,6.112,13h4.979A3.116,3.116,0,0,1,14.2,16.112v1.245A.623.623,0,0,1,13.581,17.979Z" transform="translate(-3 -13)"/>
  </g>
  <g id="Group_3731" data-name="Group 3731" transform="translate(17.428 6.224)">
    <path id="Path_2563" data-name="Path 2563" d="M22.091,9.245H14.622a.622.622,0,0,1,0-1.245h7.469a.622.622,0,0,1,0,1.245Z" transform="translate(-14 -8)"/>
  </g>
  <g id="Group_3732" data-name="Group 3732" transform="translate(17.428 11.204)">
    <path id="Path_2564" data-name="Path 2564" d="M22.091,13.245H14.622a.622.622,0,0,1,0-1.245h7.469a.622.622,0,0,1,0,1.245Z" transform="translate(-14 -12)"/>
  </g>
  <g id="Group_3733" data-name="Group 3733" transform="translate(17.428 16.183)">
    <path id="Path_2565" data-name="Path 2565" d="M22.091,17.245H14.622a.622.622,0,0,1,0-1.245h7.469a.622.622,0,0,1,0,1.245Z" transform="translate(-14 -16)"/>
  </g>
  <g id="Rectangle_2895" data-name="Rectangle 2895" fill="none" stroke="#000" stroke-width="1">
    <rect width="30" height="22" rx="3" stroke="none"/>
    <rect x="0.5" y="0.5" width="29" height="21" rx="2.5" fill="none"/>
  </g>
</svg>
