<svg xmlns="http://www.w3.org/2000/svg" xmlns:xlink="http://www.w3.org/1999/xlink" width="287.349" height="221.88" viewBox="0 0 287.349 221.88">
  <defs>
    <clipPath id="clip-path">
      <rect id="Rectangle_3100" data-name="Rectangle 3100" width="41.905" height="57.655"/>
    </clipPath>
  </defs>
  <g id="Objects" transform="translate(-49.429)">
    <g id="Group_6375" data-name="Group 6375">
      <g id="Group_6376" data-name="Group 6376">
        <g id="Group_6352" data-name="Group 6352" transform="translate(22 44.871)">
          <path id="Path_3377" data-name="Path 3377" d="M7.09,453.265s24.522-2.065,56.4-2.166,42.73,3.691,42.73,3.691-7.336,34.322-9.417,40.592-77.176,3.281-80.959-1.263S7.09,453.265,7.09,453.265Z" transform="translate(20.339 -321.946)" fill="#313138"/>
          <path id="Path_3378" data-name="Path 3378" d="M25.035,429.444s68.811-9.537,75.973-4.253l7.161,5.284-8.206,26.167S21.041,459.011,25.035,429.444Z" transform="translate(13.137 -310.818)" fill="#e0e0e0"/>
          <g id="Group_6351" data-name="Group 6351" transform="translate(40.994)">
            <path id="Path_3379" data-name="Path 3379" d="M88.709,234.568s-1.128-2.433-6.812,4.609c-4.648,5.758-4.231,11.953-11.025,14.832-9.578,4.06-7.063,19.969-9.956,19.99-8.74.065-9.9,5.106-20.545,60.468.12,1.129-10.5,34.012-10.5,34.012s55.569,23.572,65.638.237c7.43-17.218,12.25-28.8,14.266-33.687a4.962,4.962,0,0,1,3.811-3.005c6.6-1.062,23.438-4.707,31.4-15.075,10.024-13.056,20.661-34.811,26.268-41.117s9.139-14.861,1.145-18c-10.123-3.979-26.871,18.692-30.641,20.807s-13.064,1.643-12.356-2.428,2.078-6.863-.846-9.765C121.387,259.323,95.865,232.092,88.709,234.568Z" transform="translate(-29.875 -234.161)" fill="#fed5c4"/>
            <g id="Group_6350" data-name="Group 6350" transform="translate(29.564 17.467)">
              <path id="Path_3380" data-name="Path 3380" d="M113.835,409.923c-15.313,10.738-34.3.156-34.3.156,13.691,16.446,32.08,15.659,40.687,14.149,4.842-11.341,8.091-19.154,9.655-22.943a4.962,4.962,0,0,1,3.81-3.005C130.112,396.838,129.147,399.185,113.835,409.923Z" transform="translate(-79.534 -317.885)" fill="#febda3"/>
              <g id="Group_6349" data-name="Group 6349" transform="translate(11.471)">
                <path id="Path_3381" data-name="Path 3381" d="M157.3,288.079c.707-4.071,2.078-6.863-.846-9.765-2.027-2.012-5.52-5.631-9.65-9.731-3.3-2.817-5.865-5.082-5.865-5.082s13.69,16.592,13.146,21.077-2.8,18.406-7.746,26.371a6.252,6.252,0,0,1-3.261,2.486c1.528-6.219,3.888-14.161,2.73-16.7-1.642-3.6-30.8-24.7-38.315-27.354.033.311,35.345,27.68,34.433,30.923s-.419,16.713-5.407,20.076c-2.936,1.98-4.545,3.051-5.378,3.6.8-6.97,2.031-14.657.117-16.425-2.442-2.256-15.95-9.13-32.427-16.179-1.036-.444,28.91,14.529,29.441,19.5s1.579,17.758-2.331,19.433-14.881-.929-17.111-4.151a22.437,22.437,0,0,0-2.525-3.076,61.65,61.65,0,0,1,7.126-4.648l-10.44,2.371.06.173a2.633,2.633,0,0,0-2.558.722c-2.567,2.475,3.482,9.063,8.79,11.643s18.093,3.969,19.547.9c.711-.519,2.579-1.8,4.672-3.572l3.62,8.125s5.635-17.2,10.7-21.613a12.149,12.149,0,0,0,4.18-8.46,13.015,13.015,0,0,0,1.51-3.991c.617-3.55,3.122-9.078,4.893-14.26A2.314,2.314,0,0,1,157.3,288.079Z" transform="translate(-98.802 -263.501)" fill="#febda3"/>
              </g>
            </g>
          </g>
          <path id="Path_3382" data-name="Path 3382" d="M20.772,433.419s72.9,8.171,83.134,1.032c-.486.6-8.206,26.167-8.206,26.167s-67.934,2.3-77.64-1.067S20.772,433.419,20.772,433.419Z" transform="translate(17.401 -314.793)" fill="#fff"/>
        </g>
        <g id="Group_6371" data-name="Group 6371" transform="translate(192.586 5.205)">
          <g id="Group_6353" data-name="Group 6353">
            <path id="Path_3384" data-name="Path 3384" d="M361.221,257.736H236.559a9.515,9.515,0,0,1-9.515-9.515V177.533a9.515,9.515,0,0,1,9.515-9.515H361.221a9.515,9.515,0,0,1,9.515,9.514v70.688A9.515,9.515,0,0,1,361.221,257.736Z" transform="translate(-227.044 -168.018)" fill="#fffffc" stroke="#c9c9c9" stroke-width="1"/>
            <path id="Path_3385" data-name="Path 3385" d="M360.842,168.018h-123.9a9.9,9.9,0,0,0-9.895,9.895v8.45H370.736v-8.45A9.894,9.894,0,0,0,360.842,168.018Z" transform="translate(-227.044 -168.018)" fill="#c5cfd5"/>
          </g>
          <g id="Group_6354" data-name="Group 6354" transform="translate(12.103 4.532)">
            <rect id="Rectangle_3088" data-name="Rectangle 3088" width="116.856" height="5.895" fill="#fff"/>
            <rect id="Rectangle_3089" data-name="Rectangle 3089" width="116.856" height="1.811" transform="translate(0 7.796)" fill="#fff"/>
          </g>
          <g id="Group_6359" data-name="Group 6359" transform="translate(55.148 24.213)">
            <g id="Group_6355" data-name="Group 6355">
              <rect id="Rectangle_3090" data-name="Rectangle 3090" width="22.323" height="4.455" fill="#d5dad7"/>
              <rect id="Rectangle_3091" data-name="Rectangle 3091" width="57.05" height="3.716" transform="translate(0 6.652)" fill="#d5dad7"/>
            </g>
            <g id="Group_6356" data-name="Group 6356" transform="translate(0 14.221)">
              <rect id="Rectangle_3092" data-name="Rectangle 3092" width="32.227" height="4.455" fill="#d5dad7"/>
              <rect id="Rectangle_3093" data-name="Rectangle 3093" width="51.955" height="3.716" transform="translate(0 6.652)" fill="#d5dad7"/>
            </g>
            <g id="Group_6357" data-name="Group 6357" transform="translate(0 28.443)">
              <rect id="Rectangle_3094" data-name="Rectangle 3094" width="45.037" height="4.455" fill="#d5dad7"/>
              <rect id="Rectangle_3095" data-name="Rectangle 3095" width="22.064" height="3.716" transform="translate(0 6.652)" fill="#d5dad7"/>
            </g>
            <g id="Group_6358" data-name="Group 6358" transform="translate(0 42.664)">
              <rect id="Rectangle_3096" data-name="Rectangle 3096" width="22.323" height="4.455" fill="#d5dad7"/>
              <rect id="Rectangle_3097" data-name="Rectangle 3097" width="57.05" height="3.716" transform="translate(0 6.652)" fill="#d5dad7"/>
            </g>
          </g>
          <g id="Group_6368" data-name="Group 6368" transform="translate(6.768 22.696)">
            <rect id="Rectangle_3098" data-name="Rectangle 3098" width="41.905" height="57.655" fill="#dee6da"/>
            <g id="Group_6367" data-name="Group 6367" transform="translate(0.409)">
              <g id="Group_6366" data-name="Group 6366" clip-path="url(#clip-path)">
                <path id="Path_3386" data-name="Path 3386" d="M256.907,251.182l.423,20.3,5.4,4.287,5.745-4.631-.171-19.464S266.086,245.545,256.907,251.182Z" transform="translate(-241.661 -210.839)" fill="#fff"/>
                <g id="Group_6360" data-name="Group 6360" transform="translate(16.608 45.673)">
                  <path id="Path_3387" data-name="Path 3387" d="M264.273,264.212h-1.325l-1.382-5.141h4.091Z" transform="translate(-259.43 -259.071)" fill="#e08663"/>
                  <path id="Path_3388" data-name="Path 3388" d="M267.081,280.3h-8.359l3.543-14.833h1.274Z" transform="translate(-258.722 -260.665)" fill="#e08663"/>
                </g>
                <g id="Group_6361" data-name="Group 6361" transform="translate(5.967 20.573)">
                  <path id="Path_3389" data-name="Path 3389" d="M251.715,229.629a3.6,3.6,0,1,1-3.582-3.986A3.8,3.8,0,0,1,251.715,229.629Z" transform="translate(-244.55 -225.643)" fill="#febda3"/>
                  <path id="Path_3390" data-name="Path 3390" d="M282.088,229.629a3.6,3.6,0,1,1-3.582-3.986A3.8,3.8,0,0,1,282.088,229.629Z" transform="translate(-252.117 -225.643)" fill="#febda3"/>
                </g>
                <g id="Group_6362" data-name="Group 6362" transform="translate(15.274 31.959)">
                  <rect id="Rectangle_3099" data-name="Rectangle 3099" width="11.356" height="13.64" fill="#fed5c4"/>
                  <path id="Path_3391" data-name="Path 3391" d="M256.945,246.93a14.365,14.365,0,0,0,11.356,0v-6.124H256.945v6.124Z" transform="translate(-256.945 -240.806)" fill="#febda3"/>
                </g>
                <g id="Group_6363" data-name="Group 6363" transform="translate(5.92 3.178)">
                  <path id="Path_3392" data-name="Path 3392" d="M264.126,236.9H257.42a8.766,8.766,0,0,1-8.766-8.766V215.051a8.766,8.766,0,0,1,8.766-8.766h6.706a8.766,8.766,0,0,1,8.766,8.766v13.084A8.767,8.767,0,0,1,264.126,236.9Z" transform="translate(-245.525 -203.426)" fill="#fed5c4"/>
                  <path id="Path_3393" data-name="Path 3393" d="M252.882,209.055s11.166,10.1,16.214,8.566,4.895,4.436,4.895,4.436,3.365-7.189,2.447-9.79c-.765-2.169-.765-5.2-6.118-6.578S250.893,197.583,252.882,209.055Z" transform="translate(-246.531 -202.477)" fill="#59524f"/>
                  <path id="Path_3394" data-name="Path 3394" d="M248.413,207.408s-4.607.49-3.839,4.905a114.888,114.888,0,0,0,2.918,11.282s6.6-9.484,5.375-12.59S250.869,206.754,248.413,207.408Z" transform="translate(-244.487 -203.661)" fill="#59524f"/>
                  <path id="Path_3395" data-name="Path 3395" d="M261.436,223.377s1.74.307,1.535,3.275-1.126,5.935.1,6.037a1.919,1.919,0,0,0,1.74-.614s-.1,2.251-2.149,1.535-.921-4.4-.511-6.139A7.623,7.623,0,0,0,261.436,223.377Z" transform="translate(-248.709 -207.684)" fill="#febda3"/>
                </g>
                <g id="Group_6364" data-name="Group 6364" transform="translate(15.116 40.344)">
                  <path id="Path_3396" data-name="Path 3396" d="M256.874,251.973l5.751,5.471-5.891,3.507Z" transform="translate(-256.734 -251.973)" fill="#e0e0e0"/>
                  <path id="Path_3397" data-name="Path 3397" d="M270.186,251.973l-5.752,5.471,5.891,3.507Z" transform="translate(-258.652 -251.973)" fill="#e0e0e0"/>
                </g>
                <g id="Group_6365" data-name="Group 6365" transform="translate(-3.198 40.014)">
                  <path id="Path_3398" data-name="Path 3398" d="M250.74,251.534c.005.33,5.981,25.758,5.981,25.758H232.344V257.8Z" transform="translate(-232.344 -251.534)" fill="#45454f"/>
                  <path id="Path_3399" data-name="Path 3399" d="M270.186,251.534c-.005.33-5.981,25.758-5.981,25.758h24.378V257.8Z" transform="translate(-240.282 -251.534)" fill="#45454f"/>
                </g>
              </g>
            </g>
          </g>
          <g id="Group_6369" data-name="Group 6369" transform="translate(114.221 36.973)" opacity="0.43">
            <path id="Path_3400" data-name="Path 3400" d="M359.185,207.029v27.512h23.491V207.029Zm12.276,22.1a8.6,8.6,0,1,1,8.6-8.6A8.6,8.6,0,0,1,371.461,229.132Z" transform="translate(-359.185 -207.029)" fill="#a4b7c4"/>
            <circle id="Ellipse_617" data-name="Ellipse 617" cx="6.608" cy="6.608" r="6.608" transform="translate(5.736 6.821)" fill="#a4b7c4"/>
          </g>
        </g>
        <g id="Group_6373" data-name="Group 6373" transform="translate(114.856)">
          <g id="Group_6372" data-name="Group 6372">
            <path id="Path_3401" data-name="Path 3401" d="M135.389,190.758l-11.865,32.937s20.71,24.987,27.727,17.377c5.02-5.444,6.084-33.049,6.084-33.049s18.827-18.724,21.642-21.241,15.3-3.616,25.284-10.243c12.278-8.151,10.96-12.941,6.706-14.378s-34.864-1.49-39.476.188S138.022,186.557,135.389,190.758Z" transform="translate(-123.524 -161.085)" fill="#fed5c4"/>
            <path id="Path_3402" data-name="Path 3402" d="M233.826,162.176c-1.661-.561-7.347-.91-13.929-1.029l-4.616,8.493s15.454,2.555,19.007-.97a6.331,6.331,0,0,0,2.087-4.663A4.644,4.644,0,0,0,233.826,162.176Z" transform="translate(-146.383 -161.101)" fill="#fedfd3"/>
          </g>
          <path id="Path_3403" data-name="Path 3403" d="M128.334,231.025c4.773-1.651,16.023,7.178,26.9,17.19.614-3.056,1.413-7.536,1.727-10.047-.176-.044-.344-.095-.523-.135-13.6-3.1-23.666-11.373-25.171-18.518l-.175.288-3.86,10.715A1.1,1.1,0,0,1,128.334,231.025Z" transform="translate(-124.449 -175.642)" fill="#febda3"/>
        </g>
      </g>
    </g>
  </g>
</svg>
