<svg xmlns="http://www.w3.org/2000/svg" width="136" height="88" viewBox="0 0 136 88">
  <g id="Group_4533" data-name="Group 4533" transform="translate(-27.5 -371)">
    <g id="Group_4521" data-name="Group 4521" transform="translate(2 -5)">
      <line id="Line_430" data-name="Line 430" x2="19" transform="translate(142.5 376.5)" fill="none" stroke="#707070" stroke-width="1"/>
      <line id="Line_431" data-name="Line 431" y1="19" transform="translate(161 376)" fill="none" stroke="#707070" stroke-width="1"/>
    </g>
    <g id="Group_4523" data-name="Group 4523" transform="translate(144.5 440)">
      <line id="Line_430-2" data-name="Line 430" x2="19" transform="translate(0 18.5)" fill="none" stroke="#707070" stroke-width="1"/>
      <line id="Line_431-2" data-name="Line 431" y2="19" transform="translate(18.5)" fill="none" stroke="#707070" stroke-width="1"/>
    </g>
    <g id="Group_4522" data-name="Group 4522" transform="translate(27.5 371)">
      <line id="Line_430-3" data-name="Line 430" x1="19" transform="translate(0 0.5)" fill="none" stroke="#707070" stroke-width="1"/>
      <line id="Line_431-3" data-name="Line 431" y1="19" transform="translate(0.5)" fill="none" stroke="#707070" stroke-width="1"/>
    </g>
    <g id="Group_4524" data-name="Group 4524" transform="translate(27.5 440)">
      <line id="Line_430-4" data-name="Line 430" x1="19" transform="translate(0 18.5)" fill="none" stroke="#707070" stroke-width="1"/>
      <line id="Line_431-4" data-name="Line 431" y2="19" transform="translate(0.5)" fill="none" stroke="#707070" stroke-width="1"/>
    </g>
    <g id="Group_4529" data-name="Group 4529" transform="translate(-5631 -8395)">
      <g id="Rectangle_2813" data-name="Rectangle 2813" transform="translate(5676 8777)" fill="#fff" stroke="#707070" stroke-width="1" opacity="0.692">
        <rect width="102" height="66" rx="5" stroke="none"/>
        <rect x="0.5" y="0.5" width="101" height="65" rx="4.5" fill="none"/>
      </g>
      <g id="svgg" transform="translate(5685 8785.682)">
        <path id="path0" d="M126.957,95.714a4.086,4.086,0,0,1,3.061,2.682c.2.62.2.658.205,2.67a11.138,11.138,0,0,0,.054,1.952c.038.046.045.151.029.41-.012.192-.032.509-.044.705a1.422,1.422,0,0,1-.058.393.415.415,0,0,0-.036.2.318.318,0,0,1-.038.187.339.339,0,0,0-.039.195c0,.094-.017.171-.039.171s-.038.069-.038.154-.017.154-.039.154-.039.052-.039.116-.017.116-.038.116-.039.052-.039.116-.017.116-.039.116-.039.043-.039.1-.017.1-.038.1-.039.043-.039.1-.017.1-.039.1-.039.026-.039.058-.017.058-.038.058-.039.052-.039.116-.017.116-.039.116-.038.035-.038.077-.017.077-.039.077-.039.035-.039.077-.017.077-.039.077-.038.035-.038.077-.013.077-.029.077a.774.774,0,0,0-.138.231.665.665,0,0,1-.144.231c-.019,0-.035.023-.035.051a.28.28,0,0,1-.077.133.312.312,0,0,0-.077.113.468.468,0,0,1-.116.14.421.421,0,0,0-.116.147.661.661,0,0,1-.154.186.624.624,0,0,0-.154.191,7.762,7.762,0,0,1-.906.906c-.081.064-.169.137-.2.164a.164.164,0,0,1-.093.048.39.39,0,0,0-.153.116.371.371,0,0,1-.161.116.178.178,0,0,0-.109.077.18.18,0,0,1-.116.077.18.18,0,0,0-.116.077.185.185,0,0,1-.124.077c-.038,0-.069.017-.069.039s-.035.038-.077.038-.077.014-.077.032-.048.057-.106.087a.878.878,0,0,0-.125.074,1.394,1.394,0,0,1-.427.193c-.04,0-.073.017-.073.038s-.035.038-.077.038c-.071,0-.077.026-.077.308a.754.754,0,0,0,.033.308.719.719,0,0,1,.041.3,1.008,1.008,0,0,0,.044.335.254.254,0,0,1,.036.144c0,.059.017.108.039.108s.038.052.038.116.017.116.039.116.038.034.038.076a1.136,1.136,0,0,0,.2.413c.055.068.007.174-.118.262a8.911,8.911,0,0,1-1.083.68,4.239,4.239,0,0,1-.694.3,2.258,2.258,0,0,0-.28.073,5.7,5.7,0,0,1-4.9-.907,1.868,1.868,0,0,0-.218-.159c-.119-.071-.169-.181-.113-.25a1.135,1.135,0,0,0,.2-.413c0-.042.014-.076.03-.076s.052-.082.079-.183.065-.236.085-.3a1.433,1.433,0,0,0,.037-.335.481.481,0,0,1,.038-.24c.083-.051.047-.674-.038-.674-.042,0-.077-.017-.077-.038s-.033-.038-.073-.038a1.394,1.394,0,0,1-.427-.193.877.877,0,0,0-.125-.074c-.058-.03-.106-.069-.106-.087s-.035-.032-.077-.032-.077-.017-.077-.038-.031-.039-.069-.039a.185.185,0,0,1-.124-.077.18.18,0,0,0-.116-.077.18.18,0,0,1-.116-.077.178.178,0,0,0-.109-.077.35.35,0,0,1-.156-.106,1.149,1.149,0,0,0-.2-.164,6.3,6.3,0,0,1-1.15-1.083.652.652,0,0,0-.154-.187.606.606,0,0,1-.154-.193.389.389,0,0,0-.116-.153.425.425,0,0,1-.116-.144.236.236,0,0,0-.077-.106.226.226,0,0,1-.077-.121c0-.028-.017-.052-.039-.052a.041.041,0,0,1-.038-.042.414.414,0,0,0-.074-.147.768.768,0,0,1-.1-.218.4.4,0,0,0-.1-.175.207.207,0,0,1-.071-.125c0-.035-.017-.063-.039-.063s-.038-.034-.038-.075a.128.128,0,0,0-.039-.1.161.161,0,0,1-.038-.118c0-.052-.013-.094-.029-.094s-.052-.056-.08-.125c-.108-.265-.132-.32-.165-.385a.379.379,0,0,1-.034-.144c0-.043-.017-.077-.038-.077s-.039-.06-.039-.132a.24.24,0,0,0-.038-.156.2.2,0,0,1-.039-.137c0-.062-.017-.113-.038-.113s-.038-.087-.038-.193-.017-.193-.039-.193-.038-.087-.038-.193-.017-.193-.039-.193-.038-.147-.038-.363a1.119,1.119,0,0,0-.039-.387,1.458,1.458,0,0,1,.018-.75,12.756,12.756,0,0,0,.067-2.428c.01-2.347.012-2.382.091-2.489.207-.28.479-.344.928-.22.365.1.681.17,1.3.285a8.91,8.91,0,0,0,2.676,0c.306-.058.886-.188,1.02-.229l.4-.119c.252-.073.83-.28,1.059-.38s.852-.4,1.5-.714A10.874,10.874,0,0,1,124.431,96a6.293,6.293,0,0,1,.789-.23l.373-.081a5.362,5.362,0,0,1,1.364.022m-9.291,26.665a.63.63,0,0,1-.057,1.046l-.163.106h-1.157c-1.128,0-1.161,0-1.31-.087a.634.634,0,0,1-.227-.914c.177-.268.186-.269,1.552-.269h1.218l.144.119" transform="translate(-109.183 -86.462)" fill="#fbddbd" fill-rule="evenodd"/>
        <path id="path1" d="M93.52,18.928a10.434,10.434,0,0,1,2.541.466,9.248,9.248,0,0,1,5.823,5.345,11.413,11.413,0,0,1,.567,1.733l.094.462c.15.738.2,1.136.141,1.136-.022,0-.04-.026-.04-.058s-.014-.058-.03-.058-.062-.054-.1-.119a7.164,7.164,0,0,0-.779-.806,2.376,2.376,0,0,0-.474-.306.04.04,0,0,1-.041-.039c0-.021-.035-.039-.077-.039s-.077-.017-.077-.039-.035-.039-.077-.039-.077-.017-.077-.039-.034-.039-.075-.039a.128.128,0,0,1-.1-.039.129.129,0,0,0-.1-.039.351.351,0,0,1-.142-.037,4.548,4.548,0,0,0-2.031-.135c-.169.037-.365.075-.434.085a.28.28,0,0,0-.147.052.2.2,0,0,1-.132.034.193.193,0,0,0-.135.039.156.156,0,0,1-.116.039.156.156,0,0,0-.116.039.161.161,0,0,1-.118.039c-.052,0-.094.017-.094.039s-.042.039-.094.039a.161.161,0,0,0-.118.039.128.128,0,0,1-.1.039c-.041,0-.075.017-.075.039s-.026.039-.058.039a.332.332,0,0,0-.125.034c-.037.019-.188.093-.336.163a1.464,1.464,0,0,0-.282.158c-.007.016-.046.029-.087.029s-.074.017-.074.039-.035.039-.077.039-.077.017-.077.039-.035.039-.077.039-.077.017-.077.039-.035.039-.077.039-.077.017-.077.039-.035.039-.077.039-.077.017-.077.039-.035.039-.077.039-.077.017-.077.039-.024.039-.054.039a5.506,5.506,0,0,0-.716.3,1.985,1.985,0,0,1-.241.083c-.1.029-.183.067-.183.083s-.042.03-.094.03a.161.161,0,0,0-.118.039.156.156,0,0,1-.116.039.156.156,0,0,0-.116.039.156.156,0,0,1-.116.039.156.156,0,0,0-.116.039.156.156,0,0,1-.116.039.156.156,0,0,0-.116.039.24.24,0,0,1-.156.039c-.073,0-.132.017-.132.039s-.069.039-.154.039-.154.017-.154.039-.077.039-.171.039a.339.339,0,0,0-.195.039.389.389,0,0,1-.212.039.389.389,0,0,0-.212.039,6.825,6.825,0,0,1-1.1.039,6.019,6.019,0,0,1-1.076-.039c0-.021-.1-.039-.229-.039a.525.525,0,0,1-.253-.039.333.333,0,0,0-.193-.039.333.333,0,0,1-.193-.039.287.287,0,0,0-.176-.039c-.083,0-.152-.017-.152-.039s-.051-.039-.113-.039a.2.2,0,0,1-.137-.039.235.235,0,0,0-.154-.039.235.235,0,0,1-.154-.039.511.511,0,0,0-.385,0,.1.1,0,0,1-.079.039.556.556,0,0,0-.262.182c-.115.123-.14.169-.14.257a.163.163,0,0,1-.038.119c-.025.015-.039.822-.039,2.293V33.5h-.171a.339.339,0,0,1-.195-.039.2.2,0,0,0-.137-.039c-.062,0-.113-.017-.113-.039s-.024-.039-.054-.039a2.12,2.12,0,0,1-.986-.793.514.514,0,0,0-.072-.125,2.024,2.024,0,0,1-.16-.333l-.089-.231-.016-2.493c-.014-2.164-.038-2.764-.1-2.407-.01.062-.019.046-.033-.055-.01-.078-.007-.134.007-.126.042.026.072-.138.073-.4,0-.135-.016-.241-.038-.241s-.039-.077-.039-.171a.339.339,0,0,0-.038-.195.193.193,0,0,1-.039-.135.193.193,0,0,0-.038-.135.129.129,0,0,1-.039-.1.373.373,0,0,0-.034-.142c-.019-.037-.051-.11-.072-.163a6.755,6.755,0,0,0-.452-.879c-.064-.092-.142-.207-.173-.255a3.533,3.533,0,0,0-.239-.287c-.221-.242-.221-.24.314-.986a9.328,9.328,0,0,1,1.908-1.752,2.367,2.367,0,0,0,.321-.238c.007-.017.043-.032.079-.032a.17.17,0,0,0,.1-.035,8.517,8.517,0,0,1,1.057-.512c.053-.022.126-.054.163-.073a.337.337,0,0,1,.126-.034.373.373,0,0,0,.135-.039l.153-.077a.516.516,0,0,1,.193-.039c.064,0,.116-.017.116-.039s.061-.039.135-.039.135-.017.135-.039.077-.039.171-.039a.339.339,0,0,0,.195-.039A.462.462,0,0,1,89,19.637c.133,0,.217-.018.229-.048s.1-.044.307-.035c.223.01.293,0,.31-.042s.056-.048.116-.037a.2.2,0,0,0,.171-.322,5.989,5.989,0,0,1,1.733-.246,8.321,8.321,0,0,1,1.656.022m11.841,10.489a10.475,10.475,0,1,1-.011,1.184c-.006-.651-.006-1.717,0-2.368a10.475,10.475,0,1,1,.011,1.184m-1.926,2.742a1.082,1.082,0,0,0,1.55.188c.115-.111.123.006.01.151a.393.393,0,0,0-.076.132,2.3,2.3,0,0,1-.909.715c-.03,0-.054.017-.054.039s-.051.039-.113.039a.2.2,0,0,0-.137.039.339.339,0,0,1-.195.039h-.171v-.732c0-.4,0-.731.01-.73a.842.842,0,0,1,.087.122M91.48,44.054a5.006,5.006,0,0,0,2.155,1.073c.064,0,.117.017.117.039s.086.039.19.039a.4.4,0,0,1,.214.039,9.764,9.764,0,0,0,1.733,0,.333.333,0,0,1,.193-.039.333.333,0,0,0,.193-.039.2.2,0,0,1,.14-.039,3.705,3.705,0,0,0,.967-.313c.138-.07.148-.029.031.129a1.783,1.783,0,0,0-.082,1.756c.308.6.779.817,2.005.911a6.738,6.738,0,0,1,1.867.333,6.1,6.1,0,0,1,4.255,5.96c0,.93.158,1.281.7,1.553l.2.1-11.9-.008-11.9-.008-.144-.148a.513.513,0,0,1-.144-.221c0-.04-.017-.073-.038-.073s-.039-.706-.039-2.041.013-2.041.039-2.041.038-.109.038-.25.017-.25.039-.25.036-.08.032-.181.011-.187.038-.2.045-.074.045-.147.017-.132.038-.132.039-.052.039-.116.017-.116.038-.116c.055,0,.048-.105-.01-.129-.029-.012-.014-.03.039-.046a.112.112,0,0,0,.087-.118c0-.05.017-.092.038-.092s.038-.026.038-.058-.017-.058-.038-.058a.041.041,0,0,1-.038-.043c0-.024.034-.034.077-.023.061.016.077,0,.077-.072,0-.051.017-.093.039-.093.055,0,.048-.1-.01-.131-.026-.012-.009-.012.038,0,.1.024.13-.111.039-.153-.026-.012-.007-.012.042,0,.078.02.087.012.065-.058s-.009-.081.035-.081.06-.017.06-.039a.037.037,0,0,0-.035-.039c-.019,0-.025-.036-.014-.08s.03-.066.051-.032c.052.084.147-.05.126-.179-.014-.085-.008-.1.021-.056s.052.042.118-.035c.082-.095.107-.178.041-.138-.022.013-.028,0-.015-.036a.1.1,0,0,1,.08-.06c.085,0,.282-.213.282-.305,0-.044.017-.08.039-.08a.039.039,0,0,0,.038-.039.57.57,0,0,1,.257-.269.047.047,0,0,0,.051-.041c0-.024.033-.031.077-.017.072.023.111-.032.048-.067-.016-.009-.006-.011.021,0,.052.013.273-.188.347-.316.024-.041.044-.053.044-.026a.047.047,0,0,0,.042.048c.024,0,.031-.036.017-.087-.02-.071-.016-.076.02-.029s.049.046.064.01a.08.08,0,0,1,.067-.048.255.255,0,0,0,.122-.067,1.029,1.029,0,0,1,.18-.122c.058-.03.106-.069.106-.087s.035-.032.077-.032.077-.017.077-.039.036-.039.079-.039.069-.017.055-.039.019-.039.075-.039.1-.017.1-.039.036-.039.079-.039.069-.017.055-.039.025-.039.094-.039.118-.019.118-.043.034-.034.079-.022.091,0,.122-.072c.023-.051.058-.093.077-.093s.024.017.011.039-.005.039.017.039c.07,0,.1-.018.087-.053-.006-.018.05-.022.125-.008.112.021.136.014.136-.039s.026-.06.154-.04.154.013.154-.038.028-.058.173-.037c.192.029.314-.01.19-.061-.041-.017.153-.02.432-.007.545.025.9-.019.534-.066-.168-.021-.15-.025.137-.031a.871.871,0,0,0,.378-.054c.039-.039.047-.037.037.01s.023.062.093.07.106,0,.106-.05.026-.057.128-.038.134.01.171-.066c.024-.049.044-.068.046-.041s.039.048.084.048.074-.018.06-.055a.06.06,0,0,1,.036-.077c.032-.012.047-.005.034.016s0,.038.036.038.06-.017.06-.039.035-.039.077-.039.077-.017.077-.039.035-.039.077-.039.077-.017.077-.039.026-.039.058-.039.058-.017.058-.039.027-.039.06-.039.049-.017.036-.039.009-.039.049-.039a.329.329,0,0,0,.241-.253c0-.062.007-.065.038-.017s.037.047.038-.012a.2.2,0,0,1,.167-.18c.108,0,.3-.221.28-.317-.012-.048-.012-.065,0-.038s.032.037.067-.01.071-.04.256.1M88.091,52.79c0,.021-.035.039-.077.039s-.077.017-.077.039-.025.039-.056.039-.086.052-.124.116-.082.116-.1.116-.03.051-.03.113a.2.2,0,0,1-.039.137.193.193,0,0,0,0,.231.156.156,0,0,1,.039.116c0,.126.3.424.466.463s2.247.041,2.409,0c.143-.035.4-.255.4-.345,0-.034.017-.062.039-.062s.038-.127.038-.3v-.3l-.166-.179a.624.624,0,0,0-.229-.179.111.111,0,0,1-.086-.039,8.209,8.209,0,0,0-1.215-.039,7.329,7.329,0,0,0-1.191.039" transform="translate(-82.2 -17.069)" fill="#414149" fill-rule="evenodd"/>
        <path id="path2" d="M81.058.155c.228.009.368.03.354.053s.071.037.21.037.233.017.233.039.087.039.193.039.193.017.193.039.078.039.173.039.173.017.173.039.061.039.135.039.135.019.135.043.04.035.1.024A.182.182,0,0,1,83.11.58a.12.12,0,0,0,.112.035.119.119,0,0,1,.112.035.221.221,0,0,0,.136.056c.044,0,.08.017.08.039s.052.039.116.039.116.017.116.039.043.039.1.039.1.017.1.039.044.039.1.039.089.015.072.044.009.038.09.026.112,0,.1.033.008.051.045.051.053-.018.037-.044-.011-.034.017-.017a.113.113,0,0,1,.044.087c0,.043.027.055.1.042.052-.01.087-.005.077.011-.023.037.093.083.139.054.019-.012.024.006.011.039s-.006.054.039.036.062,0,.062.038.019.062.043.062.032-.028.018-.063c-.02-.053-.015-.055.034-.015a.164.164,0,0,1,.059.1c0,.038.024.048.077.031s.077-.007.077.017.027.041.06.041.049.017.036.039.012.039.055.039.079.025.079.057.023.048.059.034a.137.137,0,0,1,.13.059.23.23,0,0,0,.124.082c.029,0,.094.052.144.116a.275.275,0,0,0,.193.118c.056,0,.082.011.058.021-.067.028.2.284.3.284.046,0,.074.01.061.023-.038.038.393.445.44.416.026-.016.033-.01.016.017-.036.058.234.327.291.291.025-.016.033-.01.019.013s.027.081.09.131a.3.3,0,0,1,.115.151c0,.073.245.317.282.281.015-.014.026.019.026.075,0,.1.128.258.2.258.019,0,.025.027.012.061-.028.074.074.186.136.148.031-.019.038,0,.022.06a.156.156,0,0,0,.121.193.093.093,0,0,1,.066.044c.017.028.011.034-.017.017s-.044,0-.044.037.021.056.053.044.048,0,.034.054,0,.074.024.074.043.026.043.058.017.058.038.058.039.035.039.077.017.077.039.077.039.036.039.079.017.069.039.055.039.012.039.055.017.079.039.079.038.035.038.077.017.077.039.077.038.035.038.077.017.077.038.077.039.043.039.1.017.1.038.1.039.041.039.092A.126.126,0,0,0,89.036,6a.061.061,0,0,1,.034.081c-.012.033,0,.059.02.059s.043.052.043.116.017.116.039.116.038.043.038.1.017.1.039.1.038.052.038.116.017.116.039.116.038.052.038.116.019.116.041.116.036.054.03.125c-.008.089,0,.122.041.114s.046.024.027.144-.014.156.038.156.059.027.038.159-.017.155.039.134.061,0,.038.174-.019.2.039.173.062,0,.039.207-.018.232.038.232.061.032.038.245-.016.249.037.27.06.072.036.416c-.023.326-.019.388.026.371a13.1,13.1,0,0,1,.054,2.477,17.813,17.813,0,0,1-.048,2.5c-.028,0-.048.049-.048.118s.015.109.044.09.034-.011.017.017a.113.113,0,0,1-.088.044c-.047,0-.055.026-.037.117.014.068.009.108-.012.1s-.066.043-.1.123a.8.8,0,0,1-.093.165,1.423,1.423,0,0,0-.128.183,1.786,1.786,0,0,1-.629.51.052.052,0,0,0-.05.054c0,.034-.027.047-.073.035a.1.1,0,0,0-.1.023.157.157,0,0,1-.118.042.16.16,0,0,0-.123.049c-.021.033-.1.045-.249.035l-.219-.014-.017-1.97c-.017-2.064-.015-2.036-.2-2.586a4.6,4.6,0,0,0-.378-.8c-.04-.059-.053-.106-.029-.106.061,0,.015-.383-.138-1.136l-.094-.462a11.413,11.413,0,0,0-.567-1.733,9.146,9.146,0,0,0-6.477-5.523,12.179,12.179,0,0,0-3.5-.312,6.29,6.29,0,0,0-1.772.248.2.2,0,0,1-.151.327c-.08,0-.084-.008-.021-.023.109-.027.173-.087.173-.161a.222.222,0,0,0-.229-.178.068.068,0,0,1-.091-.032c-.013-.035-.056-.047-.12-.035s-.1,0-.1-.04-.025-.052-.077-.039-.077,0-.077-.023-.052-.043-.116-.043-.116-.017-.116-.039-.035-.039-.077-.039-.077-.017-.077-.039-.027-.039-.061-.039c-.1,0-.17-.1-.17-.252,0-.123.01-.139.077-.122q.077.02.077-.037c0-.039.024-.049.077-.032.083.026.108-.037.029-.074-.026-.013.008-.015.075,0,.126.019.206-.031.117-.072-.027-.013.015-.015.092-.006.119.014.144,0,.164-.067s.029-.074.06-.026.047.048.085.01a.228.228,0,0,1,.141-.048c.063,0,.086-.017.072-.053S74.5.989,74.6,1c.08.011.132,0,.132-.024s.043-.042.1-.042.1-.017.1-.039S74.976.86,75.04.86s.116-.017.116-.039.052-.039.116-.039.116-.017.116-.039.061-.039.135-.039.135-.017.135-.039.061-.039.135-.039.135-.017.135-.039.069-.039.154-.039.154-.017.154-.039.078-.039.173-.039.173-.017.173-.039S76.657.4,76.751.4A.339.339,0,0,0,76.946.36.4.4,0,0,1,77.16.321c.1,0,.19-.017.19-.039s.049-.039.108-.039A.275.275,0,0,0,77.618.2c.041-.039.046-.039.025,0s.007.048.087.048c.063,0,.121-.019.129-.042.015-.044,2.424-.079,3.2-.047m-6.6,2.41c-.011.032-.11.049-.3.051-.222,0-.237,0-.064-.012.122-.008.221-.031.221-.051s.036-.037.08-.037.074.02.064.048m-.626.029c.048.077-.028.116-.231.116a.45.45,0,0,0-.231.039.339.339,0,0,1-.195.039c-.094,0-.171.017-.171.039s-.061.039-.135.039-.135.017-.135.039-.052.039-.116.039a.586.586,0,0,0-.336.11.4.4,0,0,1-.145.044.337.337,0,0,0-.126.034c-.037.019-.11.052-.163.073a8.516,8.516,0,0,0-1.057.512.17.17,0,0,1-.1.035c-.036,0-.072.014-.079.032a2.365,2.365,0,0,1-.321.238A9.328,9.328,0,0,0,68.377,5.77c-.535.746-.535.744-.314.986a3.535,3.535,0,0,1,.239.287c.032.048.11.163.173.255a6.756,6.756,0,0,1,.452.879c.021.053.053.126.072.163a.373.373,0,0,1,.034.142.129.129,0,0,0,.039.1.193.193,0,0,1,.038.135.193.193,0,0,0,.039.135.339.339,0,0,1,.039.195c0,.094.017.171.038.171s.036.114.031.279c-.007.277-.007.277-.021.053-.011-.174-.034-.244-.1-.3-.046-.041-.063-.064-.036-.05s.048-.019.048-.132c0-.086-.017-.156-.039-.156s-.038-.061-.038-.135-.017-.135-.039-.135-.038-.054-.038-.12c0-.083-.016-.114-.051-.1s-.046-.011-.034-.092,0-.112-.027-.112-.043-.043-.043-.1-.017-.1-.039-.1-.038-.035-.038-.077-.017-.077-.039-.077-.038-.033-.038-.074-.014-.08-.031-.087a.715.715,0,0,1-.116-.2c-.047-.1-.1-.183-.123-.183s-.038-.025-.038-.055a.182.182,0,0,0-.049-.106,2.013,2.013,0,0,1-.143-.186,2.326,2.326,0,0,0-.239-.276c-.167-.162-.175-.2-.069-.31a.28.28,0,0,0,.077-.133c0-.028.016-.051.036-.051s.047-.035.061-.078a.549.549,0,0,1,.118-.172.383.383,0,0,0,.094-.124.72.72,0,0,1,.125-.172c.068-.078.162-.19.208-.25a6.576,6.576,0,0,1,.764-.764,2.519,2.519,0,0,0,.256-.221.37.37,0,0,1,.144-.106.041.041,0,0,0,.042-.039.045.045,0,0,1,.049-.039.177.177,0,0,0,.1-.077c.031-.042.074-.077.1-.077a.257.257,0,0,0,.117-.067,1.029,1.029,0,0,1,.18-.122c.058-.03.106-.069.106-.087s.023-.032.051-.032a.288.288,0,0,0,.135-.079c.047-.044.1-.069.12-.057s.05,0,.067-.03a.373.373,0,0,1,.216-.12.116.116,0,0,0,.061-.054.087.087,0,0,1,.085-.039c.031.007.052-.016.049-.055,0-.054.009-.059.068-.027s.079.025.1-.021a.069.069,0,0,1,.1-.038c.048.015.072,0,.072-.032s.03-.049.1-.037.1,0,.1-.025.043-.043.1-.043.1-.022.1-.052.032-.046.1-.034.1,0,.117-.038.056-.05.116-.038.094,0,.094-.039a.165.165,0,0,1,.059-.106c.049-.041.055-.038.034.015s0,.063.076.063c.057,0,.1-.022.1-.05s.042-.045.135-.034.135,0,.135-.027.073-.043.177-.043c.136,0,.173-.013.157-.054s.022-.05.208-.033c.212.019.314-.026.18-.08-.026-.011,0-.021.055-.022a.172.172,0,0,1,.127.035m10.29,6.69c-.164.007-.433.007-.6,0s-.03-.013.3-.013.463.006.3.013m.568.048.116.029-.116,0a.368.368,0,0,1-.173-.033c-.072-.046-.008-.046.173,0m-1.542,0a.26.26,0,0,1-.161.036c-.17,0-.155-.02.038-.05.087-.013.136-.008.123.014m1.83.064a.317.317,0,0,1,.133.053.21.21,0,0,0,.123.035.147.147,0,0,1,.11.039.128.128,0,0,0,.1.039c.041,0,.075.016.075.036,0,.035-.361-.075-.411-.126A.19.19,0,0,0,85,9.446a.3.3,0,0,1-.138-.038c-.06-.039-.047-.04.116-.011m-2.195.011a.365.365,0,0,1-.161.037.183.183,0,0,0-.125.035.29.29,0,0,1-.154.05c-.073.009-.124,0-.114-.015a.192.192,0,0,1,.124-.03.265.265,0,0,0,.142-.033.531.531,0,0,1,.191-.057c.105-.016.136-.011.1.014m-.927.283c-.143.075-.317.114-.287.065a.16.16,0,0,1,.119-.04c.052,0,.094-.017.094-.039s.039-.038.087-.038c.084,0,.083,0-.012.052m4.247.23a.7.7,0,0,1,.183.151,1.863,1.863,0,0,1-.42-.267c-.009-.006,0-.011.019-.009a1.118,1.118,0,0,1,.218.125M69.312,12.44l.016,2.493.089.231a2.024,2.024,0,0,0,.16.333.513.513,0,0,1,.072.125,2.12,2.12,0,0,0,.986.793c.03,0,.054.017.054.039s.051.039.113.039a.2.2,0,0,1,.137.039.339.339,0,0,0,.195.039h.171V14.3A18.674,18.674,0,0,1,71.35,12c.031-.019.037-.006.019.039s-.026,1.078-.026,2.313V16.6l-.221.014c-.151.01-.231,0-.252-.035a.16.16,0,0,0-.123-.049.157.157,0,0,1-.118-.042.092.092,0,0,0-.1-.023.075.075,0,0,1-.092-.038.059.059,0,0,0-.069-.041c-.026.009-.084-.025-.129-.074a.3.3,0,0,0-.118-.089,2.144,2.144,0,0,1-.437-.436.316.316,0,0,0-.077-.112.28.28,0,0,1-.077-.133.046.046,0,0,0-.039-.051c-.021,0-.038-.035-.038-.077s-.024-.077-.053-.077a.162.162,0,0,1-.1-.059c-.041-.049-.038-.055.015-.034s.063,0,.063-.061-.018-.078-.052-.065-.048-.022-.033-.174.005-.2-.044-.229a35.16,35.16,0,0,1,.016-4.768c.017,0,.038,1.122.046,2.493m17.645-1.748c.108.126.141.178.111.177s-.184-.189-.162-.209.031.007.052.032m-8.006.334a.88.88,0,0,1-.185.075.967.967,0,0,0-.193.077.787.787,0,0,1-.222.077.169.169,0,0,0-.1.033c-.057.053-.259.092-.23.045a.156.156,0,0,1,.116-.04.156.156,0,0,0,.116-.039.161.161,0,0,1,.118-.039c.052,0,.094-.014.094-.03s.082-.054.182-.084a1.966,1.966,0,0,0,.279-.1.425.425,0,0,1,.136-.049c.021,0-.03.035-.113.077m-6.709.374c.01.016-.074.029-.187.029s-.2-.013-.186-.029a.617.617,0,0,1,.373,0m.314.087c.028.046-.01.046-.116,0-.074-.032-.074-.033.007-.036a.138.138,0,0,1,.108.036m-1.031.2c-.069.091-.13.152-.137.135s.015-.059.048-.092a.217.217,0,0,0,.061-.087c0-.015.034-.048.076-.074s.039,0-.048.119m5.189.026c-.106.046-.144.046-.116,0a.138.138,0,0,1,.108-.036c.081,0,.082,0,.007.036m-3.2,0c.028.046-.01.046-.116,0-.074-.032-.074-.033.007-.036a.138.138,0,0,1,.108.036M74,11.79c0,.018-.043.025-.1.015s-.1-.025-.1-.033.043-.015.1-.015.1.015.1.033m1.313.083a2.846,2.846,0,0,1-.52,0c-.143-.021-.054-.029.323-.028.49,0,.5,0,.2.029m12.625,3.965v.732h.171a.339.339,0,0,0,.195-.039.2.2,0,0,1,.137-.039c.062,0,.113-.017.113-.039s.024-.039.054-.039a2.3,2.3,0,0,0,.909-.715.393.393,0,0,1,.076-.132c.113-.145.106-.262-.01-.151a1.082,1.082,0,0,1-1.55-.188.842.842,0,0,0-.087-.122c-.005,0-.01.328-.01.73m-4.5,11.177a.122.122,0,0,1,.047.105c-.007.032.027.084.074.116a4.3,4.3,0,0,1,.363.337,2.622,2.622,0,0,0,.3.279.341.341,0,0,1,.107.077.28.28,0,0,0,.133.077.046.046,0,0,1,.051.039c0,.021.035.039.077.039s.077.017.077.039.035.039.077.039.077.017.077.039.035.039.077.039.077.02.077.043.042.035.116.02c.09-.018.116-.009.116.038s.027.056.135.036.141-.011.158.034a.127.127,0,0,0,.19.031,1.278,1.278,0,0,1,.364-.007c.18.012.275.025.212.03-.09.006-.1.016-.058.045a2.264,2.264,0,0,0,.558.021,2.315,2.315,0,0,1,.452,0c-.129.053-.032.094.165.069.17-.021.211-.016.2.026s.027.05.129.042.147.007.162.047.055.052.139.035.117-.009.117.034.028.052.1.039.1,0,.118.04a.076.076,0,0,0,.1.038c.041-.011.075,0,.075.023s.043.043.1.043.1.017.1.039.044.039.1.039.088.017.075.039.02.039.077.039.091.017.077.039.012.039.055.039.079.017.079.038.035.039.077.039.077.019.077.043.026.033.058.02.058,0,.058.044.007.055.034.013.039-.036.06.029a.114.114,0,0,0,.1.082c.042,0,.066.017.053.039s0,.039.028.039a.177.177,0,0,1,.107.077.178.178,0,0,0,.108.077.582.582,0,0,1,.2.157c.083.086.165.148.182.137a3.383,3.383,0,0,1,.624.571c0,.014-.02.013-.044,0s-.034-.01-.013.027c.072.125.146.182.206.161.035-.013.051-.009.036.008s.008.062.052.1.068.088.055.11c-.028.046.066.156.134.156.025,0,.034.03.022.069a.114.114,0,0,0,.055.124.182.182,0,0,1,.077.119c0,.035.039.075.087.088.073.02.078.03.029.065s-.046.046-.01.061a.086.086,0,0,1,.048.074.055.055,0,0,0,.054.055c.036,0,.047.027.032.083s-.008.074.023.055.045.006.045.071.017.1.038.1.039.043.039.1.017.1.038.1.039.035.039.077.017.077.038.077.039.052.039.116.017.116.039.116.039.053.039.118.016.108.039.094.039.037.039.129.02.16.045.168.042.082.039.176.011.161.032.161.038.11.038.25.017.25.038.25.039.72.039,2.082a20.333,20.333,0,0,1-.039,2.058c-.021-.013-.038.01-.038.052a.508.508,0,0,1-.144.223l-.144.148-.544.013c-1.108.027-1.478-.386-1.478-1.651a6.1,6.1,0,0,0-4.255-5.96,6.738,6.738,0,0,0-1.867-.333c-1.226-.095-1.7-.308-2.005-.911a1.783,1.783,0,0,1,.082-1.756c.117-.159.106-.2-.031-.128a1,1,0,0,1-.384.142c-.012-.012.011-.033.051-.046a5.287,5.287,0,0,0,.965-.483.755.755,0,0,1,.2-.11c.023,0,.041-.014.041-.03s.048-.059.107-.093a1.971,1.971,0,0,0,.241-.181c.151-.133.151-.133.231-.07m-7.634.057c-.026.069-.069.125-.1.125-.067,0-.064-.01.047-.138l.1-.112-.047.125m1.24.668q.1.078.019.039c-.126-.065-.2-.118-.154-.118a.368.368,0,0,1,.135.079m.4.192c.127.063.188.1.135.09a.381.381,0,0,1-.133-.058.168.168,0,0,0-.1-.035.291.291,0,0,1-.134-.058c-.116-.088-.025-.063.229.062m.424.151c.028.046-.01.046-.116,0-.074-.032-.074-.033.007-.036a.138.138,0,0,1,.108.036m3.369.077a.255.255,0,0,1-.116.037c-.051,0-.051,0,0-.037a.255.255,0,0,1,.116-.037c.051,0,.051,0,0,.037m-3.119,0c.051.033.051.037,0,.037A.255.255,0,0,1,78,28.16c-.051-.033-.051-.037,0-.037a.255.255,0,0,1,.116.037m.347.077c.047.03.041.037-.029.038-.048,0-.087-.017-.087-.038,0-.048.041-.048.116,0m-4.2.041c0,.02-.035.036-.077.036s-.077-.014-.077-.03.035-.033.077-.036.077.01.077.03m6.218.036a.173.173,0,0,1-.127.036c-.093,0-.1-.006-.027-.036.107-.046.182-.046.154,0m-1.579,0c.069.03.066.033-.027.036a.173.173,0,0,1-.127-.036c-.028-.046.047-.046.154,0m-4.859.026c-.011.028-.035.051-.054.051s-.034-.023-.034-.051a.053.053,0,0,1,.054-.051.035.035,0,0,1,.034.051m-.281.071c0,.069-.175.08-.216.013-.019-.03-.007-.037.036-.021s.064.008.064-.013.026-.037.058-.037a.058.058,0,0,1,.058.058m12.812.046a.318.318,0,0,1-.135,0c-.037-.01-.007-.018.067-.018s.1.008.067.018m-13.563.008c.292.035.116.082-.282.075-.184,0-.294-.013-.247-.022s.077-.033.065-.053c-.023-.038.147-.038.464,0m-.972.069c.094.024.044.089-.069.089-.067,0-.087-.016-.071-.058.023-.06.027-.061.14-.031m-.357.108a.056.056,0,0,1-.054.058.091.091,0,0,1-.076-.058c-.015-.039,0-.058.054-.058a.069.069,0,0,1,.076.058m-.308.077c0,.04-.025.059-.067.05-.081-.016-.076-.084.008-.1a.047.047,0,0,1,.06.051m-.258.044c.041.041-.01.089-.071.066-.031-.012-.047-.037-.035-.056a.064.064,0,0,1,.105-.01m-.2.089c0,.065-.068.081-.091.021-.013-.035,0-.058.035-.058s.057.016.057.036m-.193.077c0,.02-.033.034-.074.031s-.066-.019-.056-.036c.026-.043.13-.038.13.006m-.809.39c0,.022-.015.031-.034.019s-.044,0-.057.036a.086.086,0,0,1-.068.058c-.027,0-.018-.031.024-.077.076-.084.135-.1.135-.036m-.308.191c0,.022-.03.052-.067.065a.232.232,0,0,0-.1.066c-.02.029-.028.028-.029,0s.043-.072.1-.107.1-.045.1-.023m-.539.406c0,.047-.2.216-.224.19s0-.036.022-.046a.077.077,0,0,0,.048-.068.093.093,0,0,1,.061-.074c.075-.029.093-.029.093,0m-.693.667a.453.453,0,0,1-.232.248c-.066.017-.072.011-.035-.033s.06-.045.079-.033.034-.01.034-.049a.165.165,0,0,1,.077-.118c.042-.026.077-.033.077-.014m-.322.409a.408.408,0,0,0-.025.083c0,.01-.017.008-.039-.005s-.039,0-.039.039-.017.052-.037.04c-.052-.032-.015-.109.082-.169.072-.045.079-.044.057.014m-.179.273a.194.194,0,0,1-.053.075c-.066.066-.116.026-.057-.046.043-.052.111-.07.111-.03m-.154.247c0,.021-.026.039-.058.039s-.058-.017-.058-.039.026-.039.058-.039.058.017.058.039m-.174.242c.016.038.019.08.006.093-.039.039-.071-.016-.053-.092s.018-.067.047,0m-.211.509c0,.032-.017.058-.038.058s-.039-.026-.039-.058.017-.058.039-.058.038.026.038.058m-.154.385c0,.032-.017.058-.039.058s-.039-.026-.039-.058.017-.058.039-.058.039.026.039.058m-.077.231c0,.032-.017.058-.039.058s-.038-.026-.038-.058.017-.058.038-.058.039.026.039.058m-.154.635c0,.042-.017.077-.039.077s-.039-.035-.039-.077.017-.077.039-.077.039.035.039.077m-.1.372c.04.04.03.205-.013.205-.021,0-.039-.052-.039-.116,0-.12.008-.133.051-.09m8.24,1.967c.01.016-.526.029-1.191.029s-1.209-.013-1.209-.029.536-.029,1.191-.029,1.2.013,1.209.029m-2.863.722c0,.083-.015.13-.038.116a.192.192,0,0,1,0-.231c.023-.014.038.032.038.116m3.1.578a.4.4,0,0,1-.165.1c-.029,0,.01-.043.088-.1.182-.124.221-.124.077,0m-2.769,0c.085.051.128.092.1.092a.41.41,0,0,1-.173-.094c-.143-.117-.122-.117.077,0m2.432.141c-.024.016-.512.028-1.084.028s-1.06-.013-1.084-.028a20.778,20.778,0,0,1,2.168,0m-8.111.934c0,.032-.017.058-.039.058s-.039-.026-.039-.058.017-.058.039-.058.039.026.039.058m.154.231c.036.044.037.058,0,.058a.192.192,0,0,1-.1-.058c-.05-.05-.05-.058,0-.058a.162.162,0,0,1,.1.058" transform="translate(-66.8 -0.14)" fill="#4c4c5c" fill-rule="evenodd"/>
        <path id="path3" d="M126.744,95.291a1.4,1.4,0,0,1-.439.014,3.715,3.715,0,0,0-1.071.1c-.063.012-.083.006-.058-.018a5.694,5.694,0,0,1,1.568-.092m.394.083c.013.022-.036.027-.123.014-.193-.03-.209-.05-.038-.05a.26.26,0,0,1,.161.036m.273.073a.891.891,0,0,0,.2.084.574.574,0,0,1,.184.082c.01.016-.1-.011-.243-.061l-.319-.111c-.033-.011-.015-.021.04-.023a.244.244,0,0,1,.135.029m-2.312-.014-.212.06c-.1.027-.293.089-.44.139a1.014,1.014,0,0,1-.285.073c-.01-.01.006-.026.035-.036l.672-.216a.712.712,0,0,1,.193-.035c.041,0,.057.008.036.015m3.283.492a.718.718,0,0,1,.2.155,1.973,1.973,0,0,1-.42-.263c-.044-.043.036,0,.218.108m.5.392a3.889,3.889,0,0,1,.376.395l.146.187-.191-.207c-.1-.114-.284-.291-.4-.393a.975.975,0,0,1-.185-.187,1.819,1.819,0,0,1,.252.206m-6.15.039a6.761,6.761,0,0,1-.747.367,4.989,4.989,0,0,1,.728-.381c.019,0,.028.005.019.014m-.805.387a2.256,2.256,0,0,1-.436.225c-.142.054-.053-.015.119-.092.1-.045.213-.1.25-.118s.067-.026.067-.015m7.6.3a1.327,1.327,0,0,1,.163.3,1.958,1.958,0,0,1-.269-.423c.016,0,.064.056.106.125m-8.221,0c-.132.069-.273.1-.247.061a.124.124,0,0,1,.094-.035.125.125,0,0,0,.1-.038.114.114,0,0,1,.089-.038c.045,0,.035.016-.032.051m-.668.26a.51.51,0,0,1-.208.057c-.011-.011.013-.03.053-.043s.113-.039.161-.059a.437.437,0,0,1,.135-.033c.025,0-.038.036-.142.078m-.332.112a.255.255,0,0,1-.116.037c-.051,0-.051,0,0-.037a.255.255,0,0,1,.116-.037c.051,0,.051,0,0,.037m-5.776,0c.041.027,0,.037-.135.035s-.173-.011-.116-.035a.248.248,0,0,1,.25,0m.289.077c.028.046-.01.046-.116,0-.074-.032-.074-.033.007-.036a.138.138,0,0,1,.108.036m4.948.077a.255.255,0,0,1-.116.037c-.051,0-.051,0,0-.037a.255.255,0,0,1,.116-.037c.051,0,.051,0,0,.037m-4.659,0c.051.033.051.037,0,.037a.255.255,0,0,1-.116-.037c-.051-.033-.051-.037,0-.037a.255.255,0,0,1,.116.037m4.37.077c-.115.049-.211.049-.135,0a.278.278,0,0,1,.135-.035l.077,0-.077.033m-4.062,0c.051.033.051.037,0,.037a.255.255,0,0,1-.116-.037c-.051-.033-.051-.037,0-.037a.255.255,0,0,1,.116.037m3.735.077a.7.7,0,0,1-.173.031c-.061,0-.057-.006.019-.031a.7.7,0,0,1,.173-.031c.061,0,.057.006-.019.031m-3.35,0c.076.024.08.031.019.031a.7.7,0,0,1-.173-.031c-.076-.024-.08-.031-.019-.031a.7.7,0,0,1,.173.031m2.946.077a.511.511,0,0,1-.173.032h-.1l.1-.031a.731.731,0,0,1,.173-.032h.077l-.077.033m-2.484,0,.1.031h-.1a.511.511,0,0,1-.173-.032l-.077-.033h.077a.731.731,0,0,1,.173.032m1.825.084a8.161,8.161,0,0,1-1.3,0,2.491,2.491,0,0,1,.65-.027,2.532,2.532,0,0,1,.652.027m11.9.07c.014.046.018.091.007.1s-.031-.018-.046-.064-.018-.091-.007-.1.031.018.046.064m-16.239,2.334c.008,2.135,0,2.319-.056,2.368s-.06.045-.029,0c.021-.034.045-1.027.056-2.368l.02-2.31.009,2.315m16.309-2.127a.4.4,0,0,1,.024.133c0,.043-.015.033-.04-.029a.269.269,0,0,1-.024-.133c.007-.022.025-.009.04.029m.079.314a.518.518,0,0,1,.02.165c0,.083-.011.073-.039-.047-.036-.154-.024-.23.019-.118m.08.574c.014.094.021.93.015,1.858s0,1.712.023,1.744c.028.048.025.049-.02.008s-.092-3.781-.049-3.781a1.506,1.506,0,0,1,.031.172m-4.613,13.912a.748.748,0,0,1-.149.131c-.067.048-.109.066-.094.042a.749.749,0,0,1,.149-.131c.067-.048.109-.066.094-.042m-7.093.108c.041.03.067.062.058.071s-.05-.008-.091-.038-.067-.062-.058-.071.05.008.091.038m6.779.132a2.254,2.254,0,0,1-.443.3c-.158.085-.036-.015.224-.183.134-.087.232-.139.218-.116m-5.987.386a1.108,1.108,0,0,1,.284.19,3.8,3.8,0,0,1-.631-.369c0-.023-.008-.027.347.178m5.429-.025a2.021,2.021,0,0,1-.413.215c-.016,0,.061-.052.171-.116.2-.112.242-.131.242-.1m-.481.254a.117.117,0,0,1-.091.039.175.175,0,0,0-.1.034.382.382,0,0,1-.133.058c-.053.013-.01-.019.1-.071.21-.1.268-.119.231-.06m-4.351.061c.106.051.151.083.1.069a1.122,1.122,0,0,1-.35-.15c0-.032.051-.015.25.081m3.658.182a2.983,2.983,0,0,1-.443.113c-.133.017-.147.015-.058-.01.657-.187.9-.237.5-.1m-3.119-.01a1.423,1.423,0,0,0,.289.075.606.606,0,0,1,.173.04c.051.023.018.026-.1.01-.2-.028-.75-.2-.635-.2a1.229,1.229,0,0,1,.27.07m2.31.193a2.411,2.411,0,0,1-.308.029h-.116l.116-.029a1.551,1.551,0,0,1,.308-.029h.193l-.193.03m-1.271,0,.116.029h-.116a2.411,2.411,0,0,1-.308-.029l-.193-.03h.193a1.551,1.551,0,0,1,.308.029m.587.066a.857.857,0,0,1-.212,0c-.058-.009-.011-.016.106-.016s.164.007.106.016m-4.707,7.556a7.86,7.86,0,0,1-1.119.036,6.475,6.475,0,0,0-1.28.05c-.025.025-.056.035-.069.022a8.529,8.529,0,0,1,2.467-.108m.279.127a.677.677,0,0,1,.241.722c-.025.039-.029.011-.013-.089a.643.643,0,0,0-.232-.588c-.177-.151-.175-.17,0-.045m-2.914.16a.482.482,0,0,0-.112.407c.007.124,0,.217-.016.207-.122-.076.036-.661.206-.767.025-.016-.01.053-.079.153m3.115.65c0,.066-.129.223-.248.3-.186.115-.216.094-.034-.023a.849.849,0,0,0,.218-.2c.035-.056.063-.088.064-.071m-3.106.128a.749.749,0,0,0,.212.168c.078.041.114.076.08.077-.067,0-.412-.286-.38-.318.011-.011.05.022.088.073m2.056.275c-.314.007-.816.006-1.117,0s-.044-.012.57-.012.86.005.546.012" transform="translate(-109.14 -86.108)" fill="#948c88" fill-rule="evenodd"/>
        <path id="path4" d="M80.054.136a.857.857,0,0,1-.212,0c-.058-.009-.011-.016.106-.016s.164.007.106.016m-2.5,0a.857.857,0,0,1-.212,0c-.058-.009-.011-.016.106-.016s.164.007.106.016m3.186.049c.014.023-.039.039-.135.039s-.149-.015-.135-.039a.255.255,0,0,1,.27,0m-3.831,0c0,.021-.053.039-.118.039S76.68.208,76.694.185c.031-.05.212-.05.212,0m4.2.077c0,.021-.043.039-.1.039s-.1-.017-.1-.039.043-.039.1-.039.1.017.1.039m-4.7,0c0,.021-.053.039-.118.039S76.18.285,76.194.262c.031-.05.212-.05.212,0m5.083.077c0,.021-.043.039-.1.039s-.1-.017-.1-.039.043-.039.1-.039.1.017.1.039M76,.339a.165.165,0,0,1-.12.039c-.054,0-.086-.017-.072-.039A.165.165,0,0,1,75.929.3c.054,0,.086.017.072.039m5.776.077c.013.021-.012.039-.055.039s-.079-.017-.079-.039.025-.039.055-.039a.1.1,0,0,1,.079.039m-6.141,0c0,.022-.051.035-.113.031s-.1-.022-.094-.039c.028-.045.207-.037.207.009m6.43.076c0,.021-.035.039-.077.039s-.077-.017-.077-.039.035-.039.077-.039.077.017.077.039m-6.777,0c0,.021-.044.039-.1.039S75.1.515,75.116.493a.128.128,0,0,1,.1-.039c.041,0,.075.017.075.039M82.3.571c0,.021-.026.039-.058.039s-.058-.017-.058-.039.026-.039.058-.039.058.017.058.039m-7.316,0c0,.021-.035.039-.077.039s-.077-.017-.077-.039.035-.039.077-.039.077.017.077.039m7.585.077c0,.021-.035.039-.077.039s-.077-.017-.077-.039.035-.039.077-.039.077.017.077.039m-7.855,0c0,.021-.026.039-.058.039S74.6.669,74.6.648s.026-.039.058-.039.058.017.058.039m8.047.077c0,.021-.035.039-.077.039S82.6.746,82.6.725s.035-.039.077-.039.077.017.077.039m-8.317,0c0,.021-.036.039-.079.039s-.069-.017-.055-.039a.1.1,0,0,1,.079-.039c.031,0,.055.017.055.039M74.211.8c0,.021-.035.039-.077.039S74.057.823,74.057.8s.035-.039.077-.039.077.017.077.039m8.933.077c0,.021-.026.039-.058.039S83.028.9,83.028.879s.026-.039.058-.039.058.017.058.039m-9.164,0c0,.021-.035.039-.077.039S73.826.9,73.826.879,73.86.84,73.9.84s.077.017.077.039m9.414.1c.08.043.1.068.06.081a.054.054,0,0,1-.071-.026c-.008-.024-.058-.044-.11-.044S83.188.977,83.2.956c.031-.051.055-.047.193.027M73.787.956c0,.021-.035.039-.077.039s-.077-.017-.077-.039.035-.039.077-.039.077.017.077.039m-.219.062c-.025.065-.141.074-.12.009a.1.1,0,0,1,.078-.054c.04-.006.055.01.042.045m10.062.072c.044.031.09.047.1.035s.056.013.1.056.068.086.056.1-.047-.005-.078-.037a.389.389,0,0,0-.169-.08c-.061-.012-.111-.046-.111-.075,0-.066,0-.066.1,0m-10.267,0a.155.155,0,0,1-.082.058c-.019,0-.034-.026-.034-.058s.035-.058.082-.058c.068,0,.074.01.034.058m-.193.078c0,.062-.06.076-.094.022-.012-.019,0-.044.036-.057s.058,0,.058.035m11.007.207c.039.024.041.04.007.06-.053.033-.093,0-.073-.053.008-.023.035-.026.066-.007m.3.168c.093.043.11.086.048.124-.021.013-.039,0-.039-.034s-.039-.063-.087-.07-.069-.023-.048-.036a.169.169,0,0,1,.125.016m.26.182c.038.042.057.077.042.077-.041,0-.15-.116-.129-.137s.049.017.088.06m.264.179c.057.056.093.112.082.124s-.066-.027-.12-.085c-.129-.139-.1-.172.039-.039M73.094,2c0,.048-.041.048-.116,0-.047-.03-.041-.037.029-.038.048,0,.087.017.087.038m.154.059c0,.062-.06.076-.094.022-.012-.019,0-.044.036-.057s.058,0,.058.035m12.129.153c.072.074.11.135.084.135a.5.5,0,0,1-.178-.135c-.072-.074-.11-.135-.084-.135a.5.5,0,0,1,.178.135M73.456,2.1c.041.041.024.087-.032.087a.1.1,0,0,1-.077-.034c-.025-.04.075-.087.109-.053m.264.121c.1.1.064.274-.056.274-.05,0-.035-.067.03-.132s.05-.063-.059-.085c-.066-.013-.114-.043-.106-.067.023-.069.118-.064.191.01m12.08.335c.116.112.2.215.186.229s-.121-.071-.239-.188-.2-.221-.186-.229a.823.823,0,0,1,.239.188M73.364,2.534c0,.021-.078.039-.173.039s-.173-.017-.173-.039S73.1,2.5,73.19,2.5s.173.017.173.039M72.7,2.56c.106.041.038.089-.125.089-.1,0-.173-.018-.173-.041s.017-.03.039-.017.038.009.038-.009c0-.036.148-.052.221-.023m-.4.077c.061.061.014.09-.148.09-.1,0-.173.017-.173.039s-.052.039-.116.039c-.117,0-.152-.05-.071-.1.03-.019.034-.01.012.027s-.022.046.028,0a.378.378,0,0,1,.177-.058c.064,0,.108-.021.1-.037-.022-.036.157-.039.192,0m13.772.15a1.093,1.093,0,0,0,.2.239c.254.258.192.263-.081.007-.157-.147-.2-.2-.162-.239s.045-.028.045-.007M71.708,2.82c0,.039-.035.06-.1.06-.121,0-.107-.09.016-.109.056-.008.084.008.084.048m-.27.08c0,.032-.034.058-.077.058s-.077-.026-.077-.058.034-.058.077-.058.077.026.077.058m-.2.064a.136.136,0,0,1-.1.064c-.06.009-.082,0-.071-.039a.136.136,0,0,1,.1-.064c.06-.009.082,0,.071.039m-.223.09c0,.036-.036.058-.1.058s-.1.017-.1.039-.035.039-.077.039-.077-.026-.077-.058.039-.058.118-.058.108-.016.094-.039S70.892,3,70.935,3s.079.025.079.058m-.385.158c0,.041-.021.054-.063.038a.1.1,0,0,0-.108.038c-.041.057-.05.057-.1,0s-.04-.061.029-.061a.136.136,0,0,0,.1-.039c.038-.061.135-.045.135.023m-.308.128a.054.054,0,0,1-.1.035c-.019-.031-.039-.018-.06.04s-.041.077-.084.037-.037-.057.042-.1c.112-.058.2-.064.2-.013M86.681,3.5a.492.492,0,0,1,.121.164c0,.022-.064-.024-.142-.1s-.133-.152-.121-.164.076.034.142.1m-16.649,0a.064.064,0,0,1-.075.022c-.029-.011-.059.016-.072.064-.017.064-.033.073-.067.038s-.031-.059.015-.105c.068-.068.239-.084.2-.019m-.287.154c0,.022-.016.031-.034.019s-.045.006-.058.04a.062.062,0,0,1-.081.039c-.032-.012-.057,0-.057.025,0,.053-.15.159-.181.129s.172-.217.237-.217c.033,0,.059-.017.059-.039s.026-.039.058-.039.058.018.058.041m17.211.209c.05.053.082.1.071.115s-.187-.126-.187-.174.016-.047.115.059M69.282,3.95c0,.04-.157.135-.182.11s.087-.139.14-.139c.023,0,.041.013.041.029m-.231.106a.205.205,0,0,1-.151.172c-.063,0-.05-.033.055-.138.075-.075.1-.082.1-.034m18.1.077c.067.08.017.119-.057.045a.225.225,0,0,1-.06-.082c0-.043.068-.021.116.037m-18.313.085c.037.037.026.087-.019.087a.372.372,0,0,0-.145.106,1.421,1.421,0,0,1-.49.356c-.05,0-.038-.026.05-.106a1.717,1.717,0,0,1,.445-.327c.016.005.029-.015.029-.044,0-.058.094-.11.131-.072m18.478.148c.077.1.019.129-.077.033-.035-.035-.046-.074-.026-.093s.064.008.1.06m.194.356c.073.08.081.122.025.122-.021,0-.039-.025-.039-.055a.081.081,0,0,0-.048-.072c-.026-.009-.038-.028-.025-.042s.051.007.087.046m-19.436.219a.545.545,0,0,1-.177.135c-.023,0-.033.015-.021.033.028.045-.111.167-.148.13-.016-.016-.023,0-.016.029s-.008.054-.034.049-.037.015-.022.055.009.058-.038.04-.056-.007-.044.026-.042.117-.117.2a.8.8,0,0,0-.136.181.383.383,0,0,1-.094.124.549.549,0,0,0-.118.172c-.014.043-.041.078-.061.078s-.036.023-.036.051a.28.28,0,0,1-.077.133c-.106.114-.1.148.069.31a2.326,2.326,0,0,1,.239.276,2.012,2.012,0,0,0,.143.186.182.182,0,0,1,.049.106c0,.03.017.055.037.055.045,0,.131.152.1.181s-.217-.16-.217-.2a.211.211,0,0,0-.058-.082c-.032-.032-.047-.077-.033-.1s.008-.03-.017-.015-.066-.019-.1-.081a.756.756,0,0,0-.136-.18c-.044-.04-.07-.088-.059-.107s0-.03-.03-.024-.047-.011-.041-.038a.03.03,0,0,0-.038-.039c-.029.006-.047-.029-.045-.087,0-.116.091-.308.14-.308.019,0,.025-.015.013-.034s0-.056.036-.082a.161.161,0,0,0,.057-.1c0-.03.017-.045.039-.031s.039,0,.039-.019c0-.081.183-.317.2-.263.012.03.022.019.023-.027a.2.2,0,0,1,.08-.134c.042-.031.078-.073.078-.1a.475.475,0,0,1,.247-.251c.034,0,.06-.033.06-.077s.026-.077.06-.077.049-.018.036-.039,0-.035.027-.029.047-.011.041-.038.017-.048.05-.048.049-.017.036-.039.012-.039.057-.039c.071,0,.065.015-.054.135m19.577,0c0,.032-.017.058-.038.058s-.039-.026-.039-.058.017-.058.039-.058.038.026.038.058m.385.77c0,.032-.017.058-.039.058s-.039-.026-.039-.058.017-.058.039-.058.039.026.039.058m.057.146c.016.038.019.08.006.093-.039.039-.071-.016-.053-.092s.018-.067.047,0m.148.389c.016.04.02.082.008.093-.035.035-.066-.022-.051-.1s.016-.067.043,0m.083.189c.016.038.019.08.006.093-.039.039-.071-.016-.053-.092s.018-.067.047,0m.077.231c.016.038.019.08.006.093-.039.039-.071-.016-.053-.092s.018-.067.047,0m.077.231c.016.038.019.08.006.093-.039.039-.071-.016-.053-.092s.018-.067.047,0m.073.239a.111.111,0,0,1-.008.106c-.05.05-.078-.014-.046-.1.026-.071.028-.071.054,0m.077.277c.046.046.025.127-.033.127a.057.057,0,0,1-.058-.055c0-.064.055-.108.091-.072m-20.984.158a.089.089,0,0,1,0,.085c-.013.021,0,.039.036.039a.059.059,0,0,1,.06.058c0,.087-.058.069-.113-.035s-.041-.233.012-.146M88.7,7.712a.114.114,0,0,1-.012.11c-.061.061-.1,0-.053-.1.035-.079.04-.08.065-.013m-20.894.212c-.013.05,0,.077.034.077a.056.056,0,0,1,.054.058c0,.077-.038.073-.1-.01s-.069-.2-.011-.2c.024,0,.034.034.023.077m20.973.138c.026.068,0,.131-.056.131s-.048-.142,0-.171c.019-.012.045.006.058.04m-20.808.189c0,.032-.017.058-.039.058s-.039-.026-.039-.058.017-.058.039-.058.039.026.039.058m.034.131a.1.1,0,0,1,.032.117c-.014.053,0,.091.033.1.062.024.076.167.016.167-.021,0-.039-.034-.039-.075a.128.128,0,0,0-.039-.1.155.155,0,0,1-.039-.115.125.125,0,0,0-.048-.11c-.026-.011-.031-.021-.01-.022a.2.2,0,0,1,.092.031m20.84.052c.032.062.012.183-.029.183s-.052-.041-.052-.1c0-.076.057-.136.082-.087m-20.691.439c.054.022.067.206.014.206-.019,0-.042-.052-.051-.116S68.1,8.85,68.1,8.852l.051.022m20.779.074c.044.115.027.207-.034.184-.033-.013-.058-.07-.058-.134,0-.12.054-.15.092-.05m-20.654.594c0,.35-.055.35-.068,0-.006-.163.005-.269.029-.269s.039.113.039.27m20.724.01c.035.1.009.35-.038.366s-.048-.044-.048-.2c0-.2.044-.283.086-.167M84.925,9.8c.144.078.135.111-.01.036a.345.345,0,0,1-.116-.078c0-.025,0-.023.125.042m-5.092.342a.964.964,0,0,1-.265.136c-.033,0,.121-.1.2-.127.037-.013.067-.018.067-.009m5.931.319.21.221-.221-.21c-.206-.2-.239-.232-.21-.232.006,0,.106.1.221.221m-14.4.972c.079.025.083.031.019.034a.27.27,0,0,1-.135-.034c-.067-.044-.021-.044.116,0m5.314.075a.28.28,0,0,1-.132.04c-.1,0-.068-.021.074-.053.084-.019.1-.015.058.013M70.8,11.492c-.2.174-.268.225-.193.135a.626.626,0,0,1,.154-.13c.043-.022.06-.024.039-.005m15.823.212a.6.6,0,0,1,.06.164c0,.043-.078-.092-.126-.218s0-.076.065.054m-14.34-.044c.133.028.133.028.019.033a.364.364,0,0,1-.173-.033c-.064-.041-.043-.041.154,0m3.347.091a.924.924,0,0,1-.187.036c-.111.014-.152.009-.116-.013.051-.033.339-.054.3-.023m-2.837.013a.42.42,0,0,1-.154,0c-.037-.01,0-.017.087-.017s.115.008.067.018m2.291.078a1.663,1.663,0,0,1-.289,0c-.079-.008-.014-.015.144-.015s.224.007.144.015m-1.559,0a2.211,2.211,0,0,1-.327,0c-.09-.008-.016-.015.164-.015s.254.007.164.015m.962.038a1.028,1.028,0,0,1-.231,0c-.058-.009,0-.016.126-.016s.174.007.105.016m-.558,0a.318.318,0,0,1-.135,0c-.037-.01-.007-.018.067-.018s.1.008.067.018m-3.5,2.421c.01,2.551.025,2.418-.262,2.4-.237-.017-.216-.087.03-.1l.2-.012.01-2.279.01-2.279.009,2.274m16.407-2a.782.782,0,0,0,.027.154c.021.067.02.067-.022,0a.244.244,0,0,1-.027-.154c.017-.085.017-.085.022,0m.072.436c0,.1-.007.134-.017.087a.545.545,0,0,1,0-.173c.009-.048.017-.009.017.087m-18.6,1.954c.058.02.066.356.008.356s-.083-.088-.069-.24c.008-.086.029-.127.06-.116m20.715.3c0,.053-.014.087-.03.077s-.039,0-.05.03-.021-.008-.023-.077.015-.125.05-.125.053.04.053.1m-20.59.174c0,.05-.02.077-.048.067a.071.071,0,0,1,0-.135c.029-.01.048.018.048.067m20.516.087c-.007.048-.03.087-.051.087s-.044-.039-.051-.087.007-.087.051-.087.059.027.051.087m-20.439.144c0,.042.017.077.039.077a.046.046,0,0,1,.039.051.28.28,0,0,0,.077.133.3.3,0,0,1,.077.118.153.153,0,0,0,.057.083c.031.026.046.066.033.088s-.007.029.014.016c.04-.025.258.177.226.209-.01.01.014.021.054.024.076.006.233.123.233.173s-.085.018-.169-.057a.262.262,0,0,0-.127-.067c-.028,0-.051-.035-.051-.077s-.026-.077-.087-.078-.076-.008-.029-.038.041-.037-.029-.038-.087-.023-.087-.087-.012-.069-.029-.043-.042.029-.078-.01-.037-.054,0-.054.009-.032-.037-.072a.236.236,0,0,1-.083-.141c0-.038-.011-.058-.025-.044s-.129-.144-.129-.209c0-.019.026-.034.058-.034s.058.034.058.077m20.352,0a.053.053,0,0,1-.02.072c-.026.016-.043.041-.039.055.013.046-.086.254-.121.254a.037.037,0,0,0-.034.039.57.57,0,0,1-.257.269c-.028,0-.047.019-.042.042s-.025.062-.067.087a.739.739,0,0,0-.139.112.212.212,0,0,1-.126.067c-.035,0-.063.017-.063.039s-.026.039-.058.039a.058.058,0,0,1-.058-.058c0-.053.054-.073.183-.068.026,0,.039-.013.028-.03s.055-.083.147-.146A1.467,1.467,0,0,0,88.416,16c.028-.033.068-.049.09-.036s.029.006.013-.019c-.028-.046.019-.158.1-.244a.945.945,0,0,0,.118-.2c.074-.157.085-.166.125-.1m-1.921.92c0,.138-.007.194-.016.125a1.222,1.222,0,0,1,0-.25c.008-.069.016-.013.016.125m-17.456.064c.044.044.028.09-.032.09a.058.058,0,0,1-.058-.058c0-.06.046-.076.09-.032m18.315.109a.068.068,0,0,1-.075.058.128.128,0,0,0-.1.039.166.166,0,0,1-.121.039c-.124,0-.1-.091.028-.109a.284.284,0,0,0,.13-.048c.057-.055.137-.042.137.023M69.688,16.47a.284.284,0,0,0,.13.048c.132.018.151.109.023.109-.058,0-.092-.017-.078-.039s-.025-.039-.094-.039-.118-.019-.118-.058c0-.064.08-.077.137-.023m17.595.155-.077.031.077.021c.042.012-.008.018-.113.015-.273-.009-.288-.1-.016-.1.143,0,.182.012.128.033M82.505,26.933c.033.085.005.1-.051.037-.027-.033-.031-.064-.01-.078s.047.006.061.041m.17.245c.047.064.07.116.052.116-.052,0-.2-.138-.2-.187,0-.076.06-.047.148.072m-.459-.064c-.009.007-.077.052-.151.1l-.135.087.116-.1a.478.478,0,0,1,.151-.1c.019,0,.028.005.019.012m-7.494.05c.013.013,0,.049-.035.081-.075.075-.1.049-.038-.037.027-.037.059-.056.072-.044m6.881.363c-.134.091-.21.117-.116.04a.368.368,0,0,1,.135-.079c.021,0,.013.017-.019.039m1.556.137c.082.073.138.144.124.158s-.087-.04-.162-.12A.565.565,0,0,1,83,27.542a.57.57,0,0,1,.162.12m.325.231c.029.032.043.067.033.078s-.181-.071-.181-.111.094-.029.148.033m.2.131c0,.021-.026.039-.058.039s-.058-.017-.058-.039.026-.039.058-.039.058.017.058.039m-3.85.191a.28.28,0,0,1-.132.04c-.1,0-.068-.021.074-.053.084-.019.1-.015.058.013m-2.195,0c.079.025.083.031.019.034a.27.27,0,0,1-.135-.034c-.067-.044-.021-.044.116,0m6.546.039c0,.021-.035.039-.077.039s-.077-.017-.077-.039.035-.039.077-.039.077.017.077.039m.164.027c.092.024.085.089-.01.089-.043,0-.077-.026-.077-.058s0-.056.01-.053l.077.022M79.39,28.3a1.2,1.2,0,0,1-.308.031c-.29,0-.237-.021.116-.044.157-.01.237,0,.193.013m-1.136,0,.25.025-.231,0a1.092,1.092,0,0,1-.308-.029c-.085-.036-.074-.036.289,0m6.48.063c.039.039-.01.091-.087.091a.1.1,0,0,1-.093-.058c-.023-.059.127-.086.18-.033m1.169.11a1.47,1.47,0,0,1-.646.016c-.039-.025-.028-.035.043-.037.535-.016.615-.014.6.021m.5.045c.075.03.016.09-.089.09s-.126-.057-.033-.092a.271.271,0,0,1,.067-.02l.055.023m.385.1c-.018.055-.14.066-.154.014-.005-.019.031-.041.08-.048s.084,0,.074.035m.258.065a.044.044,0,0,1-.017.06.079.079,0,0,1-.116-.06c0-.047.1-.047.133,0m.23.076c.012.019,0,.044-.036.057s-.058,0-.058-.035c0-.062.06-.076.094-.022m.214.079c0,.065-.068.081-.091.021-.013-.035,0-.058.035-.058s.057.016.057.036m.231.079c0,.021-.035.039-.077.039s-.077-.017-.077-.039.035-.039.077-.039.077.017.077.039m.154.077c0,.021-.026.039-.058.039s-.058-.017-.058-.039.026-.039.058-.039.058.017.058.039m.462.231c0,.021-.026.039-.058.039s-.058-.017-.058-.039.026-.039.058-.039.058.017.058.039m.518.322c.093.054.175.127.175.156,0,.048-.091.018-.149-.049a.347.347,0,0,0-.118-.089c-.031-.01-.039-.028-.019-.04a.141.141,0,0,1,.112.022m.334.249c.106.062.207.192.174.225-.011.011-.083-.044-.16-.122-.159-.158-.163-.19-.013-.1m-20.965.025a.193.193,0,0,1-.106.058c-.027,0-.016-.025.026-.057.1-.074.154-.075.08,0m21.822.831c.056.044.091.1.079.117-.027.044-.118-.022-.174-.127s-.03-.089.095.01m.333.4c.067.08.017.119-.057.045a.225.225,0,0,1-.06-.082c0-.043.068-.021.116.037m.217.327c.065.119.071.154.029.154a.063.063,0,0,1-.055-.069.185.185,0,0,0-.077-.124c-.087-.063-.1-.116-.029-.115.026,0,.086.069.132.154m.158.307c.058.093.06.116.009.116-.021,0-.039-.026-.039-.058s-.017-.058-.039-.058a.039.039,0,0,1-.039-.039c0-.063.055-.044.106.038m.181.32c.016.038.019.08.006.093-.039.039-.071-.016-.053-.092s.018-.067.047,0m.1.239c0,.032-.017.058-.038.058s-.039-.026-.039-.058.017-.058.039-.058.038.026.038.058m.077.154c0,.032-.017.058-.039.058s-.039-.026-.039-.058.017-.058.039-.058.039.026.039.058m.051.122c.04.04.03.167-.012.167-.021,0-.034-.043-.03-.1.009-.108.007-.106.042-.071m.18.59c0,.042-.017.077-.039.077s-.039-.035-.039-.077.017-.077.039-.077.039.035.039.077m.077.327c0,.053-.017.1-.039.1s-.038-.043-.038-.1.017-.1.038-.1.039.043.039.1m.051.314c.041.041.03.282-.013.282-.021,0-.039-.069-.039-.154,0-.157.006-.173.051-.128M73.431,37.256c-.27.007-.712.007-.982,0s-.049-.012.491-.012.761.005.491.012m17.948,1.155c-.1.13-.153.173-.177.149s.14-.216.193-.216c.02,0,.013.03-.016.067" transform="translate(-65.855 -0.12)" fill="#81746c" fill-rule="evenodd"/>
      </g>
      <g id="Rectangle_2814" data-name="Rectangle 2814" transform="translate(5759.6 8788.318)" fill="#707070" stroke="#707070" stroke-width="1">
        <rect width="8" height="4" stroke="none"/>
        <rect x="0.5" y="0.5" width="7" height="3" fill="none"/>
      </g>
      <rect id="Rectangle_2814-2" data-name="Rectangle 2814" width="20" height="4" transform="translate(5736.6 8788.318)" fill="#c6c6c6"/>
      <g id="Rectangle_2814-3" data-name="Rectangle 2814" transform="translate(5759.6 8797.318)" fill="#707070" stroke="#707070" stroke-width="1">
        <rect width="8" height="4" stroke="none"/>
        <rect x="0.5" y="0.5" width="7" height="3" fill="none"/>
      </g>
      <rect id="Rectangle_2814-4" data-name="Rectangle 2814" width="20" height="4" transform="translate(5736.6 8797.318)" fill="#c6c6c6"/>
      <g id="Rectangle_2814-5" data-name="Rectangle 2814" transform="translate(5759.6 8806.318)" fill="#707070" stroke="#707070" stroke-width="1">
        <rect width="8" height="4" stroke="none"/>
        <rect x="0.5" y="0.5" width="7" height="3" fill="none"/>
      </g>
      <g id="Rectangle_2815" data-name="Rectangle 2815" transform="translate(5747.6 8830.318)" fill="#707070" stroke="#707070" stroke-width="1">
        <rect width="20" height="4" stroke="none"/>
        <rect x="0.5" y="0.5" width="19" height="3" fill="none"/>
      </g>
      <rect id="Rectangle_2814-6" data-name="Rectangle 2814" width="20" height="4" transform="translate(5736.6 8806.318)" fill="#c6c6c6"/>
      <rect id="Rectangle_2816" data-name="Rectangle 2816" width="31" height="4" transform="translate(5714.6 8830.318)" fill="#c6c6c6"/>
      <path id="Path_9178" data-name="Path 9178" d="M53.614,24.326c0,1.933,0,3.866-.061,5.92a26.113,26.113,0,0,1-3.941,11.191,27.318,27.318,0,0,1-5.781,6.444,25.076,25.076,0,0,1-9.2,4.831c-1.308.384-2.663.607-4,.9-2.167,0-4.333,0-6.621-.061A26.358,26.358,0,0,1,6.8,43.9,25.525,25.525,0,0,1,1.693,33.626c-.273-1.1-.465-2.224-.693-3.337,0-1.933,0-3.866.061-5.919.136-.634.219-1.146.286-1.66a23.326,23.326,0,0,1,2.53-7.589,26.368,26.368,0,0,1,6.967-8.447,25.114,25.114,0,0,1,9.3-4.79C21.41,1.537,22.7,1.291,23.975,1c2.167,0,4.333,0,6.621.061a26.371,26.371,0,0,1,17.276,9.714A25.739,25.739,0,0,1,52.9,20.815c.295,1.156.478,2.34.712,3.511M7.332,38.83c.061.131.112.268.186.392a23.081,23.081,0,0,0,32.823,7.169c.85-.591,1.645-1.263,2.455-1.89a1.981,1.981,0,0,0-.175-.259q-10.853-9.8-21.714-19.6c-.11-.1-.31-.1-.566-.206a5.047,5.047,0,0,0-.535-.674c-.967-.874-1.963-1.716-2.927-2.594-2.146-1.954-4.275-3.928-6.421-5.882-.57-.519-1.178-1-1.84-1.553C3.446,21.882,2.775,30.156,7.332,38.83M20.665,20.049c.187.184.367.375.562.55q7.268,6.56,14.542,13.114c1.3,1.165,2.623,2.3,4.007,3.539L45.1,41.984c5.136-6.837,6.712-14.273,3.878-22.235C45.741,10.652,39,5.436,29.435,4.407,22.323,3.643,16.087,6.036,10.91,11.16,14.207,14.144,17.41,17.042,20.665,20.049Z" transform="translate(5698.693 8782.693)" fill="#ed1c24"/>
    </g>
  </g>
</svg>
