<svg xmlns="http://www.w3.org/2000/svg" width="22.105" height="22.106" viewBox="0 0 22.105 22.106">
  <g id="Information" transform="translate(-24.6 558.567)">
    <path id="Path_3237" data-name="Path 3237" d="M34.616-558.543a11.11,11.11,0,0,0-9.463,7.5,9.956,9.956,0,0,0-.553,3.523,9.232,9.232,0,0,0,.259,2.481,11.114,11.114,0,0,0,7.258,8.006,11.177,11.177,0,0,0,7.31-.091A17.171,17.171,0,0,0,41.283-538l.216-.125,2.395.64c1.314.354,2.4.635,2.412.627s-.264-1.081-.61-2.373-.631-2.386-.631-2.425a1.225,1.225,0,0,1,.156-.333,11.274,11.274,0,0,0,1.379-7.081,11.1,11.1,0,0,0-4.846-7.669,11.089,11.089,0,0,0-4.556-1.742A16.567,16.567,0,0,0,34.616-558.543Zm1.457,5.2a1.389,1.389,0,0,1,.86,1.794,1.5,1.5,0,0,1-.821.813,1.34,1.34,0,0,1-1.427-.32A1.372,1.372,0,0,1,36.073-553.346Zm.951,6.519v3.113h1.038v2.118H33.22v-2.118h1.038v-4.15H33.22v-2.075h3.8Z" fill="#c00"/>
  </g>
</svg>
