<svg xmlns="http://www.w3.org/2000/svg" width="16.468" height="16.463" viewBox="0 0 16.468 16.463">
  <g id="More_info" data-name="More info" transform="translate(-54.075 373.851)">
    <path id="Path_3247" data-name="Path 3247" d="M61.059-373.759a7.118,7.118,0,0,0-1.223.275c-.11.04-.3.11-.424.15a9.305,9.305,0,0,0-2.161,1.208,9.973,9.973,0,0,0-1.642,1.717,10.618,10.618,0,0,0-1.1,2.141,8.343,8.343,0,0,0,0,5.291,10.618,10.618,0,0,0,1.1,2.141,9.971,9.971,0,0,0,1.642,1.717,8.746,8.746,0,0,0,3.11,1.5,8.412,8.412,0,0,0,3.893,0,8.107,8.107,0,0,0,1.592-.574,9.571,9.571,0,0,0,1.517-.928,9.971,9.971,0,0,0,1.642-1.717,10.375,10.375,0,0,0,1.1-2.141,8.275,8.275,0,0,0,0-5.291,10.374,10.374,0,0,0-1.1-2.141,9.974,9.974,0,0,0-1.642-1.717,8.745,8.745,0,0,0-3.11-1.5A8.672,8.672,0,0,0,61.059-373.759Zm2.321.524a7.371,7.371,0,0,1,2.885,1.033,7.748,7.748,0,0,1,2.92,3.16,6.927,6.927,0,0,1,.579,1.572,7.63,7.63,0,0,1,.23,1.847,7.726,7.726,0,0,1-.809,3.419,7.748,7.748,0,0,1-2.92,3.159,7.371,7.371,0,0,1-2.885,1.033,7.894,7.894,0,0,1-4.4-.679,7.934,7.934,0,0,1-3.554-3.514,6.927,6.927,0,0,1-.579-1.572,7.63,7.63,0,0,1-.23-1.847,7.726,7.726,0,0,1,.809-3.419,7.782,7.782,0,0,1,4.956-4.023A8,8,0,0,1,63.38-373.235Z" transform="translate(0)"/>
    <path id="Path_3248" data-name="Path 3248" d="M223.863-288.407a1.045,1.045,0,0,0-.644.669.762.762,0,0,0,.409.948c.759.389,1.722-.474,1.363-1.223A.935.935,0,0,0,223.863-288.407Z" transform="translate(-160.667 -81.13)"/>
    <path id="Path_3249" data-name="Path 3249" d="M178.936-244.894c-1.168.245-1.982.749-1.572.968a.683.683,0,0,0,.534-.11.324.324,0,0,1,.2-.03c.125.015.14.035.155.215s-.05.329-.339.908c-.19.389-.349.719-.349.734s-.075.185-.17.389a5.818,5.818,0,0,0-.659,1.932l-.035.354.18.17c.275.255.629.285,1.308.1a3.578,3.578,0,0,0,1.4-.684c.19-.185.195-.195.1-.265-.15-.1-.265-.085-.634.1-.389.2-.559.22-.659.07-.055-.075-.06-.15-.025-.309a14.024,14.024,0,0,1,.819-2.071c.21-.439.489-1.048.639-1.383.334-.724.344-.908.06-1.043A2.345,2.345,0,0,0,178.936-244.894Z" transform="translate(-116.504 -122.496)"/>
  </g>
</svg>
