<svg xmlns="http://www.w3.org/2000/svg" width="20.08" height="20.421" viewBox="0 0 20.08 20.421">
  <g id="Interview_Mic" transform="translate(-36.926 534.843)">
    <path id="Path_3273" data-name="Path 3273" d="M50.241-534.632a3.818,3.818,0,0,0-2.087,1.126,2.314,2.314,0,0,0-.481.676.368.368,0,0,0,.184.285c.16.074.274.012.485-.274a3.126,3.126,0,0,1,1.747-1.176,3.585,3.585,0,0,1,1.63,0,3.2,3.2,0,0,1,2.013,1.661,2.935,2.935,0,0,1,.324,1.376c.008.872-.113,1.169-1.09,2.685-.418.649-.8,1.223-.844,1.27-.2.207-.168.219-2.771-1.458-1.321-.852-2.435-1.579-2.478-1.622-.156-.152-.106-.317.289-.926.383-.59.426-.723.3-.872a.248.248,0,0,0-.231-.066c-.156.012-.168.02-.446.442-.516.778-.575.9-.575,1.192,0,.434.133.606.762,1.016a1.556,1.556,0,0,1,.371.289,4.687,4.687,0,0,1-.313.543l-.313.5-.2-.023a11.03,11.03,0,0,0-2.091-.062c-.79.051-.872.039-1.157-.141-.164-.106-.172-.117-.145-.246a.9.9,0,0,0-.156-.75,15.886,15.886,0,0,0-1.935-1.247.835.835,0,0,0-.676.117,13.978,13.978,0,0,0-1.638,2.384c-.805,1.251-1.5,2.357-1.552,2.458a.772.772,0,0,0,.137.9,15.7,15.7,0,0,0,1.825,1.2.828.828,0,0,0,.829-.148l.09-.082.313.207a1.135,1.135,0,0,1,.348.313,4.268,4.268,0,0,1,.121.543,2.5,2.5,0,0,0,.844,1.641l.293.274-.184.285a2.034,2.034,0,0,0-.406,1.509,2.219,2.219,0,0,0,.461.993l.156.168-.211.43a2.287,2.287,0,0,0-.32,1.29,1.118,1.118,0,0,0,.121.551,1.308,1.308,0,0,0,.961.664,25.569,25.569,0,0,0,3.193.012,7.965,7.965,0,0,0,1.559-.524,15.216,15.216,0,0,1,3.08-.954,21.157,21.157,0,0,1,4.522-.379l1.771-.016a.3.3,0,0,0,.106-.078.267.267,0,0,0-.023-.395l-.1-.094H54.97a21.555,21.555,0,0,0-3.428.18,15.711,15.711,0,0,0-4.4,1.173,5.022,5.022,0,0,1-2.853.535c-1.528.016-1.751-.008-2.013-.2-.328-.231-.3-.907.078-1.606a1.1,1.1,0,0,1,.168-.262,1.764,1.764,0,0,1,.188.059,1.967,1.967,0,0,0,1.849-.406,3.145,3.145,0,0,0,.41-.512l.231-.352.137.09a1.268,1.268,0,0,0,1.567-.086,1.6,1.6,0,0,0,.383-.672c0-.168.027-.184.246-.125a1.311,1.311,0,0,0,1.477-.758,1.047,1.047,0,0,0,.094-.571c0-.375,0-.383.1-.406a1.809,1.809,0,0,0,.692-.41,1.282,1.282,0,0,0,.34-1.247c-.012-.051.02-.07.129-.094a1.305,1.305,0,0,0,.915-.8,1.1,1.1,0,0,0,.066-.532c-.031-.555-.184-.762-.95-1.258-.278-.184-.516-.34-.524-.348a6.422,6.422,0,0,1,.363-.6l.383-.586.336.219c.539.352.653.4.926.4a.948.948,0,0,0,.731-.324c.289-.379,1.556-2.4,1.692-2.7a3.694,3.694,0,0,0-.039-3.244,3.871,3.871,0,0,0-2.443-1.978A4.46,4.46,0,0,0,50.241-534.632Zm-8.563,5.257c.434.281.809.535.836.567.1.125.043.266-.465,1.075-.281.449-.528.86-.547.907a.291.291,0,0,0,.27.379c.149,0,.2-.051.528-.582.168-.27.348-.555.4-.633l.094-.148.113.082a2.267,2.267,0,0,0,.336.18,1,1,0,0,0,.559.1c.184,0,.739-.008,1.231-.012,1.321-.016,1.982.1,2.337.426.332.3.383.614.266,1.645-.1.821-.117.938-.156.938a4.193,4.193,0,0,1-.813-.731.967.967,0,0,0-1.173-.461.923.923,0,0,0-.375.227c-.117.105-.629.872-1.493,2.216-.727,1.13-1.325,2.056-1.329,2.064a1.706,1.706,0,0,1-.27-.231,2.057,2.057,0,0,1-.629-1.325,4.079,4.079,0,0,0-.188-.7,2.041,2.041,0,0,0-.731-.629l-.094-.063.457-.715a5.082,5.082,0,0,0,.457-.809.314.314,0,0,0-.1-.188.255.255,0,0,0-.328-.059,9.3,9.3,0,0,0-.668.958c-.571.883-.661,1-.8,1a15.958,15.958,0,0,1-1.669-1.063.279.279,0,0,1-.07-.16c0-.09,2.853-4.538,2.994-4.671a.341.341,0,0,1,.16-.086A8.618,8.618,0,0,1,41.678-529.375Zm7.418,1.446c.551.356,1,.657,1,.672s-.168.285-.371.6l-.371.571-.207-.133c-1-.641-.946-.6-1.047-.817a1.594,1.594,0,0,0-.621-.649l-.188-.109.293-.457.3-.457.106.066C48.045-528.6,48.545-528.284,49.1-527.929Zm.371,2.615a9.963,9.963,0,0,1,1.169.817.75.75,0,0,1-.141.981.817.817,0,0,1-.575.121,8.145,8.145,0,0,1-.958-.567c-.723-.473-.821-.551-.821-.641,0-.055.035-.391.078-.746s.078-.661.078-.676C48.3-526.068,48.232-526.107,49.467-525.314Zm-3.338.422c.106.125.285.313.4.422l.2.2-.094.117A1.56,1.56,0,0,0,46.3-523l.035.18-.219.063a1.4,1.4,0,0,0-.965,1.227l-.023.2-.223.016a1.146,1.146,0,0,0-.922.621,1.433,1.433,0,0,0-.082,1,1.522,1.522,0,0,0,.6.7l.207.133-.231.34a2.444,2.444,0,0,1-.375.453,1.382,1.382,0,0,1-1.368.164,1.331,1.331,0,0,1-.676-1.708c.176-.383,3.381-5.323,3.514-5.421C45.778-525.177,45.9-525.146,46.129-524.892Zm2.58,1.47a7.239,7.239,0,0,1,.852.618.74.74,0,0,1,0,.813.922.922,0,0,1-.875.344c-.078-.02-1.208-.731-1.54-.965a.672.672,0,0,1-.25-.578.74.74,0,0,1,.223-.606c.109-.1.125-.106.309-.062a.441.441,0,0,0,.328-.016,1.479,1.479,0,0,1,.156-.063C47.919-523.942,48.279-523.708,48.709-523.422Zm-1.618,1.485a6.9,6.9,0,0,1,1.356.961.746.746,0,0,1-.238.946.558.558,0,0,1-.578.1,14.816,14.816,0,0,1-1.7-1.1.711.711,0,0,1,.2-1.094.5.5,0,0,1,.363-.086C46.653-522.2,46.755-522.156,47.091-521.937Zm-1.759,1.282a10.155,10.155,0,0,1,1.2.789.565.565,0,0,1,.168.555.631.631,0,0,1-.661.489c-.172,0-.238-.027-.653-.293-.715-.457-.774-.5-.868-.641a.7.7,0,0,1,.2-.9A.652.652,0,0,1,45.332-520.655Z" transform="translate(0)" stroke="#000" stroke-width="0.3"/>
    <path id="Path_3274" data-name="Path 3274" d="M339.7-499.862a3.016,3.016,0,0,0-.664.211c-.512.231-1.036.746-1.036,1.024a.261.261,0,0,0,.277.277c.1,0,.164-.051.391-.3a1.8,1.8,0,0,1,2.2-.446c.258.117.32.129.418.1a.271.271,0,0,0,.1-.457,1.991,1.991,0,0,0-.836-.375A2.828,2.828,0,0,0,339.7-499.862Z" transform="translate(-289.154 -33.437)" stroke="#000" stroke-width="0.3"/>
  </g>
</svg>
