<svg id="know_more" data-name="know more" xmlns="http://www.w3.org/2000/svg" width="16.856" height="18.735" viewBox="0 0 16.856 18.735">
  <path id="Path_2810" data-name="Path 2810" d="M240.035-545.767l.1.088v1.517l-.1.088a.3.3,0,0,1-.418,0l-.1-.088-.011-.63a6.81,6.81,0,0,1,.011-.759A.312.312,0,0,1,240.035-545.767Z" transform="translate(-231.398 545.849)"/>
  <path id="Path_2811" data-name="Path 2811" d="M130.07-515.876c.169.132.136.268-.22.89-.385.671-.425.718-.6.718a.328.328,0,0,1-.333-.3,11.122,11.122,0,0,1,.744-1.3A.306.306,0,0,1,130.07-515.876Z" transform="translate(-117.376 517.046)"/>
  <path id="Path_2812" data-name="Path 2812" d="M334.091-515.872c.044.048.227.348.414.671.355.627.37.682.213.85a.269.269,0,0,1-.213.084c-.176,0-.213-.044-.6-.718-.355-.623-.388-.759-.22-.89A.306.306,0,0,1,334.091-515.872Z" transform="translate(-329.522 517.046)"/>
  <path id="Path_2822" data-name="Path 2822" d="M5.761.387C2.723.387.246,2.462.246,5.5c0,2.135,2.369,4.872,3.369,6.493.446.341,1.244-.242,1.885,0a2.1,2.1,0,0,0,2.817-1.358C9.475,9.263,11,7.207,11,5.5A4.964,4.964,0,0,0,5.761.387Z" transform="translate(2.867 2.368)" fill="#ffb858"/>
  <path id="Path_2813" data-name="Path 2813" d="M100.615-477.663a5.666,5.666,0,0,1,4.892,4.394,5.508,5.508,0,0,1-.147,2.935,5.572,5.572,0,0,1-1.653,2.51,1.97,1.97,0,0,0-.836,1.121c-.022.092-.04.707-.04,1.407a5.147,5.147,0,0,1-.194,2.041,2.535,2.535,0,0,1-.667,1,1.948,1.948,0,0,1-.678.5,2.336,2.336,0,0,1-1.264.3,2.368,2.368,0,0,1-1.191-.257,2.867,2.867,0,0,1-1.352-1.345c-.26-.546-.268-.608-.293-2.224a5.775,5.775,0,0,0-.1-1.612,2.075,2.075,0,0,0-.678-.843,5.644,5.644,0,0,1-1.909-5.534,5.641,5.641,0,0,1,3.734-4.137A6.2,6.2,0,0,1,100.615-477.663Zm-1.5.682a4.983,4.983,0,0,0-3.848,3.36,4.489,4.489,0,0,0-.242,1.546,4.664,4.664,0,0,0,.517,2.235,4.677,4.677,0,0,0,1.088,1.437,3.641,3.641,0,0,1,.942,1.048,2.056,2.056,0,0,1,.242.967v.268H102.2l.022-.359a2.179,2.179,0,0,1,.861-1.634,5.354,5.354,0,0,0,1.411-1.726,5,5,0,0,0-2.008-6.563,5.263,5.263,0,0,0-1.968-.638A6.242,6.242,0,0,0,99.113-476.982Zm-1.294,11.639.011.158h4.361l.011-.158.011-.154h-4.4Zm-.007.945v.147h4.4v-.293h-4.4Zm.147.825a.5.5,0,0,0,.055.165l.059.11h3.917l.033-.084c.018-.044.04-.117.055-.165l.026-.081h-2.071A8.261,8.261,0,0,0,97.958-463.573Zm.663.993a2.124,2.124,0,0,0,1.257.513,2.23,2.23,0,0,0,1.506-.476l.147-.128-1.5,0h-1.5Z" transform="translate(-91.582 480.186)"/>
  <path id="Path_2814" data-name="Path 2814" d="M240.62-443.428a.3.3,0,0,1,.07.495c-.077.07-.139.084-.432.1-.322.015-.344.011-.447-.073a.294.294,0,0,1,.143-.52A1.447,1.447,0,0,1,240.62-443.428Z" transform="translate(-232.06 447.215)"/>
  <path id="Path_2815" data-name="Path 2815" d="M285.069-434.784a.286.286,0,0,1,.033.377,1.535,1.535,0,0,1-.374.242,3.76,3.76,0,0,0-2.023,2.734c-.051.293-.143.4-.326.4-.279,0-.355-.169-.275-.586a4.4,4.4,0,0,1,2.356-3.119C284.8-434.9,284.944-434.912,285.069-434.784Z" transform="translate(-277.978 438.938)"/>
  <path id="Path_2816" data-name="Path 2816" d="M49.1-434.912a.292.292,0,0,1,.029.421,7.766,7.766,0,0,1-1.316.737.4.4,0,0,1-.311-.3.381.381,0,0,1,.07-.18A6.913,6.913,0,0,1,48.908-435,.367.367,0,0,1,49.1-434.912Z" transform="translate(-33.433 439.062)"/>
  <path id="Path_2817" data-name="Path 2817" d="M403.058-434.67a4.809,4.809,0,0,1,.649.421.253.253,0,0,1-.026.392c-.092.092-.136.11-.231.092a8.016,8.016,0,0,1-1.29-.726.3.3,0,0,1,.033-.421.366.366,0,0,1,.2-.088A3.777,3.777,0,0,1,403.058-434.67Z" transform="translate(-401.006 439.062)"/>
  <path id="Path_2818" data-name="Path 2818" d="M19.79-323.908a.324.324,0,0,1,.022.425c-.07.088-.081.088-.825.1l-.755.011-.11-.11a.252.252,0,0,1,0-.41l.106-.106h.74C19.7-324,19.7-324,19.79-323.908Z" transform="translate(-3.025 332.13)"/>
  <path id="Path_2819" data-name="Path 2819" d="M428.825-323.894a.252.252,0,0,1,0,.41l-.11.11-.755-.011c-.744-.011-.755-.011-.824-.1a.324.324,0,0,1,.022-.425c.088-.092.092-.092.825-.092h.74Z" transform="translate(-427.062 332.13)"/>
  <path id="Path_2820" data-name="Path 2820" d="M48.245-229.618c.641.37.751.469.718.638a.322.322,0,0,1-.33.268,7.311,7.311,0,0,1-1.3-.744.28.28,0,0,1,.011-.4C47.5-230.013,47.618-229.98,48.245-229.618Z" transform="translate(-33.184 241.522)"/>
  <path id="Path_2821" data-name="Path 2821" d="M403.682-229.809a.277.277,0,0,1,.007.4,4.888,4.888,0,0,1-.63.41c-.608.352-.755.392-.905.242a.326.326,0,0,1-.015-.407,5.551,5.551,0,0,1,.645-.4C403.418-229.933,403.531-229.963,403.682-229.809Z" transform="translate(-400.989 241.475)"/>
</svg>
