<svg xmlns="http://www.w3.org/2000/svg" width="23.199" height="23.491" viewBox="0 0 23.199 23.491">
  <g id="language-svgrepo-com" transform="translate(-1.5 -1.354)">
    <path id="Path_4560" data-name="Path 4560" d="M2,13.1A11.1,11.1,0,1,0,13.1,2,11.1,11.1,0,0,0,2,13.1Z" fill="none" stroke="#919191" stroke-linecap="round" stroke-linejoin="round" stroke-width="1"/>
    <path id="Path_4561" data-name="Path 4561" d="M13,2.049a19.616,19.616,0,0,1,3.33,11.045A19.617,19.617,0,0,1,13,24.139" transform="translate(1.21 0.005)" fill="none" stroke="#919191" stroke-linecap="round" stroke-linejoin="round" stroke-width="1"/>
    <path id="Path_4562" data-name="Path 4562" d="M11.33,24.139A19.617,19.617,0,0,1,8,13.094,19.616,19.616,0,0,1,11.33,2.049" transform="translate(0.66 0.005)" fill="none" stroke="#919191" stroke-linecap="round" stroke-linejoin="round" stroke-width="1"/>
    <path id="Path_4563" data-name="Path 4563" d="M2.63,15.5h20.8" transform="translate(0.069 1.484)" fill="none" stroke="#919191" stroke-linecap="round" stroke-linejoin="round" stroke-width="1"/>
    <path id="Path_4564" data-name="Path 4564" d="M2.63,8.5h20.8" transform="translate(0.069 0.715)" fill="none" stroke="#919191" stroke-linecap="round" stroke-linejoin="round" stroke-width="1"/>
  </g>
</svg>
