<svg id="egypt" xmlns="http://www.w3.org/2000/svg" width="12.45" height="16.031" viewBox="0 0 12.45 16.031">
  <path id="Path_3185" data-name="Path 3185" d="M256.618,3.465A6.3,6.3,0,0,1,262.206,0V3.173a3.115,3.115,0,0,0-3.15,3.1,3.214,3.214,0,0,0,3.15,3.2v6.559c-2.212-2.305-4.758-4.839-5.872-7.872A5.928,5.928,0,0,1,256.618,3.465Z" transform="translate(-255.98)" fill="#70706f"/>
  <path id="Path_3186" data-name="Path 3186" d="M63.052,8.159c-1.114,3.034-3.66,5.567-5.872,7.872V9.472a3.214,3.214,0,0,0,3.15-3.2,3.115,3.115,0,0,0-3.15-3.1V0a6.3,6.3,0,0,1,5.588,3.465A5.929,5.929,0,0,1,63.052,8.159Z" transform="translate(-50.956)" fill="#6f7070"/>
</svg>
