<svg xmlns="http://www.w3.org/2000/svg" width="14.249" height="22.784" viewBox="0 0 14.249 22.784">
  <g id="location" transform="translate(-95.898 0)">
    <path id="Path_3232" data-name="Path 3232" d="M175.8,84.882a3.734,3.734,0,1,0-3.735-3.734A3.739,3.739,0,0,0,175.8,84.882Zm0-6.134a2.4,2.4,0,1,1-2.4,2.4A2.4,2.4,0,0,1,175.8,78.748Z" transform="translate(-72.78 -73.968)"/>
    <path id="Path_3233" data-name="Path 3233" d="M98.956,13.89c1.012,1.37.605.837,3.519,5a.668.668,0,0,0,1.094,0c2.927-4.18,2.524-3.651,3.52-5a16.983,16.983,0,0,0,2.622-4.43,6.9,6.9,0,0,0-1.006-6.67h0a7.183,7.183,0,0,0-11.365,0,6.9,6.9,0,0,0-1.006,6.67A16.982,16.982,0,0,0,98.956,13.89ZM98.4,3.606a5.848,5.848,0,0,1,9.253,0h0a5.6,5.6,0,0,1,.8,5.418,15.994,15.994,0,0,1-2.434,4.073c-.739,1-.517.694-2.993,4.242-2.473-3.545-2.255-3.243-2.993-4.242A15.994,15.994,0,0,1,97.6,9.024a5.6,5.6,0,0,1,.8-5.418Z"/>
    <path id="Path_3234" data-name="Path 3234" d="M109.738,370.488a.668.668,0,0,0-.921-.208l-1.9,1.2a.668.668,0,0,0,0,1.129l5.981,3.777a.668.668,0,0,0,.713,0l5.981-3.777a.668.668,0,0,0,0-1.129l-1.9-1.2a.667.667,0,1,0-.713,1.129l1,.634-4.731,2.988-4.731-2.988,1-.634A.667.667,0,0,0,109.738,370.488Z" transform="translate(-10.234 -353.704)"/>
  </g>
</svg>
