<svg id="lock" xmlns="http://www.w3.org/2000/svg" width="11.95" height="15.934" viewBox="0 0 11.95 15.934">
  <path id="Path_3227" data-name="Path 3227" d="M10.456,201.958H1.494A1.5,1.5,0,0,1,0,200.465v-6.971A1.5,1.5,0,0,1,1.494,192h8.963a1.5,1.5,0,0,1,1.494,1.494v6.971A1.5,1.5,0,0,1,10.456,201.958ZM1.494,193a.5.5,0,0,0-.5.5v6.971a.5.5,0,0,0,.5.5h8.963a.5.5,0,0,0,.5-.5v-6.971a.5.5,0,0,0-.5-.5Zm0,0" transform="translate(0 -186.025)"/>
  <path id="Path_3228" data-name="Path 3228" d="M71.469,6.971a.5.5,0,0,1-.5-.5V3.983a2.988,2.988,0,0,0-5.975,0v2.49a.5.5,0,0,1-1,0V3.983a3.983,3.983,0,0,1,7.967,0v2.49A.5.5,0,0,1,71.469,6.971Zm0,0" transform="translate(-62.008)"/>
</svg>
