<svg xmlns="http://www.w3.org/2000/svg" xmlns:xlink="http://www.w3.org/1999/xlink" width="20" height="20" viewBox="0 0 20 20">
  <defs>
    <filter id="Union_38" x="2.215" y="2.17" width="15.57" height="15.661" filterUnits="userSpaceOnUse">
      <feOffset input="SourceAlpha"/>
      <feGaussianBlur stdDeviation="0.5" result="blur"/>
      <feFlood/>
      <feComposite operator="in" in2="blur"/>
      <feComposite in="SourceGraphic"/>
    </filter>
  </defs>
  <g id="Group_5312" data-name="Group 5312" transform="translate(-174.19 -46.152)">
    <g id="Group_2387" data-name="Group 2387" transform="translate(174.19 46.152)">
      <rect id="Car_Cleaning_Black_White" width="20" height="20" rx="3" transform="translate(0)" fill="#c00"/>
      <g transform="matrix(1, 0, 0, 1, 0, 0)" filter="url(#Union_38)">
        <path id="Union_38-2" data-name="Union 38" d="M3.024,12.255.415,9.706a1.365,1.365,0,0,1,0-1.961,1.443,1.443,0,0,1,2.007,0l.8.777A1.363,1.363,0,0,1,3.54,7.046a1.442,1.442,0,0,1,2.006,0,1.363,1.363,0,0,1,0,1.96,1.442,1.442,0,0,1-1.511.314l1,.973a1.365,1.365,0,0,1,0,1.961,1.443,1.443,0,0,1-2.007,0Zm4.515,0a1.363,1.363,0,0,1,0-1.96l1-.973a1.444,1.444,0,0,1-1.512-.314,1.365,1.365,0,0,1,0-1.961,1.444,1.444,0,0,1,2.007,0,1.363,1.363,0,0,1,.322,1.477l.8-.777a1.442,1.442,0,0,1,2.007,0,1.365,1.365,0,0,1,0,1.961L9.546,12.255a1.442,1.442,0,0,1-2.007,0Zm-4-6.64a1.363,1.363,0,0,1-.322-1.477l-.8.777a1.443,1.443,0,0,1-2.007,0,1.365,1.365,0,0,1,0-1.961L3.024.406a1.442,1.442,0,0,1,2.007,0,1.364,1.364,0,0,1,0,1.96l-1,.974a1.444,1.444,0,0,1,1.512.314,1.365,1.365,0,0,1,0,1.961,1.443,1.443,0,0,1-2.007,0Zm3.485,0a1.364,1.364,0,0,1,0-1.961A1.443,1.443,0,0,1,8.535,3.34l-1-.973a1.365,1.365,0,0,1,0-1.961,1.444,1.444,0,0,1,2.007,0l2.609,2.549a1.365,1.365,0,0,1,0,1.961,1.443,1.443,0,0,1-2.007,0l-.8-.777a1.364,1.364,0,0,1-.322,1.477,1.443,1.443,0,0,1-2.006,0Z" transform="translate(3.71 3.67)" fill="#fff"/>
      </g>
    </g>
  </g>
</svg>
