<svg id="tower" xmlns="http://www.w3.org/2000/svg" width="72.34" height="72.34" viewBox="0 0 72.34 72.34">
  <g id="Group_3500" data-name="Group 3500" transform="translate(25.266)">
    <path id="Path_2493" data-name="Path 2493" d="M249.56,0a1.059,1.059,0,0,0-1.06,1.06V6.445a1.06,1.06,0,1,0,2.119,0V1.06A1.06,1.06,0,0,0,249.56,0Z" transform="translate(-238.656)" fill="#b5adb6"/>
    <g id="Group_3498" data-name="Group 3498" transform="translate(0 10.205)">
      <path id="Path_2494" data-name="Path 2494" d="M187.044,72.225h-7.157a1.06,1.06,0,1,0,0,2.119h7.157a1.06,1.06,0,1,0,0-2.119Z" transform="translate(-178.827 -72.225)" fill="#b5adb6"/>
      <path id="Path_2495" data-name="Path 2495" d="M275.463,72.225H268.2a1.06,1.06,0,0,0,0,2.119h7.264a1.06,1.06,0,1,0,0-2.119Z" transform="translate(-254.661 -72.225)" fill="#b5adb6"/>
    </g>
    <g id="Group_3499" data-name="Group 3499" transform="translate(2.891 20.43)">
      <path id="Path_2496" data-name="Path 2496" d="M204.272,144.6a1.056,1.056,0,0,0-1.149.962l-3.834,43.479a1.06,1.06,0,0,0,.962,1.149c.032,0,.063,0,.094,0a1.06,1.06,0,0,0,1.054-.967l3.834-43.479A1.06,1.06,0,0,0,204.272,144.6Z" transform="translate(-199.286 -144.598)" fill="#b5adb6"/>
      <path id="Path_2497" data-name="Path 2497" d="M276.529,189.043,272.7,145.565a1.06,1.06,0,0,0-2.111.186l3.834,43.479a1.06,1.06,0,0,0,1.054.967c.031,0,.063,0,.094,0A1.06,1.06,0,0,0,276.529,189.043Z" transform="translate(-260.507 -144.598)" fill="#b5adb6"/>
    </g>
  </g>
  <path id="Path_2498" data-name="Path 2498" d="M205.743,456.054h-19.8v-5a.866.866,0,0,1,.866-.866h18.063a.866.866,0,0,1,.866.866Z" transform="translate(-159.676 -386.582)" fill="#a8d3d8"/>
  <path id="Path_2499" data-name="Path 2499" d="M293.383,450.189h-4.367a.866.866,0,0,1,.866.866v5h4.367v-5A.867.867,0,0,0,293.383,450.189Z" transform="translate(-248.181 -386.582)" fill="#8ebac5"/>
  <g id="Group_3501" data-name="Group 3501" transform="translate(5.053 2.708)">
    <path id="Path_2500" data-name="Path 2500" d="M92.932,49.555a5.349,5.349,0,0,1,1.1-3.258,1.06,1.06,0,0,0-1.689-1.281,7.511,7.511,0,0,0,.009,9.088,1.06,1.06,0,0,0,1.686-1.283A5.35,5.35,0,0,1,92.932,49.555Z" transform="translate(-83.035 -41.005)" fill="#ffd15b"/>
    <path id="Path_2501" data-name="Path 2501" d="M64.98,38.422a8.353,8.353,0,0,1,1.714-5.09,1.06,1.06,0,0,0-1.688-1.281A10.534,10.534,0,0,0,65.015,44.8,1.06,1.06,0,1,0,66.7,43.52,8.351,8.351,0,0,1,64.98,38.422Z" transform="translate(-59.032 -29.871)" fill="#ffd15b"/>
    <path id="Path_2502" data-name="Path 2502" d="M37.88,27.72a11.238,11.238,0,0,1,2.307-6.85A1.06,1.06,0,0,0,38.5,19.588a13.443,13.443,0,0,0,.008,16.275,1.06,1.06,0,1,0,1.686-1.284A11.235,11.235,0,0,1,37.88,27.72Z" transform="translate(-35.761 -19.17)" fill="#ffd15b"/>
    <path id="Path_2503" data-name="Path 2503" d="M398.765,45.019a1.06,1.06,0,0,0-1.689,1.281,5.392,5.392,0,0,1-.007,6.524,1.06,1.06,0,1,0,1.686,1.283,7.511,7.511,0,0,0,.009-9.089Z" transform="translate(-345.835 -41.006)" fill="#ffd15b"/>
    <path id="Path_2504" data-name="Path 2504" d="M422.34,32.051a1.06,1.06,0,0,0-1.688,1.281,8.414,8.414,0,0,1-.007,10.188,1.06,1.06,0,0,0,1.686,1.284,10.534,10.534,0,0,0,.009-12.753Z" transform="translate(-366.079 -29.872)" fill="#ffd15b"/>
    <path id="Path_2505" data-name="Path 2505" d="M445.24,19.589a1.06,1.06,0,0,0-1.688,1.282,11.323,11.323,0,0,1-.007,13.709,1.06,1.06,0,0,0,1.686,1.284,13.443,13.443,0,0,0,.008-16.275Z" transform="translate(-385.743 -19.17)" fill="#ffd15b"/>
  </g>
  <path id="Path_2506" data-name="Path 2506" d="M68.847,485.462H3.493A3.493,3.493,0,0,1,0,481.968a.873.873,0,0,1,.873-.873H71.467a.873.873,0,0,1,.873.873A3.493,3.493,0,0,1,68.847,485.462Z" transform="translate(0 -413.121)" fill="#cbc4cc"/>
  <path id="Path_2507" data-name="Path 2507" d="M463.357,481.095h-4.367a.873.873,0,0,1,.873.873,3.493,3.493,0,0,1-3.493,3.493h4.367a3.493,3.493,0,0,0,3.493-3.493A.873.873,0,0,0,463.357,481.095Z" transform="translate(-391.891 -413.121)" fill="#b5adb6"/>
  <path id="Path_2508" data-name="Path 2508" d="M158.816,36.472V20.4a.4.4,0,0,1,.4-.4,5.163,5.163,0,0,1,5.163,5.163v6.552a5.163,5.163,0,0,1-5.163,5.163A.4.4,0,0,1,158.816,36.472Z" transform="translate(-136.377 -17.173)" fill="#cbc4cc"/>
  <path id="Path_2509" data-name="Path 2509" d="M134.046,64.271v4.367h-1.892a2.183,2.183,0,1,1,0-4.367h1.892Z" transform="translate(-111.607 -55.19)" fill="#e94444"/>
  <path id="Path_2510" data-name="Path 2510" d="M319.352,36.472V20.4a.4.4,0,0,0-.4-.4,5.163,5.163,0,0,0-5.163,5.163v6.552a5.163,5.163,0,0,0,5.163,5.163A.4.4,0,0,0,319.352,36.472Z" transform="translate(-269.451 -17.173)" fill="#cbc4cc"/>
  <path id="Path_2511" data-name="Path 2511" d="M353.184,64.271v4.367h1.892a2.183,2.183,0,1,0,0-4.367h-1.892Z" transform="translate(-303.283 -55.19)" fill="#e94444"/>
  <path id="Path_2512" data-name="Path 2512" d="M233.827,55.583h-8.733v-13.1a4.367,4.367,0,0,1,8.733,0v13.1Z" transform="translate(-193.291 -32.731)" fill="#a8d3d8"/>
  <path id="Path_2513" data-name="Path 2513" d="M242.73,38.117a4.346,4.346,0,0,0-2.183.586,4.364,4.364,0,0,1,2.183,3.781v13.1H247.1v-13.1A4.366,4.366,0,0,0,242.73,38.117Z" transform="translate(-206.56 -32.731)" fill="#8ebac5"/>
  <path id="Path_2514" data-name="Path 2514" d="M215.956,278.911H202.274a.873.873,0,0,1-.873-.873v-2.62a.873.873,0,0,1,.873-.873h13.682a.873.873,0,0,1,.873.873v2.62A.873.873,0,0,1,215.956,278.911Z" transform="translate(-172.945 -235.754)" fill="#a8d3d8"/>
  <path id="Path_2515" data-name="Path 2515" d="M277.881,274.543h-4.367a.873.873,0,0,1,.873.873v2.62a.873.873,0,0,1-.873.873h4.367a.873.873,0,0,0,.873-.873v-2.62A.873.873,0,0,0,277.881,274.543Z" transform="translate(-234.869 -235.753)" fill="#8ebac5"/>
</svg>
