<svg xmlns="http://www.w3.org/2000/svg" width="138.559" height="133.568" viewBox="0 0 138.559 133.568">
  <g id="Oil_lamp-pana" data-name="Oil lamp-pana" transform="translate(-21.41 -36.66)">
    <g id="freepik--background-complete--inject-6" transform="translate(24.165 36.66)">
      <path id="Path_5673" data-name="Path 5673" d="M368.016,377.615a10.419,10.419,0,0,0-6.513-.276,5.365,5.365,0,0,0-3.073,1.673,2.3,2.3,0,0,0,.218,3.182,3.063,3.063,0,0,0,2.049.352c1.7-.155,3.57-.606,5.013.3.824.524,1.418,1.458,2.37,1.673a2.183,2.183,0,0,0,2.331-1.267,3.749,3.749,0,0,0,.055-2.791A4.243,4.243,0,0,0,368.016,377.615Z" transform="translate(-258.673 -273.818)" fill="#ebebeb"/>
      <path id="Path_5674" data-name="Path 5674" d="M400.5,320.768c-1.379,1.579-3.637.764-4.61-.394a8.64,8.64,0,0,1-1.515-4.2c-.606-3.4-1.179-6.956-.112-10.232a5.644,5.644,0,0,1,1.585-2.609,2.946,2.946,0,0,1,2.876-.624,4.306,4.306,0,0,1,2.155,2.809,24.247,24.247,0,0,1,1.27,10.589,8.408,8.408,0,0,1-1.643,4.664" transform="translate(-283.598 -221.966)" fill="#ebebeb"/>
      <path id="Path_5675" data-name="Path 5675" d="M423.048,351.336a5.869,5.869,0,0,1-.333-5.47,10.367,10.367,0,0,1,3.676-4.273,17.237,17.237,0,0,1,6.061-2.749,6.092,6.092,0,0,1,2.609-.161,2.728,2.728,0,0,1,2.012,1.515c.476,1.212-.249,2.534-.991,3.6a43.191,43.191,0,0,1-4.355,5.3,10.156,10.156,0,0,1-4.495,3.085c-1.782.47-3.546.2-4.325-1.082" transform="translate(-303.485 -247.097)" fill="#ebebeb"/>
      <path id="Path_5676" data-name="Path 5676" d="M387.42,399.864a3.525,3.525,0,0,1-.17-.77q-.15-.846-.376-2.122a30.153,30.153,0,0,0-.721-3.079,24.237,24.237,0,0,0-1.409-3.576,13.587,13.587,0,0,0-2.14-3.179,7.016,7.016,0,0,0-2.531-1.788,6.7,6.7,0,0,0-2.049-.467,3.756,3.756,0,0,1-.785-.048,3.53,3.53,0,0,1,.788-.076,6.062,6.062,0,0,1,2.122.379,7.013,7.013,0,0,1,2.664,1.794,13.274,13.274,0,0,1,2.212,3.243,22.423,22.423,0,0,1,1.418,3.637,26.965,26.965,0,0,1,.664,3.122c.136.909.221,1.624.273,2.121A3.667,3.667,0,0,1,387.42,399.864Z" transform="translate(-272.152 -279.259)" fill="#e0e0e0"/>
      <path id="Path_5677" data-name="Path 5677" d="M406.962,360.781a1.815,1.815,0,0,1,.018-.364c.03-.27.067-.606.115-1.027.1-.894.236-2.188.358-3.791.267-3.2.361-6.668.349-11.577,0-4.613-.118-10-.461-13.517-.07-.8-.149-1.515-.227-2.158s-.13-1.182-.2-1.624-.1-.758-.133-1.027a1.639,1.639,0,0,1-.024-.364,1.44,1.44,0,0,1,.088.352c.052.267.115.606.194,1.018s.167.988.255,1.621.191,1.358.273,2.158a117.591,117.591,0,0,1,.664,12.568c0,4.916-.224,9.365-.549,12.572-.152,1.6-.324,2.894-.461,3.785-.073.415-.13.755-.176,1.024a1.373,1.373,0,0,1-.082.352Z" transform="translate(-292.721 -237.842)" fill="#e0e0e0"/>
      <path id="Path_5678" data-name="Path 5678" d="M410.17,371.319a6.416,6.416,0,0,1,.115-1.009c.109-.646.3-1.576.606-2.7a36.389,36.389,0,0,1,1.321-3.895,32.52,32.52,0,0,1,2.173-4.546,25.293,25.293,0,0,1,5.716-7.1,12.84,12.84,0,0,1,1.27-.949c.191-.13.364-.264.536-.364l.479-.261a6.2,6.2,0,0,1,.909-.452,30.064,30.064,0,0,0-3.055,2.188,26.6,26.6,0,0,0-5.592,7.086,41.95,41.95,0,0,0-3.552,8.344c-.342,1.118-.552,2.031-.691,2.667A6.358,6.358,0,0,1,410.17,371.319Z" transform="translate(-295.102 -255.063)" fill="#e0e0e0"/>
      <path id="Path_5679" data-name="Path 5679" d="M382.5,427.67l.861,11.78h15.133l.861-11.78Z" transform="translate(-275.818 -309.165)" fill="#e0e0e0"/>
      <rect id="Rectangle_3449" data-name="Rectangle 3449" width="20.121" height="4.643" transform="translate(105.221 113.862)" fill="#e0e0e0"/>
      <path id="Path_5680" data-name="Path 5680" d="M377.68,465.05v1.288h19.788V465.05Z" transform="translate(-272.459 -335.216)" fill="#ebebeb"/>
      <path id="Path_5681" data-name="Path 5681" d="M381.724,471.564,380.8,469.3h18.121l-1.082,2.264Z" transform="translate(-274.633 -338.178)" fill="#e0e0e0"/>
      <path id="Path_5682" data-name="Path 5682" d="M399.671,436.558a.568.568,0,0,1-.07.109l-.227.3-.882,1.127-.039.052-.036-.055L396.25,435.1h.124l-2.122,3.031-.067.1-.076-.091c-.788-.937-1.643-1.952-2.528-3.01h.145l-.139.173-2.276,2.822-.076.094-.07-.1-2.121-3.031h.124l-2.628,2.994-.048.055-.033-.061-.824-1.382-.209-.367a.6.6,0,0,1-.067-.133.99.99,0,0,1,.088.118c.052.079.139.209.233.355.212.327.5.785.864,1.355h-.082c.676-.788,1.552-1.818,2.585-3.031l.067-.076.058.082L389.327,438h-.145l2.255-2.837.139-.176.073-.091.073.088L394.243,438H394.1c.776-1.085,1.5-2.1,2.152-3l.064-.088.061.088,2.122,3.031h-.1l.909-1.1.246-.282A.608.608,0,0,1,399.671,436.558Z" transform="translate(-276.417 -314.204)" fill="#f5f5f5"/>
      <path id="Path_5683" data-name="Path 5683" d="M399.856,427.194c0,.052-3.791.094-8.468.094s-8.468-.042-8.468-.094,3.788-.094,8.468-.094S399.856,427.142,399.856,427.194Z" transform="translate(-276.111 -308.768)" fill="#f5f5f5"/>
      <path id="Path_5684" data-name="Path 5684" d="M399,469.5c0,.052-4.122.094-9.2.094s-9.2-.042-9.2-.094,4.119-.094,9.2-.094S399,469.449,399,469.5Z" transform="translate(-274.487 -338.255)" fill="#f5f5f5"/>
      <rect id="Rectangle_3450" data-name="Rectangle 3450" width="46.443" height="76.875" transform="translate(1.543 0.63)" fill="#e0e0e0"/>
      <rect id="Rectangle_3451" data-name="Rectangle 3451" width="46.443" height="76.875" transform="translate(0 0.63)" fill="#ebebeb"/>
      <rect id="Rectangle_3452" data-name="Rectangle 3452" width="42.488" height="73.756" transform="translate(1.976 2.191)" fill="#fff"/>
      <rect id="Rectangle_3453" data-name="Rectangle 3453" width="26.125" height="54.59" transform="translate(10.065 11.774)" fill="#ebebeb"/>
      <path id="Path_5685" data-name="Path 5685" d="M63.709,145.579c-.061-5.1,4.525-10.077,9.574-10.789,2.406-.339,4.967.139,7.216-.785,4.016-1.646,5.295-6.971,9.335-8.565l.185,39.457H63.709Z" transform="translate(-53.644 -98.533)" fill="#e0e0e0"/>
      <rect id="Rectangle_3454" data-name="Rectangle 3454" width="39.388" height="41.06" transform="translate(87.458 0.012)" fill="#e0e0e0"/>
      <rect id="Rectangle_3455" data-name="Rectangle 3455" width="39.388" height="41.06" transform="translate(84.791 0.012)" fill="#fafafa"/>
      <path id="Path_5686" data-name="Path 5686" d="M349.68,77.742h-39.4V36.66h39.4Zm-39.4-.024h39.375V36.684H310.289Z" transform="translate(-225.486 -36.66)" fill="#e0e0e0"/>
      <rect id="Rectangle_3456" data-name="Rectangle 3456" width="28.798" height="30.02" transform="translate(90.086 5.531)" fill="#fff"/>
      <path id="Path_5687" data-name="Path 5687" d="M315.683,154.62a4.6,4.6,0,0,1-.709.827c-.461.485-1.106,1.14-1.818,1.855s-1.391,1.349-1.882,1.8a4.523,4.523,0,0,1-.833.694,4.654,4.654,0,0,1,.709-.824c.458-.485,1.106-1.143,1.834-1.858s1.394-1.355,1.885-1.818a4.642,4.642,0,0,1,.815-.676Z" transform="translate(-225.597 -118.869)" fill="#e0e0e0"/>
      <path id="Path_5688" data-name="Path 5688" d="M422.77,154.38a4.652,4.652,0,0,1,.824.709c.485.461,1.143,1.106,1.858,1.818s1.349,1.391,1.8,1.882a4.7,4.7,0,0,1,.694.83,4.274,4.274,0,0,1-.824-.706c-.485-.458-1.143-1.106-1.861-1.818s-1.352-1.394-1.8-1.885a4.476,4.476,0,0,1-.688-.83Z" transform="translate(-303.883 -118.702)" fill="#e0e0e0"/>
      <path id="Path_5689" data-name="Path 5689" d="M422.51,43.267a4.528,4.528,0,0,1,.709-.824c.461-.488,1.106-1.143,1.818-1.858s1.391-1.349,1.882-1.8a4.524,4.524,0,0,1,.833-.694,4.527,4.527,0,0,1-.709.824c-.461.485-1.106,1.143-1.834,1.858s-1.394,1.355-1.885,1.818A4.644,4.644,0,0,1,422.51,43.267Z" transform="translate(-303.702 -37.657)" fill="#e0e0e0"/>
      <path id="Path_5690" data-name="Path 5690" d="M315.577,43.36a4.528,4.528,0,0,1-.824-.709c-.485-.461-1.143-1.106-1.858-1.818s-1.349-1.391-1.8-1.882a4.7,4.7,0,0,1-.694-.83,4.274,4.274,0,0,1,.824.706c.485.461,1.143,1.106,1.858,1.834s1.355,1.394,1.818,1.885A4.476,4.476,0,0,1,315.577,43.36Z" transform="translate(-225.57 -37.678)" fill="#e0e0e0"/>
      <path id="Path_5691" data-name="Path 5691" d="M356.26,84.677a.981.981,0,0,1,0-.145v-2.04c0-1.421-.015-3.491-.027-6.119-.015-5.258-.033-12.747-.058-21.715l.112.109-28.719.018h0l.127-.127c0,11.017,0,21.327-.018,30.02l-.109-.109,20.8.055,5.84.03h.055l-5.816.03-20.867.055h-.109v-.061c0-8.692,0-19-.018-30.02V54.53h28.959v.112c-.021,9-.042,16.511-.055,21.788-.015,2.616-.024,4.676-.03,6.092v2.006A.184.184,0,0,1,356.26,84.677Z" transform="translate(-237.452 -49.114)" fill="#e0e0e0"/>
      <rect id="Rectangle_3457" data-name="Rectangle 3457" width="9.61" height="9.61" transform="translate(99.681 15.736)" fill="#ebebeb"/>
    </g>
    <g id="freepik--Table--inject-6" transform="translate(21.41 170.07)">
      <path id="Path_5692" data-name="Path 5692" d="M159.969,476.929c0,.042-31.02.079-69.277.079s-69.283-.036-69.283-.079,31.014-.079,69.283-.079S159.969,476.9,159.969,476.929Z" transform="translate(-21.41 -476.85)" fill="#263238"/>
    </g>
    <g id="freepik--oil-lamp--inject-6" transform="translate(29.341 99.19)">
      <rect id="Rectangle_3458" data-name="Rectangle 3458" width="5.392" height="0.415" transform="translate(13.423 41.161)" fill="#263238"/>
      <rect id="Rectangle_3459" data-name="Rectangle 3459" width="0.491" height="2.503" transform="translate(18.445 40.124)" fill="#263238"/>
      <path id="Path_5693" data-name="Path 5693" d="M73.868,278.669c0-3.813.118-8.459.118-8.459H68.2s.118,4.646.118,8.459-3.694,11.256-3.637,16.021a8.794,8.794,0,0,0,3.94,7.089l2.315.264v.039l.164-.018.164.018v-.039l2.319-.264A8.8,8.8,0,0,0,77.5,294.7C77.565,289.937,73.868,282.481,73.868,278.669Z" transform="translate(-59.496 -261.957)" fill="#fff"/>
      <path id="Path_5694" data-name="Path 5694" d="M73.709,278.522v.118a2.107,2.107,0,0,0,.024.352,4.849,4.849,0,0,0,.064.57c.036.224.061.485.127.776a47.537,47.537,0,0,0,1.379,4.94c.33,1.049.7,2.206,1.061,3.473a28.5,28.5,0,0,1,.909,4.152,10.3,10.3,0,0,1,.094,1.152,4.806,4.806,0,0,1,0,.591l-.036.606a8.577,8.577,0,0,1-.585,2.4,9.123,9.123,0,0,1-3.334,4.046h-.018l-2.315.267.067-.076v.124H71.06L70.9,302h.018l-.164.018h-.085v-.124l.07.076-2.319-.264H68.4a8.725,8.725,0,0,1-1.618-1.394,8.813,8.813,0,0,1-1.288-1.785,8.359,8.359,0,0,1-1.037-4.361,17.5,17.5,0,0,1,.5-3.44c.264-1.112.567-2.2.891-3.264.639-2.122,1.346-4.17,1.818-6.177a12.456,12.456,0,0,0,.406-2.988q-.018-1.482-.036-2.9c-.024-1.882-.049-3.661-.07-5.319V270H73.87v.052c-.045,2.667-.085,4.779-.109,6.231,0,.718-.027,1.273-.036,1.655v-1.655c0-1.452.039-3.564.067-6.234l.048.052H68.047l.061-.064c.024,1.658.052,3.44.082,5.322,0,.94.027,1.909.042,2.9a12.508,12.508,0,0,1-.4,3.031c-.488,2.022-1.188,4.061-1.818,6.189-.321,1.061-.624,2.146-.885,3.255a17.275,17.275,0,0,0-.509,3.428,8.214,8.214,0,0,0,1.018,4.279,9.041,9.041,0,0,0,2.861,3.128h-.03l2.315.27h.067v.106l-.082-.076.161-.018h.018l.164.018-.085.076v-.118h.067l2.319-.267h-.03a9.041,9.041,0,0,0,3.282-3.973,8.513,8.513,0,0,0,.579-2.361q.018-.3.036-.591v-.585a10.136,10.136,0,0,0-.091-1.14,28.708,28.708,0,0,0-.909-4.137c-.358-1.267-.721-2.425-1.046-3.476a45.4,45.4,0,0,1-1.337-4.958c-.067-.3-.085-.555-.118-.782a4.059,4.059,0,0,1-.052-.573v-.352Q73.714,278.576,73.709,278.522Z" transform="translate(-59.337 -261.811)" fill="#263238"/>
      <rect id="Rectangle_3460" data-name="Rectangle 3460" width="20.515" height="1.431" rx="0.715" transform="translate(1.518 69.529)" fill="#455a64"/>
      <path id="Path_5695" data-name="Path 5695" d="M58,418.449a7.751,7.751,0,0,0,4.773,6.295,4.692,4.692,0,0,1,1.155.7,3.255,3.255,0,0,1,1.043,1.455H66.7V418.24Z" transform="translate(-54.842 -365.123)" fill="#455a64"/>
      <path id="Path_5696" data-name="Path 5696" d="M66.651,396.65s-8.9.667-8.662,6.919h8.7Z" transform="translate(-54.831 -350.076)" fill="#455a64"/>
      <path id="Path_5697" data-name="Path 5697" d="M94.179,418.449a7.763,7.763,0,0,1-4.849,6.334,2.673,2.673,0,0,0-1.021.73,2.122,2.122,0,0,0-.515,1.376h-2.3v-8.65Z" transform="translate(-74 -365.123)" fill="#455a64"/>
      <path id="Path_5698" data-name="Path 5698" d="M85.526,396.65s8.9.667,8.653,6.919H85.49Z" transform="translate(-74 -350.076)" fill="#455a64"/>
      <rect id="Rectangle_3461" data-name="Rectangle 3461" width="19.088" height="1.167" rx="0.583" transform="translate(2.276 52.908)" fill="#455a64"/>
      <path id="Path_5699" data-name="Path 5699" d="M73.538,418.348a.5.5,0,0,0,.342-.176.473.473,0,0,0,.091-.188,1.482,1.482,0,0,0,0-.264.458.458,0,0,0-.3-.491,1.779,1.779,0,0,0-.388,0H69.422l-14.038.021a.391.391,0,0,0-.346.212.4.4,0,0,0-.039.212v.245a.391.391,0,0,0,.245.3.506.506,0,0,0,.221.024h5.943l6.313.018,4.243.024,1.158.015h.406a.467.467,0,0,1-.1,0H71.965l-4.243.027-6.313.015H55.46a.643.643,0,0,1-.276-.036.543.543,0,0,1-.346-.442V417.6a.558.558,0,0,1,.061-.282.542.542,0,0,1,.485-.3l14.038.024H73.28a1.647,1.647,0,0,1,.406.024.512.512,0,0,1,.346.549,1.515,1.515,0,0,1-.018.27.446.446,0,0,1-.1.2.464.464,0,0,1-.264.152.263.263,0,0,1-.109.106Z" transform="translate(-52.638 -364.273)" fill="#263238"/>
      <rect id="Rectangle_3462" data-name="Rectangle 3462" width="15.545" height="0.791" rx="0.396" transform="translate(4.128 49.241)" fill="#455a64"/>
      <path id="Path_5700" data-name="Path 5700" d="M76.234,405.934a.275.275,0,0,0,.082-.018.3.3,0,0,0,.176-.142.676.676,0,0,0,.027-.376.282.282,0,0,0-.133-.182.427.427,0,0,0-.264-.042l-3.443.027-11.359.021a.239.239,0,0,0-.23.176.909.909,0,0,0,0,.188.245.245,0,0,0,.033.155.233.233,0,0,0,.115.1.408.408,0,0,0,.17.015H66.42l5.11.018,3.443.024.937.015h0l-.937.015-3.443.024-5.11.015H61.4a.537.537,0,0,1-.23-.027.373.373,0,0,1-.191-.164.406.406,0,0,1-.055-.236,1.012,1.012,0,0,1,0-.227.394.394,0,0,1,.382-.3l11.359.024,3.443.024a.512.512,0,0,1,.3.055.348.348,0,0,1,.149.221,1.368,1.368,0,0,1,0,.221.32.32,0,0,1-.249.321.184.184,0,0,1-.079.058Z" transform="translate(-56.876 -355.902)" fill="#263238"/>
      <path id="Path_5701" data-name="Path 5701" d="M75.11,383.14a3.177,3.177,0,0,1,.036.543,4.243,4.243,0,0,0,.994,2.488,1.324,1.324,0,0,1,.3.743h2.021V383.14Z" transform="translate(-66.766 -340.661)" fill="#455a64"/>
      <path id="Path_5702" data-name="Path 5702" d="M89.065,383.14a2.857,2.857,0,0,0-.036.542,4.243,4.243,0,0,1-.994,2.488,1.327,1.327,0,0,0-.3.743H85.71V383.14Z" transform="translate(-74.154 -340.661)" fill="#455a64"/>
      <rect id="Rectangle_3463" data-name="Rectangle 3463" width="6.568" height="3.434" transform="translate(8.344 39.449)" fill="#455a64"/>
      <rect id="Rectangle_3464" data-name="Rectangle 3464" width="3.404" height="2.531" transform="translate(9.986 37.085)" fill="#455a64"/>
      <rect id="Rectangle_3465" data-name="Rectangle 3465" width="8.347" height="0.503" rx="0.252" transform="translate(7.516 42.379)" fill="#455a64"/>
      <path id="Path_5703" data-name="Path 5703" d="M80.347,383.058a.264.264,0,0,0,.142-.085.258.258,0,0,0,.033-.191.182.182,0,0,0-.133-.194l-1.852.021-6.149.021a.124.124,0,0,0-.109.07.167.167,0,0,0,0,.073v.1a.127.127,0,0,0,.082.1,1.218,1.218,0,0,0,.194,0h2.491l2.758.015,1.861.027.506.015a.608.608,0,0,1,.176.015.8.8,0,0,1-.176,0l-.506.015-1.861.024-2.758.018H72.555a1.022,1.022,0,0,1-.242-.015.276.276,0,0,1-.188-.227.856.856,0,0,1,0-.121.282.282,0,0,1,.027-.142.3.3,0,0,1,.252-.158l6.137.024c.788,0,1.412,0,1.867.033a.236.236,0,0,1,.167.252.3.3,0,0,1-.058.212C80.42,383.086,80.341,383.058,80.347,383.058Z" transform="translate(-64.685 -340.173)" fill="#263238"/>
      <rect id="Rectangle_3466" data-name="Rectangle 3466" width="6.71" height="1.585" transform="translate(8.338 45.783)" fill="#455a64"/>
      <path id="Path_5704" data-name="Path 5704" d="M60.957,459s-.321-.909,1.685-1.84c0,0,4.176-2.091,4.367-3.9l2.009-.079v6.537Z" transform="translate(-56.889 -389.473)" fill="#455a64"/>
      <path id="Path_5705" data-name="Path 5705" d="M94.077,459s.3-.909-1.688-1.84c0,0-4.173-2.091-4.364-3.9L86,453.18v6.537Z" transform="translate(-74.356 -389.473)" fill="#455a64"/>
      <rect id="Rectangle_3467" data-name="Rectangle 3467" width="3.846" height="2.91" transform="translate(9.932 60.315)" fill="#455a64"/>
      <rect id="Rectangle_3468" data-name="Rectangle 3468" width="5.534" height="1.537" rx="0.768" transform="translate(9.162 62.937)" fill="#455a64"/>
      <path id="Path_5706" data-name="Path 5706" d="M82.55,451.935a.411.411,0,0,0,.127-.03.607.607,0,0,0,.421-.424,1.3,1.3,0,0,0,0-.3.991.991,0,0,0-.042-.355.555.555,0,0,0-.249-.285.733.733,0,0,0-.424-.07H78.219a.533.533,0,0,0-.53.57c0,.106,0,.221,0,.318a.527.527,0,0,0,.3.436.515.515,0,0,0,.261.061h2.382l1.4.027a3.06,3.06,0,0,1,.515.03,3.534,3.534,0,0,1-.515.03l-1.4.024-2.079.018h-.3a.709.709,0,0,1-.33-.073.688.688,0,0,1-.373-.564v-.327a.73.73,0,0,1,.076-.352.7.7,0,0,1,.606-.376H82.4a.873.873,0,0,1,.479.094.664.664,0,0,1,.3.346,1,1,0,0,1,.036.391,1.233,1.233,0,0,1-.03.336.642.642,0,0,1-.145.249.606.606,0,0,1-.342.185A.3.3,0,0,1,82.55,451.935Z" transform="translate(-68.466 -387.458)" fill="#263238"/>
      <path id="Path_5707" data-name="Path 5707" d="M81.9,398.959c0,.045-1.515.079-3.334.079s-3.334-.033-3.334-.079,1.5-.079,3.334-.079S81.9,398.916,81.9,398.959Z" transform="translate(-66.85 -351.63)" fill="#263238"/>
      <path id="Path_5708" data-name="Path 5708" d="M81.422,393.759a32.022,32.022,0,0,1-3.21.079A32.055,32.055,0,0,1,75,393.759c0-.042,1.437-.079,3.213-.079S81.422,393.716,81.422,393.759Z" transform="translate(-66.69 -348.006)" fill="#263238"/>
      <path id="Path_5709" data-name="Path 5709" d="M81.366,373.115a30.785,30.785,0,0,1-3.091.079,30.827,30.827,0,0,1-3.094-.079,29.776,29.776,0,0,1,3.094-.079A29.751,29.751,0,0,1,81.366,373.115Z" transform="translate(-66.815 -333.612)" fill="#263238"/>
      <path id="Path_5710" data-name="Path 5710" d="M79.866,334.6a6.774,6.774,0,0,0-.273-7.859,3.3,3.3,0,0,0-2.288-1.391,3.445,3.445,0,0,0-2.9,1.979,6.937,6.937,0,0,0,.606,8.047,1.99,1.99,0,0,1,2-1.921A3.852,3.852,0,0,1,79.866,334.6Z" transform="translate(-65.573 -300.386)" fill="#ff725e"/>
      <g id="Group_6906" data-name="Group 6906" transform="translate(7.825 24.965)" opacity="0.8">
        <path id="Path_5711" data-name="Path 5711" d="M79.866,334.6a6.774,6.774,0,0,0-.273-7.859,3.3,3.3,0,0,0-2.288-1.391,3.445,3.445,0,0,0-2.9,1.979,6.937,6.937,0,0,0,.606,8.047,1.99,1.99,0,0,1,2-1.921A3.852,3.852,0,0,1,79.866,334.6Z" transform="translate(-73.398 -325.35)" fill="#fff"/>
      </g>
      <path id="Path_5712" data-name="Path 5712" d="M80.883,343.815a3.332,3.332,0,0,0,1.285-2.525,8.656,8.656,0,0,0-.909-2.582c-.112-.239-.261-.506-.521-.549s-.524.2-.706.427c-.3-.652-.624-1.291-.979-1.912-.124-.224-.324-.476-.573-.415a.564.564,0,0,0-.3.227,7.365,7.365,0,0,0-1.715,3.552,4.193,4.193,0,0,0,1.161,3.661s.109-1.9,1.718-1.9S80.883,343.815,80.883,343.815Z" transform="translate(-67.675 -307.982)" fill="#ff725e"/>
      <path id="Path_5713" data-name="Path 5713" d="M82.479,375.445a14.07,14.07,0,0,1-2.088.079,14.128,14.128,0,0,1-2.091-.079,13.631,13.631,0,0,1,2.091-.079A13.583,13.583,0,0,1,82.479,375.445Z" transform="translate(-68.99 -335.235)" fill="#fff"/>
      <path id="Path_5714" data-name="Path 5714" d="M80.763,385.763a2.6,2.6,0,0,1-.973.094,2.485,2.485,0,0,1-.97-.118,3.941,3.941,0,0,1,.97-.039,3.751,3.751,0,0,1,.973.064Z" transform="translate(-69.352 -342.435)" fill="#fff"/>
      <path id="Path_5715" data-name="Path 5715" d="M84.419,394.967a7.783,7.783,0,0,1-2.209,0,7.782,7.782,0,0,1,2.209,0Z" transform="translate(-71.715 -348.842)" fill="#fff"/>
      <path id="Path_5716" data-name="Path 5716" d="M84.017,401.249a2.709,2.709,0,0,1-1.3,0,2.709,2.709,0,0,1,1.3,0Z" transform="translate(-72.07 -353.22)" fill="#fff"/>
      <path id="Path_5717" data-name="Path 5717" d="M73.675,472.2c0,.042-4.258.079-9.507.079s-9.507-.036-9.507-.079,4.243-.082,9.507-.082S73.675,472.156,73.675,472.2Z" transform="translate(-52.514 -402.673)" fill="#263238"/>
      <path id="Path_5718" data-name="Path 5718" d="M52.556,268.631a20.362,20.362,0,0,1-2.5-.382,20.315,20.315,0,0,1-2.473-.539,20.768,20.768,0,0,1,2.5.391A20.68,20.68,0,0,1,52.556,268.631Z" transform="translate(-47.58 -260.215)" fill="#263238"/>
      <path id="Path_5719" data-name="Path 5719" d="M59.361,248.828c-.036.027-1.064-1.261-2.3-2.876s-2.209-2.946-2.173-2.973,1.064,1.261,2.3,2.876S59.394,248.8,59.361,248.828Z" transform="translate(-52.672 -242.979)" fill="#263238"/>
      <path id="Path_5720" data-name="Path 5720" d="M79.849,243.19a16.366,16.366,0,0,1-.355,2.24A15.412,15.412,0,0,1,79,247.639a16.935,16.935,0,0,1,.355-2.24,16.6,16.6,0,0,1,.494-2.209Z" transform="translate(-69.477 -243.126)" fill="#263238"/>
    </g>
    <g id="freepik--Character--inject-6" transform="translate(52.06 37.544)">
      <path id="Path_5721" data-name="Path 5721" d="M216.2,121.12l.418-34.508c.385-8.58-4.288-15.954-12.875-16.1l-.8.033a15.357,15.357,0,0,0-14.711,14.735c-.3,7.44-.518,15.663-.3,19.639.439,8.231,8.729,9.171,8.729,9.171s.052,5.01.048,7.428l3.87,6.365,9.462,3.158Z" transform="translate(-168.051 -61.135)" fill="#ffbf9d"/>
      <path id="Path_5722" data-name="Path 5722" d="M216.93,205.993a19.906,19.906,0,0,0,10.592-3.613s-2.325,6.3-10.571,5.895Z" transform="translate(-188.323 -153.039)" fill="#ff9a6c"/>
      <path id="Path_5723" data-name="Path 5723" d="M201.66,139.377a1.176,1.176,0,0,0,1.185,1.14,1.124,1.124,0,0,0,1.167-1.109,1.176,1.176,0,0,0-1.182-1.14,1.127,1.127,0,0,0-1.17,1.109Z" transform="translate(-177.681 -108.357)" fill="#263238"/>
      <path id="Path_5724" data-name="Path 5724" d="M195.36,127.945c.152.145,1.015-.552,2.279-.606s2.219.546,2.352.385c.064-.07-.1-.342-.512-.606a3.237,3.237,0,0,0-1.891-.5,3.079,3.079,0,0,0-1.818.667C195.406,127.6,195.285,127.882,195.36,127.945Z" transform="translate(-173.275 -100.237)" fill="#263238"/>
      <path id="Path_5725" data-name="Path 5725" d="M239.14,139.356a1.176,1.176,0,0,0,1.185,1.14,1.124,1.124,0,0,0,1.167-1.118,1.176,1.176,0,0,0-1.182-1.14,1.127,1.127,0,0,0-1.17,1.118Z" transform="translate(-203.802 -108.336)" fill="#263238"/>
      <path id="Path_5726" data-name="Path 5726" d="M236.324,127.218c.155.149,1.018-.549,2.282-.606s2.219.546,2.352.385c.064-.073-.094-.342-.512-.606a3.222,3.222,0,0,0-1.891-.5,3.1,3.1,0,0,0-1.818.667C236.372,126.87,236.251,127.155,236.324,127.218Z" transform="translate(-201.825 -99.729)" fill="#263238"/>
      <path id="Path_5727" data-name="Path 5727" d="M215.216,138.676a8.513,8.513,0,0,0-2.07-.285c-.324-.021-.633-.073-.7-.3a1.865,1.865,0,0,1,.176-.967l.855-2.5a42.053,42.053,0,0,0,1.879-6.525,42.976,42.976,0,0,0-2.4,6.365c-.282.876-.555,1.712-.812,2.512a1.856,1.856,0,0,0-.115,1.273.806.806,0,0,0,.552.452,2.2,2.2,0,0,0,.552.055A8.8,8.8,0,0,0,215.216,138.676Z" transform="translate(-184.854 -101.27)" fill="#263238"/>
      <path id="Path_5728" data-name="Path 5728" d="M234.442,113.911c.185.3,1.4-.076,2.894-.17s2.749.088,2.885-.252c.061-.164-.2-.442-.74-.682a5.028,5.028,0,0,0-4.4.321C234.581,113.444,234.36,113.759,234.442,113.911Z" transform="translate(-200.516 -90.361)" fill="#263238"/>
      <path id="Path_5729" data-name="Path 5729" d="M194.613,115.553c.27.279,1.294-.045,2.531-.094s2.294.133,2.531-.173c.1-.149-.073-.433-.539-.694a3.985,3.985,0,0,0-2.07-.415,3.94,3.94,0,0,0-2.006.63C194.628,115.114,194.491,115.414,194.613,115.553Z" transform="translate(-172.74 -91.561)" fill="#263238"/>
      <path id="Path_5730" data-name="Path 5730" d="M281.4,143.07c.136-.067,5.589-1.906,5.64,3.731s-5.616,4.528-5.628,4.364S281.4,143.07,281.4,143.07Z" transform="translate(-233.254 -111.468)" fill="#ffbf9d"/>
      <path id="Path_5731" data-name="Path 5731" d="M287.042,153.16c.024-.018.1.07.267.142a.982.982,0,0,0,.733,0,2.4,2.4,0,0,0,1.1-2.191,3.176,3.176,0,0,0-.288-1.4,1.13,1.13,0,0,0-.746-.746.5.5,0,0,0-.576.273c-.073.161-.036.273-.067.282s-.121-.094-.079-.327a.624.624,0,0,1,.218-.355.737.737,0,0,1,.543-.149,1.375,1.375,0,0,1,1.033.864,3.315,3.315,0,0,1,.355,1.567,2.563,2.563,0,0,1-1.409,2.449,1.061,1.061,0,0,1-.909-.139C287.054,153.3,287.026,153.172,287.042,153.16Z" transform="translate(-237.183 -115.615)" fill="#ff9a6c"/>
      <path id="Path_5732" data-name="Path 5732" d="M227.064,165.57c-.194,0-.2,1.282-1.315,2.2s-2.488.764-2.5.946c-.018.079.3.252.888.27a3.219,3.219,0,0,0,2.088-.715,2.815,2.815,0,0,0,1.018-1.843C227.294,165.885,227.152,165.564,227.064,165.57Z" transform="translate(-192.726 -127.385)" fill="#263238"/>
      <path id="Path_5733" data-name="Path 5733" d="M151.513,64.52a1.349,1.349,0,0,1,.606-.785,4.108,4.108,0,0,1,2.122-.367,11.877,11.877,0,0,0,5.152-1.355,5.907,5.907,0,0,1-1.531-1.046,3.572,3.572,0,0,1-1.058-3.507.782.782,0,0,1,.436-.546c.367-.115.691.239.949.521a3.038,3.038,0,0,0,2.882,1.182,5,5,0,0,0,2.122-.658c.024-.027.045-.055.07-.079.3-.3.573-.606.852-.882h0a18.758,18.758,0,0,1,5.774-4.382,19.015,19.015,0,0,1,10.217-.909c2.879.733,5.48,3.031,5.913,5.955a5.951,5.951,0,0,1,5.98-.63l.048-.021c2.191.74,3.458,3.031,4.143,5.252.036.121.067.242.1.364a8.637,8.637,0,0,0,2.97,2.837c.212.121.455.27.485.512s-.173.439-.37.585a4.328,4.328,0,0,1-1.758.752,9.73,9.73,0,0,0,.743,1.515c.252.415.549.909.339,1.346a.924.924,0,0,1-.961.433,2.728,2.728,0,0,1-1.021-.449c.252.579.5,1.158.752,1.74a5.21,5.21,0,0,1-2.376-.13c-.439,2.085-.746,5.943-1.267,7.362a8.6,8.6,0,0,0-2.613.142c-.973.336-.579,2.061-1.855,1.582-.652-.242-1.67-2.682-1.894-3.334a32.2,32.2,0,0,1-1.549-13.608,10.3,10.3,0,0,0-3.222-2.27l.1.088c-2.315-.776-4.931-1.534-7.107-.427-1.685.861-2.664,2.631-3.916,4.049a11.788,11.788,0,0,1-8.659,4.337c-.3,2.491-.346,6.562-.439,8.886l-2.037-4.625v.033a8.813,8.813,0,0,1-.43-.818l-.045-.082h0a14.109,14.109,0,0,0-.667-1.315.14.14,0,0,0-.021.021,1.451,1.451,0,0,1-2.143-1.915,3.237,3.237,0,0,1,.67-.739,2.3,2.3,0,0,1-2.182.606,1.818,1.818,0,0,1-1.294-1.767,1.537,1.537,0,0,1,.909-1.24,5.152,5.152,0,0,1-2.949-.606A1.526,1.526,0,0,1,151.513,64.52Z" transform="translate(-142.709 -47.793)" fill="#263238"/>
      <path id="Path_5734" data-name="Path 5734" d="M256.91,75.33a7.13,7.13,0,0,1,.836.746,5.934,5.934,0,0,1,1.3,2.728,10.268,10.268,0,0,1,.233,2.094c0,.758-.039,1.573-.088,2.425a21.605,21.605,0,0,0-.03,2.706,9.318,9.318,0,0,0,.2,1.424,2.958,2.958,0,0,0,.606,1.379,1.246,1.246,0,0,0,1.17.376,1.836,1.836,0,0,0,1.04-.606,4.271,4.271,0,0,0,.773-2.122l-.173.024A6.818,6.818,0,0,0,263.8,88.22a2.464,2.464,0,0,0,1.615.858,1.609,1.609,0,0,0,.849-.161,1.379,1.379,0,0,0,.573-.576,1.415,1.415,0,0,0,.167-.733,1.033,1.033,0,0,0-.273-.639l-.088.082a5.389,5.389,0,0,0,1.788,1.309,5.265,5.265,0,0,0,.552.206.812.812,0,0,0,.2.045.953.953,0,0,0-.185-.076c-.124-.048-.3-.121-.536-.233a5.51,5.51,0,0,1-1.728-1.33l-.085.079a1.055,1.055,0,0,1,.07,1.212,1.26,1.26,0,0,1-.518.512,1.458,1.458,0,0,1-.77.133,2.312,2.312,0,0,1-1.515-.812,6.97,6.97,0,0,1-.985-1.682l-.121-.264-.052.288a4.13,4.13,0,0,1-.733,2.012,1.676,1.676,0,0,1-.93.539,1.049,1.049,0,0,1-.994-.321,2.834,2.834,0,0,1-.555-1.288,9.7,9.7,0,0,1-.2-1.4,21.885,21.885,0,0,1,.021-2.682c.042-.858.091-1.676.07-2.446a10.306,10.306,0,0,0-.261-2.122,5.814,5.814,0,0,0-1.376-2.743A3.31,3.31,0,0,0,256.91,75.33Z" transform="translate(-216.186 -64.494)" fill="#455a64"/>
      <path id="Path_5735" data-name="Path 5735" d="M173,73.129a.445.445,0,0,0,.067.058l.209.145a2.674,2.674,0,0,0,.352.221,4.1,4.1,0,0,0,.506.258,7.307,7.307,0,0,0,3.537.606,9.341,9.341,0,0,0,4.958-1.9,16.312,16.312,0,0,0,4.222-4.976c.588-1.006,1.067-2.037,1.594-2.988a10.962,10.962,0,0,1,1.818-2.534,5.652,5.652,0,0,1,2.361-1.47,4,4,0,0,1,1.252-.158,4.358,4.358,0,0,1,1.149.206,4.792,4.792,0,0,1,2.679,2.215,5.849,5.849,0,0,1,.452,1.221.3.3,0,0,0,0-.085,1.767,1.767,0,0,0-.042-.255,4.125,4.125,0,0,0-.321-.927,4.749,4.749,0,0,0-.94-1.243,4.849,4.849,0,0,0-1.785-1.058,4.513,4.513,0,0,0-1.188-.227,4.134,4.134,0,0,0-1.3.155,5.759,5.759,0,0,0-2.44,1.5,10.856,10.856,0,0,0-1.855,2.567c-.536.958-1.015,1.985-1.6,2.982a16.182,16.182,0,0,1-4.161,4.931,9.307,9.307,0,0,1-4.849,1.9,7.41,7.41,0,0,1-3.5-.527A11.67,11.67,0,0,1,173,73.129Z" transform="translate(-157.707 -53.976)" fill="#455a64"/>
      <path id="Path_5736" data-name="Path 5736" d="M170.39,90.833a1.364,1.364,0,0,0,.3.2,6.466,6.466,0,0,0,.882.433,8.358,8.358,0,0,0,1.394.439,9.016,9.016,0,0,0,3.558.076,8.7,8.7,0,0,0,1.409-.382,6.531,6.531,0,0,0,.909-.4,1.531,1.531,0,0,0,.3-.188c-.018-.033-.47.206-1.249.458a9.482,9.482,0,0,1-1.4.336,10.55,10.55,0,0,1-1.749.124,10.81,10.81,0,0,1-1.743-.2,9.649,9.649,0,0,1-1.382-.394C170.851,91.061,170.408,90.8,170.39,90.833Z" transform="translate(-155.888 -75.297)" fill="#455a64"/>
      <path id="Path_5737" data-name="Path 5737" d="M279.169,188.673c-.042,0-.079-3.052-.079-6.813s.036-6.81.079-6.81.079,3.049.079,6.81S279.211,188.673,279.169,188.673Z" transform="translate(-231.644 -133.992)" fill="#fff"/>
      <path id="Path_5738" data-name="Path 5738" d="M290.049,121.15a2.953,2.953,0,0,1,0,.721c-.027.446-.088,1.058-.191,1.728s-.233,1.273-.342,1.706a3.147,3.147,0,0,1-.215.688,3.293,3.293,0,0,1,.106-.712c.082-.436.191-1.037.3-1.706s.182-1.273.236-1.712A4.021,4.021,0,0,1,290.049,121.15Z" transform="translate(-238.759 -96.427)" fill="#fff"/>
      <path id="Path_5739" data-name="Path 5739" d="M294.9,84.751a.736.736,0,0,1-.239-.073,4.208,4.208,0,0,1-.606-.3,6.034,6.034,0,0,1-2.767-3.44,4.716,4.716,0,0,1-.155-.664.876.876,0,0,1-.018-.252c.027,0,.088.346.279.879a6.668,6.668,0,0,0,2.728,3.382C294.582,84.59,294.909,84.724,294.9,84.751Z" transform="translate(-240.022 -67.763)" fill="#fff"/>
      <path id="Path_5740" data-name="Path 5740" d="M302.558,106.473c-.042,0-.2-.406-.515-.846s-.664-.721-.636-.758A2.222,2.222,0,0,1,302.558,106.473Z" transform="translate(-247.196 -85.081)" fill="#fff"/>
      <path id="Path_5741" data-name="Path 5741" d="M202.722,72.842a6.485,6.485,0,0,0-.8.127,5.556,5.556,0,0,0-1.991.927,9.977,9.977,0,0,0-2.276,2.346c-.733,1-1.427,2.182-2.322,3.316a11.077,11.077,0,0,1-1.458,1.515,10.656,10.656,0,0,1-4.713,2.279,9.325,9.325,0,0,1-2.225.2c-.264,0-.467-.027-.606-.036a1.082,1.082,0,0,1-.209-.03h.815a10.162,10.162,0,0,0,2.2-.249,10.7,10.7,0,0,0,4.637-2.288,10.91,10.91,0,0,0,1.434-1.515c.885-1.121,1.582-2.3,2.328-3.3a9.8,9.8,0,0,1,2.331-2.352,5.377,5.377,0,0,1,2.043-.909,3.843,3.843,0,0,1,.606-.07A1.416,1.416,0,0,1,202.722,72.842Z" transform="translate(-166.851 -62.731)" fill="#fff"/>
      <path id="Path_5742" data-name="Path 5742" d="M336.32,128.552l26.574-6.934-10.4-30.1,7.971-2.579s19.042,28.353,18.754,34.278-9.632,12.956-18.184,16.151c-6.868,2.564-21.382,7.113-21.382,7.113Z" transform="translate(-271.529 -73.979)" fill="#ffbf9d"/>
      <path id="Path_5743" data-name="Path 5743" d="M430.92,202.248a1.772,1.772,0,0,1-.388-.027,3.571,3.571,0,0,1-.449-.073A5.358,5.358,0,0,1,429.5,202l-.336-.1-.355-.139a8.1,8.1,0,0,1-.764-.358,8.9,8.9,0,0,1-1.573-1.115,8.789,8.789,0,0,1-1.276-1.446,7.274,7.274,0,0,1-.439-.718,5.7,5.7,0,0,1-.324-.658,5.478,5.478,0,0,1-.215-.564,3.635,3.635,0,0,1-.13-.436,2.079,2.079,0,0,1-.076-.382c.033,0,.152.533.524,1.337a6.237,6.237,0,0,0,.333.639,8.069,8.069,0,0,0,.446.7,8.976,8.976,0,0,0,1.264,1.412,9.23,9.23,0,0,0,1.537,1.106c.261.13.5.27.743.364.121.049.233.1.346.145l.33.112C430.372,202.169,430.926,202.214,430.92,202.248Z" transform="translate(-332.642 -148.648)" fill="#ff9a6c"/>
      <path id="Path_5744" data-name="Path 5744" d="M131.387,327.49s-1.012,24.852-1,28.95c0,3.031,3.252,16.284,3.252,16.284h13.09l-3.049-19.179,1.876-21.215Z" transform="translate(-128.01 -240.231)" fill="#ffbf9d"/>
      <path id="Path_5745" data-name="Path 5745" d="M208.3,219.79l-14.511.636s-.679,6.289-8.225,7.192c-6.846.815-11.168-5.507-11.168-5.507s-15.76,4.6-18.791,6.822l5.937,44.916,2.849,17.057a9.648,9.648,0,0,0-1.476,4.631c0,2.4-.461,2.122-.461,2.122h53.008a7.274,7.274,0,0,0-.639-3.94c-.97-2.212-.791-2.425-.791-2.425l-1.6-25.482-.3-19.166Z" transform="translate(-145.58 -165.172)" fill="#e0e0e0"/>
      <path id="Path_5746" data-name="Path 5746" d="M132.566,250a15.475,15.475,0,0,0-5.986,9.4c-1.261,6.307-4.04,22.006-4.04,22.006l22.427.885s-1.346-10.911-1.346-11.593-3.8-15.705-4.028-16.063S132.566,250,132.566,250Z" transform="translate(-122.54 -186.226)" fill="#e0e0e0"/>
      <path id="Path_5747" data-name="Path 5747" d="M315.5,212.994s4.719-2.006,5.519-2.158,15.954-3.276,15.954-3.276l1.015,20.912-13.705,5.119-.8,8.1Z" transform="translate(-257.019 -156.649)" fill="#e0e0e0"/>
      <path id="Path_5748" data-name="Path 5748" d="M159.528,294.1c.042,0,1.779,10.868,3.879,24.285s3.764,24.3,3.722,24.31-1.779-10.862-3.879-24.285S159.486,294.109,159.528,294.1Z" transform="translate(-148.317 -216.961)" fill="#263238"/>
      <path id="Path_5749" data-name="Path 5749" d="M343.745,246.79a1.934,1.934,0,0,1,0,.227v3.049c-.027,2.025-.152,4.822-.479,7.88s-.715,5.843-1,7.847c-.145.988-.267,1.794-.352,2.37-.042.27-.076.482-.1.646a1.136,1.136,0,0,1-.045.221,1.164,1.164,0,0,1,.015-.227l.073-.646c.073-.579.176-1.388.3-2.379.255-2.006.627-4.776.952-7.847s.47-5.861.527-7.88c.021-1,.039-1.818.055-2.394,0-.27,0-.488.015-.652a1.121,1.121,0,0,1,.036-.215Z" transform="translate(-275.326 -183.989)" fill="#263238"/>
      <path id="Path_5750" data-name="Path 5750" d="M300.851,225.2c0,.042-2.531.346-5.661.673s-5.677.558-5.68.515,2.531-.346,5.661-.673S300.848,225.156,300.851,225.2Z" transform="translate(-238.906 -168.938)" fill="#fff"/>
      <path id="Path_5751" data-name="Path 5751" d="M234.592,462.321a.374.374,0,0,1-.1.015l-.3.03-1.143.1c-.991.085-2.425.182-4.2.285-3.552.206-8.465.382-13.893.358s-10.341-.255-13.89-.494c-1.776-.118-3.21-.233-4.2-.324l-1.14-.109-.3-.033a.373.373,0,0,1-.1-.015h.1l.3.015,1.143.079c.991.076,2.425.17,4.2.276,3.549.212,8.459.421,13.884.449s10.335-.133,13.887-.3c1.776-.088,3.213-.17,4.2-.233l1.143-.067.3-.015Z" transform="translate(-173.262 -334.065)" fill="#263238"/>
      <rect id="Rectangle_3469" data-name="Rectangle 3469" width="15.914" height="21.442" transform="matrix(0.997, -0.078, 0.078, 0.997, 34.383, 83.737)" fill="#fff"/>
      <path id="Path_5752" data-name="Path 5752" d="M252.333,307.17a.451.451,0,0,1-.021.082c-.018.064-.042.142-.073.239-.07.221-.17.527-.3.909-.067.2-.136.418-.215.661s-.194.491-.3.767c-.224.549-.452,1.188-.785,1.855-.158.339-.324.694-.5,1.061s-.391.733-.606,1.121c-.4.782-.909,1.573-1.431,2.425a36.867,36.867,0,0,1-8.716,9.356c-.8.579-1.552,1.143-2.3,1.6-.373.233-.721.473-1.076.676l-1.021.573c-.646.379-1.264.652-1.794.909-.27.127-.515.252-.746.355l-.646.264-.891.358-.23.088a.3.3,0,0,1-.082.027.812.812,0,0,1,.076-.039l.227-.106.876-.385.636-.276c.23-.106.476-.233.74-.364.527-.27,1.14-.549,1.779-.933l1.012-.582c.352-.2.7-.445,1.07-.679.746-.458,1.491-1.024,2.285-1.6a37.159,37.159,0,0,0,8.7-9.313c.521-.833,1.033-1.615,1.437-2.394.206-.385.424-.746.606-1.112s.342-.715.506-1.052c.339-.664.573-1.3.8-1.84.112-.276.224-.527.3-.764l.23-.655c.136-.382.245-.685.321-.909.036-.1.067-.173.088-.233A.3.3,0,0,1,252.333,307.17Z" transform="translate(-197.843 -226.07)" fill="#263238"/>
      <g id="Group_6907" data-name="Group 6907" transform="translate(37.051 90.523)" opacity="0.3">
        <path id="Path_5753" data-name="Path 5753" d="M244.79,356.848c1.876.994,4.1-.339,5.783-1.631a48.251,48.251,0,0,0,7.9-7.083c2.273-2.719,4.389-6.343,4.689-9.874A84.278,84.278,0,0,1,244.79,356.848Z" transform="translate(-244.79 -338.26)"/>
      </g>
      <path id="Path_5754" data-name="Path 5754" d="M357.709,39.948c-.094.064.152,5.234,0,6.522a7.331,7.331,0,0,0,1.515,4.74c.946.909,3.807,3.537,4.873,4.392a6.234,6.234,0,0,0,3.385,1.618l1.037,2.728L376,55.768s-1.227-5.846-1.3-7.553-.418-3.982-.418-4.892-.682-1.9-2.425-1.4c0,0-.227-1.4-2.122-1.024a1.45,1.45,0,0,0-1.818-.949c-1.515.264-5.774.3-6.413.646a3.306,3.306,0,0,0-1.058.985S359.834,38.545,357.709,39.948Z" transform="translate(-286.42 -39.577)" fill="#ffbf9d"/>
      <rect id="Rectangle_3470" data-name="Rectangle 3470" width="8.789" height="1.894" transform="translate(74.611 62.467)" fill="#ff725e"/>
      <path id="Path_5755" data-name="Path 5755" d="M362.1,161.76v5.346h12.593V161.76Zm2.552,3.364a.606.606,0,1,1,.606-.606A.606.606,0,0,1,364.652,165.124Zm2.576,0a.614.614,0,1,0-.006,0Zm2.579,0a.606.606,0,1,1,.606-.606A.606.606,0,0,1,369.807,165.124Zm2.579,0a.621.621,0,1,0-.012,0Z" transform="translate(-289.496 -124.73)" fill="#ff725e"/>
      <g id="Group_6908" data-name="Group 6908" transform="translate(72.604 37.03)" opacity="0.3">
        <path id="Path_5756" data-name="Path 5756" d="M362.1,161.76v5.346h12.593V161.76Zm2.552,3.364a.606.606,0,1,1,.606-.606A.606.606,0,0,1,364.652,165.124Zm2.576,0a.614.614,0,1,0-.006,0Zm2.579,0a.606.606,0,1,1,.606-.606A.606.606,0,0,1,369.807,165.124Zm2.579,0a.621.621,0,1,0-.012,0Z" transform="translate(-362.1 -161.76)"/>
      </g>
      <path id="Path_5757" data-name="Path 5757" d="M344.74,88.037l1.367-21.982a5.1,5.1,0,0,1,5.152-4.616h9.377a5.152,5.152,0,0,1,5.128,4.382L367.443,87.8Zm6.519-26.295a4.792,4.792,0,0,0-4.849,4.337l-1.349,21.652,22.036-.236-1.643-21.643a4.849,4.849,0,0,0-4.819-4.113Z" transform="translate(-277.397 -54.813)" fill="#263238"/>
      <rect id="Rectangle_3471" data-name="Rectangle 3471" width="13.954" height="3.788" transform="translate(72.11 32.527)" fill="#ff725e"/>
      <path id="Path_5758" data-name="Path 5758" d="M336.607,180.419a10.282,10.282,0,0,1-6.756-2.276,7.359,7.359,0,0,1-2.252-5.683c.006-2.385,2.473-16.669,3.94-24.988a5.349,5.349,0,0,1,5.273-4.422h14.911a5.358,5.358,0,0,1,5.267,4.374c2,10.744,4.3,24.143,3.858,26.973-.706,4.51-7.407,5.728-7.692,5.777l-.091.018h-.094l-15.76.209C337.116,180.407,336.913,180.419,336.607,180.419Zm.206-35.032a3.031,3.031,0,0,0-2.976,2.494c-2.446,13.817-3.907,23.006-3.91,24.585a5.03,5.03,0,0,0,1.491,3.94c2.058,1.906,5.613,1.652,5.649,1.649h.079l15.69-.209c1.543-.3,5.331-1.494,5.695-3.822.3-1.867-1.182-11.9-3.846-26.18a3.031,3.031,0,0,0-2.97-2.467Z" transform="translate(-265.452 -111.69)" fill="#ff725e"/>
      <path id="Path_5759" data-name="Path 5759" d="M366.53,253.243a39.8,39.8,0,0,0-4.546-1.273h-8.425a39.8,39.8,0,0,0-4.546,1.273,3.232,3.232,0,0,0-2.443,2.934v5.477h22.4v-5.477A3.234,3.234,0,0,0,366.53,253.243Z" transform="translate(-278.672 -187.599)" fill="#ff725e"/>
      <path id="Path_5760" data-name="Path 5760" d="M366.393,253.124l.158.058a3.239,3.239,0,0,1,.452.2,2.681,2.681,0,0,1,.321.176,2.729,2.729,0,0,1,.358.255,3.1,3.1,0,0,1,.73.818c.055.088.1.185.155.279a1.647,1.647,0,0,1,.127.3,2.7,2.7,0,0,1,.158.706c0,.5,0,1.046,0,1.634v4.007H346.375v-5.322a2.707,2.707,0,0,1,.021-.47,3.088,3.088,0,0,1,.27-.885,3.335,3.335,0,0,1,.512-.758,3.885,3.885,0,0,1,1.473-.973c.546-.209,1.091-.373,1.624-.539,1.073-.321,2.122-.606,3.122-.809h8.425c1.47.321,2.6.661,3.37.909.385.121.676.218.873.288l.221.076.076.03-.079-.024-.221-.073-.876-.276c-.77-.23-1.9-.564-3.373-.879h-8.425c-1,.215-2.043.491-3.113.812-.533.167-1.079.33-1.618.539a3.874,3.874,0,0,0-1.446.955,3.4,3.4,0,0,0-.5.74,2.911,2.911,0,0,0-.261.864,2.516,2.516,0,0,0-.021.455V261.5l-.039-.039h22.4l-.027.03v-5.607a2.819,2.819,0,0,0-.155-.7,3.145,3.145,0,0,0-.124-.3c-.052-.094-.1-.191-.152-.276a3,3,0,0,0-.715-.815,3.336,3.336,0,0,0-.355-.258,2.69,2.69,0,0,0-.3-.179,3.636,3.636,0,0,0-.449-.2Z" transform="translate(-278.534 -187.481)" fill="#263238"/>
      <path id="Path_5761" data-name="Path 5761" d="M380.74,260.984a3.612,3.612,0,0,0-.088-.564,2.234,2.234,0,0,0-.261-.606,2.291,2.291,0,0,0-2.752-.97,2.123,2.123,0,0,0-.576.3,2.231,2.231,0,0,0-.485.485,2.324,2.324,0,0,0-.442,1.352,2.292,2.292,0,0,0,4.255,1.173,2.2,2.2,0,0,0,.261-.606,3.672,3.672,0,0,0,.088-.561v.149a.994.994,0,0,1,0,.179,1.454,1.454,0,0,1-.045.242,2.122,2.122,0,0,1-.252.627,2.343,2.343,0,0,1-2.816,1.018,2.214,2.214,0,0,1-.606-.321,2.175,2.175,0,0,1-.5-.5,2.346,2.346,0,0,1,0-2.791,2.238,2.238,0,0,1,.5-.5,2.213,2.213,0,0,1,.606-.321,2.358,2.358,0,0,1,1.237-.1,2.3,2.3,0,0,1,.988.446,2.233,2.233,0,0,1,.606.673,2.068,2.068,0,0,1,.252.624,1.448,1.448,0,0,1,.045.242,1.04,1.04,0,0,1,0,.182v.109C380.743,260.969,380.743,260.984,380.74,260.984Z" transform="translate(-299.225 -192.243)" fill="#263238"/>
      <path id="Path_5762" data-name="Path 5762" d="M381.784,262.745a1.582,1.582,0,1,1-.462-1.121A1.582,1.582,0,0,1,381.784,262.745Z" transform="translate(-301.009 -194.004)" fill="#263238"/>
      <path id="Path_5763" data-name="Path 5763" d="M365.277,285.323H342.85a1.17,1.17,0,0,1-1.17-1.17h0a1.17,1.17,0,0,1,1.17-1.173h22.428a1.173,1.173,0,0,1,1.173,1.173h0a1.17,1.17,0,0,1-1.173,1.17Z" transform="translate(-275.264 -209.211)" fill="#ff725e"/>
      <path id="Path_5764" data-name="Path 5764" d="M365.183,285.034a1.285,1.285,0,0,0,.509-.127,1.14,1.14,0,0,0,.467-.418,1.173,1.173,0,0,0,.161-.833,1.158,1.158,0,0,0-.633-.827,1.243,1.243,0,0,0-.606-.115H342.774a1.133,1.133,0,0,0-.339,2.212,2.184,2.184,0,0,0,.633.052H363.14l-5.592.015H342.74a1.212,1.212,0,0,1,.033-2.425h22.318a1.279,1.279,0,0,1,.606.121,1.179,1.179,0,0,1,0,2.122,1.137,1.137,0,0,1-.379.109A1.153,1.153,0,0,1,365.183,285.034Z" transform="translate(-275.17 -208.922)" fill="#263238"/>
      <rect id="Rectangle_3472" data-name="Rectangle 3472" width="13.338" height="2.203" transform="translate(72.377 29.611)" fill="#ff725e"/>
      <path id="Path_5765" data-name="Path 5765" d="M354.78,159.272h17.242l-1.564-1.082H356.677Z" transform="translate(-284.394 -122.242)" fill="#ff725e"/>
      <path id="Path_5766" data-name="Path 5766" d="M355.676,181.752s-.136-2.355,1.946-2.355h12.593a2.061,2.061,0,0,1,2.121,2.355Z" transform="translate(-285.017 -137.021)" fill="#ff725e"/>
      <path id="Path_5767" data-name="Path 5767" d="M368.9,187.17H352.724s-2.182,7.056-1.515,10.608,5.213,5.649,5.213,5.649v1.467h4.373v-.17l.021.17h4.373v-1.467s4.546-2.085,5.213-5.649S368.9,187.17,368.9,187.17Z" transform="translate(-281.817 -142.438)" fill="#fff"/>
      <path id="Path_5768" data-name="Path 5768" d="M368.83,187.072l.027.085c.018.058.045.139.079.249.064.221.161.549.276.976.227.858.558,2.122.855,3.737.152.809.282,1.712.367,2.7a10.632,10.632,0,0,1-.133,3.191,6.828,6.828,0,0,1-1.885,3.067,11.778,11.778,0,0,1-1.515,1.252,12.83,12.83,0,0,1-1.758,1.061l.021-.033v1.5h-4.443v-.036a.467.467,0,0,0-.021-.167h.079v.209h-4.458v-1.515l.021.036a13.091,13.091,0,0,1-1.788-1.064,11.6,11.6,0,0,1-1.728-1.485,7.465,7.465,0,0,1-1.285-1.818,5.6,5.6,0,0,1-.373-1.04l-.061-.267-.036-.273c-.018-.179-.055-.358-.061-.539a10.617,10.617,0,0,1-.021-1.088,5.138,5.138,0,0,1,.018-.53l.036-.527a31.315,31.315,0,0,1,.636-4.022q.418-1.928.943-3.667v-.024h.024l11.735.015H352.648l.033-.024c-.346,1.155-.658,2.379-.937,3.661a31.256,31.256,0,0,0-.63,4.013c0,.173-.024.349-.039.524s0,.352-.015.527a9.664,9.664,0,0,0,.021,1.067,5.279,5.279,0,0,0,.061.536l.036.267.061.264a5.4,5.4,0,0,0,.367,1.021,7.294,7.294,0,0,0,1.273,1.818,11.27,11.27,0,0,0,1.715,1.473,12.626,12.626,0,0,0,1.776,1.058h.021v1.491l-.039-.042h4.373l-.039.039v-.17h.079l.021.17-.039-.033h4.373l-.036.039v-1.488h.021a12.563,12.563,0,0,0,1.755-1.04,11.63,11.63,0,0,0,1.5-1.243,6.744,6.744,0,0,0,1.873-3.031,10.608,10.608,0,0,0,.142-3.17c-.082-.985-.209-1.888-.358-2.7-.3-1.618-.606-2.879-.833-3.737-.112-.43-.206-.758-.267-.979l-.07-.249A.163.163,0,0,1,368.83,187.072Z" transform="translate(-281.747 -142.341)" fill="#263238"/>
      <path id="Path_5769" data-name="Path 5769" d="M378.411,206.217a6.8,6.8,0,0,0-.27-7.88,3.338,3.338,0,0,0-2.3-1.394,3.453,3.453,0,0,0-2.909,1.985,6.971,6.971,0,0,0,.606,8.068,2,2,0,0,1,2.009-1.928A3.849,3.849,0,0,1,378.411,206.217Z" transform="translate(-296.345 -149.248)" fill="#ff725e"/>
      <g id="Group_6909" data-name="Group 6909" transform="translate(75.583 47.693)" opacity="0.8">
        <path id="Path_5770" data-name="Path 5770" d="M378.411,206.217a6.8,6.8,0,0,0-.27-7.88,3.338,3.338,0,0,0-2.3-1.394,3.453,3.453,0,0,0-2.909,1.985,6.971,6.971,0,0,0,.606,8.068,2,2,0,0,1,2.009-1.928A3.849,3.849,0,0,1,378.411,206.217Z" transform="translate(-371.928 -196.94)" fill="#fff"/>
      </g>
      <path id="Path_5771" data-name="Path 5771" d="M379.428,215.443a3.319,3.319,0,0,0,1.285-2.531,8.637,8.637,0,0,0-.909-2.588c-.112-.239-.264-.506-.524-.549s-.524.2-.706.427c-.3-.652-.627-1.294-.982-1.918-.124-.221-.327-.476-.576-.415a.576.576,0,0,0-.3.227,7.44,7.44,0,0,0-1.721,3.564,4.2,4.2,0,0,0,1.167,3.667s.109-1.9,1.721-1.9S379.428,215.443,379.428,215.443Z" transform="translate(-298.447 -156.858)" fill="#ff725e"/>
      <path id="Path_5772" data-name="Path 5772" d="M368.148,216.875l-.779-5.428a1.991,1.991,0,0,0-1.315-1.6L350.9,204.513l.1-.3,15.154,5.334a2.3,2.3,0,0,1,1.515,1.852l.779,5.425Z" transform="translate(-281.69 -154.314)" fill="#263238"/>
      <path id="Path_5773" data-name="Path 5773" d="M358.853,217.712l-.3-.045.773-5.41a2.312,2.312,0,0,1,1.537-1.858l14.517-4.989.1.3-14.514,4.967a1.988,1.988,0,0,0-1.33,1.606Z" transform="translate(-287.021 -155.15)" fill="#263238"/>
      <path id="Path_5774" data-name="Path 5774" d="M341.044,147.029A1.7,1.7,0,1,1,343.117,145l-.3.07a1.388,1.388,0,1,0-1.694,1.652Z" transform="translate(-273.925 -112.129)" fill="#ff725e"/>
      <path id="Path_5775" data-name="Path 5775" d="M414.665,147.4l-.061-.3a1.546,1.546,0,1,0-1.567-2.394l-.258-.176a1.858,1.858,0,1,1,1.885,2.876Z" transform="translate(-324.816 -112.158)" fill="#ff725e"/>
      <path id="Path_5776" data-name="Path 5776" d="M362.86,125.08v3.7h12.256v-3.7Zm5,2.728h-3.607v-1.843h3.607Zm6.195,0h-3.61v-1.843h3.61Z" transform="translate(-290.025 -99.166)" fill="#ff725e"/>
      <g id="Group_6910" data-name="Group 6910" transform="translate(72.835 25.914)" opacity="0.3">
        <path id="Path_5777" data-name="Path 5777" d="M362.86,125.08v3.7h12.256v-3.7Zm5,2.728h-3.607v-1.843h3.607Zm6.195,0h-3.61v-1.843h3.61Z" transform="translate(-362.86 -125.08)"/>
      </g>
      <path id="Path_5778" data-name="Path 5778" d="M358.61,121.163h15.084l-5.61-1.7h-4.113Z" transform="translate(-287.063 -95.25)" fill="#ff725e"/>
      <path id="Path_5779" data-name="Path 5779" d="M380.334,109.064h-4.2V106.53a2.1,2.1,0,1,1,4.2,0Zm-4.043-.155h3.885V106.53a1.943,1.943,0,1,0-3.885,0Z" transform="translate(-299.273 -84.775)" fill="#ff725e"/>
      <path id="Path_5780" data-name="Path 5780" d="M374.71,142.679c0,.024-3.079.042-6.874.042s-6.877-.018-6.877-.042,3.076-.039,6.877-.039S374.71,142.658,374.71,142.679Z" transform="translate(-288.701 -111.404)" fill="#263238"/>
      <path id="Path_5781" data-name="Path 5781" d="M374.258,150.9c0,.021-3.234.039-7.222.039s-7.225-.018-7.225-.039,3.234-.042,7.225-.042S374.258,150.872,374.258,150.9Z" transform="translate(-287.9 -117.133)" fill="#263238"/>
      <path id="Path_5782" data-name="Path 5782" d="M374.337,158.162c0,.021-3.128.039-6.986.039s-6.971-.018-6.971-.039,3.125-.042,6.971-.042S374.337,158.138,374.337,158.162Z" transform="translate(-288.297 -122.193)" fill="#263238"/>
      <path id="Path_5783" data-name="Path 5783" d="M358.629,239.53h-17a1.088,1.088,0,0,1-1.07-.855l-.258-1.13a.782.782,0,0,0-.767-.606H335.42v-.3h4.116a1.094,1.094,0,0,1,1.07.855l.258,1.13a.782.782,0,0,0,.767.606h17a.606.606,0,0,0,.555-.355l.776-1.7a.909.909,0,0,1,.836-.539h3.143v.3h-3.131a.606.606,0,0,0-.555.358l-.776,1.7A.909.909,0,0,1,358.629,239.53Z" transform="translate(-270.902 -176.908)" fill="#263238"/>
      <path id="Path_5784" data-name="Path 5784" d="M380.74,260.984a3.612,3.612,0,0,0-.088-.564,2.234,2.234,0,0,0-.261-.606,2.291,2.291,0,0,0-2.752-.97,2.123,2.123,0,0,0-.576.3,2.231,2.231,0,0,0-.485.485,2.324,2.324,0,0,0-.442,1.352,2.292,2.292,0,0,0,4.255,1.173,2.2,2.2,0,0,0,.261-.606,3.672,3.672,0,0,0,.088-.561v.149a.994.994,0,0,1,0,.179,1.454,1.454,0,0,1-.045.242,2.122,2.122,0,0,1-.252.627,2.343,2.343,0,0,1-2.816,1.018,2.214,2.214,0,0,1-.606-.321,2.175,2.175,0,0,1-.5-.5,2.346,2.346,0,0,1,0-2.791,2.238,2.238,0,0,1,.5-.5,2.213,2.213,0,0,1,.606-.321,2.358,2.358,0,0,1,1.237-.1,2.3,2.3,0,0,1,.988.446,2.233,2.233,0,0,1,.606.673,2.068,2.068,0,0,1,.252.624,1.448,1.448,0,0,1,.045.242,1.04,1.04,0,0,1,0,.182v.109C380.743,260.969,380.743,260.984,380.74,260.984Z" transform="translate(-299.225 -192.243)" fill="#263238"/>
      <g id="Group_6911" data-name="Group 6911" transform="translate(76.872 69.093)" opacity="0.3">
        <path id="Path_5785" data-name="Path 5785" d="M378.5,269.55a2.322,2.322,0,0,1-2.3-2,2.255,2.255,0,0,0-.024.321,2.322,2.322,0,1,0,4.643,0,2.254,2.254,0,0,0-.024-.321A2.322,2.322,0,0,1,378.5,269.55Z" transform="translate(-376.18 -267.55)"/>
      </g>
      <path id="Path_5786" data-name="Path 5786" d="M372.331,187.052c0,.024-3.74.042-8.356.042s-8.356-.018-8.356-.042,3.752-.052,8.356-.052S372.331,187.03,372.331,187.052Z" transform="translate(-284.979 -142.32)" fill="#263238"/>
      <path id="Path_5787" data-name="Path 5787" d="M381.206,185.569c0,.021-1.252.039-2.794.039s-2.791-.018-2.791-.039,1.249-.039,2.791-.039S381.206,185.548,381.206,185.569Z" transform="translate(-298.918 -141.295)" fill="#fff"/>
      <path id="Path_5788" data-name="Path 5788" d="M383.3,160.812c0,.021-1.276.039-2.849.039s-2.849-.018-2.849-.039,1.276-.042,2.849-.042S383.3,160.788,383.3,160.812Z" transform="translate(-300.298 -124.04)" fill="#fff"/>
      <path id="Path_5789" data-name="Path 5789" d="M385.334,155.9c0,.021-.758.039-1.7.039s-1.7-.018-1.7-.039q1.7-.085,3.394,0Z" transform="translate(-303.323 -120.618)" fill="#fff"/>
      <path id="Path_5790" data-name="Path 5790" d="M382.75,147.443c0,.021-.745.039-1.67.039s-1.67-.018-1.67-.039a32.889,32.889,0,0,1,3.334,0Z" transform="translate(-301.559 -114.722)" fill="#fff"/>
      <path id="Path_5791" data-name="Path 5791" d="M383.864,140.032a19.28,19.28,0,0,1-2.464,0A17.91,17.91,0,0,1,383.864,140.032Z" transform="translate(-302.946 -109.557)" fill="#fff"/>
      <path id="Path_5792" data-name="Path 5792" d="M384.183,124.132c0,.021-1.191.039-2.658.039s-2.655-.018-2.655-.039,1.188-.042,2.655-.042S384.183,124.108,384.183,124.132Z" transform="translate(-301.183 -98.476)" fill="#fff"/>
      <path id="Path_5793" data-name="Path 5793" d="M381.732,247.179a21.219,21.219,0,0,1-2.682,0,22.846,22.846,0,0,1,2.682,0Z" transform="translate(-301.308 -184.233)" fill="#fff"/>
      <path id="Path_5794" data-name="Path 5794" d="M383.115,255.129c0,.024-.821.042-1.837.042s-1.818-.018-1.818-.042.821-.039,1.818-.039S383.115,255.108,383.115,255.129Z" transform="translate(-301.594 -189.774)" fill="#fff"/>
      <path id="Path_5795" data-name="Path 5795" d="M382.242,260.521s-.133-.07-.358-.161a2.486,2.486,0,0,0-.909-.182,2.582,2.582,0,0,0-.909.173c-.224.088-.352.173-.358.161s.024-.03.082-.07a1.383,1.383,0,0,1,.255-.142,2.221,2.221,0,0,1,.943-.2,2.264,2.264,0,0,1,.943.206,1.945,1.945,0,0,1,.252.146C382.221,260.494,382.248,260.518,382.242,260.521Z" transform="translate(-301.767 -193.265)" fill="#fff"/>
      <path id="Path_5796" data-name="Path 5796" d="M383.273,284.849c0,.024-1.482.042-3.307.042s-3.307-.018-3.307-.042,1.479-.039,3.307-.039S383.273,284.828,383.273,284.849Z" transform="translate(-299.643 -210.486)" fill="#fff"/>
      <path id="Path_5797" data-name="Path 5797" d="M429.826,240.62a1.58,1.58,0,0,1,.018.418,4.85,4.85,0,0,1-.506,1.946,1.542,1.542,0,0,1-.218.358,3.879,3.879,0,0,1,.167-.382,6.154,6.154,0,0,0,.327-.943,6.546,6.546,0,0,0,.173-.982,3.817,3.817,0,0,1,.039-.415Z" transform="translate(-336.203 -179.689)" fill="#fff"/>
      <path id="Path_5798" data-name="Path 5798" d="M335.079,246.249a.979.979,0,0,1-.118-.1,2.926,2.926,0,0,1-.285-.3,3.774,3.774,0,0,1-.355-.521,4.274,4.274,0,0,1-.321-.7,4.512,4.512,0,0,1-.185-.752,4.068,4.068,0,0,1-.045-.627,3.253,3.253,0,0,1,.03-.421.534.534,0,0,1,.033-.155,5.749,5.749,0,0,0,0,.576,4.651,4.651,0,0,0,.061.606,5.129,5.129,0,0,0,.188.733,5.074,5.074,0,0,0,.3.691,4.111,4.111,0,0,0,.336.521C334.934,246.086,335.091,246.24,335.079,246.249Z" transform="translate(-269.751 -181.118)" fill="#fff"/>
      <path id="Path_5799" data-name="Path 5799" d="M366.175,46.18c-.088.424-.067.843-.155,1.818a15.437,15.437,0,0,0-.1,1.979,2.164,2.164,0,0,0,.682,1.567,1.321,1.321,0,0,0,1.621.1V50.271" transform="translate(-292.155 -44.179)" fill="#ffbf9d"/>
      <path id="Path_5800" data-name="Path 5800" d="M368.024,50.271a1.768,1.768,0,0,1,.03.364c0,.236.018.576.027,1v.024l-.024.018a1.3,1.3,0,0,1-1.337.139,1.834,1.834,0,0,1-1-1.3,3.449,3.449,0,0,1-.085-.885c0-.285.021-.558.042-.818.049-.506.094-.967.133-1.37s.055-.709.088-.927a1,1,0,0,1,.079-.333,2.337,2.337,0,0,1-.018.339c0,.255-.024.564-.039.927s-.064.861-.1,1.376c-.015.258-.03.527-.033.806a3.506,3.506,0,0,0,.082.849,1.713,1.713,0,0,0,.909,1.212,1.212,1.212,0,0,0,1.212-.091l-.021.045c0-.421.015-.761.024-1A1.42,1.42,0,0,1,368.024,50.271Z" transform="translate(-291.958 -44.179)" fill="#ff9a6c"/>
      <path id="Path_5801" data-name="Path 5801" d="M375.9,43.86a4.258,4.258,0,0,0-2.006,1.37,3.94,3.94,0,0,0-.258,1.391q-.073,1.27-.091,2.54a3.034,3.034,0,0,0,.388,1.855,1.6,1.6,0,0,0,1.967.464" transform="translate(-297.475 -42.562)" fill="#ffbf9d"/>
      <path id="Path_5802" data-name="Path 5802" d="M375.69,51.479a.525.525,0,0,1-.091.061,1.437,1.437,0,0,1-.3.1,1.664,1.664,0,0,1-1.127-.164,1.515,1.515,0,0,1-.585-.549,2.27,2.27,0,0,1-.3-.873,13.769,13.769,0,0,1,0-2.064c.036-.73.027-1.421.115-2.058a2.122,2.122,0,0,1,.3-.873,2.967,2.967,0,0,1,.591-.533,5.291,5.291,0,0,1,1-.567.855.855,0,0,1,.406-.1,3.166,3.166,0,0,0-.379.161,6.062,6.062,0,0,0-.943.606,3.1,3.1,0,0,0-.555.524,2.048,2.048,0,0,0-.255.815c-.079.606-.067,1.318-.1,2.043a14.829,14.829,0,0,0,0,2.04,2.061,2.061,0,0,0,.258.821,1.446,1.446,0,0,0,.527.521,1.67,1.67,0,0,0,1.061.2A1.835,1.835,0,0,0,375.69,51.479Z" transform="translate(-297.261 -42.562)" fill="#ff9a6c"/>
      <path id="Path_5803" data-name="Path 5803" d="M384.31,46a3.335,3.335,0,0,0-2.813,2.273,11.264,11.264,0,0,0-.5,3.788,2.487,2.487,0,0,0,.482,1.87,1.588,1.588,0,0,0,1.358.324,2.07,2.07,0,0,0,1.494-.982" transform="translate(-302.667 -44.053)" fill="#ffbf9d"/>
      <path id="Path_5804" data-name="Path 5804" d="M384.143,53.308a.6.6,0,0,1-.055.121,1.648,1.648,0,0,1-.227.3,2.231,2.231,0,0,1-1.243.627,1.818,1.818,0,0,1-.976-.085,1.337,1.337,0,0,1-.764-.821,3.594,3.594,0,0,1-.148-1.212c0-.424,0-.861.03-1.309a8.134,8.134,0,0,1,.418-2.5,4.028,4.028,0,0,1,1.173-1.706A2.843,2.843,0,0,1,383.6,46.1a1.9,1.9,0,0,1,.376-.042.349.349,0,0,1,.133,0c0,.018-.182.015-.5.094a3.031,3.031,0,0,0-1.185.655,4.034,4.034,0,0,0-1.1,1.655,8.231,8.231,0,0,0-.4,2.455c-.018.446-.024.885-.033,1.3a3.458,3.458,0,0,0,.13,1.179,1.212,1.212,0,0,0,.691.749,1.74,1.74,0,0,0,.909.1,2.264,2.264,0,0,0,1.212-.564A3.96,3.96,0,0,0,384.143,53.308Z" transform="translate(-302.476 -44.087)" fill="#ff9a6c"/>
      <path id="Path_5805" data-name="Path 5805" d="M394.206,50.41a3.783,3.783,0,0,0-2.294,1.694,4.786,4.786,0,0,0-.252,1.424c-.055.524-.155,1.043-.176,1.567a2.946,2.946,0,0,0,.3,1.515,1.567,1.567,0,0,0,1.252.84,1.079,1.079,0,0,0,1.112-.909c.021-.239-.055-.479-.052-.718,0-.788.812-1.434.721-2.215a1.549,1.549,0,0,0,1.728-.221" transform="translate(-309.97 -47.127)" fill="#ffbf9d"/>
      <path id="Path_5806" data-name="Path 5806" d="M396.366,53.466a.517.517,0,0,1-.088.091,1.515,1.515,0,0,1-1.664.176l.073-.048a1.958,1.958,0,0,1-.324,1.152,2.016,2.016,0,0,0-.358,1.3,1.306,1.306,0,0,1-.052.806,1.173,1.173,0,0,1-.639.576,1.212,1.212,0,0,1-.894,0,1.709,1.709,0,0,1-.73-.558,2.582,2.582,0,0,1-.461-1.515,10.081,10.081,0,0,1,.139-1.467c.07-.461.079-.909.161-1.321a2.149,2.149,0,0,1,.515-1.052,3.977,3.977,0,0,1,1.409-.909c.185-.076.327-.127.427-.164a.53.53,0,0,1,.152-.042l-.552.264a4.1,4.1,0,0,0-1.352.927,2.022,2.022,0,0,0-.47,1c-.076.4-.079.849-.145,1.315a9.672,9.672,0,0,0-.13,1.446,2.442,2.442,0,0,0,.433,1.434,1.288,1.288,0,0,0,1.443.521,1.021,1.021,0,0,0,.561-.5,1.173,1.173,0,0,0,.042-.724,1.467,1.467,0,0,1,.085-.755,4.747,4.747,0,0,1,.3-.606,1.909,1.909,0,0,0,.336-1.085v-.094l.085.045a1.552,1.552,0,0,0,1.285.058,2.641,2.641,0,0,0,.409-.276Z" transform="translate(-309.796 -47.183)" fill="#ff9a6c"/>
      <path id="Path_5807" data-name="Path 5807" d="M385.981,71.518c0,.027-.267.094-.679.276a3.294,3.294,0,0,0-1.337,1.079,5.786,5.786,0,0,0-.74,1.585,4.728,4.728,0,0,1-.236.7,2.906,2.906,0,0,1,.127-.73,4.994,4.994,0,0,1,.721-1.646,3.1,3.1,0,0,1,1.421-1.094,3.239,3.239,0,0,1,.524-.152C385.909,71.514,385.981,71.505,385.981,71.518Z" transform="translate(-304.054 -61.833)" fill="#ff9a6c"/>
      <path id="Path_5808" data-name="Path 5808" d="M372.729,81.012a1.433,1.433,0,0,1-.3-.118c-.191-.085-.461-.221-.788-.4a17.274,17.274,0,0,1-2.425-1.615,17.7,17.7,0,0,1-2.122-1.994c-.249-.279-.443-.512-.567-.676a1.313,1.313,0,0,1-.185-.267c.018-.018.318.33.833.867a22.515,22.515,0,0,0,2.143,1.946,22.821,22.821,0,0,0,2.376,1.646C372.335,80.775,372.741,80.991,372.729,81.012Z" transform="translate(-292.45 -64.918)" fill="#fff"/>
      <path id="Path_5809" data-name="Path 5809" d="M394.7,69c0,.018-.094,0-.215-.045a.979.979,0,0,1-.394-.349,1.012,1.012,0,0,1-.17-.494c0-.136.024-.218.042-.215a2.16,2.16,0,0,0,.261.606C394.432,68.809,394.714,68.958,394.7,69Z" transform="translate(-311.672 -59.316)" fill="#fff"/>
      <path id="Path_5810" data-name="Path 5810" d="M383.356,68.463c0,.042-.352-.058-.552-.415a.688.688,0,0,1-.073-.688c.045,0,.033.3.209.606S383.377,68.412,383.356,68.463Z" transform="translate(-303.832 -58.94)" fill="#fff"/>
      <path id="Path_5811" data-name="Path 5811" d="M375.98,66.358c0,.018-.067.027-.158,0a.606.606,0,0,1-.367-.606c0-.094.042-.145.064-.142a2.051,2.051,0,0,0,.161.415C375.807,66.225,375.989,66.316,375.98,66.358Z" transform="translate(-298.802 -57.72)" fill="#fff"/>
      <path id="Path_5812" data-name="Path 5812" d="M367.1,60.3c0,.018-.076.021-.176-.03a.682.682,0,0,1-.321-.74c.03-.106.082-.158.1-.149a1.33,1.33,0,0,0,.085.509C366.9,60.144,367.113,60.254,367.1,60.3Z" transform="translate(-292.621 -53.376)" fill="#fff"/>
      <path id="Path_5813" data-name="Path 5813" d="M309.757,257.613c0,.039-1.47.546-3.313,1.124s-3.334,1.015-3.355.973,1.467-.546,3.31-1.124S309.73,257.571,309.757,257.613Z" transform="translate(-248.369 -191.53)" fill="#263238"/>
      <path id="Path_5814" data-name="Path 5814" d="M317.529,263.51a28.188,28.188,0,0,1-3.249,2.631A27.508,27.508,0,0,1,317.529,263.51Z" transform="translate(-256.169 -195.642)" fill="#263238"/>
      <path id="Path_5815" data-name="Path 5815" d="M326.161,270.26a29.822,29.822,0,0,1-2.431,3.649,30.451,30.451,0,0,1,2.425-3.637Z" transform="translate(-262.754 -200.346)" fill="#263238"/>
      <path id="Path_5816" data-name="Path 5816" d="M439.208,162.51A18.646,18.646,0,0,1,437.356,164a17.4,17.4,0,0,1-1.946,1.367,18.217,18.217,0,0,1,1.852-1.494,17.391,17.391,0,0,1,1.946-1.367Z" transform="translate(-340.587 -125.252)" fill="#263238"/>
      <path id="Path_5817" data-name="Path 5817" d="M441.492,177.08a37.776,37.776,0,0,1-4.752.764,36.367,36.367,0,0,1,4.752-.764Z" transform="translate(-341.514 -135.406)" fill="#263238"/>
      <path id="Path_5818" data-name="Path 5818" d="M442.111,188.828a5.876,5.876,0,0,1-1.8-.406,5.773,5.773,0,0,1-1.661-.809c.021-.042.758.327,1.712.661S442.12,188.779,442.111,188.828Z" transform="translate(-342.845 -142.744)" fill="#263238"/>
    </g>
  </g>
</svg>
