<svg xmlns="http://www.w3.org/2000/svg" width="43.472" height="26.174" viewBox="0 0 43.472 26.174">
  <g id="mastercard-4-logo-svgrepo-com" transform="translate(-14.174 -46.885)">
    <path id="Path_4505" data-name="Path 4505" d="M84.482,69.666A12.843,12.843,0,0,0,93.2,73.059a13.087,13.087,0,0,0,0-26.174,12.842,12.842,0,0,0-8.717,3.392,13.1,13.1,0,0,0,0,19.389Z" transform="translate(-48.561 0)" fill="#fa9f10" fill-rule="evenodd"/>
    <path id="Path_4506" data-name="Path 4506" d="M172.041,122.824a.4.4,0,0,1,.4-.4.408.408,0,0,1,.427.4.413.413,0,0,1-.427.427A.408.408,0,0,1,172.041,122.824Zm.4.337a.345.345,0,0,0,.337-.337.326.326,0,0,0-.337-.314.321.321,0,0,0-.314.314A.342.342,0,0,0,172.445,123.162Zm-.045-.135h-.09v-.382h.157a.133.133,0,0,1,.09.023c.045.022.045.045.045.09s-.022.09-.067.09l.09.18h-.113l-.045-.158H172.4V122.8h.09c.022,0,.022-.023.022-.045s0-.023-.022-.045h-.09Z" transform="translate(-116.124 -55.562)" fill="#e9b040" fill-rule="evenodd"/>
    <path id="Path_4507" data-name="Path 4507" d="M40.123,58.59c-.045-.472-.135-.921-.225-1.393H31.945a13.706,13.706,0,0,1,.359-1.37h7.212q-.235-.709-.539-1.393H32.866q.337-.714.741-1.393h4.606a11.822,11.822,0,0,0-.988-1.37H34.6a12.922,12.922,0,0,1,1.326-1.393,13.087,13.087,0,1,0,0,19.389,12.455,12.455,0,0,0,1.3-1.371H34.6a15.489,15.489,0,0,1-.989-1.393h4.606a10.448,10.448,0,0,0,.764-1.393H32.866a14.619,14.619,0,0,1-.562-1.371h7.212a14,14,0,0,0,.382-1.393,13.821,13.821,0,0,0,.225-1.393,13.648,13.648,0,0,0,.068-1.371c0-.471-.022-.943-.067-1.392Z" transform="translate(0 0)" fill="#f92a18" fill-rule="evenodd"/>
    <path id="Path_4508" data-name="Path 4508" d="M172.041,106.7a.408.408,0,0,1,.4-.427.413.413,0,0,1,.427.427.416.416,0,1,1-.831,0Zm.4.314a.315.315,0,1,0,0-.629.314.314,0,0,0,0,.629Zm-.045-.135h-.09v-.359h.247c.045.023.045.068.045.113a.121.121,0,0,1-.067.09l.09.157h-.113l-.045-.135H172.4v-.067h.045c.022,0,.045,0,.045-.023.022,0,.022-.022.022-.045a.022.022,0,0,0-.022-.022c0-.023-.023,0-.045,0H172.4Z" transform="translate(-116.124 -43.688)" fill="#fff" fill-rule="evenodd"/>
    <path id="Path_4509" data-name="Path 4509" d="M33.807,92.007a4.155,4.155,0,0,1-1.056.18c-.674,0-1.079-.427-1.079-1.191a4.037,4.037,0,0,1,.045-.494l.09-.516.067-.427.607-3.684H33.83l-.157.809h.854l-.2,1.348H33.47l-.359,2.2a1.033,1.033,0,0,0-.022.225c0,.292.135.4.472.4a2.461,2.461,0,0,0,.427-.045l-.18,1.191Zm4.359-.045a5.286,5.286,0,0,1-1.438.2,2.159,2.159,0,0,1-2.4-2.4c0-1.865,1.034-3.213,2.471-3.213A1.8,1.8,0,0,1,38.682,88.5a6.2,6.2,0,0,1-.157,1.326H35.717a.632.632,0,0,0-.022.18c0,.629.427.943,1.236.943a3.387,3.387,0,0,0,1.46-.337Zm-.831-3.213v-.27a.622.622,0,0,0-.674-.7c-.45,0-.764.337-.9.966h1.573ZM23.023,92.074H21.63l.809-5.1-1.82,5.1h-.966L19.541,87l-.854,5.077h-1.37l1.1-6.627h2.044l.045,4.089,1.37-4.089h2.247l-1.1,6.627Zm3.393-2.4a1.275,1.275,0,0,0-.27-.023c-.809,0-1.213.314-1.213.809a.508.508,0,0,0,.517.562c.674,0,.943-.562.966-1.348Zm1.123,2.4H26.326l.022-.561a1.647,1.647,0,0,1-1.483.651,1.362,1.362,0,0,1-1.258-1.483,2.378,2.378,0,0,1,.112-.7c.224-.832,1.056-1.348,2.336-1.371.157,0,.4,0,.629.023a1.2,1.2,0,0,0,.045-.36c0-.36-.292-.472-.943-.472a3.749,3.749,0,0,0-1.168.18l-.2.045-.09.022.2-1.213a5.272,5.272,0,0,1,1.64-.292c1.213,0,1.865.562,1.865,1.595a5.1,5.1,0,0,1-.067,1.056l-.314,1.932-.045.337-.022.27-.022.18Zm17.412-5.347a2.7,2.7,0,0,1,1.258.359l.247-1.438a3.106,3.106,0,0,0-.359-.135l-.561-.157a3.99,3.99,0,0,0-2.179.2,4.223,4.223,0,0,0-.832.719l-.18-.045-1.438,1.011.068-.562H39.491l-.876,5.392h1.416l.516-2.9s.2-.4.292-.539a.819.819,0,0,1,.786-.337h.113a7.253,7.253,0,0,0-.068,1.033c0,1.752.988,2.853,2.516,2.853a4.54,4.54,0,0,0,1.236-.18l.248-1.528a2.538,2.538,0,0,1-1.191.359c-.831,0-1.326-.629-1.326-1.617,0-1.46.741-2.494,1.8-2.494ZM56.88,85.447l-.314,1.887a1.455,1.455,0,0,0-1.281-.764,2.12,2.12,0,0,0-1.865,1.236v-.022l-.9-.539.09-.562H51.106l-.854,5.392h1.393l.472-2.9s.359-.4.449-.539A.878.878,0,0,1,53.2,88.3a4.859,4.859,0,0,0-.247,1.6c0,1.348.7,2.246,1.73,2.246a1.633,1.633,0,0,0,1.3-.607l-.067.539H57.24l1.078-6.627Zm-1.73,5.347c-.472,0-.719-.359-.719-1.056,0-1.056.449-1.82,1.1-1.82.494,0,.742.382.742,1.056C56.274,90.052,55.825,90.794,55.151,90.794ZM48.658,89.67a1.275,1.275,0,0,0-.27-.023c-.809,0-1.214.314-1.214.809a.509.509,0,0,0,.517.562C48.366,91.018,48.635,90.456,48.658,89.67Zm1.123,2.4H48.545l.045-.561a1.647,1.647,0,0,1-1.483.651,1.367,1.367,0,0,1-1.3-1.483c0-1.28.966-2.067,2.493-2.067a5.826,5.826,0,0,1,.607.023,1.383,1.383,0,0,0,.068-.36c0-.36-.292-.472-.966-.472a3.856,3.856,0,0,0-1.168.18l-.18.045-.09.022.2-1.213a5.276,5.276,0,0,1,1.64-.292c1.213,0,1.842.562,1.842,1.595a3.869,3.869,0,0,1-.067,1.056l-.292,1.932-.045.337-.045.27-.022.18v.157Zm-19.3-4.246a6.663,6.663,0,0,1,1.056.09l.2-1.258c-.4-.045-.944-.112-1.258-.112-1.572,0-2.089.854-2.089,1.842a1.535,1.535,0,0,0,1.056,1.483c.562.27.652.314.652.562,0,.337-.292.539-.831.539a3.762,3.762,0,0,1-1.281-.225l-.157,1.235.022.023.27.045a3.538,3.538,0,0,0,.36.067c.337.023.629.045.809.045,1.573,0,2.224-.606,2.224-1.8a1.534,1.534,0,0,0-1.056-1.5c-.607-.27-.674-.314-.674-.562S30.056,87.828,30.482,87.828Z" transform="translate(-2.312 -28.249)" fill="#1b3771" fill-rule="evenodd"/>
    <path id="Path_4510" data-name="Path 4510" d="M48.026,84.1l-.247,1.438a2.7,2.7,0,0,0-1.258-.359c-1.056,0-1.8,1.033-1.8,2.494,0,1.011.494,1.617,1.326,1.617a2.758,2.758,0,0,0,1.19-.337l-.247,1.5a4.68,4.68,0,0,1-1.236.2c-1.528,0-2.471-1.1-2.471-2.876,0-2.359,1.3-4.022,3.168-4.022a2.764,2.764,0,0,1,.651.067l.562.135c.18.067.225.09.36.135Zm-4.538.989h-.135c-.471,0-.741.225-1.168.876l.135-.831H41.039l-.876,5.392h1.416c.516-3.3.651-3.864,1.325-3.864h.09a5.648,5.648,0,0,1,.539-1.55Zm-8.133,5.369a2.915,2.915,0,0,1-1.011.18,1.039,1.039,0,0,1-1.124-1.19,3.7,3.7,0,0,1,.045-.472l.09-.539.067-.427.607-3.685h1.393l-.157.809h.719l-.18,1.326h-.719L34.7,88.7a.844.844,0,0,0-.022.225c0,.27.135.382.472.382a.935.935,0,0,0,.382-.045l-.18,1.19ZM29.94,86.839A1.573,1.573,0,0,0,31,88.344c.584.27.674.359.674.584,0,.337-.247.494-.809.494a4.2,4.2,0,0,1-1.258-.2l-.2,1.235.067.023.247.045a1.476,1.476,0,0,0,.382.045,5.192,5.192,0,0,0,.764.045c1.483,0,2.179-.562,2.179-1.8a1.494,1.494,0,0,0-.988-1.505c-.607-.27-.674-.337-.674-.584,0-.292.247-.427.7-.427a8.771,8.771,0,0,1,1.011.067l.2-1.236a8.135,8.135,0,0,0-1.236-.112c-1.573,0-2.134.831-2.112,1.819Zm28.847,3.685H57.462l.068-.517a1.683,1.683,0,0,1-1.3.584c-1.033,0-1.707-.876-1.707-2.224,0-1.8,1.056-3.325,2.291-3.325a1.615,1.615,0,0,1,1.349.741l.314-1.887h1.393l-1.078,6.628ZM56.72,89.265c.652,0,1.1-.764,1.1-1.82,0-.7-.247-1.056-.742-1.056-.629,0-1.1.741-1.1,1.8Q55.979,89.266,56.72,89.265ZM39.668,90.411a4.6,4.6,0,0,1-1.46.225,2.14,2.14,0,0,1-2.382-2.426c0-1.842,1.034-3.213,2.449-3.213a1.8,1.8,0,0,1,1.909,1.955A5.431,5.431,0,0,1,40,88.3H37.22a.441.441,0,0,0-.022.158c0,.629.427.943,1.236.943a3.09,3.09,0,0,0,1.46-.337ZM38.882,87.2v-.269a.622.622,0,0,0-.674-.7c-.449,0-.764.337-.9.966h1.573ZM24.571,90.523H23.178l.809-5.1-1.82,5.1H21.2l-.112-5.055-.854,5.055h-1.3l1.1-6.628h2.022l.067,4.111L23.47,83.9h2.2l-1.1,6.628Zm3.482-2.4c-.135,0-.2-.022-.315-.022-.786,0-1.191.292-1.191.831a.474.474,0,0,0,.494.539C27.626,89.467,28.031,88.928,28.053,88.119Zm1.033,2.4H27.918l.022-.562a1.751,1.751,0,0,1-1.483.652,1.3,1.3,0,0,1-1.281-1.46c0-1.325.9-2.089,2.471-2.089.157,0,.36.022.584.045a1.133,1.133,0,0,0,.045-.337c0-.359-.247-.494-.9-.494a4.634,4.634,0,0,0-1.168.135l-.2.067-.135.022.2-1.213a5.65,5.65,0,0,1,1.685-.27c1.213,0,1.865.539,1.865,1.572a6.8,6.8,0,0,1-.112,1.079L29.2,89.58l-.045.337-.022.27-.022.2-.022.134Zm21.209-2.4c-.158,0-.225-.022-.314-.022-.809,0-1.214.292-1.214.831a.49.49,0,0,0,.517.539C49.846,89.467,50.273,88.928,50.3,88.119Zm1.033,2.4H50.16l.022-.562a1.75,1.75,0,0,1-1.483.652,1.305,1.305,0,0,1-1.281-1.46c0-1.325.9-2.089,2.471-2.089.158,0,.36.022.562.045a1.429,1.429,0,0,0,.068-.337c0-.359-.248-.494-.9-.494a4.82,4.82,0,0,0-1.191.135l-.18.067-.135.022.2-1.213A5.652,5.652,0,0,1,50,85.019c1.213,0,1.842.539,1.842,1.572a4.834,4.834,0,0,1-.112,1.079l-.292,1.91-.045.337-.045.27-.022.2v.134h0ZM55.1,85.087h-.135c-.471,0-.741.225-1.168.876l.135-.831H52.654L51.8,90.523h1.393c.517-3.3.652-3.864,1.326-3.864h.09a5.648,5.648,0,0,1,.539-1.55Z" transform="translate(-3.5 -27.125)" fill="#fff" fill-rule="evenodd"/>
  </g>
</svg>
