<svg xmlns="http://www.w3.org/2000/svg" width="71.696" height="62.013" viewBox="0 0 71.696 62.013">
  <g id="high-risk-icon" transform="translate(0.007 0)">
    <path id="Path_4071" data-name="Path 4071" d="M63.08,53.834,76.93,70.56a.315.315,0,0,1,0,.42l-1.651,2.013a.321.321,0,0,1-.42.064L57.1,61.343c-2.374-1.709-3.057-3.769-2.719-5.542a4.807,4.807,0,0,1,1.167-2.334,4.831,4.831,0,0,1,7.514.338h0Z" transform="translate(-22.625 -21.596)" fill="#c00"/>
    <path id="Path_4072" data-name="Path 4072" d="M11.274,61.94A35.847,35.847,0,1,1,65.7,55.563a36.661,36.661,0,0,1-4.434,5.426.292.292,0,0,1-.408,0L59.066,59.2a.263.263,0,0,1-.1-.064l-4.994-4.994a.292.292,0,0,1,0-.408l2.614-2.619a.292.292,0,0,1,.408,0l3.856,3.856A31.929,31.929,0,0,0,63.1,51.648,31.119,31.119,0,0,0,67.38,36.48H62.071a.292.292,0,0,1-.292-.292V32.5a.292.292,0,0,1,.292-.292h5.111a31.346,31.346,0,0,0-2.754-9.673A31.848,31.848,0,0,0,58.7,14.147L55.28,17.566a.292.292,0,0,1-.408,0l-2.619-2.619a.292.292,0,0,1,0-.408l3.3-3.3a31.638,31.638,0,0,0-8.675-4.959,23.629,23.629,0,0,0-8.518-1.972V8.979a.292.292,0,0,1-.292.292h-3.71a.292.292,0,0,1-.292-.292V4.428a38.846,38.846,0,0,0-10.9,2.5,31.69,31.69,0,0,0-8.413,5.426l3.425,3.425a.292.292,0,0,1,0,.408L15.55,18.809a.292.292,0,0,1-.408,0l-3.384-3.384a31.5,31.5,0,0,0-5.251,8.669,31.865,31.865,0,0,0-2.17,9.877H9.588a.292.292,0,0,1,.292.292v3.71a.292.292,0,0,1-.292.292H4.337a31.305,31.305,0,0,0,.788,5.006,30.99,30.99,0,0,0,1.7,5.087,31.684,31.684,0,0,0,2.124,4.084,30.738,30.738,0,0,0,2.5,3.5l4.224-4.224a.292.292,0,0,1,.408,0l2.619,2.619a.292.292,0,0,1,0,.408c-2.363,2.386-4.7,4.7-7.03,7.182a.28.28,0,0,1-.4,0Z" transform="translate(0 0)" fill="#333"/>
  </g>
</svg>
