<svg xmlns="http://www.w3.org/2000/svg" width="52.125" height="25.805" viewBox="0 0 52.125 25.805">
  <g id="Meeza_whitebg" transform="translate(-3.995 -5.6)">
    <g id="Group_6776" data-name="Group 6776" transform="translate(3.995 5.6)">
      <path id="Path_4511" data-name="Path 4511" d="M23.848,5.6,22,31.4H13.074c-8.813,0-9.421-3.4-8.974-9.83L5.54,5.6H23.848Z" transform="translate(-3.995 -5.6)" fill="#510c76"/>
      <path id="Path_4512" data-name="Path 4512" d="M21.745,14.678,21.423,19.4a3.122,3.122,0,0,0,2.83,3.4h1.725a3.644,3.644,0,0,0,3.562-3.4l.534-8.105H25.357a3.643,3.643,0,0,0-3.6,3.4ZM26.661,19.4a.518.518,0,0,1-.5.447h-1.44a.384.384,0,0,1-.41-.41V19.4l.323-4.717a.518.518,0,0,1,.5-.447h1.887L26.648,19.4Z" transform="translate(0.206 -4.228)" fill="#510c76"/>
      <path id="Path_4513" data-name="Path 4513" d="M46.636,11.287H41.845l-.534,8.105a3.082,3.082,0,0,0,.087.906h-.211c-1.514,0-2.259-1.067-2.135-3.029l.248-3.438h0l.087-1.229A1.317,1.317,0,0,0,38.2,11.25H36.471L36.384,12.6l-.211,3.277v.534l-.037.372v.5h0L36.1,18.1a7.985,7.985,0,0,0,.124,1.961,2.2,2.2,0,0,1-1.142.285c-1.316,0-2.991-.41-2.991-2.706l.248-5A1.214,1.214,0,0,0,31.2,11.287H29.47l-.087,1.353L28.6,24.394c-.037.732-.161,2.582-.161,2.582h1.6a1.487,1.487,0,0,0,1.44-1.353l.161-2.867a6.36,6.36,0,0,0,2.3.372,3.9,3.9,0,0,0,2.954-1.353,3.882,3.882,0,0,0,3.153,1.353,4.378,4.378,0,0,0,2.582-.819,2.421,2.421,0,0,0,1.03.621h0a2.4,2.4,0,0,0,.782.087h1.44a3.706,3.706,0,0,0,3.6-3.4l.323-4.878a3.122,3.122,0,0,0-2.83-3.4,1.113,1.113,0,0,0-.323-.037Zm-.087,8.279a.49.49,0,0,1-.5.447h-1.44a.384.384,0,0,1-.41-.41v-.037l.323-5.325h1.887a.384.384,0,0,1,.41.41v.037l-.285,4.878Z" transform="translate(1.902 -4.237)" fill="#510c76"/>
      <path id="Path_4514" data-name="Path 4514" d="M23.038,9.279,23,9.937a1.14,1.14,0,0,0,1.03,1.229h.621a1.343,1.343,0,0,0,1.316-1.229l.124-1.887H24.329a1.289,1.289,0,0,0-1.266,1.229Z" transform="translate(0.589 -5.009)" fill="#510c76"/>
      <path id="Path_4515" data-name="Path 4515" d="M25.708,9.279l-.037.658a1.143,1.143,0,0,0,1.067,1.229h.571a1.343,1.343,0,0,0,1.316-1.229l.124-1.887H27.023a1.317,1.317,0,0,0-1.316,1.229Z" transform="translate(1.233 -5.009)" fill="#510c76"/>
      <path id="Path_4516" data-name="Path 4516" d="M30.492,11.118h.658a1.143,1.143,0,0,0,1.229-1.067v-.037l.037-.534c.037-.7-.323-1.44-.981-1.44H29.424L29.3,9.765a1.285,1.285,0,0,0,1.192,1.353Z" transform="translate(2.109 -5.011)" fill="#eb6b24"/>
      <path id="Path_4517" data-name="Path 4517" d="M31.488,22.639l-.037.658a1.14,1.14,0,0,0,1.03,1.229h.658A1.343,1.343,0,0,0,34.454,23.3l.124-1.887H32.853A1.345,1.345,0,0,0,31.5,22.639Z" transform="translate(2.627 -1.787)" fill="#510c76"/>
      <path id="Path_4518" data-name="Path 4518" d="M34.328,22.639l-.037.658a1.14,1.14,0,0,0,1.03,1.229h.621A1.343,1.343,0,0,0,37.257,23.3l.124-1.887H35.656a1.345,1.345,0,0,0-1.316,1.229Z" transform="translate(3.312 -1.787)" fill="#510c76"/>
      <path id="Path_4519" data-name="Path 4519" d="M36.759,11.107h-.372c-.087,0-.087-.037-.087-.087l.124-1.552V9.1a.223.223,0,0,0-.248-.248h-.41a.036.036,0,0,0-.037.037,2.17,2.17,0,0,1,0,.7c-.037.323-.037.7-.087,1.03a1.267,1.267,0,0,1-.037.372c-.037.124-.037.087-.124.087h-.732a.077.077,0,0,1-.087-.087c.037-.534.087-1.067.124-1.6V9.01a.2.2,0,0,0-.161-.211h-.447a.036.036,0,0,0-.037.037c-.037.323-.037.658-.087.981s-.037.732-.087,1.1c0,.087-.037.124-.124.124H33.11c-.087,0-.124-.037-.087-.124.037-.534.087-1.1.124-1.638.037-.372.037-.732.087-1.1,0-.087.037-.087.124-.124.211-.037.372-.037.571-.087a4,4,0,0,1,.943,0,2.766,2.766,0,0,1,.534.124h.087a2.933,2.933,0,0,1,1.03-.161,1.426,1.426,0,0,1,.447.087.741.741,0,0,1,.5.534,1.951,1.951,0,0,1,0,.658l-.087,1.353a1.267,1.267,0,0,1-.037.372c-.037.124-.037.087-.124.087l-.447.087Z" transform="translate(3.004 -5.038)" fill="#510c76"/>
      <path id="Path_4520" data-name="Path 4520" d="M40.9,9.843h-.819a.085.085,0,0,0-.087.087c0,.248.087.372.323.372h1.142c.087,0,.124,0,.124.124a2.823,2.823,0,0,1-.037.534.093.093,0,0,1-.087.087h0a6.116,6.116,0,0,1-.819.087h-.732a1.365,1.365,0,0,1-.5-.161.631.631,0,0,1-.285-.5,3.3,3.3,0,0,1,0-.856,2.112,2.112,0,0,1,.124-.732.878.878,0,0,1,.447-.621,1.278,1.278,0,0,1,.447-.161,5.111,5.111,0,0,1,1.067,0,.879.879,0,0,1,.447.211.8.8,0,0,1,.248.534,4.318,4.318,0,0,1,0,.981.093.093,0,0,1-.087.087h-.161l-.782-.037Zm-.819-.571h.732q.211,0,.161-.211c0-.124-.124-.211-.248-.248h-.285a.31.31,0,0,0-.323.248c-.037.037-.037.124-.037.211Z" transform="translate(4.472 -5.002)" fill="#510c76"/>
      <path id="Path_4521" data-name="Path 4521" d="M38.54,9.853h-.782c-.087,0-.087.037-.087.087,0,.248.087.323.323.372h1.142c.087,0,.124,0,.087.087,0,.161-.037.372-.037.534a.093.093,0,0,1-.087.087h0c-.248.037-.534.037-.782.087a7.788,7.788,0,0,1-.906-.037,1.459,1.459,0,0,1-.372-.124.791.791,0,0,1-.323-.534,4,4,0,0,1,0-.943,2.671,2.671,0,0,1,.087-.621.874.874,0,0,1,.447-.658.782.782,0,0,1,.447-.124,5.476,5.476,0,0,1,1.1,0,.879.879,0,0,1,.447.211.665.665,0,0,1,.248.534v.906s-.037.124-.124.124l-.856.037h0Zm.087-.571V9.034a.226.226,0,0,0-.211-.211H38.13c-.248,0-.372.211-.372.447h.856Z" transform="translate(3.891 -5.012)" fill="#510c76"/>
      <path id="Path_4522" data-name="Path 4522" d="M44.693,8.8h-.534c-.087,0-.124-.037-.087-.087,0-.161.037-.372.037-.534A.093.093,0,0,1,44.2,8.09,4.358,4.358,0,0,1,45.462,8a2.192,2.192,0,0,1,.571.087.717.717,0,0,1,.5.658,9.366,9.366,0,0,1-.087,1.142l-.037.856c0,.161-.037.211-.211.248a6.939,6.939,0,0,1-1.6.087c-.124,0-.285-.037-.41-.037a.561.561,0,0,1-.41-.447,1.407,1.407,0,0,1,.087-.819.661.661,0,0,1,.621-.447,1.813,1.813,0,0,1,.447-.037h.621a.036.036,0,0,0,.037-.037V9.219c0-.211-.087-.323-.323-.323l-.571-.087Zm.819.981h-.571a.235.235,0,0,0-.248.211v.124a.2.2,0,0,0,.161.211h.037a2.7,2.7,0,0,0,.571-.037.036.036,0,0,0,.037-.037.9.9,0,0,1,0-.447h0Z" transform="translate(5.595 -5.024)" fill="#510c76"/>
      <path id="Path_4523" data-name="Path 4523" d="M42.8,10.267h1.229a.137.137,0,0,1,.037.087c0,.211-.037.41-.037.621,0,.087-.037.087-.124.087H41.534c-.124,0-.124-.037-.124-.124a1.67,1.67,0,0,1,.037-.41c0-.037.037-.087.037-.124L42.626,9.05l.211-.248h-1.1a.11.11,0,0,1-.124-.124l.037-.534c0-.087.037-.124.124-.124h2.3c.087,0,.124.037.087.124a1.813,1.813,0,0,1-.037.447.163.163,0,0,1-.037.124c-.41.5-.819,1.03-1.229,1.514l-.037.037Z" transform="translate(5.03 -5.016)" fill="#510c76"/>
      <path id="Path_4524" data-name="Path 4524" d="M38.857,21.54A1.426,1.426,0,0,0,37.5,22.893l-.124,1.6h8.192a1.426,1.426,0,0,0,1.353-1.353l.124-1.6Z" transform="translate(4.058 -1.755)" fill="#eb6b24"/>
      <path id="Path_4525" data-name="Path 4525" d="M14.536,22.9H9.869A1.208,1.208,0,0,1,8.64,21.668v-.124L9.3,12.533a1.539,1.539,0,0,1,1.44-1.353h4.63A1.208,1.208,0,0,1,16.6,12.409v.124l-.658,9.011a1.432,1.432,0,0,1-1.39,1.353Zm-3.9-10.774a.437.437,0,0,0-.447.41l-.658,9.011a.384.384,0,0,0,.41.41H14.61a.437.437,0,0,0,.447-.41l.658-9.011a.384.384,0,0,0-.41-.41Z" transform="translate(-2.874 -4.254)" fill="#fff"/>
      <path id="Path_4526" data-name="Path 4526" d="M15.624,18.31l-.087.906H9.07l.087-.906Z" transform="translate(-2.77 -2.534)" fill="#fff"/>
    </g>
  </g>
</svg>
