<svg id="My_Services" data-name="My Services" xmlns="http://www.w3.org/2000/svg" width="37.142" height="32" viewBox="0 0 37.142 32">
  <path id="Path_3222" data-name="Path 3222" d="M202.7-476.792a2.521,2.521,0,0,0-1.589,1.64,4.594,4.594,0,0,0,0,2,.833.833,0,0,0,1.117.334c.348-.181.4-.3.443-1.117s.123-1.03.428-1.19c.254-.138,9.049-.138,9.3,0,.3.16.377.37.428,1.19s.094.936.443,1.117a.833.833,0,0,0,1.117-.334,4.593,4.593,0,0,0,0-2,2.659,2.659,0,0,0-.943-1.313c-.668-.472-.61-.464-5.747-.457C203.489-476.923,203.032-476.908,202.7-476.792Z" transform="translate(-189.178 476.925)"/>
  <path id="Path_3223" data-name="Path 3223" d="M40.165-395.574a2.42,2.42,0,0,0-1.821,1.364l-.239.486-.022,3.149c-.022,3.011-.015,3.171.131,3.643a2.584,2.584,0,0,0,1.313,1.509c.254.116,13.446,3.127,13.678,3.127.007,0,.029.675.044,1.5.022,1.654.044,1.741.464,1.945a35.942,35.942,0,0,0,5.863,0c.421-.2.443-.29.464-1.945.015-.827.036-1.5.044-1.5.232,0,13.424-3.011,13.678-3.127a2.584,2.584,0,0,0,1.313-1.509c.145-.472.152-.631.131-3.643l-.022-3.149-.2-.435a2.717,2.717,0,0,0-1.342-1.284l-.414-.167-16.363-.007C47.864-395.625,40.347-395.6,40.165-395.574ZM73.2-393.76a.87.87,0,0,1,.283.421,54.318,54.318,0,0,1-.022,5.957.916.916,0,0,1-.268.377c-.116.087-2.38.624-6.64,1.575l-6.458,1.444-.044-.421c-.058-.581-.181-.834-.464-.965a33.119,33.119,0,0,0-5.878,0c-.283.131-.406.385-.464.965l-.044.421-6.458-1.444c-4.259-.951-6.523-1.488-6.64-1.575a.916.916,0,0,1-.268-.377,54.057,54.057,0,0,1-.022-5.943.932.932,0,0,1,.268-.414l.2-.167H56.63C72.985-393.905,72.985-393.905,73.2-393.76ZM58.313-382.114v1.705H54.975v-3.41h3.338Z" transform="translate(-38.073 401.507)"/>
  <path id="Path_3224" data-name="Path 3224" d="M50.637-232.478a.884.884,0,0,0-.385.276c-.145.21-.145.239-.131,6.19l.022,5.972.189.406a2.614,2.614,0,0,0,1.219,1.219l.406.189h31.71l.406-.189a2.614,2.614,0,0,0,1.219-1.219l.189-.406.022-5.972c.015-5.936.015-5.979-.131-6.182a.918.918,0,0,0-.878-.312.829.829,0,0,0-.6.61c-.022.131-.044,2.728-.044,5.791,0,5.145-.007,5.58-.131,5.812a.605.605,0,0,1-.377.341c-.341.116-30.585.131-31.006.015-.551-.152-.515.239-.559-6.269-.036-6.124-.029-5.979-.356-6.182A1.071,1.071,0,0,0,50.637-232.478Z" transform="translate(-49.242 250.227)"/>
</svg>
