<svg xmlns="http://www.w3.org/2000/svg" width="16.024" height="19.553" viewBox="0 0 16.024 19.553">
  <g id="Screenshot_2024-03-26_at_8.09.44_PM" data-name="Screenshot 2024-03-26 at 8.09.44 PM" transform="translate(-133.529 1183.901)">
    <path id="Path_5188" data-name="Path 5188" d="M141.131-1183.751l-.516.223-.656.287c-.791.347-2.051.9-2.212.979-.083.038-1.061.474-2.175.969s-2.03.906-2.038.911c-.019.021.019,5.793.041,6.215a9.316,9.316,0,0,0,.3,1.834,10.714,10.714,0,0,0,.823,2.22,11.475,11.475,0,0,0,1.657,2.512c.2.229.817.849,1.061,1.057a9.82,9.82,0,0,0,3.947,2.147l.169.049.356-.1a9.934,9.934,0,0,0,4.22-2.509,11.519,11.519,0,0,0,3.345-6.646c.06-.422.073-1.041.086-4.016l.011-2.766-.84-.373-2.529-1.121c-.928-.412-1.869-.828-2.09-.924s-.677-.294-1.012-.441c-.954-.416-1.53-.656-1.567-.654A3.591,3.591,0,0,0,141.131-1183.751Zm-2.672,5.859a20.983,20.983,0,0,1,1.584,1.536l1.491,1.49,1.5-1.5a21.58,21.58,0,0,1,1.592-1.539.574.574,0,0,1,.426-.006.513.513,0,0,1,.306.465c0,.24.086.145-1.575,1.809l-1.507,1.509,1.491,1.49c1.65,1.65,1.594,1.584,1.594,1.819a.51.51,0,0,1-.514.51c-.219,0-.154.058-1.8-1.584l-1.506-1.5-1.5,1.5c-.829.825-1.532,1.515-1.562,1.53a.739.739,0,0,1-.156.047.513.513,0,0,1-.564-.711,14.9,14.9,0,0,1,1.543-1.607l1.5-1.5-1.5-1.506c-1.629-1.627-1.582-1.577-1.584-1.783A.509.509,0,0,1,138.459-1177.892Z" transform="translate(0)" fill="#c00"/>
  </g>
</svg>
