<svg xmlns="http://www.w3.org/2000/svg" width="17.755" height="22.041" viewBox="0 0 17.755 22.041">
  <g id="notification-svgrepo-com" transform="translate(-181.171 -9.629)">
    <path id="Path_4556" data-name="Path 4556" d="M911.483,300.492a2.6,2.6,0,0,1,1.493.653,2.421,2.421,0,0,1,.9,1.869.387.387,0,1,0,.774,0,3.423,3.423,0,0,0-3.165-3.3.387.387,0,1,0,0,.774Z" transform="translate(-720.911 -286.507)" fill="#919191"/>
    <path id="Path_4557" data-name="Path 4557" d="M198.141,24.828c-.143-.233-.3-.483-.451-.752a.386.386,0,0,0-.1-.169,8.505,8.505,0,0,1-1.207-4.259c0-4.2-2.315-7.689-5.415-8.412a1.069,1.069,0,1,0-1.847,0c-3.1.723-5.415,4.216-5.415,8.412a9.487,9.487,0,0,1-1.755,5.18c-.584.95-1.006,1.637-.66,2.256.429.767,1.855,1.039,6.513,1.1a2.463,2.463,0,1,0,4.479,0c4.657-.061,6.084-.333,6.513-1.1C199.146,26.465,198.724,25.778,198.141,24.828ZM190.048,30.9a1.688,1.688,0,0,1-1.35-2.7c.426,0,.875,0,1.349.005h0c.475,0,.924,0,1.349-.005a1.688,1.688,0,0,1-1.35,2.7Zm8.077-4.19c-.073.131-.408.372-1.835.524-1,.107-2.406.165-4.553.185-.518,0-1.079.008-1.688.008s-1.17,0-1.688-.008c-2.147-.02-3.554-.078-4.553-.185-1.427-.152-1.762-.394-1.835-.524-.125-.223.248-.831.643-1.473.126-.205.263-.429.4-.67h1.622a.387.387,0,0,0,0-.774h-1.2a9.034,9.034,0,0,0,1.043-4.142,9.223,9.223,0,0,1,1.659-5.427,4.427,4.427,0,0,1,7.809,0,9.223,9.223,0,0,1,1.659,5.427,9.032,9.032,0,0,0,1.043,4.142h-10.33a.387.387,0,0,0,0,.774h10.753c.14.241.278.464.4.67C197.876,25.876,198.249,26.483,198.125,26.706Z" fill="#919191"/>
  </g>
</svg>
