<svg xmlns="http://www.w3.org/2000/svg" width="31.916" height="22.067" viewBox="0 0 31.916 22.067">
  <g id="binoculars-eye-svgrepo-com" transform="translate(0 -79.005)">
    <g id="Group_6841" data-name="Group 6841" transform="translate(0 79.005)">
      <g id="Group_6840" data-name="Group 6840">
        <path id="Path_4584" data-name="Path 4584" d="M31.17,90.592c-.218-.442-4.89-8.143-5.009-8.336a4.746,4.746,0,0,0-4.741-2.209v0a2.187,2.187,0,0,0-4.05,1.146v3.822H14.546V81.192A2.187,2.187,0,0,0,10.5,80.048a4.746,4.746,0,0,0-4.741,2.209c-.012.02-.049.079-.928,1.553a.534.534,0,0,0,.917.547c.723-1.213.9-1.507.92-1.54a3.679,3.679,0,0,1,6.814,1.927h0v5.264a7.267,7.267,0,0,0-9.5-2.693l.792-1.328a.534.534,0,1,0-.918-.547C2.72,87.343.934,90.2.708,90.67A7.273,7.273,0,1,0,14.546,93.8V92.379H17.37V93.8a7.273,7.273,0,1,0,13.8-3.207ZM13.478,81.747a4.771,4.771,0,0,0-1.864-1.39,1.118,1.118,0,0,1,1.864.835v.555ZM7.273,100a6.2,6.2,0,1,1,6.2-6.2A6.212,6.212,0,0,1,7.273,100ZM14.546,89.26V86.083H17.37V89.26Zm2.824,2.051H14.546v-.983H17.37Zm1.068-10.119a1.119,1.119,0,0,1,1.864-.835,4.772,4.772,0,0,0-1.864,1.39Zm0,3.552h0a3.679,3.679,0,0,1,6.814-1.927c.064.1,1.4,2.343,2.683,4.5a7.267,7.267,0,0,0-9.5,2.693V84.744ZM24.643,100a6.2,6.2,0,1,1,6.2-6.2A6.212,6.212,0,0,1,24.643,100Z" transform="translate(0 -79.005)" fill="#989898"/>
      </g>
    </g>
    <g id="Group_6843" data-name="Group 6843" transform="translate(19.668 88.823)">
      <g id="Group_6842" data-name="Group 6842" transform="translate(0 0)">
        <path id="Path_4585" data-name="Path 4585" d="M325.176,239.8a.534.534,0,0,0-1.005.361,3.911,3.911,0,1,1-.817-1.339.534.534,0,1,0,.782-.728,4.96,4.96,0,1,0,1.04,1.705Z" transform="translate(-315.518 -236.512)" fill="#989898"/>
      </g>
    </g>
    <g id="Group_6845" data-name="Group 6845" transform="translate(2.298 88.824)">
      <g id="Group_6844" data-name="Group 6844">
        <path id="Path_4586" data-name="Path 4586" d="M41.841,236.514a4.975,4.975,0,1,0,4.975,4.975A4.981,4.981,0,0,0,41.841,236.514Zm0,8.882a3.907,3.907,0,1,1,3.907-3.907A3.911,3.911,0,0,1,41.841,245.4Z" transform="translate(-36.866 -236.514)" fill="#989898"/>
      </g>
    </g>
  </g>
</svg>
