<svg xmlns="http://www.w3.org/2000/svg" width="31.709" height="22.776" viewBox="0 0 31.709 22.776">
  <g id="binoculars-1-svgrepo-com" transform="translate(0 -55.146)">
    <path id="Path_4587" data-name="Path 4587" d="M31.639,70.606a6.071,6.071,0,0,0-.157-.713l.045-.005s-2.618-6.355-3.163-8.6a5.45,5.45,0,0,0-3.484-3.641c-.043-.141-.079-.269-.106-.378a3.053,3.053,0,0,0-3.391-2.1,2.875,2.875,0,0,0-2.622,2.876l.047.686a5.049,5.049,0,0,0-1.786,4.023c0,.043.006.088.009.134H14.677c0-.046.006-.09.009-.134A5.049,5.049,0,0,0,12.9,58.736c.019-.268.035-.5.047-.686a2.875,2.875,0,0,0-2.622-2.876,3.053,3.053,0,0,0-3.391,2.1c-.027.109-.062.236-.106.378a5.45,5.45,0,0,0-3.484,3.641c-.545,2.244-3.163,8.6-3.163,8.6l.045.005a6.034,6.034,0,0,0-.156.713c-.543,3.508,2.124,6.755,5.956,7.252s7.378-1.945,7.921-5.453a6,6,0,0,0,.066-.725l.045.006s.012-.172.033-.469h3.525c.021.3.033.469.033.469l.045-.006a6,6,0,0,0,.066.725c.543,3.508,4.089,5.949,7.921,5.453S32.181,74.114,31.639,70.606Zm-20,1.5a4.622,4.622,0,0,1-5.281,3.635,4.356,4.356,0,0,1-3.97-4.835,4.621,4.621,0,0,1,5.281-3.635A4.356,4.356,0,0,1,11.635,72.106Zm13.721,3.635a4.622,4.622,0,0,1-5.281-3.635,4.356,4.356,0,0,1,3.971-4.835,4.621,4.621,0,0,1,5.281,3.635A4.356,4.356,0,0,1,25.356,75.741Z" transform="translate(0 0)" fill="#c00"/>
  </g>
</svg>
