<svg id="credit-card-svgrepo-com" xmlns="http://www.w3.org/2000/svg" width="24" height="24" viewBox="0 0 24 24">
  <path id="Path_4558" data-name="Path 4558" d="M21.75,5H2.25A1.251,1.251,0,0,0,1,6.25v12.5A1.251,1.251,0,0,0,2.25,20h19.5A1.251,1.251,0,0,0,23,18.75V6.25A1.251,1.251,0,0,0,21.75,5ZM22,18.75a.25.25,0,0,1-.25.25H2.25A.25.25,0,0,1,2,18.75V10H22ZM22,8H2V6.25A.25.25,0,0,1,2.25,6h19.5a.25.25,0,0,1,.25.25ZM8,18H3V17H8Zm13,0H19V17h2Zm-3,0H16V17h2Zm-6-2H3V15h9Z" fill="#919191"/>
  <path id="Path_4559" data-name="Path 4559" d="M0,0H24V24H0Z" fill="none"/>
</svg>
