<svg xmlns="http://www.w3.org/2000/svg" width="31" height="20.887" viewBox="0 0 31 20.887">
  <g id="performance" transform="translate(-4 -19)">
    <path id="Path_4555" data-name="Path 4555" d="M19.5,19A15.457,15.457,0,0,0,4,33.958a.892.892,0,0,0,.876.876.93.93,0,0,0,.876-.674,11.118,11.118,0,0,1,10.713-8.085A11,11,0,0,1,22.9,28.13L16.97,33.857c-.168,0-.337-.034-.505-.034A3.032,3.032,0,1,0,19.5,36.855c0-.168-.034-.337-.034-.505l4.716-7.176a11.349,11.349,0,0,1,3,4.986.9.9,0,0,0,.876.674h6.064a.92.92,0,0,0,.64-.27.768.768,0,0,0,.236-.64A15.5,15.5,0,0,0,19.5,19Zm6.03,1.954-4.211,5.491A11.5,11.5,0,0,0,16.8,25.4V19.91a14.077,14.077,0,0,1,2.7-.236A14.992,14.992,0,0,1,25.527,20.954ZM12.052,26.277l-1.617-3.537a14.3,14.3,0,0,1,5.693-2.661V25.4A11.191,11.191,0,0,0,12.052,26.277Zm-6.94,7.715a.253.253,0,0,1-.236.168.217.217,0,0,1-.2-.2A14.926,14.926,0,0,1,6.055,28.2l1.651,1.112A11.83,11.83,0,0,0,5.112,33.991ZM8.177,28.8,6.358,27.591A14.513,14.513,0,0,1,9.9,23.177l1.516,3.369A11.2,11.2,0,0,0,8.177,28.8Zm8.287,10.41a2.358,2.358,0,1,1,2.358-2.358A2.344,2.344,0,0,1,16.465,39.213Zm1.246-5.121,6.6-6.367-.472.707h0a.1.1,0,0,0-.034.067l-4.615,7.041A2.955,2.955,0,0,0,17.711,34.093ZM24.516,28.6,26.5,25.569a.319.319,0,0,0-.067-.438.353.353,0,0,0-.438,0L23.4,27.624a13.022,13.022,0,0,0-1.449-.91l4.211-5.491a15.206,15.206,0,0,1,5.862,5.255L25.46,29.443l-.034.034C25.123,29.174,24.82,28.9,24.516,28.6Zm9.736,5.491a.257.257,0,0,1-.168.067H28.02a.214.214,0,0,1-.2-.168A11.452,11.452,0,0,0,25.83,30.05l6.536-2.965a15.081,15.081,0,0,1,1.954,6.839C34.286,34.025,34.252,34.059,34.252,34.093Z" fill="#919191"/>
  </g>
</svg>
