<svg id="money" xmlns="http://www.w3.org/2000/svg" width="37.994" height="30" viewBox="0 0 37.994 30">
  <path id="Path_2600" data-name="Path 2600" d="M38.593,182.107H6.856V166.873H38.593Z" transform="translate(-6.312 -153.376)" fill="#fff"/>
  <path id="Path_2601" data-name="Path 2601" d="M15.744,71.125l1.834-8.252,28.368,6.383-.335,1.869" transform="translate(-14.495 -57.951)" fill="#fff"/>
  <path id="Path_2602" data-name="Path 2602" d="M56.629,209.029h4.782l2.835-2.766v-4.57l-2.579-2.821H41.691l-2.835,2.766v4.57l2.579,2.821H56.629Z" transform="translate(-35.773 -182.837)" fill="#dbdbdb"/>
  <path id="Path_2603" data-name="Path 2603" d="M96.384,18.1l2.083-4.975,20.646,8.6-.454,1.384" transform="translate(-88.737 -12.24)" fill="#fff"/>
  <ellipse id="Ellipse_535" data-name="Ellipse 535" cx="5.078" cy="5.078" rx="5.078" ry="5.078" transform="translate(10.7 16.036)" fill="#fff"/>
  <path id="Path_2610" data-name="Path 2610" d="M32.281,163.009a.543.543,0,0,0,.544-.543h0v-1.9a.543.543,0,0,0-.543-.544H.544A.543.543,0,0,0,0,160.56H0v15.234a.543.543,0,0,0,.543.544h0l25.142-.175c.3,0-.372-.1-.372-.4s.3-.344,0-.344l-24.226-.173V161.1H31.737v1.36a.543.543,0,0,0,.543.544Z" transform="translate(0 -147.064)"/>
  <path id="Path_2611" data-name="Path 2611" d="M17.587,56.122a.677.677,0,0,0-.24.414L15.789,65.42c-.065.356.462.183.756.262s.53-1.572.6-1.928h0l1.151-6.285,24.858,6.786a.431.431,0,0,0,.12.016.611.611,0,0,0,.543-.661.645.645,0,0,0-.424-.643L18,56.036a.468.468,0,0,0-.411.086Z" transform="translate(-14.815 -52.539)"/>
  <path id="Path_2612" data-name="Path 2612" d="M105.434,11.312l1.042-2.085,18.613,8.258c.278.116,1.166.278,1.282,0s.278-.236,0-.352L106.425,8.024a.546.546,0,0,0-.7.26l-2.776,5.34c-.143.265-1.039-.777-.481-.565s1.279,1.166,1.422.9c.006-.01.118.011.123,0Z" transform="translate(-95.811 -7.982)"/>
  <path id="Path_2613" data-name="Path 2613" d="M262.126,192.561a.544.544,0,0,0-.544-.544h-5.038a.544.544,0,1,0,0,1.088h5.038A.544.544,0,0,0,262.126,192.561Z" transform="translate(-235.688 -176.722)"/>
  <path id="Path_2614" data-name="Path 2614" d="M134.042,203.645a5.586,5.586,0,1,0-5.586-5.586h0A5.591,5.591,0,0,0,134.042,203.645Zm0-10.156a4.57,4.57,0,1,1-4.57,4.57A4.57,4.57,0,0,1,134.042,193.489Z" transform="translate(-118.264 -176.945)"/>
  <path id="Path_2616" data-name="Path 2616" d="M35.593,193.1h4.561a.544.544,0,1,0,0-1.088H35.372a.545.545,0,0,0-.381.154l-2.835,2.766a.682.682,0,0,0-.164.444V199.9a.544.544,0,0,0,.142.367l2.579,2.821a.544.544,0,0,0,.4.177h5.039a.544.544,0,1,0,0-1.088h-4.8l-2.275-2.488v-4.126Z" transform="translate(-29.454 -176.525)"/>
  <path id="Path_2617" data-name="Path 2617" d="M177.078,230.682h-1.587a.635.635,0,1,0,0,1.269h.635a.635.635,0,0,0,1.269,0v-.029a1.478,1.478,0,0,0,1.27-1.4,1.516,1.516,0,0,0-1.587-1.431h-.635c-.2,0-.317-.11-.317-.159s.12-.159.317-.159h1.587a.635.635,0,1,0,0-1.269h-.635a.635.635,0,1,0-1.269,0v.029a1.478,1.478,0,0,0-1.27,1.4,1.516,1.516,0,0,0,1.587,1.431h.635c.2,0,.317.11.317.159S177.275,230.682,177.078,230.682Z" transform="translate(-160.982 -208.721)"/>
  <path id="Path_2604" data-name="Path 2604" d="M310.856,406.873v2.539c0,1.052,2.842,1.9,6.347,1.9s6.347-.852,6.347-1.9v-2.539" transform="translate(-286.192 -382.029)" fill="#d6d6d6"/>
  <path id="Path_2605" data-name="Path 2605" d="M310.856,374.873v2.539c0,1.052,2.842,1.9,6.347,1.9s6.347-.852,6.347-1.9v-2.539" transform="translate(-286.192 -352.568)" fill="#fff"/>
  <path id="Path_2606" data-name="Path 2606" d="M310.856,342.873v2.539c0,1.052,2.842,1.9,6.347,1.9s6.347-.852,6.347-1.9v-2.539" transform="translate(-286.192 -323.203)" fill="#d6d6d6"/>
  <path id="Path_2607" data-name="Path 2607" d="M310.856,310.873v2.539c0,1.052,2.842,1.9,6.347,1.9s6.347-.852,6.347-1.9v-2.539" transform="translate(-286.192 -293.784)" fill="#fff"/>
  <path id="Path_2608" data-name="Path 2608" d="M310.856,278.873v2.539c0,1.052,2.842,1.9,6.347,1.9s6.347-.852,6.347-1.9v-2.539" transform="translate(-286.192 -264.365)" fill="#d6d6d6"/>
  <path id="Path_2609" data-name="Path 2609" d="M310.856,246.873v2.539c0,1.052,2.842,1.9,6.347,1.9s6.347-.853,6.347-1.9v-2.539" transform="translate(-286.192 -234.946)" fill="#fff"/>
  <ellipse id="Ellipse_536" data-name="Ellipse 536" cx="6.347" cy="1.904" rx="6.347" ry="1.904" transform="translate(24.664 9.987)" fill="#9d9d9d"/>
  <path id="Path_2615" data-name="Path 2615" d="M309.838,214.873c-3.364,0-6.982.795-6.982,2.539v15.234c0,1.744,3.618,2.539,6.982,2.539s6.982-.795,6.982-2.539V217.412C316.82,215.668,313.2,214.873,309.838,214.873Zm5.713,15.224c-.1.352-2,1.279-5.713,1.279s-5.617-.927-5.713-1.269v-1a16.847,16.847,0,0,0,11.425,0Zm0-2.539c-.1.352-2,1.279-5.713,1.279s-5.617-.927-5.713-1.27v-1a16.847,16.847,0,0,0,11.425,0Zm0-2.539c-.1.352-2,1.279-5.713,1.279s-5.617-.927-5.713-1.27v-1a16.847,16.847,0,0,0,11.425,0Zm0-2.539c-.1.352-2,1.279-5.713,1.279s-5.617-.927-5.713-1.269v-1a16.847,16.847,0,0,0,11.425,0Zm0-2.539c-.1.352-2,1.279-5.713,1.279s-5.617-.927-5.713-1.27v-1a16.847,16.847,0,0,0,11.425,0Zm-5.713-3.8c3.682,0,5.586.91,5.713,1.27-.127.359-2.031,1.269-5.713,1.269-3.708,0-5.611-.924-5.713-1.258v0C304.228,217.066,306.131,216.142,309.838,216.142Zm0,17.773c-3.713,0-5.617-.927-5.713-1.269v-1a16.847,16.847,0,0,0,11.425,0v.989C315.455,232.989,313.551,233.915,309.838,233.915Z" transform="translate(-278.826 -205.185)"/>
</svg>
