<svg xmlns="http://www.w3.org/2000/svg" width="20.423" height="13.428" viewBox="0 0 20.423 13.428">
  <g id="Preview" transform="translate(-54.5 349.819)">
    <path id="Path_3276" data-name="Path 3276" d="M129.363-349.8a11.652,11.652,0,0,0-4.163,1.106,8.78,8.78,0,0,0-2.185,1.431.467.467,0,0,0,.078.59.369.369,0,0,0,.36.16c.186,0,.247-.026.62-.3a10.458,10.458,0,0,1,9.995-1.227,10.067,10.067,0,0,1,2.276,1.257c.33.243.39.269.577.269a.369.369,0,0,0,.36-.16.467.467,0,0,0,.078-.59,5.5,5.5,0,0,0-1.223-.911,11.475,11.475,0,0,0-6.036-1.648C129.779-349.819,129.445-349.805,129.363-349.8Z" transform="translate(-65.475)" fill="#c00"/>
    <path id="Path_3277" data-name="Path 3277" d="M63.693-301.8a11.313,11.313,0,0,0-1.973.434,11.249,11.249,0,0,0-2.19,1.067c-.416.278-4.388,3.339-4.791,3.69-.234.2-.238.212-.238.438s0,.234.238.438c.4.351,4.375,3.413,4.791,3.69a11.41,11.41,0,0,0,2.22,1.071,9.4,9.4,0,0,0,7.016-.447,9.284,9.284,0,0,0,1.552-.924c1.336-1.015,4.41-3.413,4.5-3.5a.388.388,0,0,0,.108-.325.388.388,0,0,0-.108-.325c-.191-.208-4.644-3.629-5.065-3.894a9.714,9.714,0,0,0-4.124-1.418A11.506,11.506,0,0,0,63.693-301.8Zm1.921,1.036a8.533,8.533,0,0,1,3.655,1.3c.408.269,4.284,3.248,4.284,3.291s-3.876,3.022-4.284,3.291a8.387,8.387,0,0,1-9.145-.026c-.429-.286-4.254-3.222-4.254-3.265s3.824-2.979,4.254-3.265a8.615,8.615,0,0,1,3.612-1.323A10.44,10.44,0,0,1,65.613-300.759Z" transform="translate(0 -45.898)" fill="#c00"/>
    <path id="Path_3278" data-name="Path 3278" d="M212.891-250.57a3.49,3.49,0,0,0-2.844,2.918,3.511,3.511,0,0,0,.525,2.385,3.463,3.463,0,0,0,4.783,1.023,3.461,3.461,0,0,0,1.028-4.783,3.491,3.491,0,0,0-2.038-1.479A4.722,4.722,0,0,0,212.891-250.57Zm1.37,1.132a2.428,2.428,0,0,1,1.539,1.6,2.031,2.031,0,0,1,.082.694,2.239,2.239,0,0,1-.681,1.691,2.418,2.418,0,0,1-4.05-1,2.031,2.031,0,0,1-.082-.694,2.275,2.275,0,0,1,.676-1.691,2.535,2.535,0,0,1,1.275-.7A2.961,2.961,0,0,1,214.261-249.438Z" transform="translate(-148.765 -94.917)" fill="#c00"/>
    <circle id="Ellipse_608" data-name="Ellipse 608" cx="2.5" cy="2.5" r="2.5" transform="translate(62.208 -344.565)"/>
  </g>
</svg>
