<svg xmlns="http://www.w3.org/2000/svg" width="25.533" height="25.857" viewBox="0 0 25.533 25.857">
  <g id="Screenshot_2024-02-09_at_9.16.42_PM" data-name="Screenshot 2024-02-09 at 9.16.42 PM" transform="translate(-51.995 503.723)">
    <path id="Path_3431" data-name="Path 3431" d="M53.729-503.658a2.34,2.34,0,0,0-1.375,1c-.381.6-.358.052-.358,9.231,0,7.452.012,8.359.092,8.642a2.315,2.315,0,0,0,1.005,1.323c.537.341.618.347,3.72.352h2.836l2.426,2.6c1.34,1.433,2.484,2.611,2.559,2.628a.5.5,0,0,0,.26,0c.069-.017,1.213-1.2,2.553-2.628l2.426-2.6H72.71a17.306,17.306,0,0,0,3.148-.1,2.315,2.315,0,0,0,1.323-1.005c.364-.578.347-.058.347-9.219,0-8.145,0-8.335-.116-8.694a2.449,2.449,0,0,0-1.369-1.467c-.271-.116-.462-.116-11.166-.127C56.34-503.728,53.931-503.716,53.729-503.658Zm21.962.936a1.579,1.579,0,0,1,.78.676c.1.173.1.693.1,8.619,0,9.433.04,8.567-.41,9.006-.393.381-.41.381-3.662.381-2.6,0-2.934.012-3.056.092-.069.052-1.15,1.178-2.386,2.5s-2.276,2.4-2.3,2.4-1.057-1.08-2.293-2.4-2.293-2.438-2.357-2.484a15.114,15.114,0,0,0-3.171-.116c-3.385-.035-3.218-.012-3.61-.41-.416-.41-.381.37-.4-8.775-.012-4.529,0-8.341.017-8.468a1.442,1.442,0,0,1,.918-1.046c.133-.052,2.836-.069,10.871-.069C74.293-502.815,75.454-502.8,75.691-502.722Z" transform="translate(0 0)"/>
    <path id="Path_3425" data-name="Path 3425" d="M134.577-465.93a1.1,1.1,0,0,0-.507.517c-.06.135-.07,1.274-.07,6.52v6.355l.105.221a1,1,0,0,0,.311.351l.206.135,4.986.015,4.991.01.221-.105a.928.928,0,0,0,.356-.311l.135-.206.015-3.7c.01-3.651.01-3.7-.09-3.8a.375.375,0,0,0-.547.03c-.105.13-.105.171-.105,3.676a33.874,33.874,0,0,1-.06,3.606c-.085.085-9.625.085-9.71,0s-.085-12.484,0-12.569a32.6,32.6,0,0,1,3.536-.06h3.476v1.229c0,1.364.015,1.45.316,1.63.145.09.261.1,1.3.1h1.139v.6c0,.557.01.612.115.737a.36.36,0,0,0,.547.015c.08-.09.09-.221.09-.993v-.883l-1.354-1.455c-.747-.8-1.424-1.515-1.5-1.595l-.15-.135h-3.8A35.406,35.406,0,0,0,134.577-465.93Zm8.948,2.282.567.607h-1.515v-.818l.005-.813.186.211C142.868-464.35,143.209-463.979,143.525-463.648Z" transform="translate(-74.895 -34.125)"/>
    <path id="Path_3426" data-name="Path 3426" d="M172.715-422.9a.309.309,0,0,0-.115.281.309.309,0,0,0,.115.281c.11.09.246.1,2.6.1,1.49,0,2.513-.02,2.568-.05a.391.391,0,0,0,.15-.2.276.276,0,0,0-.015-.3.48.48,0,0,0-.155-.181c-.045-.015-1.2-.03-2.558-.03C172.961-423,172.826-422.995,172.715-422.9Z" transform="translate(-111.559 -74.967)"/>
    <path id="Path_3427" data-name="Path 3427" d="M172.245-376.87a.3.3,0,0,0,.015.456l.12.14h7.042l.12-.14a.3.3,0,0,0,.015-.456l-.1-.13h-7.112Z" transform="translate(-111.129 -118.661)"/>
    <path id="Path_3428" data-name="Path 3428" d="M172.655-331.882a.486.486,0,0,0-.181.441c.07.286-.06.276,3.732.276s3.661.01,3.732-.276a.472.472,0,0,0-.2-.446C179.641-331.922,172.75-331.922,172.655-331.882Z" transform="translate(-111.433 -161.485)"/>
    <path id="Path_3429" data-name="Path 3429" d="M172.245-285.87a.3.3,0,0,0,.015.456l.12.14h7.042l.125-.145a.346.346,0,0,0-.02-.5c-.075-.08-.311-.085-3.631-.085h-3.551Z" transform="translate(-111.129 -205.096)"/>
    <path id="Path_3430" data-name="Path 3430" d="M172.655-240.882a.486.486,0,0,0-.181.441c.07.286-.06.276,3.732.276s3.661.01,3.732-.276a.472.472,0,0,0-.2-.446C179.641-240.922,172.75-240.922,172.655-240.882Z" transform="translate(-111.433 -247.922)"/>
  </g>
</svg>
