<svg xmlns="http://www.w3.org/2000/svg" width="202.498" height="226.004" viewBox="0 0 202.498 226.004">
  <g id="Group_5001" data-name="Group 5001" transform="translate(-83.502 -270.997)">
    <g id="svgg" transform="translate(124.934 288.182)">
      <path id="path0" d="M178.444,95.929a19.937,19.937,0,0,1,14.935,13.089c.973,3.025.987,3.209,1,13.029.011,7.358.064,9.285.262,9.524.185.223.221.736.141,2-.059.936-.155,2.484-.214,3.44a6.938,6.938,0,0,1-.282,1.916,2.024,2.024,0,0,0-.175.975,1.552,1.552,0,0,1-.188.913,1.655,1.655,0,0,0-.188.951c0,.459-.085.834-.188.834s-.188.338-.188.751-.085.752-.188.752-.188.254-.188.564-.085.564-.188.564-.188.254-.188.564-.085.564-.188.564-.188.211-.188.47-.084.47-.188.47-.188.211-.188.47-.085.47-.188.47-.188.127-.188.282-.084.282-.188.282-.188.254-.188.564-.085.564-.188.564-.188.169-.188.376-.085.376-.188.376-.188.169-.188.376-.085.376-.188.376-.188.169-.188.376-.063.376-.142.376a3.776,3.776,0,0,0-.674,1.127,3.247,3.247,0,0,1-.7,1.127c-.094,0-.172.111-.172.247a1.367,1.367,0,0,1-.376.65,1.522,1.522,0,0,0-.376.553,2.286,2.286,0,0,1-.564.681,2.056,2.056,0,0,0-.564.719,3.226,3.226,0,0,1-.752.909,3.044,3.044,0,0,0-.752.931,37.876,37.876,0,0,1-4.418,4.423c-.4.31-.827.669-.956.8a.8.8,0,0,1-.455.235,1.9,1.9,0,0,0-.746.564,1.81,1.81,0,0,1-.785.564.868.868,0,0,0-.53.376.879.879,0,0,1-.564.376.879.879,0,0,0-.564.376.9.9,0,0,1-.605.376c-.184,0-.334.085-.334.188s-.169.188-.376.188-.376.07-.376.156-.232.276-.517.423a4.285,4.285,0,0,0-.611.36,6.8,6.8,0,0,1-2.085.94c-.2,0-.358.085-.358.188s-.169.188-.376.188c-.344,0-.376.125-.376,1.5a3.677,3.677,0,0,0,.161,1.5,3.507,3.507,0,0,1,.2,1.456,4.919,4.919,0,0,0,.215,1.635,1.237,1.237,0,0,1,.178.7c0,.289.085.526.188.526s.188.254.188.564.085.564.188.564.188.167.188.37a5.541,5.541,0,0,0,.975,2.017c.269.332.036.85-.575,1.277a43.479,43.479,0,0,1-5.285,3.319,20.686,20.686,0,0,1-3.388,1.472,11.016,11.016,0,0,0-1.364.355c-7.743,2.358-18.311.4-23.917-4.425a9.113,9.113,0,0,0-1.065-.778c-.583-.345-.826-.883-.552-1.22a5.541,5.541,0,0,0,.975-2.017c0-.2.066-.37.147-.37s.253-.4.383-.892.317-1.152.417-1.469a6.994,6.994,0,0,0,.18-1.633,2.347,2.347,0,0,1,.188-1.172c.4-.249.229-3.288-.188-3.288-.207,0-.376-.085-.376-.188s-.161-.188-.358-.188a6.8,6.8,0,0,1-2.085-.94,4.28,4.28,0,0,0-.611-.36c-.284-.147-.517-.337-.517-.423s-.169-.156-.376-.156-.376-.085-.376-.188-.15-.188-.334-.188a.9.9,0,0,1-.6-.376.879.879,0,0,0-.564-.376.879.879,0,0,1-.564-.376.868.868,0,0,0-.53-.376,1.707,1.707,0,0,1-.76-.517,5.607,5.607,0,0,0-.991-.8c-1.2-.691-5.61-4.847-5.61-5.286a3.181,3.181,0,0,0-.752-.914,2.958,2.958,0,0,1-.752-.943,1.9,1.9,0,0,0-.564-.748,2.074,2.074,0,0,1-.564-.7,1.15,1.15,0,0,0-.376-.518,1.1,1.1,0,0,1-.376-.593c0-.139-.084-.253-.188-.253a.2.2,0,0,1-.188-.206,2.019,2.019,0,0,0-.363-.716,3.748,3.748,0,0,1-.5-1.062,1.95,1.95,0,0,0-.482-.856,1.009,1.009,0,0,1-.346-.611c0-.169-.085-.307-.188-.307s-.188-.164-.188-.364a.627.627,0,0,0-.188-.481.783.783,0,0,1-.188-.575c0-.252-.064-.458-.142-.458s-.255-.275-.392-.611c-.528-1.292-.643-1.56-.8-1.877a1.851,1.851,0,0,1-.166-.7c0-.208-.085-.378-.188-.378s-.188-.291-.188-.646a1.172,1.172,0,0,0-.188-.763.966.966,0,0,1-.188-.669c0-.3-.085-.552-.188-.552s-.188-.423-.188-.94-.085-.939-.188-.939-.188-.423-.188-.939-.085-.939-.188-.939-.188-.716-.188-1.774a5.462,5.462,0,0,0-.188-1.89c-.315-.194-.236-3.39.09-3.661.239-.2.285-1.87.329-11.846.05-11.451.057-11.623.444-12.146,1.012-1.366,2.335-1.68,4.53-1.076,1.781.49,3.322.828,6.351,1.39a43.477,43.477,0,0,0,13.058-.022c1.492-.284,4.322-.918,4.979-1.116.31-.094,1.2-.354,1.973-.579,1.229-.357,4.05-1.369,5.167-1.853,1.091-.472,4.158-1.93,7.328-3.482a53.06,53.06,0,0,1,7.985-3.453,30.71,30.71,0,0,1,3.852-1.122c.517-.11,1.336-.287,1.821-.394a26.165,26.165,0,0,1,6.654.105M133.106,226.042a3.073,3.073,0,0,1-.276,5.1l-.794.515-5.646,0c-5.505,0-5.665-.014-6.392-.426a3.092,3.092,0,0,1-1.11-4.458c.864-1.305.909-1.313,7.572-1.313H132.4l.705.582" transform="translate(-91.715 -50.782)" fill="#fbddbd" fill-rule="evenodd"/>
      <path id="path1" d="M137.439,19.136a50.914,50.914,0,0,1,12.4,2.275c12.456,3.6,23.074,13.35,28.413,26.081a55.693,55.693,0,0,1,2.768,8.455c.084.413.289,1.428.457,2.255.731,3.6.971,5.543.686,5.543-.107,0-.194-.127-.194-.282s-.066-.282-.147-.282-.3-.263-.492-.583a34.954,34.954,0,0,0-3.8-3.935,11.594,11.594,0,0,0-2.311-1.495.2.2,0,0,1-.2-.188c0-.1-.169-.188-.376-.188s-.376-.085-.376-.188-.169-.188-.376-.188-.376-.085-.376-.188-.164-.188-.365-.188a.627.627,0,0,1-.481-.188.63.63,0,0,0-.483-.188,1.715,1.715,0,0,1-.693-.178c-1.556-.851-7.278-1.231-9.909-.658-.827.18-1.779.367-2.116.415a1.367,1.367,0,0,0-.715.254.965.965,0,0,1-.645.167.942.942,0,0,0-.658.188.763.763,0,0,1-.564.188.763.763,0,0,0-.564.188.784.784,0,0,1-.575.188c-.252,0-.458.085-.458.188s-.206.188-.458.188a.784.784,0,0,0-.575.188.627.627,0,0,1-.481.188c-.2,0-.365.085-.365.188s-.128.188-.284.188a1.619,1.619,0,0,0-.611.168c-.179.093-.918.451-1.642.8a7.145,7.145,0,0,0-1.378.771c-.035.078-.225.142-.423.142s-.36.085-.36.188-.169.188-.376.188-.376.085-.376.188-.169.188-.376.188-.376.085-.376.188-.169.188-.376.188-.376.085-.376.188-.169.188-.376.188-.376.085-.376.188-.169.188-.376.188-.376.085-.376.188-.119.188-.265.188a26.864,26.864,0,0,0-3.493,1.481,9.687,9.687,0,0,1-1.174.407c-.491.143-.892.326-.892.407s-.206.147-.458.147a.784.784,0,0,0-.575.188.763.763,0,0,1-.564.188.763.763,0,0,0-.564.188.763.763,0,0,1-.564.188.763.763,0,0,0-.564.188.763.763,0,0,1-.564.188.763.763,0,0,0-.564.188,1.172,1.172,0,0,1-.763.188c-.356,0-.646.085-.646.188s-.338.188-.752.188-.752.085-.752.188-.375.188-.834.188a1.656,1.656,0,0,0-.951.188,1.9,1.9,0,0,1-1.033.188,1.9,1.9,0,0,0-1.033.188,33.305,33.305,0,0,1-5.366.188,29.371,29.371,0,0,1-5.25-.188c0-.1-.5-.188-1.116-.188a2.559,2.559,0,0,1-1.232-.188,1.624,1.624,0,0,0-.94-.188,1.624,1.624,0,0,1-.939-.188,1.4,1.4,0,0,0-.857-.188c-.407,0-.74-.085-.74-.188s-.248-.188-.552-.188a.965.965,0,0,1-.669-.188,1.146,1.146,0,0,0-.752-.188,1.145,1.145,0,0,1-.752-.188,2.5,2.5,0,0,0-1.879,0,.5.5,0,0,1-.385.188,2.712,2.712,0,0,0-1.28.886c-.562.6-.683.823-.683,1.256a.8.8,0,0,1-.188.582c-.122.075-.188,4.01-.188,11.191V90.236h-.834a1.656,1.656,0,0,1-.951-.188.965.965,0,0,0-.669-.188c-.3,0-.552-.085-.552-.188s-.119-.188-.264-.188c-1,0-4.809-3.066-4.809-3.872A2.507,2.507,0,0,0,95.754,85a9.876,9.876,0,0,1-.783-1.626l-.433-1.127L94.46,70.086c-.068-10.56-.183-13.487-.465-11.743-.048.3-.095.223-.162-.269-.051-.38-.036-.656.034-.612.205.127.353-.675.356-1.937,0-.659-.08-1.174-.186-1.174s-.188-.375-.188-.834a1.656,1.656,0,0,0-.188-.951.942.942,0,0,1-.188-.658.942.942,0,0,0-.188-.658.63.63,0,0,1-.188-.483,1.822,1.822,0,0,0-.166-.693c-.092-.179-.249-.538-.352-.8a32.957,32.957,0,0,0-2.207-4.288c-.31-.45-.691-1.01-.846-1.245a17.242,17.242,0,0,0-1.166-1.4c-1.077-1.183-1.08-1.171,1.533-4.812A45.514,45.514,0,0,1,99.2,28.986a11.549,11.549,0,0,0,1.566-1.161c.035-.085.208-.155.385-.155a.832.832,0,0,0,.5-.171,41.559,41.559,0,0,1,5.157-2.5c.258-.105.617-.265.8-.357a1.644,1.644,0,0,1,.613-.166,1.822,1.822,0,0,0,.66-.188l.747-.376a2.517,2.517,0,0,1,.939-.188c.311,0,.566-.085.566-.188s.3-.188.658-.188.658-.085.658-.188.375-.188.834-.188a1.656,1.656,0,0,0,.951-.188,2.253,2.253,0,0,1,1.144-.188c.65,0,1.061-.086,1.118-.235.064-.167.5-.217,1.5-.173,1.09.048,1.431,0,1.511-.207.065-.17.273-.236.565-.181a.961.961,0,0,0,.834-1.573c-.293-.293,3.51-.834,8.456-1.2a40.6,40.6,0,0,1,8.079.109M195.22,70.32c0,6.355-.023,8.955-.053,5.778s-.029-8.377,0-11.555.053-.578.053,5.778M185.82,83.7a5.282,5.282,0,0,0,7.562.917c.563-.541.6.03.047.736a1.916,1.916,0,0,0-.372.643c-.015.623-3.661,3.491-4.437,3.491-.145,0-.264.085-.264.188s-.249.188-.552.188a.966.966,0,0,0-.669.188,1.656,1.656,0,0,1-.951.188h-.834v-3.57c0-1.963.021-3.567.047-3.563a4.108,4.108,0,0,1,.423.6m-58.339,58.043c3.961,3,8.451,5.237,10.514,5.237.314,0,.571.085.571.188s.418.188.928.188a1.934,1.934,0,0,1,1.045.188,21.513,21.513,0,0,0,4.228.188,21.512,21.512,0,0,0,4.227-.188,1.624,1.624,0,0,1,.939-.188,1.624,1.624,0,0,0,.939-.188.994.994,0,0,1,.683-.188,18.08,18.08,0,0,0,4.717-1.525c.673-.342.722-.141.153.632a8.7,8.7,0,0,0-.4,8.567c1.5,2.942,3.8,3.986,9.784,4.447a32.88,32.88,0,0,1,9.113,1.626c12.8,4.238,20.761,15.4,20.761,29.082,0,4.537.773,6.249,3.422,7.577l.993.5-58.057-.041L83.985,197.8l-.7-.723a2.5,2.5,0,0,1-.7-1.08c0-.2-.084-.357-.188-.357-.123,0-.188-3.444-.188-9.958s.065-9.958.188-9.958c.106,0,.188-.532.188-1.221s.082-1.221.189-1.221.175-.392.156-.882c-.02-.534.054-.911.187-.955s.22-.362.22-.715.085-.642.188-.642.188-.254.188-.564.084-.564.188-.564c.27,0,.232-.514-.047-.629-.142-.059-.068-.148.188-.225a.545.545,0,0,0,.423-.576c0-.246.084-.448.188-.448s.188-.127.188-.282-.084-.282-.188-.282a.2.2,0,0,1-.188-.21c0-.117.166-.166.376-.111.3.078.376.006.376-.354,0-.249.085-.452.188-.452.27,0,.232-.512-.047-.64-.129-.059-.045-.061.188,0,.47.116.636-.543.188-.749-.129-.059-.036-.058.206,0,.381.1.425.057.317-.284-.091-.286-.045-.394.169-.394.162,0,.295-.085.295-.188a.18.18,0,0,0-.171-.188c-.094,0-.124-.176-.068-.392.072-.276.145-.323.247-.157.254.411.716-.246.614-.874-.067-.413-.041-.481.1-.274.163.233.252.207.578-.17.4-.463.524-.871.2-.671-.107.066-.138-.009-.074-.177a.464.464,0,0,1,.388-.292c.412,0,1.374-1.041,1.374-1.489,0-.215.085-.39.188-.39a.189.189,0,0,0,.188-.189,2.779,2.779,0,0,1,1.252-1.314.231.231,0,0,0,.251-.2c0-.115.16-.15.376-.081.352.112.543-.157.235-.329-.078-.043-.031-.052.1-.018.255.063,1.331-.916,1.694-1.543.116-.2.214-.258.217-.129a.227.227,0,0,0,.206.235c.118,0,.152-.174.082-.423-.1-.345-.079-.371.1-.141.162.213.238.224.31.047a.39.39,0,0,1,.326-.235,1.246,1.246,0,0,0,.6-.329,5.023,5.023,0,0,1,.881-.6c.284-.147.517-.337.517-.423s.169-.156.376-.156.376-.085.376-.188.174-.188.387-.188.334-.085.271-.188.092-.188.365-.188.481-.085.481-.188.174-.188.387-.188.334-.085.271-.188.124-.188.459-.188c.316,0,.575-.094.575-.21s.167-.166.387-.109c.282.074.442-.022.594-.354.114-.25.283-.455.376-.455s.116.085.053.188-.027.188.083.188c.339,0,.483-.087.427-.257-.03-.09.245-.107.611-.039.546.1.665.069.665-.19s.126-.294.752-.194.751.066.751-.186.138-.285.845-.178c.938.141,1.53-.05.927-.3-.2-.082.748-.1,2.106-.036,2.659.123,4.4-.091,2.6-.321-.818-.1-.732-.124.667-.15a4.252,4.252,0,0,0,1.845-.264c.191-.188.227-.179.179.047-.04.187.113.3.456.341.374.043.517-.024.517-.244,0-.241.127-.279.622-.186.527.1.655.05.833-.32.116-.24.216-.331.223-.2s.191.235.409.235c.264,0,.362-.088.294-.266a.293.293,0,0,1,.178-.373c.158-.061.23-.027.165.078s.017.186.178.186.293-.085.293-.188.169-.188.376-.188.376-.085.376-.188.169-.188.376-.188.376-.085.376-.188.127-.188.282-.188.282-.085.282-.188.132-.188.293-.188.241-.085.177-.188.043-.188.238-.188a1.6,1.6,0,0,0,1.174-1.233c0-.3.033-.317.185-.082s.183.229.185-.061a.965.965,0,0,1,.815-.879c.527,0,1.48-1.079,1.364-1.545-.059-.235-.056-.318,0-.183.087.191.158.18.327-.051.189-.258.345-.2,1.249.488m-16.534,42.626c0,.1-.169.188-.376.188s-.376.085-.376.188-.122.188-.271.188-.421.254-.6.564-.4.564-.48.564-.147.249-.147.552,2.358-2.5,2.255-2.431,0-.246,0,0-.1-.064,0,0,11.743-.246,11.743,0c0,.614.725,1.055,1.537,1.248s-.353.447.436.256c.7-.17,0,.812,0,.376,0-.167-.1-.376,0-.376s-.436.6-.436-.256l.812.871-.812-.871a3.046,3.046,0,0,0-1.116-.872.54.54,0,0,1-.421-.188,40.056,40.056,0,0,0-5.93-.188,35.766,35.766,0,0,0-5.813.188" transform="translate(-82.2 -10.065)" fill="#414149" fill-rule="evenodd"/>
      <path id="path2" d="M136.372.2c1.113.046,1.794.147,1.727.256s.344.181,1.026.181c.634,0,1.139.083,1.139.188s.423.188.939.188.939.085.939.188.38.188.845.188.846.085.846.188.3.188.658.188.658.094.658.21.2.172.48.118a.889.889,0,0,1,.756.184.587.587,0,0,0,.548.172.582.582,0,0,1,.545.17,1.08,1.08,0,0,0,.663.274c.214,0,.389.085.389.188s.254.188.564.188.564.085.564.188.211.188.47.188.47.085.47.188.217.188.481.188c.31,0,.434.076.349.213s.045.187.439.129c.417-.061.545-.017.476.163-.055.143.037.247.218.247s.26-.086.179-.217-.052-.166.083-.083a.55.55,0,0,1,.217.427c0,.21.131.268.464.2.255-.048.425-.025.377.053-.112.181.454.4.677.265.092-.058.118.028.056.189-.082.213-.03.262.19.178.2-.077.3-.015.3.186,0,.166.093.3.208.3s.156-.137.09-.309c-.1-.258-.071-.269.168-.071a.8.8,0,0,1,.286.509c0,.186.118.234.376.152.216-.069.376-.034.376.081s.132.2.293.2.24.085.177.188.058.188.271.188.387.123.387.276c0,.171.11.234.287.166a.668.668,0,0,1,.633.288,1.124,1.124,0,0,0,.605.4c.143,0,.459.255.7.564a1.34,1.34,0,0,0,.939.577c.272.008.4.054.284.1-.327.135.992,1.387,1.461,1.387.225,0,.36.05.3.112-.186.186,1.917,2.172,2.149,2.028.129-.08.161-.047.08.083-.174.281,1.14,1.6,1.421,1.421.124-.077.163-.049.093.064s.131.4.439.64a1.45,1.45,0,0,1,.562.735c0,.358,1.2,1.549,1.376,1.371.071-.07.129.094.129.365,0,.468.625,1.26.995,1.26.095,0,.122.133.059.3-.139.363.363.907.665.72.153-.094.185,0,.107.295a.762.762,0,0,0,.592.944.455.455,0,0,1,.324.217c.083.134.052.166-.083.083s-.217-.01-.217.179.1.274.261.213c.183-.07.232.008.166.262-.052.2,0,.362.115.362s.21.127.21.282.085.282.188.282.188.169.188.376.085.376.188.376.188.174.188.387.085.334.188.271.188.058.188.271.085.387.188.387.188.169.188.376.085.376.188.376.188.169.188.376.085.376.188.376.188.211.188.47.085.47.188.47.188.2.188.45a.617.617,0,0,0,.279.557.3.3,0,0,1,.168.4c-.061.159-.017.289.1.289s.208.254.208.564.085.564.188.564.188.211.188.47.085.47.188.47.188.254.188.564.085.564.188.564.188.254.188.564.091.564.2.564.178.266.147.611c-.039.435.018.595.2.555s.226.119.132.7c-.1.628-.068.76.186.76s.287.132.185.774c-.108.672-.083.758.188.654s.3-.007.184.847-.093.953.188.845.3,0,.188,1.009c-.111.982-.087,1.131.185,1.131s.3.154.185,1.2c-.109,1.013-.08,1.215.181,1.315s.293.35.174,2.028c-.113,1.592-.092,1.892.126,1.809s.261,1.759.261,12.089c0,9.625-.049,12.189-.235,12.189-.137,0-.235.24-.235.575,0,.387.071.531.217.441s.166-.052.083.083a.552.552,0,0,1-.428.217c-.228,0-.268.129-.179.573.067.333.042.528-.06.465s-.323.211-.5.6a3.92,3.92,0,0,1-.452.8,6.941,6.941,0,0,0-.622.892,8.713,8.713,0,0,1-3.07,2.49.256.256,0,0,0-.244.264c0,.166-.131.23-.355.171a.461.461,0,0,0-.481.111.767.767,0,0,1-.576.2.781.781,0,0,0-.6.24c-.1.163-.491.218-1.217.171l-1.067-.069-.081-9.612c-.085-10.07-.074-9.936-.969-12.619a22.424,22.424,0,0,0-1.846-3.9c-.2-.29-.26-.517-.143-.517.3,0,.072-1.868-.673-5.543-.168-.827-.373-1.841-.457-2.255a55.694,55.694,0,0,0-2.768-8.455c-5.863-13.982-16.306-22.887-31.607-26.951a59.429,59.429,0,0,0-17.1-1.525c-4.8.332-8.945.911-8.646,1.21a.972.972,0,0,1-.739,1.6c-.39-.018-.409-.039-.1-.114.531-.131.845-.423.845-.785a1.082,1.082,0,0,0-1.117-.868.333.333,0,0,1-.442-.156c-.065-.17-.274-.231-.586-.171-.349.067-.485.013-.485-.194s-.122-.254-.376-.188c-.21.055-.376.006-.376-.111s-.254-.21-.564-.21S101,9.01,101,8.906s-.169-.188-.376-.188-.376-.085-.376-.188-.133-.188-.3-.188c-.494,0-.832-.5-.832-1.23,0-.6.05-.68.376-.595q.376.1.376-.178c0-.192.116-.24.376-.158.407.129.527-.179.141-.362-.129-.061.037-.071.368-.022.613.091,1-.15.572-.353-.13-.062.073-.076.451-.031.581.069.7.018.8-.327s.142-.361.292-.128.228.233.413.047a1.114,1.114,0,0,1,.686-.233c.307,0,.42-.083.353-.259-.076-.2.051-.239.543-.172.389.052.643.006.643-.116s.211-.2.47-.2.47-.085.47-.188.254-.188.564-.188.564-.085.564-.188.254-.188.564-.188.564-.085.564-.188.3-.188.658-.188.658-.085.658-.188.3-.188.658-.188.658-.085.658-.188.338-.188.752-.188.751-.085.751-.188.38-.188.846-.188.845-.085.845-.188.375-.188.834-.188a1.656,1.656,0,0,0,.951-.188,1.934,1.934,0,0,1,1.045-.188c.511,0,.928-.085.928-.188s.237-.188.526-.188A1.342,1.342,0,0,0,119.586.4c.2-.188.226-.188.12,0-.093.165.034.235.426.235.308,0,.59-.093.628-.206C120.832.221,132.59.046,136.372.2M104.143,11.959c-.052.158-.535.24-1.472.251-1.086.013-1.155,0-.314-.056.594-.04,1.08-.153,1.08-.251s.176-.178.391-.178.359.1.314.235m-3.054.141c.233.378-.139.564-1.127.564a2.2,2.2,0,0,0-1.127.188,1.656,1.656,0,0,1-.951.188c-.459,0-.834.085-.834.188s-.3.188-.658.188-.658.085-.658.188-.255.188-.566.188a2.859,2.859,0,0,0-1.639.535,1.965,1.965,0,0,1-.707.217,1.644,1.644,0,0,0-.613.166c-.179.092-.538.252-.8.357a41.553,41.553,0,0,0-5.157,2.5.832.832,0,0,1-.5.171c-.177,0-.35.07-.385.155A11.541,11.541,0,0,1,83.8,19.053,45.516,45.516,0,0,0,74.494,27.6c-2.613,3.64-2.61,3.629-1.533,4.812a17.25,17.25,0,0,1,1.166,1.4c.155.235.535.795.845,1.245a32.96,32.96,0,0,1,2.207,4.288c.1.258.26.617.352.8a1.822,1.822,0,0,1,.166.693.63.63,0,0,0,.188.483.943.943,0,0,1,.188.658.942.942,0,0,0,.188.658,1.656,1.656,0,0,1,.188.951c0,.459.085.834.188.834s.173.556.152,1.362c-.035,1.352-.036,1.354-.1.257-.053-.847-.165-1.191-.481-1.471-.227-.2-.307-.311-.178-.246.169.086.235-.095.235-.643,0-.419-.085-.763-.188-.763s-.188-.3-.188-.658S77.8,41.6,77.7,41.6s-.188-.263-.188-.584c0-.4-.076-.555-.247-.489s-.224-.056-.166-.45c.047-.323-.006-.544-.13-.544s-.209-.211-.209-.47-.085-.47-.188-.47-.188-.169-.188-.376-.085-.376-.188-.376-.188-.162-.188-.36-.067-.388-.15-.423a3.487,3.487,0,0,1-.565-.955c-.228-.491-.5-.892-.6-.892s-.187-.121-.187-.268a.887.887,0,0,0-.241-.517,9.824,9.824,0,0,1-.7-.906A11.347,11.347,0,0,0,72.4,32.172c-.815-.791-.853-.959-.335-1.514a1.367,1.367,0,0,0,.376-.65c0-.136.079-.247.175-.247s.23-.172.3-.382a2.679,2.679,0,0,1,.576-.837,1.87,1.87,0,0,0,.459-.6,3.515,3.515,0,0,1,.611-.84c.334-.38.79-.929,1.014-1.221a32.088,32.088,0,0,1,3.726-3.728,12.292,12.292,0,0,0,1.249-1.077,1.808,1.808,0,0,1,.7-.517.2.2,0,0,0,.207-.188.22.22,0,0,1,.24-.188.866.866,0,0,0,.511-.376c.149-.207.363-.376.476-.376a1.255,1.255,0,0,0,.569-.329,5.023,5.023,0,0,1,.881-.6c.284-.147.517-.337.517-.423s.111-.156.247-.156a1.407,1.407,0,0,0,.66-.385c.227-.212.492-.337.588-.278s.242-.007.326-.146a1.822,1.822,0,0,1,1.052-.584.567.567,0,0,0,.3-.261.425.425,0,0,1,.416-.188c.154.033.254-.079.239-.267-.02-.262.043-.287.332-.133s.383.122.47-.1a.336.336,0,0,1,.467-.183c.234.074.354.021.354-.156s.146-.24.47-.178c.274.053.47,0,.47-.12s.211-.21.47-.21.47-.108.47-.256c0-.171.155-.226.467-.166s.5-.008.573-.186.272-.244.566-.187c.322.062.46,0,.46-.193a.807.807,0,0,1,.286-.519c.239-.2.267-.187.168.071-.091.238-.005.309.372.309.277,0,.49-.106.49-.244,0-.168.2-.22.658-.167.4.047.658,0,.658-.132s.357-.209.866-.209c.664,0,.842-.061.765-.263s.108-.244,1.013-.162c1.033.093,1.531-.127.879-.39-.129-.052-.007-.1.271-.109a.839.839,0,0,1,.622.173M151.3,44.744c-.8.035-2.111.035-2.912,0s-.146-.064,1.456-.064,2.257.029,1.456.064m2.771.236.564.143-.564.02a1.8,1.8,0,0,1-.845-.163c-.349-.225-.041-.225.845,0m-7.523.011a1.27,1.27,0,0,1-.787.177c-.832,0-.756-.1.187-.244.423-.065.665-.038.6.068m8.932.312a1.549,1.549,0,0,1,.648.256,1.025,1.025,0,0,0,.6.172.718.718,0,0,1,.537.188.627.627,0,0,0,.481.188c.2,0,.365.078.365.174,0,.171-1.759-.367-2-.613a.929.929,0,0,0-.516-.127,1.482,1.482,0,0,1-.673-.185c-.292-.189-.228-.194.564-.053m-10.71.055a1.779,1.779,0,0,1-.787.183.893.893,0,0,0-.609.17,1.414,1.414,0,0,1-.749.242c-.356.042-.6.008-.554-.073a.935.935,0,0,1,.607-.148,1.292,1.292,0,0,0,.693-.163,2.59,2.59,0,0,1,.93-.277c.513-.077.662-.056.47.067m-4.522,1.379c-.7.364-1.549.557-1.4.317a.783.783,0,0,1,.58-.2c.252,0,.458-.085.458-.188s.19-.187.423-.187c.409,0,.407.009-.06.253m20.724,1.12a3.4,3.4,0,0,1,.892.739,9.089,9.089,0,0,1-2.048-1.3c-.043-.031,0-.053.094-.046a5.455,5.455,0,0,1,1.062.611M79.06,60.152l.078,12.166.434,1.127a9.877,9.877,0,0,0,.783,1.626,2.5,2.5,0,0,1,.349.608c0,.806,3.808,3.872,4.809,3.872.145,0,.264.085.264.188s.248.188.552.188a.965.965,0,0,1,.669.188,1.656,1.656,0,0,0,.951.188h.834V69.229c0-8.253.056-11.109.22-11.21s.18-.031.094.192c-.069.18-.126,5.259-.126,11.287V80.456l-1.08.07c-.737.047-1.128-.007-1.231-.171a.781.781,0,0,0-.6-.24.767.767,0,0,1-.576-.2.448.448,0,0,0-.468-.115.367.367,0,0,1-.449-.187.289.289,0,0,0-.334-.2c-.125.042-.41-.12-.632-.36a1.449,1.449,0,0,0-.577-.436,10.462,10.462,0,0,1-2.133-2.127,1.544,1.544,0,0,0-.376-.546,1.367,1.367,0,0,1-.376-.65.224.224,0,0,0-.188-.247c-.1,0-.188-.169-.188-.376s-.116-.376-.259-.376a.791.791,0,0,1-.5-.286c-.2-.239-.187-.267.071-.168.229.087.309.011.309-.3,0-.271-.088-.382-.253-.319-.2.076-.233-.109-.162-.85s.026-.984-.217-1.12c-.526-.294-.45-23.264.076-23.264.082,0,.184,5.475.227,12.166m86.1-8.527c.527.613.688.87.54.865-.183-.007-.9-.924-.793-1.021.036-.034.15.036.253.156m-39.067,1.63a4.3,4.3,0,0,1-.9.368,4.718,4.718,0,0,0-.941.376,3.841,3.841,0,0,1-1.081.376.823.823,0,0,0-.481.163c-.28.257-1.264.45-1.123.22a.763.763,0,0,1,.568-.2.763.763,0,0,0,.564-.188.784.784,0,0,1,.575-.188c.252,0,.458-.066.458-.147s.4-.265.888-.409a9.6,9.6,0,0,0,1.362-.51,2.075,2.075,0,0,1,.662-.241c.1,0-.144.172-.55.375M93.356,55.079c.047.078-.363.141-.911.141s-.957-.063-.909-.141a3.009,3.009,0,0,1,1.82,0m1.533.423c.137.222-.046.222-.564,0-.362-.155-.361-.162.036-.175a.675.675,0,0,1,.528.175m-5.029,1c-.334.446-.636.743-.67.659s.071-.286.235-.449a1.057,1.057,0,0,0,.3-.426c0-.071.168-.234.373-.363.262-.163.191.01-.235.579m25.321.128c-.517.222-.7.222-.564,0a.675.675,0,0,1,.528-.175c.4.013.4.019.036.175m-15.595,0c.137.222-.046.222-.564,0-.362-.155-.361-.162.036-.175a.675.675,0,0,1,.528.175m2.349.35c0,.089-.211.121-.47.072s-.47-.122-.47-.162.211-.072.47-.072.47.073.47.162m6.408.4a13.889,13.889,0,0,1-2.536,0c-.7-.1-.264-.14,1.577-.137,2.393,0,2.447.012.96.141M169.95,76.733V80.3h.834a1.656,1.656,0,0,0,.951-.188.965.965,0,0,1,.669-.188c.3,0,.552-.085.552-.188s.119-.188.264-.188c.777,0,4.422-2.868,4.437-3.491a1.917,1.917,0,0,1,.372-.643c.552-.706.516-1.277-.047-.736a5.282,5.282,0,0,1-7.562-.917,4.108,4.108,0,0,0-.423-.6c-.026,0-.047,1.6-.047,3.563m-21.976,54.54a.6.6,0,0,1,.23.512c-.032.156.13.41.36.564a20.986,20.986,0,0,1,1.771,1.642,12.8,12.8,0,0,0,1.473,1.362,1.662,1.662,0,0,1,.524.376,1.367,1.367,0,0,0,.65.376.224.224,0,0,1,.247.188c0,.1.169.188.376.188s.376.085.376.188.169.188.376.188.376.085.376.188.169.188.376.188.376.1.376.211c0,.135.2.17.564.1.437-.087.564-.046.564.186s.131.273.66.174c.5-.094.687-.054.772.167a.622.622,0,0,0,.926.15,6.238,6.238,0,0,1,1.776-.035c.878.058,1.343.123,1.033.144-.44.029-.5.078-.282.221a11.047,11.047,0,0,0,2.724.1,11.3,11.3,0,0,1,2.208.018c-.629.26-.155.458.806.339.831-.1,1.03-.078.986.127-.04.188.13.243.628.205.472-.036.716.035.791.232s.266.252.68.17c.431-.086.571-.046.571.165,0,.2.139.252.467.19.306-.058.5.008.576.193a.369.369,0,0,0,.472.187c.2-.052.364,0,.364.115s.211.21.47.21.47.085.47.188.217.188.481.188.43.081.364.188.1.188.376.188.442.081.376.188.058.188.271.188.387.085.387.188.169.188.376.188.376.093.376.208.127.159.282.1c.183-.07.283.006.285.215,0,.257.036.27.167.063s.192-.174.292.141a.557.557,0,0,0,.5.4c.206,0,.322.085.258.188s0,.188.135.188a.866.866,0,0,1,.522.376.867.867,0,0,0,.526.376,2.841,2.841,0,0,1,.989.764c.4.42.8.722.887.67a16.509,16.509,0,0,1,3.047,2.786c0,.068-.1.063-.217-.01-.146-.09-.167-.047-.065.13.349.608.71.89,1,.785.171-.061.249-.043.173.041s.038.3.252.489.334.427.266.537c-.138.224.322.76.651.76.12,0,.167.147.108.334a.554.554,0,0,0,.269.605.888.888,0,0,1,.375.583c0,.171.19.365.423.428.358.1.38.147.141.318-.212.153-.224.226-.047.3a.418.418,0,0,1,.235.361.266.266,0,0,0,.264.266c.178,0,.23.132.158.405s-.038.363.111.271.217.03.217.346c0,.264.085.481.188.481s.188.211.188.47.085.47.188.47.188.169.188.376.085.376.188.376.188.254.188.564.085.564.188.564.188.259.188.575c0,.335.078.526.188.458s.188.181.188.631c0,.411.1.78.22.821s.207.4.189.861c-.017.433.053.788.156.788s.186.538.186,1.221.082,1.221.188,1.221c.123,0,.188,3.511.188,10.157,0,6.723-.063,10.118-.188,10.041-.1-.064-.188.049-.188.252a2.48,2.48,0,0,1-.7,1.09l-.7.722-2.654.065c-5.405.133-7.21-1.884-7.21-8.057,0-13.686-7.965-24.844-20.762-29.082a32.88,32.88,0,0,0-9.113-1.626c-5.983-.461-8.28-1.5-9.784-4.447a8.7,8.7,0,0,1,.4-8.567c.569-.774.519-.98-.153-.626a4.876,4.876,0,0,1-1.872.694c-.058-.058.054-.159.25-.224a25.8,25.8,0,0,0,4.711-2.359,3.683,3.683,0,0,1,.986-.538c.11,0,.2-.066.2-.147s.235-.286.522-.456a9.623,9.623,0,0,0,1.174-.883c.739-.651.736-.65,1.129-.339m-37.249.276c-.126.336-.338.611-.471.611-.327,0-.311-.048.23-.675l.471-.546-.23.611m6.053,3.258q.468.383.094.19c-.613-.317-.953-.577-.752-.575a1.8,1.8,0,0,1,.658.386m1.973.936c.62.306.916.5.658.438a1.857,1.857,0,0,1-.648-.285.819.819,0,0,0-.47-.173,1.419,1.419,0,0,1-.656-.282c-.566-.428-.121-.308,1.116.3m2.067.738c.137.222-.047.222-.564,0-.362-.155-.361-.162.036-.175a.675.675,0,0,1,.528.175m16.44.376a1.245,1.245,0,0,1-.564.182c-.25,0-.25-.02,0-.182a1.244,1.244,0,0,1,.564-.182c.25,0,.25.02,0,.182m-15.219,0c.25.162.25.182,0,.182a1.245,1.245,0,0,1-.564-.182c-.25-.162-.25-.182,0-.182a1.245,1.245,0,0,1,.564.182m1.691.376c.228.147.2.183-.141.185-.233,0-.423-.082-.423-.185,0-.235.2-.235.564,0m-20.48.2c0,.1-.169.176-.376.176s-.376-.067-.376-.148.169-.161.376-.176.376.051.376.148m30.344.176a.845.845,0,0,1-.622.175c-.451-.012-.465-.031-.13-.175.522-.225.89-.225.752,0m-7.7,0c.335.144.322.163-.13.175a.845.845,0,0,1-.622-.175c-.139-.225.23-.225.752,0m-23.712.125c-.053.138-.171.25-.264.25s-.168-.113-.168-.25a.258.258,0,0,1,.264-.251.171.171,0,0,1,.168.251m-1.371.344c0,.338-.852.388-1.053.062-.091-.148-.033-.18.177-.1.172.066.313.039.313-.062s.127-.182.282-.182a.283.283,0,0,1,.282.282m62.519.224a1.552,1.552,0,0,1-.658,0c-.181-.047-.033-.086.329-.086s.51.039.329.086m-66.183.041c1.424.169.565.4-1.378.368-.9-.014-1.437-.062-1.2-.108s.377-.16.318-.256c-.115-.186.718-.187,2.263,0m-4.742.335c.459.119.215.434-.336.434-.325,0-.422-.079-.345-.282.112-.292.13-.3.681-.152m-1.74.527a.273.273,0,0,1-.262.282.445.445,0,0,1-.37-.282c-.073-.192.01-.282.262-.282a.336.336,0,0,1,.37.282m-1.5.376c0,.194-.123.286-.329.246-.4-.077-.371-.41.037-.495a.23.23,0,0,1,.292.248M87.9,139.8c.2.2-.05.434-.344.322-.151-.058-.228-.181-.17-.274a.31.31,0,0,1,.515-.048m-1,.432c0,.315-.333.393-.444.1-.065-.171,0-.281.169-.281.152,0,.276.079.276.177m-.939.375c0,.1-.163.164-.363.149s-.321-.094-.271-.176c.129-.209.634-.186.634.027m-3.946,1.9c0,.109-.076.152-.168.095s-.217.023-.276.177a.422.422,0,0,1-.33.281c-.133,0-.086-.152.117-.376.373-.411.658-.488.658-.177m-1.5.93c0,.109-.148.253-.329.319a1.132,1.132,0,0,0-.467.323c-.1.14-.139.137-.141-.012,0-.117.209-.352.467-.521s.47-.219.47-.11m-2.63,1.98c0,.231-.972,1.054-1.092.925-.071-.077-.024-.178.105-.224a.378.378,0,0,0,.235-.33.451.451,0,0,1,.3-.36c.366-.141.454-.143.454-.012M74.5,148.667a2.213,2.213,0,0,1-1.133,1.21c-.32.084-.351.054-.171-.163.121-.146.295-.219.387-.162s.167-.051.167-.239a.8.8,0,0,1,.376-.576c.207-.129.376-.161.376-.07m-1.57,2a1.991,1.991,0,0,0-.121.405c0,.049-.085.038-.188-.026s-.188.021-.188.188-.081.254-.18.193c-.253-.156-.071-.533.4-.826.353-.22.385-.213.278.066M72.061,152a.945.945,0,0,1-.259.367c-.321.321-.568.125-.28-.222.212-.255.539-.343.539-.145m-.752,1.208c0,.1-.127.188-.282.188s-.282-.085-.282-.188.127-.188.282-.188.282.085.282.188m-.851,1.182c.08.186.093.39.029.454-.191.191-.344-.077-.256-.448.078-.328.088-.328.228-.007m-1.028,2.482c0,.155-.085.282-.188.282s-.188-.127-.188-.282.084-.282.188-.282.188.127.188.282m-.752,1.879c0,.155-.085.282-.188.282s-.188-.127-.188-.282.085-.282.188-.282.188.127.188.282m-.376,1.127c0,.155-.085.282-.188.282s-.188-.127-.188-.282.085-.282.188-.282.188.127.188.282m-.752,3.1c0,.207-.085.376-.188.376s-.188-.169-.188-.376.085-.376.188-.376.188.169.188.376m-.5,1.816c.2.2.147,1-.062,1-.1,0-.188-.254-.188-.564,0-.584.038-.651.25-.438m40.21,9.6c.048.078-2.568.141-5.813.141s-5.9-.063-5.9-.141,2.616-.141,5.813-.141,5.853.063,5.9.141m-13.968,3.523c0,.405-.076.633-.188.564a.939.939,0,0,1,0-1.127c.112-.069.188.158.188.564m15.107,2.818a1.959,1.959,0,0,1-.807.47c-.144,0,.05-.211.431-.47.888-.6,1.077-.6.376,0m-13.51.015c.413.247.625.45.47.451a2,2,0,0,1-.846-.46c-.7-.573-.595-.571.376.009m11.866.687c-.119.076-2.5.138-5.29.138s-5.171-.062-5.289-.138a47.329,47.329,0,0,1,5.29-.138,47.317,47.317,0,0,1,5.289.138M67.176,185.99c0,.155-.085.282-.188.282s-.188-.127-.188-.282.085-.282.188-.282.188.127.188.282m.752,1.127c.177.213.179.282.009.282a.939.939,0,0,1-.506-.282c-.242-.242-.243-.282-.01-.282a.792.792,0,0,1,.506.282" transform="translate(-66.8 -0.132)" fill="#4c4c5c" fill-rule="evenodd"/>
      <path id="path3" d="M177.56,95.381a6.845,6.845,0,0,1-2.142.07,18.127,18.127,0,0,0-5.226.47c-.305.061-.4.03-.282-.089.389-.377,6.915-.761,7.65-.45m1.925.407c.065.106-.177.133-.6.068-.944-.146-1.019-.244-.187-.244a1.27,1.27,0,0,1,.787.177m1.332.354a4.346,4.346,0,0,0,.986.409,2.8,2.8,0,0,1,.9.4c.049.08-.483-.054-1.184-.3l-1.555-.539c-.159-.054-.074-.1.2-.111a1.191,1.191,0,0,1,.658.14m-11.283-.069c-.1.031-.568.162-1.033.291s-1.43.435-2.145.681a4.945,4.945,0,0,1-1.389.356c-.049-.049.028-.127.172-.174.705-.228,2.77-.892,3.281-1.055a3.472,3.472,0,0,1,.939-.169c.2.008.278.04.175.071m16.018,2.4a3.506,3.506,0,0,1,.986.755,9.625,9.625,0,0,1-2.051-1.284c-.215-.212.176-.017,1.065.529m2.419,1.912a18.986,18.986,0,0,1,1.832,1.926l.71.911-.93-1.011c-.512-.557-1.385-1.42-1.941-1.918a4.76,4.76,0,0,1-.9-.915,8.876,8.876,0,0,1,1.231,1.007m-30.008.19a32.986,32.986,0,0,1-3.646,1.792,24.344,24.344,0,0,1,3.553-1.86c.094-.005.137.025.094.068m-3.93,1.888a11.008,11.008,0,0,1-2.129,1.1c-.691.265-.257-.072.579-.45.491-.222,1.04-.48,1.221-.575s.329-.127.329-.072m37.1,1.465a6.475,6.475,0,0,1,.8,1.455,9.552,9.552,0,0,1-1.313-2.065c.079,0,.311.275.516.611m-40.115.014c-.643.335-1.334.505-1.205.3a.6.6,0,0,1,.459-.171.61.61,0,0,0,.47-.188.557.557,0,0,1,.434-.187c.22,0,.171.078-.157.249m-3.261,1.27a2.487,2.487,0,0,1-1.013.276c-.053-.053.064-.147.26-.209s.55-.191.787-.287a2.131,2.131,0,0,1,.658-.162c.124.006-.187.178-.691.382m-1.619.547a1.244,1.244,0,0,1-.564.182c-.25,0-.25-.02,0-.182a1.245,1.245,0,0,1,.564-.182c.25,0,.25.02,0,.182m-28.183,0c.2.13.015.179-.658.172-.7-.008-.842-.052-.564-.172a1.212,1.212,0,0,1,1.221,0m1.409.376c.137.222-.046.222-.564,0-.362-.155-.361-.162.036-.175a.675.675,0,0,1,.528.175m24.143.376a1.244,1.244,0,0,1-.564.182c-.25,0-.25-.02,0-.182a1.245,1.245,0,0,1,.564-.182c.25,0,.25.02,0,.182m-22.734,0c.25.162.25.182,0,.182a1.244,1.244,0,0,1-.564-.182c-.25-.162-.25-.182,0-.182a1.245,1.245,0,0,1,.564.182m21.325.376c-.562.241-1.031.241-.658,0a1.356,1.356,0,0,1,.658-.172l.376.01-.376.162m-19.822,0c.25.162.25.182,0,.182a1.246,1.246,0,0,1-.564-.182c-.25-.162-.25-.182,0-.182a1.244,1.244,0,0,1,.564.182m18.225.376a3.4,3.4,0,0,1-.845.15c-.3,0-.278-.031.094-.15a3.4,3.4,0,0,1,.846-.15c.3,0,.278.031-.094.15m-16.346,0c.372.119.391.15.094.15a3.4,3.4,0,0,1-.846-.15c-.372-.119-.391-.15-.094-.15a3.4,3.4,0,0,1,.846.15m14.373.376a2.493,2.493,0,0,1-.846.156l-.47-.006.47-.15a3.567,3.567,0,0,1,.846-.156l.376-.006-.376.162m-12.119,0,.47.15-.47.006a2.493,2.493,0,0,1-.846-.156l-.376-.162.376.006a3.567,3.567,0,0,1,.846.156m8.9.412a39.818,39.818,0,0,1-6.356,0c-.407-.072,1.022-.131,3.174-.13s3.584.06,3.182.132m58.077.34c.07.222.086.446.034.5s-.152-.088-.222-.31-.086-.446-.034-.5.152.088.222.31m-79.238,11.391c.041,10.417.019,11.317-.274,11.555-.274.223-.293.219-.141-.024.1-.163.218-5.012.274-11.555l.1-11.273.044,11.3m79.58-10.38a1.971,1.971,0,0,1,.117.648c-.008.208-.073.16-.194-.14a1.312,1.312,0,0,1-.116-.648c.036-.107.123-.044.193.14m.387,1.532a2.526,2.526,0,0,1,.1.807c-.015.4-.053.358-.191-.232-.177-.752-.117-1.121.093-.575m.388,2.8c.069.46.1,4.54.072,9.066s.021,8.355.111,8.51c.137.234.12.241-.1.038s-.447-18.45-.237-18.451a7.356,7.356,0,0,1,.151.837M172,181.618a3.651,3.651,0,0,1-.725.637c-.326.232-.532.324-.458.205a3.655,3.655,0,0,1,.725-.637c.326-.232.532-.324.458-.205m-34.613.529c.2.145.326.3.281.345s-.243-.039-.442-.184-.325-.3-.281-.345.243.039.442.184m33.08.646a11,11,0,0,1-2.159,1.461c-.773.413-.177-.073,1.094-.894.654-.422,1.133-.677,1.065-.567m-29.215,1.886a5.406,5.406,0,0,1,1.386.929,18.556,18.556,0,0,1-3.077-1.8c0-.114-.038-.134,1.691.871m26.492-.123a9.864,9.864,0,0,1-2.016,1.051c-.079,0,.3-.255.836-.564.953-.547,1.181-.641,1.181-.487M165.4,185.8a.572.572,0,0,1-.443.188.856.856,0,0,0-.505.167,1.865,1.865,0,0,1-.648.285c-.258.065-.047-.092.47-.348,1.024-.508,1.306-.581,1.127-.292m-21.231.3c.517.251.736.4.486.338a5.475,5.475,0,0,1-1.707-.734c0-.157.25-.076,1.221.4m17.849.887a14.558,14.558,0,0,1-2.161.553c-.649.085-.715.073-.282-.05,3.206-.913,4.376-1.154,2.443-.5m-15.219-.051a6.941,6.941,0,0,0,1.409.365,2.955,2.955,0,0,1,.846.194c.248.11.089.127-.47.05-.977-.135-3.661-.959-3.1-.952a6,6,0,0,1,1.315.342m11.273.939a11.772,11.772,0,0,1-1.5.141l-.564-.006.564-.143a7.572,7.572,0,0,1,1.5-.14l.939,0-.939.146m-6.2-.009.564.143-.564.006a11.772,11.772,0,0,1-1.5-.141l-.939-.146.939,0a7.572,7.572,0,0,1,1.5.14m2.865.323a4.179,4.179,0,0,1-1.033,0c-.284-.043-.052-.078.517-.078s.8.035.517.078m-22.969,36.871a38.351,38.351,0,0,1-5.458.173c-4.36.016-6.083.084-6.244.244-.123.123-.273.171-.336.109-.549-.549,10.2-1.019,12.038-.527m1.362.618c1.041.727,1.7,2.7,1.177,3.523-.123.193-.143.056-.064-.434a3.139,3.139,0,0,0-1.134-2.87c-.863-.739-.854-.831.022-.219m-14.22.78a2.352,2.352,0,0,0-.545,1.985c.035.6,0,1.06-.078,1.012-.6-.371.173-3.227,1.008-3.742.124-.077-.049.259-.384.746m15.2,3.172c.011.322-.63,1.087-1.211,1.446-.906.56-1.052.461-.166-.113a4.142,4.142,0,0,0,1.066-.986c.169-.272.309-.428.311-.347m-15.158.622a3.655,3.655,0,0,0,1.033.819c.382.2.558.372.391.376-.329.009-2.01-1.4-1.856-1.551.052-.052.246.109.432.357m10.032,1.343c-1.531.032-3.983.031-5.449,0s-.214-.058,2.783-.057,4.2.026,2.666.057" transform="translate(-91.654 -50.575)" fill="#948c88" fill-rule="evenodd"/>
      <path id="path4" d="M131.466.2a4.18,4.18,0,0,1-1.033,0c-.284-.043-.052-.078.517-.078s.8.035.517.078M119.253.2a4.179,4.179,0,0,1-1.033,0c-.284-.043-.052-.078.517-.078s.8.035.517.078M134.8.439c.07.114-.19.188-.658.188s-.728-.074-.658-.188a1.245,1.245,0,0,1,1.315,0m-18.695,0c0,.1-.259.188-.575.188-.335,0-.526-.078-.458-.188.151-.245,1.033-.245,1.033,0m20.48.376c0,.1-.211.188-.47.188s-.47-.085-.47-.188.211-.188.47-.188.47.085.47.188m-22.922,0c0,.1-.259.188-.575.188-.335,0-.526-.078-.458-.188.151-.245,1.033-.245,1.033,0m24.8.376c0,.1-.211.188-.47.188s-.47-.085-.47-.188.211-.188.47-.188.47.085.47.188m-26.774,0a.8.8,0,0,1-.586.188c-.265,0-.419-.082-.354-.188A.8.8,0,0,1,111.337,1c.265,0,.42.082.354.188m28.183.376c.064.1-.058.188-.271.188s-.387-.085-.387-.188.122-.188.271-.188a.5.5,0,0,1,.387.188m-29.968,0c0,.105-.248.172-.551.149s-.509-.109-.459-.191c.135-.218,1.009-.182,1.009.042m31.377.373c0,.1-.169.188-.376.188s-.376-.085-.376-.188.169-.188.376-.188.376.085.376.188m-33.068,0c0,.1-.217.188-.481.188s-.43-.081-.364-.188a.627.627,0,0,1,.481-.188c.2,0,.365.085.365.188m34.2.376c0,.1-.127.188-.282.188s-.282-.085-.282-.188.127-.188.282-.188.282.085.282.188m-35.7,0c0,.1-.169.188-.376.188s-.376-.085-.376-.188.169-.188.376-.188.376.085.376.188m37.014.376c0,.1-.169.188-.376.188s-.376-.085-.376-.188.169-.188.376-.188.376.085.376.188m-38.329,0c0,.1-.127.188-.282.188s-.282-.085-.282-.188.127-.188.282-.188.282.085.282.188m39.268.376c0,.1-.169.188-.376.188s-.376-.085-.376-.188.169-.188.376-.188.376.085.376.188m-40.584,0c0,.1-.174.188-.387.188s-.334-.085-.271-.188a.5.5,0,0,1,.387-.188c.149,0,.271.085.271.188m-1.127.376c0,.1-.169.188-.376.188s-.376-.085-.376-.188.169-.188.376-.188.376.085.376.188m43.59.376c0,.1-.127.188-.282.188s-.282-.085-.282-.188.127-.188.282-.188.282.085.282.188m-44.717,0c0,.1-.169.188-.376.188s-.376-.085-.376-.188.169-.188.376-.188.376.085.376.188m45.938.508c.391.211.48.333.291.4a.263.263,0,0,1-.344-.125c-.04-.119-.281-.216-.537-.216s-.414-.082-.349-.188c.153-.247.269-.231.939.132M100.887,4.2c0,.1-.169.188-.376.188s-.376-.085-.376-.188.169-.188.376-.188.376.085.376.188m-1.066.3c-.121.316-.688.359-.583.045a.5.5,0,0,1,.379-.264c.194-.028.269.051.2.218m49.1.351c.217.151.44.229.5.172s.272.066.479.272.331.421.275.477-.228-.026-.383-.182a1.9,1.9,0,0,0-.823-.39c-.3-.059-.541-.224-.541-.366,0-.321.016-.32.5.017m-50.1.007a.755.755,0,0,1-.4.282c-.091,0-.165-.127-.165-.282s.17-.282.4-.282c.333,0,.36.047.165.282m-.939.382c0,.3-.294.373-.458.108-.057-.093.023-.217.177-.276.17-.065.281,0,.281.169m53.709,1.01c.189.117.2.194.034.295-.258.159-.451.018-.356-.259.039-.114.172-.128.322-.035m1.483.821c.454.208.536.419.235.605-.1.064-.188-.01-.188-.164s-.19-.307-.423-.34-.338-.113-.235-.178a.825.825,0,0,1,.611.076m1.267.886c.187.207.279.377.2.377-.2,0-.733-.566-.632-.667.047-.047.24.083.427.291m1.29.872c.276.275.455.547.4.6s-.32-.131-.586-.416c-.628-.677-.465-.841.188-.188M97.505,9.27c0,.235-.2.235-.564,0-.228-.147-.2-.183.141-.185.232,0,.423.082.423.185m.751.288c0,.3-.294.373-.457.108-.057-.093.022-.217.177-.276.171-.065.281,0,.281.169m59.184.745c.35.362.535.658.409.658a2.44,2.44,0,0,1-.867-.658c-.351-.362-.536-.658-.409-.658a2.427,2.427,0,0,1,.867.658m-58.169-.52c.2.2.118.426-.158.426a.481.481,0,0,1-.375-.168c-.12-.194.364-.427.533-.257m1.287.59c.483.494.311,1.338-.272,1.338-.246,0-.171-.328.147-.646.271-.271.245-.307-.289-.414-.323-.064-.555-.211-.516-.327.112-.338.576-.314.931.049M159.5,12.01c.566.547.974,1.05.906,1.118s-.592-.347-1.165-.92-.981-1.077-.906-1.118a4.018,4.018,0,0,1,1.165.92M98.821,11.9c0,.1-.38.188-.845.188S97.13,12,97.13,11.9s.38-.188.846-.188.845.085.845.188m-3.241.128c.516.2.187.436-.611.436-.47,0-.845-.088-.845-.2s.085-.147.188-.083.188.045.188-.042c0-.178.721-.253,1.08-.112m-1.957.373c.3.3.069.438-.72.438-.465,0-.846.085-.846.188s-.254.188-.564.188c-.571,0-.744-.242-.347-.488.147-.091.166-.049.058.13-.132.219-.109.223.138.023a1.846,1.846,0,0,1,.863-.282c.311-.023.527-.1.479-.182-.107-.174.765-.189.938-.016m67.2.733a5.333,5.333,0,0,0,.968,1.165c1.237,1.257.936,1.284-.394.036-.765-.718-.956-1-.791-1.165.12-.12.217-.136.217-.036M90.741,13.3c0,.192-.17.295-.485.295-.589,0-.524-.441.077-.53.271-.04.408.039.408.235m-1.315.389c0,.156-.167.282-.376.282s-.376-.125-.376-.282.167-.282.376-.282.376.125.376.282m-.98.313a.665.665,0,0,1-.512.314c-.291.042-.4-.018-.346-.188a.665.665,0,0,1,.511-.314c.291-.042.4.018.346.188m-1.086.439c0,.175-.178.282-.47.282-.258,0-.47.085-.47.188s-.169.188-.376.188-.376-.125-.376-.282c0-.189.189-.282.575-.282.335,0,.526-.078.458-.188s.058-.188.271-.188.387.123.387.282m-1.879.772c0,.2-.1.263-.306.185a.468.468,0,0,0-.527.185c-.2.276-.242.276-.469,0-.213-.256-.193-.3.14-.3a.663.663,0,0,0,.5-.188c.185-.3.658-.217.658.114m-1.5.626a.265.265,0,0,1-.488.17c-.093-.149-.189-.085-.293.194-.127.343-.2.375-.41.178s-.179-.279.207-.48c.546-.283.984-.311.984-.063m79.825.794a2.4,2.4,0,0,1,.591.8c0,.108-.313-.116-.7-.5s-.648-.743-.59-.8.371.167.7.5M82.56,16.61a.314.314,0,0,1-.368.107c-.14-.054-.29.08-.35.313-.081.31-.159.354-.326.187s-.15-.289.074-.513c.331-.331,1.167-.411.97-.093m-1.4.75c0,.109-.076.152-.168.095s-.22.031-.283.2a.3.3,0,0,1-.4.193c-.155-.059-.28,0-.28.123,0,.257-.734.778-.884.628s.837-1.058,1.157-1.058c.16,0,.29-.085.29-.188s.127-.188.282-.188.282.09.282.2m83.985,1.021c.242.258.4.511.348.562-.121.121-.911-.616-.911-.85,0-.268.078-.227.563.288m-86.24.426c0,.2-.764.659-.886.537s.426-.68.685-.68c.111,0,.2.064.2.143m-1.127.52a1,1,0,0,1-.738.841c-.309,0-.245-.162.268-.675.364-.364.47-.4.47-.166m88.311.376c.325.391.085.581-.277.219a1.1,1.1,0,0,1-.291-.4c0-.209.333-.1.567.179m-89.362.415c.182.182.129.426-.094.426a1.813,1.813,0,0,0-.707.517A6.934,6.934,0,0,1,73.533,22.8c-.243,0-.185-.124.243-.517a8.377,8.377,0,0,1,2.17-1.6c.078.026.141-.071.141-.215,0-.284.457-.535.639-.352m90.166.722c.375.506.091.628-.377.161-.169-.169-.223-.362-.127-.455s.313.037.5.294m.947,1.737c.355.392.4.6.124.6-.1,0-.188-.12-.188-.266a.394.394,0,0,0-.235-.35c-.129-.046-.185-.138-.124-.2s.251.034.423.224M73,23.643a2.66,2.66,0,0,1-.863.658c-.113,0-.16.073-.1.163.135.218-.541.815-.72.636-.078-.078-.113-.015-.078.14s-.04.262-.166.237c-.141-.028-.182.074-.108.267.089.233.042.283-.185.2-.2-.078-.274-.035-.212.125.051.133-.2.573-.569.977a3.882,3.882,0,0,0-.666.884,1.871,1.871,0,0,1-.459.6,2.679,2.679,0,0,0-.576.837c-.067.21-.2.382-.3.382s-.175.111-.175.247a1.367,1.367,0,0,1-.376.65c-.518.555-.48.722.335,1.514a11.35,11.35,0,0,1,1.168,1.348,9.819,9.819,0,0,0,.7.906.887.887,0,0,1,.241.517c0,.147.082.268.181.268.218,0,.642.743.5.882-.1.1-1.06-.782-1.06-.98a1.031,1.031,0,0,0-.284-.4c-.156-.156-.227-.374-.159-.485s.037-.147-.084-.073-.324-.093-.48-.394a3.69,3.69,0,0,0-.661-.876c-.215-.194-.344-.429-.287-.521s-.008-.144-.145-.116-.228-.054-.2-.183a.148.148,0,0,0-.188-.188c-.141.028-.228-.141-.218-.423.02-.564.446-1.5.682-1.5.092,0,.123-.075.066-.167s.023-.271.177-.4a.785.785,0,0,0,.28-.5c0-.148.085-.217.188-.154s.188.022.188-.093c0-.4.894-1.545,1-1.283.059.147.106.092.114-.133a.993.993,0,0,1,.391-.652c.207-.149.379-.358.382-.464a2.317,2.317,0,0,1,1.206-1.227c.165,0,.291-.162.291-.376s.125-.376.293-.376.239-.086.174-.193-.007-.169.13-.141.228-.054.2-.183.085-.235.246-.235.24-.085.177-.188.061-.188.277-.188c.349,0,.318.075-.264.658m95.528,0c0,.155-.085.282-.188.282s-.188-.127-.188-.282.085-.282.188-.282.188.127.188.282m1.879,3.758c0,.155-.085.282-.188.282s-.188-.127-.188-.282.085-.282.188-.282.188.127.188.282m.276.713c.08.186.094.39.029.454-.191.191-.344-.077-.256-.448.078-.328.088-.328.228-.007m.72,1.9c.077.2.1.4.041.454-.171.171-.322-.109-.25-.466.066-.327.076-.326.209.012m.407.921c.08.186.093.39.029.454-.191.191-.344-.077-.256-.448.077-.328.088-.328.228-.007m.376,1.127c.08.186.093.39.029.454-.191.191-.344-.077-.256-.448.077-.328.088-.328.228-.007m.376,1.127c.08.186.093.39.029.454-.191.191-.344-.077-.256-.448.078-.328.088-.328.228-.007m.355,1.164a.543.543,0,0,1-.04.52c-.242.242-.382-.07-.225-.5.126-.347.137-.348.264-.015m.376,1.354c.225.225.121.621-.162.621a.277.277,0,0,1-.282-.271c0-.314.268-.526.443-.35m-102.4.771a.435.435,0,0,1,.023.413c-.064.1.016.188.177.188a.289.289,0,0,1,.293.282c0,.425-.282.339-.554-.17-.256-.479-.2-1.137.061-.714m102.77.692a.557.557,0,0,1-.057.539c-.3.3-.465-.015-.26-.474.171-.384.193-.388.318-.064M71.71,38.2c-.064.244-.006.376.166.376a.274.274,0,0,1,.264.282c0,.374-.184.357-.49-.047s-.337-.986-.052-.986c.117,0,.166.166.111.376m102.34.675c.128.332,0,.64-.274.64-.225,0-.232-.7-.008-.833.093-.057.22.03.282.194M72.516,39.8c0,.155-.085.282-.188.282s-.188-.127-.188-.282.085-.282.188-.282.188.127.188.282m.168.641a.511.511,0,0,1,.155.573c-.067.256-.008.444.161.509.3.116.37.814.079.814-.1,0-.188-.164-.188-.365a.627.627,0,0,0-.188-.481.755.755,0,0,1-.188-.559.612.612,0,0,0-.235-.538c-.129-.052-.15-.1-.047-.107a.951.951,0,0,1,.45.154m101.691.251c.154.3.06.892-.144.892-.148,0-.256-.2-.256-.47,0-.369.277-.663.4-.423M73.409,42.838c.265.107.326,1,.068,1-.092,0-.2-.254-.249-.564s-.077-.557-.069-.549a2.614,2.614,0,0,0,.249.109M174.8,43.2c.215.56.131,1.012-.168.9-.161-.062-.282-.342-.282-.652,0-.586.264-.73.45-.246M74.019,46.1c0,1.709-.267,1.709-.332,0-.03-.8.025-1.315.141-1.315s.191.551.191,1.315m101.127.047c.17.476.043,1.707-.185,1.784-.169.057-.235-.214-.235-.97,0-.963.216-1.382.42-.814m-19.913,1.188c.7.381.659.54-.047.174a1.683,1.683,0,0,1-.564-.38c0-.121.02-.114.611.206M130.386,49a4.705,4.705,0,0,1-1.292.666c-.163,0,.59-.485.963-.62.181-.066.329-.086.329-.045m28.941,1.558,1.027,1.08-1.08-1.027c-1-.954-1.166-1.134-1.027-1.134.029,0,.515.486,1.08,1.08M89.05,55.3c.387.124.4.153.094.166a1.318,1.318,0,0,1-.658-.166c-.329-.213-.1-.213.564,0m25.928.367a1.366,1.366,0,0,1-.642.194c-.481,0-.331-.1.36-.258.411-.092.488-.075.282.065m-28.653-.059c-.957.849-1.309,1.1-.94.66a3.056,3.056,0,0,1,.751-.634c.208-.107.293-.118.19-.027m77.208,1.035a2.906,2.906,0,0,1,.295.8c0,.208-.381-.45-.614-1.062-.207-.543,0-.371.319.264M93.56,56.43c.65.137.651.139.094.16a1.777,1.777,0,0,1-.846-.16c-.313-.2-.209-.2.752,0m16.331.444a4.51,4.51,0,0,1-.914.175c-.541.069-.74.046-.564-.065.251-.159,1.654-.263,1.478-.11m-13.844.065a2.051,2.051,0,0,1-.752,0c-.179-.047.012-.084.425-.082s.56.04.326.085m11.182.38a8.115,8.115,0,0,1-1.409,0c-.388-.04-.07-.074.7-.074s1.092.033.7.074m-7.609,0a10.788,10.788,0,0,1-1.6,0c-.439-.039-.08-.072.8-.072s1.238.032.8.072m4.694.186a5.014,5.014,0,0,1-1.127,0c-.282-.043-.006-.077.614-.076s.851.036.513.078m-2.721-.007a1.552,1.552,0,0,1-.658,0c-.181-.047-.033-.086.329-.086s.51.039.329.086M84.5,69.311c.051,12.449.122,11.8-1.277,11.7-1.156-.082-1.055-.423.147-.492l.985-.057.05-11.122.05-11.122.046,11.1m80.06-9.75a3.816,3.816,0,0,0,.133.752c.1.326.1.326-.106.01a1.19,1.19,0,0,1-.134-.752c.081-.417.081-.417.107-.01m.35,2.129c0,.465-.037.655-.081.423a2.658,2.658,0,0,1,0-.846c.045-.233.081-.042.081.423M74.16,71.224c.285.1.324,1.739.041,1.739s-.4-.43-.335-1.171c.038-.418.143-.619.294-.568m101.083,1.454c0,.256-.067.425-.148.374s-.191.015-.243.145-.1-.039-.11-.375c-.01-.4.074-.611.243-.611.15,0,.258.2.258.466m-100.473.849c0,.242-.1.375-.235.329a.348.348,0,0,1,0-.658c.14-.047.235.086.235.329m100.11.423c-.033.233-.145.423-.248.423s-.215-.19-.248-.423c-.041-.291.036-.423.248-.423s.289.132.248.423m-99.734.7c0,.207.085.376.188.376a.224.224,0,0,1,.188.247,1.367,1.367,0,0,0,.376.65,1.454,1.454,0,0,1,.376.576.745.745,0,0,0,.28.4c.154.128.225.32.159.428s-.036.143.067.079c.2-.121,1.258.862,1.1,1.018-.049.049.069.1.262.115.37.028,1.137.6,1.137.846,0,.226-.416.087-.827-.277a1.277,1.277,0,0,0-.618-.329c-.136,0-.247-.169-.247-.376,0-.264-.126-.377-.423-.379-.342,0-.369-.038-.141-.185s.2-.183-.141-.185c-.311,0-.424-.114-.426-.426,0-.25-.06-.335-.141-.209-.1.155-.2.142-.38-.047s-.183-.261-.018-.261c.124,0,.042-.158-.18-.351a1.154,1.154,0,0,1-.4-.689c0-.186-.055-.283-.123-.216-.121.122-.629-.7-.629-1.021,0-.092.127-.166.282-.166s.282.167.282.376m99.311.021a.258.258,0,0,1-.1.349c-.125.077-.212.2-.193.269.063.226-.419,1.239-.59,1.239a.179.179,0,0,0-.165.189,2.779,2.779,0,0,1-1.252,1.314c-.138,0-.23.093-.2.205s-.121.3-.326.423a3.605,3.605,0,0,0-.68.546,1.035,1.035,0,0,1-.613.329c-.169,0-.307.085-.307.188s-.127.188-.282.188a.283.283,0,0,1-.282-.282c0-.257.263-.355.891-.333.128,0,.19-.062.137-.147s.271-.407.718-.714a7.159,7.159,0,0,0,1.058-.855c.135-.163.333-.241.441-.175s.139.031.064-.092c-.139-.224.093-.772.5-1.193a4.613,4.613,0,0,0,.573-.954c.359-.765.413-.81.608-.5m-9.374,4.488c0,.672-.034.946-.076.611a5.963,5.963,0,0,1,0-1.221c.041-.336.076-.061.076.611m-85.178.313c.217.216.137.438-.156.438a.283.283,0,0,1-.282-.282c0-.294.222-.373.438-.156m89.372.532a.332.332,0,0,1-.365.282.627.627,0,0,0-.481.188.812.812,0,0,1-.59.188c-.606,0-.493-.446.135-.533a1.383,1.383,0,0,0,.634-.235c.277-.267.667-.2.667.11M80.887,79.9a1.383,1.383,0,0,0,.634.235c.643.089.737.533.113.533-.283,0-.447-.081-.38-.188s-.124-.188-.458-.188c-.386,0-.575-.093-.575-.282,0-.313.39-.377.667-.11m85.855.755-.376.149.376.1c.207.057-.04.09-.549.072-1.332-.045-1.4-.505-.077-.488.7.009.887.059.626.163m-23.313,50.3c.159.415.026.512-.249.181-.133-.161-.152-.314-.047-.379s.23.029.3.2m.831,1.193c.229.31.342.564.252.564-.254,0-.974-.675-.974-.915,0-.372.292-.231.722.351m-2.241-.315c-.043.033-.374.252-.736.485l-.658.424.564-.484a2.332,2.332,0,0,1,.736-.485c.094,0,.137.026.094.06m-36.566.246c.062.062-.014.24-.169.4-.365.365-.491.239-.183-.183.131-.179.289-.275.352-.212m33.575,1.769c-.651.442-1.023.571-.564.2a1.8,1.8,0,0,1,.658-.386c.1,0,.061.085-.094.19m7.591.667c.4.357.673.7.6.773s-.425-.195-.793-.585a2.757,2.757,0,0,1-.605-.773,2.784,2.784,0,0,1,.793.585m1.588,1.128c.14.158.211.329.159.381-.119.119-.883-.348-.883-.54,0-.243.457-.143.723.159m.968.638c0,.1-.127.188-.282.188s-.282-.085-.282-.188.127-.188.282-.188.282.085.282.188m-18.789.931a1.367,1.367,0,0,1-.642.194c-.481,0-.331-.1.36-.258.411-.092.488-.075.282.065m-10.71.008c.387.124.4.153.094.166a1.318,1.318,0,0,1-.658-.166c-.329-.213-.1-.213.564,0m31.941.188c0,.1-.169.188-.376.188s-.376-.085-.376-.188.169-.188.376-.188.376.085.376.188m.8.13c.45.117.416.434-.047.434-.209,0-.376-.125-.376-.282s.021-.272.047-.26.195.061.376.108m-24.19.068a5.855,5.855,0,0,1-1.5.15c-1.417,0-1.155-.1.564-.216.764-.05,1.158-.023.939.065m-5.543-.009,1.221.123-1.127.019a5.328,5.328,0,0,1-1.5-.142c-.415-.178-.36-.178,1.409,0m31.622.308c.192.192-.049.443-.424.443a.511.511,0,0,1-.453-.282c-.11-.287.618-.421.877-.162m5.7.537a7.175,7.175,0,0,1-3.153.077c-.191-.121-.135-.169.21-.179,2.611-.08,3-.067,2.943.1m2.459.219c.366.147.077.439-.435.439s-.614-.276-.161-.45a1.322,1.322,0,0,1,.329-.1l.267.11m1.878.484c-.09.27-.681.323-.752.067-.026-.093.15-.2.392-.236.289-.044.412.014.36.169m1.26.317a.217.217,0,0,1-.083.293.384.384,0,0,1-.567-.291c0-.228.509-.23.65,0m1.123.369c.057.093-.023.217-.177.276-.17.065-.281,0-.281-.169,0-.3.294-.373.458-.108m1.046.384c0,.315-.333.393-.444.1-.065-.171,0-.281.169-.281.152,0,.276.079.276.177m1.127.387c0,.1-.169.188-.376.188s-.376-.085-.376-.188.169-.188.376-.188.376.085.376.188m.751.376c0,.1-.127.188-.282.188s-.282-.085-.282-.188.127-.188.282-.188.282.085.282.188m2.255,1.127c0,.1-.127.188-.282.188s-.282-.085-.282-.188.127-.188.282-.188.282.085.282.188m2.529,1.572c.454.263.854.62.854.763,0,.233-.442.089-.729-.239a1.7,1.7,0,0,0-.576-.435c-.15-.049-.192-.137-.094-.2a.687.687,0,0,1,.546.107m1.629,1.217c.517.3,1.009.938.847,1.1-.052.052-.4-.216-.783-.595-.774-.773-.793-.928-.064-.5m-102.3.123a.944.944,0,0,1-.519.282c-.133,0-.077-.121.128-.276.478-.362.752-.366.391-.006m106.482,4.055c.273.215.446.473.384.573-.132.214-.574-.109-.847-.619-.237-.443-.147-.434.463.047m1.624,1.962c.325.391.085.581-.277.219a1.1,1.1,0,0,1-.291-.4c0-.209.333-.1.567.179m1.061,1.594c.315.581.347.75.141.75a.307.307,0,0,1-.266-.334.9.9,0,0,0-.376-.6c-.426-.307-.49-.565-.141-.562.129,0,.418.339.642.752m.769,1.5c.282.452.291.566.045.566-.1,0-.188-.127-.188-.282s-.085-.282-.188-.282a.188.188,0,0,1-.188-.188c0-.31.27-.213.519.186m.885,1.56c.08.186.093.39.029.454-.191.191-.344-.077-.257-.448.078-.328.088-.328.228-.007m.475,1.166c0,.155-.085.282-.188.282s-.188-.127-.188-.282.085-.282.188-.282.188.127.188.282m.376.752c0,.155-.085.282-.188.282s-.188-.127-.188-.282.085-.282.188-.282.188.127.188.282m.25.6c.194.194.148.814-.061.814-.1,0-.168-.211-.147-.47.044-.527.036-.515.207-.344m.877,2.881c0,.207-.085.376-.188.376s-.188-.169-.188-.376.085-.376.188-.376.188.169.188.376m.376,1.6c0,.258-.085.47-.188.47s-.188-.211-.188-.47.085-.47.188-.47.188.211.188.47m.25,1.535c.2.2.146,1.378-.062,1.378-.1,0-.188-.338-.188-.752,0-.768.031-.845.25-.626m-88.04,17.113c-1.318.032-3.474.032-4.791,0s-.24-.059,2.4-.059,3.713.026,2.4.059m87.578,5.636c-.5.634-.746.843-.862.727-.138-.138.682-1.055.942-1.055.1,0,.062.147-.08.328" transform="translate(-62.183 -0.12)" fill="#81746c" fill-rule="evenodd"/>
    </g>
    <g id="Group_5000" data-name="Group 5000">
      <path id="Union_83" data-name="Union 83" d="M16606-11832v0Zm.5.5h0Z" transform="translate(-16522 12103)" fill="none" stroke="#707070" stroke-width="1"/>
      <path id="Union_86" data-name="Union 86" d="M0,44v0Zm.5-.5h0Z" transform="translate(84.002 453)" fill="none" stroke="#707070" stroke-width="1"/>
      <path id="Union_84" data-name="Union 84" d="M0,44v0Zm.5-.5h0Z" transform="translate(285.5 314.998) rotate(180)" fill="none" stroke="#707070" stroke-width="1"/>
      <path id="Union_85" data-name="Union 85" d="M0,0V0ZM.5.5h0Z" transform="translate(285.5 496.998) rotate(180)" fill="none" stroke="#707070" stroke-width="1"/>
    </g>
  </g>
</svg>
