<svg xmlns="http://www.w3.org/2000/svg" width="375" height="811.997" viewBox="0 0 375 811.997">
  <path id="Subtraction_6" data-name="Subtraction 6" d="M20169-11020h-375l0-812h375v812h0v0Zm-187.5-739a129.4,129.4,0,0,0-30.533,3.657,133.861,133.861,0,0,0-28.437,10.488,145.944,145.944,0,0,0-25.734,16.6,162.043,162.043,0,0,0-22.422,21.979,178.557,178.557,0,0,0-18.5,26.64,192.913,192.913,0,0,0-13.969,30.575,204.694,204.694,0,0,0-8.826,33.788A214.449,214.449,0,0,0,19830-11579a214.426,214.426,0,0,0,3.078,36.275,204.607,204.607,0,0,0,8.826,33.787,193.022,193.022,0,0,0,13.969,30.574,178.4,178.4,0,0,0,18.5,26.639,161.983,161.983,0,0,0,22.422,21.979,145.944,145.944,0,0,0,25.734,16.6,133.9,133.9,0,0,0,28.438,10.488,129.4,129.4,0,0,0,30.533,3.657,129.406,129.406,0,0,0,30.535-3.657,133.9,133.9,0,0,0,28.439-10.488,145.944,145.944,0,0,0,25.734-16.6,161.832,161.832,0,0,0,22.422-21.979,178.332,178.332,0,0,0,18.5-26.639,193.022,193.022,0,0,0,13.969-30.574,204.415,204.415,0,0,0,8.826-33.787A214.426,214.426,0,0,0,20133-11579a214.449,214.449,0,0,0-3.078-36.277,204.477,204.477,0,0,0-8.826-33.788,192.913,192.913,0,0,0-13.969-30.575,178.492,178.492,0,0,0-18.5-26.64,161.827,161.827,0,0,0-22.422-21.979,145.944,145.944,0,0,0-25.734-16.6,133.955,133.955,0,0,0-28.439-10.488A129.406,129.406,0,0,0,19981.5-11759Z" transform="translate(-19794 11832)" fill="rgba(0,0,0,0.8)"/>
</svg>
