<svg xmlns="http://www.w3.org/2000/svg" xmlns:xlink="http://www.w3.org/1999/xlink" width="163.221" height="113.413" viewBox="0 0 163.221 113.413">
  <defs>
    <linearGradient id="linear-gradient" x1="0.5" x2="0.5" y2="1" gradientUnits="objectBoundingBox">
      <stop offset="0" stop-color="#ff8d8d"/>
      <stop offset="1" stop-color="#773232"/>
    </linearGradient>
    <linearGradient id="linear-gradient-2" x1="0.5" x2="0.5" y2="1" gradientUnits="objectBoundingBox">
      <stop offset="0" stop-color="#d00"/>
      <stop offset="1" stop-color="#6f0000"/>
    </linearGradient>
    <filter id="Union_62" x="62.777" y="42.596" width="69.233" height="70.817" filterUnits="userSpaceOnUse">
      <feOffset dy="3" input="SourceAlpha"/>
      <feGaussianBlur stdDeviation="3" result="blur"/>
      <feFlood flood-opacity="0.549"/>
      <feComposite operator="in" in2="blur"/>
      <feComposite in="SourceGraphic"/>
    </filter>
  </defs>
  <g id="Group_2874" data-name="Group 2874" transform="translate(6419.319 2763.596)">
    <g id="rotated-right-arrow-with-broken-line" transform="translate(-6368.988 -2750.919) rotate(77)">
      <g id="Group_2875" data-name="Group 2875" transform="translate(0 0)">
        <path id="Path_2011" data-name="Path 2011" d="M.356,32.284c2.38-.6,5.118.357,7.5.6a.537.537,0,0,1,0,1.071,26.28,26.28,0,0,1-7.5-.6C-.12,33.117-.12,32.4.356,32.284Z" transform="translate(63.246 -31.207)"/>
        <path id="Path_2012" data-name="Path 2012" d="M79.789,41.632c1.666-1.666,4.285-2.023,6.427-1.9a.357.357,0,0,1,0,.714,15.07,15.07,0,0,0-3.332.714c-.952.357-1.785.833-2.737,1.19C79.789,42.584,79.432,41.989,79.789,41.632Z" transform="translate(-30.468 -37.341)"/>
        <path id="Path_2013" data-name="Path 2013" d="M149.309,76.861a7.5,7.5,0,0,1,2.38-2.737,16.277,16.277,0,0,1,2.856-2.142.3.3,0,1,1,.357.476,15.9,15.9,0,0,0-2.5,2.38c-.833.833-1.428,1.9-2.261,2.737C149.785,78.051,149.071,77.456,149.309,76.861Z" transform="translate(-112.485 -63.287)"/>
        <path id="Path_2014" data-name="Path 2014" d="M187.764,134.153a.481.481,0,1,1,.833.476c-.238.6-.6,1.309-.833,1.9a14.04,14.04,0,0,1-.476,2.38.458.458,0,0,1-.833,0C185.86,137.6,187.05,135.462,187.764,134.153Z" transform="translate(-153.321 -113.201)"/>
        <path id="Path_2015" data-name="Path 2015" d="M201.167,195.641a16.279,16.279,0,0,1,.238-3.451c.119-.6.833-.6.833,0a26.9,26.9,0,0,1,.119,3.094,9.727,9.727,0,0,1-.119,3.213.58.58,0,0,1-1.071,0A7.676,7.676,0,0,1,201.167,195.641Z" transform="translate(-169.937 -159.811)"/>
        <path id="Path_2016" data-name="Path 2016" d="M177.241,264.245a24.021,24.021,0,0,0,1.666,3.57,9.426,9.426,0,0,1,1.547,3.333c.119.6-.714.714-1.071.476a8.893,8.893,0,0,1-1.9-3.451,13.987,13.987,0,0,1-1.19-3.57C176.17,263.888,177.122,263.65,177.241,264.245Z" transform="translate(-143.155 -217.942)"/>
        <path id="Path_2017" data-name="Path 2017" d="M142.186,312.153c.714.833,1.428,1.785,2.142,2.5a5.284,5.284,0,0,0,1.309.952c.476.238.714.238,1.071.714a.658.658,0,0,1-.357.952c-1.071.238-2.023-.833-2.737-1.547a14.7,14.7,0,0,1-2.023-3.213C141.472,312.153,141.948,311.8,142.186,312.153Z" transform="translate(-102.744 -256.686)"/>
        <path id="Path_2018" data-name="Path 2018" d="M98.248,327.8a3.376,3.376,0,0,0,2.023.833c.6,0,1.309-.119,1.785.357a.575.575,0,0,1,0,.833c-1.19,1.19-3.57-.476-4.285-1.428C97.534,328.038,97.891,327.562,98.248,327.8Z" transform="translate(-49.642 -269.357)"/>
        <path id="Path_2019" data-name="Path 2019" d="M46.848,301.705a13.513,13.513,0,0,0,2.975-.714,4.93,4.93,0,0,0,2.142-2.261.652.652,0,0,1,1.19.357c.119,3.213-3.928,3.809-6.308,3.451C46.491,302.42,46.491,301.705,46.848,301.705Z" transform="translate(9.376 -245.762)"/>
        <path id="Path_2020" data-name="Path 2020" d="M37.515,250.666c.952-1.785.714-3.57,1.071-5.475a.5.5,0,0,1,.952,0,7.866,7.866,0,0,1-1.428,5.832C37.872,251.381,37.4,251.142,37.515,250.666Z" transform="translate(24.66 -202.578)"/>
        <path id="Path_2021" data-name="Path 2021" d="M38.809,168.908c2.142,2.023,2.618,5,2.5,7.736,0,.476-.833.476-.833,0a12.453,12.453,0,0,0-2.38-7.022A.505.505,0,1,1,38.809,168.908Z" transform="translate(22.889 -141.29)"/>
        <path id="Path_2022" data-name="Path 2022" d="M60.28,125.27a14.067,14.067,0,0,1,5.118,5.118c.357.476-.476.952-.714.476A46.087,46.087,0,0,0,59.8,126.1C59.328,125.627,59.8,125.031,60.28,125.27Z" transform="translate(-5.485 -106.221)"/>
        <path id="Path_2023" data-name="Path 2023" d="M98.311,90c1.666,0,3.57,1.428,4.642,2.618a.5.5,0,1,1-.714.714,7.819,7.819,0,0,0-2.023-1.428,19.419,19.419,0,0,1-2.261-1.071C97.6,90.593,97.954,90,98.311,90Z" transform="translate(-50.537 -77.853)"/>
        <path id="Path_2024" data-name="Path 2024" d="M170.864,64.294a23.831,23.831,0,0,1,2.856.476,16.252,16.252,0,0,1,3.451.833.491.491,0,0,1-.238.952,32.081,32.081,0,0,0-3.332-.476,6.452,6.452,0,0,1-2.975-.714A.558.558,0,0,1,170.864,64.294Z" transform="translate(-139.039 -57.147)"/>
        <path id="Path_2025" data-name="Path 2025" d="M230.793,57.534a18.543,18.543,0,0,1,5.118.119.418.418,0,1,1,0,.833,18.442,18.442,0,0,1-5.118.119A.545.545,0,0,1,230.793,57.534Z" transform="translate(-209.561 -51.577)"/>
        <path id="Path_2026" data-name="Path 2026" d="M287.619,60.618a8.823,8.823,0,0,1,2.5-.119,19.285,19.285,0,0,1,2.618.119.477.477,0,0,1,0,.952,19.282,19.282,0,0,0-2.618.119,8.824,8.824,0,0,1-2.5-.119C287.143,61.57,287.143,60.856,287.619,60.618Z" transform="translate(-277.455 -54.066)"/>
      </g>
    </g>
    <g id="Group_2825" data-name="Group 2825" transform="translate(-6358.034 -2746.506)">
      <path id="Path_1977" data-name="Path 1977" d="M50.922,0H2.778A2.778,2.778,0,0,0,0,2.778V92.03a2.778,2.778,0,0,0,2.778,2.778H69.439a2.778,2.778,0,0,0,2.778-2.778V21.295Z" fill="url(#linear-gradient)"/>
      <g id="Group_2824" data-name="Group 2824" transform="translate(36.108)">
        <path id="Path_1978" data-name="Path 1978" d="M209.814,0H195V94.807h33.331a2.778,2.778,0,0,0,2.778-2.778V21.295Z" transform="translate(-195)" fill="url(#linear-gradient-2)"/>
      </g>
      <path id="Path_1979" data-name="Path 1979" d="M276.964.814A2.776,2.776,0,0,0,275,0V18.517a2.778,2.778,0,0,0,2.777,2.778h18.517a2.776,2.776,0,0,0-.814-1.964Z" transform="translate(-224.078 0)" fill="#ff80aa"/>
    </g>
    <g id="Group_2837" data-name="Group 2837" transform="translate(-6346.924 -2735.395)">
      <path id="Path_1990" data-name="Path 1990" d="M88.7,76.665H62.778A2.778,2.778,0,0,1,60,73.888V62.778A2.778,2.778,0,0,1,62.778,60H88.7a2.778,2.778,0,0,1,2.778,2.778v11.11A2.778,2.778,0,0,1,88.7,76.665Z" transform="translate(-60 -60)" fill="#fff17d"/>
    </g>
    <g id="Group_2838" data-name="Group 2838" transform="translate(-6321.926 -2735.395)">
      <path id="Path_1991" data-name="Path 1991" d="M198.7,60H195V76.665h3.7a2.778,2.778,0,0,0,2.778-2.778V62.778A2.778,2.778,0,0,0,198.7,60Z" transform="translate(-195 -60)" fill="#ffda44"/>
    </g>
    <g transform="matrix(1, 0, 0, 1, -6419.32, -2763.6)" filter="url(#Union_62)">
      <path id="Union_62-2" data-name="Union 62" d="M30.727,51.123a5.783,5.783,0,0,1,0-8.178l4.061-4.061a5.782,5.782,0,1,1,3.33-3.329l3.242-3.243a5.783,5.783,0,0,1,8.178,8.179L38.906,51.123a5.783,5.783,0,0,1-8.179,0Zm-18.4,0L1.694,40.49a5.783,5.783,0,0,1,8.178-8.178l3.243,3.244a5.783,5.783,0,1,1,3.328,3.328L20.5,42.944a5.783,5.783,0,1,1-8.178,8.178Zm16.3-27.7a5.784,5.784,0,0,1,6.16-9.491l-4.06-4.06a5.783,5.783,0,1,1,8.178-8.179L49.539,12.326A5.783,5.783,0,0,1,41.36,20.5l-3.242-3.242a5.784,5.784,0,0,1-9.491,6.16Zm-14.2,0a5.785,5.785,0,0,1-1.311-6.16L9.872,20.506a5.783,5.783,0,0,1-8.178-8.179L12.326,1.695A5.783,5.783,0,0,1,20.5,9.873l-4.06,4.06a5.783,5.783,0,1,1-2.019,9.491Z" transform="translate(71.78 48.6)" fill="#fff" opacity="0.629"/>
    </g>
    <g id="Group_2853" data-name="Group 2853" transform="translate(-6294.31 -2689.91)">
      <circle id="Ellipse_482" data-name="Ellipse 482" cx="19.106" cy="19.106" r="19.106" transform="translate(0 0)" fill="#00ba77"/>
      <g id="Question_mark" data-name="Question mark" transform="translate(1.084 1.068)">
        <path id="Path_1960" data-name="Path 1960" d="M59.278-730.932a18,18,0,0,0-6.59,1.768,17.523,17.523,0,0,0-4.906,3.477A18.045,18.045,0,0,0,42.6-715.059a24.045,24.045,0,0,0,0,4.277,17.919,17.919,0,0,0,1.837,5.986,16.952,16.952,0,0,0,2.959,4.234,17.984,17.984,0,0,0,10.538,5.478,17.933,17.933,0,0,0,9.522-1.2,18.092,18.092,0,0,0,10.644-12.629,18.032,18.032,0,0,0-3.837-15.672,18.052,18.052,0,0,0-11.141-6.193A20.329,20.329,0,0,0,59.278-730.932ZM61.66-728.8A15.923,15.923,0,0,1,75.9-716.969a14.42,14.42,0,0,1,.508,4.1A15.382,15.382,0,0,1,74.839-706a16.25,16.25,0,0,1-5.319,6.193,15.97,15.97,0,0,1-7.23,2.694,19.627,19.627,0,0,1-4.33-.106,15.746,15.746,0,0,1-4.938-1.673,16.255,16.255,0,0,1-5.1-4.292,17.23,17.23,0,0,1-2.668-5.219,15.914,15.914,0,0,1,.275-9.855,15.467,15.467,0,0,1,3.721-5.885,14.631,14.631,0,0,1,2.461-2.032A15.966,15.966,0,0,1,61.66-728.8Z" transform="translate(-42.5 730.967)" fill="#fff"/>
        <path id="Path_1961" data-name="Path 1961" d="M270.454-574.951a6.663,6.663,0,0,0-5.108,2.715,4.719,4.719,0,0,0-.7,1.567,4.132,4.132,0,0,0-.143,1.456,4.4,4.4,0,0,0,.7,2.742,9.575,9.575,0,0,0,1.7,2.064,9.694,9.694,0,0,1,1.784,2.228,3.551,3.551,0,0,1,.365,2.44c-.132.561-.339.508,1.81.492l1.889-.016.09-.365a5.829,5.829,0,0,0-.3-3.753,8.115,8.115,0,0,0-1.768-2.5c-1.44-1.482-1.974-2.281-2.122-3.2a2.3,2.3,0,0,1,1.911-2.6,9.872,9.872,0,0,1,2.773.048,6.564,6.564,0,0,0,.7.1c.026-.032.6-3.012.6-3.138,0-.1-.048-.122-.3-.175A17.86,17.86,0,0,0,270.454-574.951Z" transform="translate(-252.75 583.264)" fill="#fff"/>
        <path id="Path_1962" data-name="Path 1962" d="M340.43-248.781a2.4,2.4,0,0,0-1.667,1.223,2.357,2.357,0,0,0-.011,1.99,2.524,2.524,0,0,0,1.074,1.043,1.729,1.729,0,0,0,1.037.164,1.792,1.792,0,0,0,1-.143,2.858,2.858,0,0,0,1.022-.921,2.14,2.14,0,0,0,.286-1.106,2.087,2.087,0,0,0-.715-1.662,2.224,2.224,0,0,0-1.2-.588A1.947,1.947,0,0,0,340.43-248.781Z" transform="translate(-322.868 274.344)" fill="#fff"/>
      </g>
    </g>
    <g id="Group_2851" data-name="Group 2851" transform="translate(-6398.595 -2763.596)">
      <path id="Path_2006" data-name="Path 2006" d="M-9738.074,2582.337l-21.63-28.1,21.63,13.027Z" transform="translate(9768.085 -2548.156)" fill="#646464"/>
      <path id="Path_2005" data-name="Path 2005" d="M-9770.1,2546.695l43.053,11.856-12.655,7.8-19.608-11.763,14.609,16.134-12.045,8.832Z" transform="translate(9770.098 -2546.695)" fill="#a3a3a3"/>
    </g>
    <g id="what_is_it" data-name="what is it" transform="translate(-5956.169 -2652.584) rotate(-90)">
      <path id="Path_2032" data-name="Path 2032" d="M884.012-321.144l.018,5.862h2.162v-11.688l-1.1-.018L884-327Z" transform="translate(-792.206)" fill="#d00"/>
      <path id="Path_2033" data-name="Path 2033" d="M62.311-272.86a17.514,17.514,0,0,0-2.706.567,7.564,7.564,0,0,0,.082.853l.105.83.146-.029c.082-.018.468-.111.853-.21a9.549,9.549,0,0,1,2.606-.356c3.051-.006,4.471,1.35,4.593,4.366l.035.777H66.372v-.468a4.152,4.152,0,0,0-.865-2.577,2.927,2.927,0,0,0-1.344-.748,5.783,5.783,0,0,0-1.853.023,2.711,2.711,0,0,0-2.1,2.028,2.032,2.032,0,0,0,.216,1.654l.129.164-.4-.035c-.228-.023-.964-.041-1.648-.041H57.267l-.029-1.771a10.847,10.847,0,0,0-.123-2.139c-.386-1.5-1.315-2.2-3.056-2.338a17.6,17.6,0,0,0-3.9.269c-.076.023-.088.45-.088,3v2.975H49.15c-2.928,0-4.073-.766-4.278-2.84a6.892,6.892,0,0,1,.374-2.934c.082-.2.146-.374.146-.38,0-.041-2.3.362-2.343.409a6.9,6.9,0,0,0-.4,1.876,5.226,5.226,0,0,0,1.081,4.021,4.612,4.612,0,0,0,2.285,1.28,14.2,14.2,0,0,0,3.8.3l2.349.035v-3.1c0-2.9.006-3.1.105-3.132a6.672,6.672,0,0,1,.684-.07c1.157-.076,1.706.187,2.016.97a17.045,17.045,0,0,1,.117,2.747l.029,2.542,7.5.018,7.492.012v-1.414a9.7,9.7,0,0,0-.538-3.845,5.184,5.184,0,0,0-4.383-3.238A18.319,18.319,0,0,0,62.311-272.86Zm1.648,4.664a1.865,1.865,0,0,1,.392.52,1.84,1.84,0,0,1,.2,1.005l.029.666h-.736a2.217,2.217,0,0,1-1.5-.333,1.2,1.2,0,0,1-.415-.935,1.036,1.036,0,0,1,.281-.8c.251-.269.45-.327,1.017-.316C63.69-268.371,63.748-268.354,63.959-268.2Z" transform="translate(0 -50.944)" fill="#d00"/>
      <path id="Path_2034" data-name="Path 2034" d="M611.917-263.245a3.83,3.83,0,0,0-3.606,2.846,5.867,5.867,0,0,0-.088,2.221,3.226,3.226,0,0,0,2.571,2.7c.725.2,1.823.24,6.44.222l4.383-.018.018-3.9.012-3.9h-2.221V-257h-3.39v-5.675l-.216-.088A10.427,10.427,0,0,0,611.917-263.245Zm1.3,1.782c.731.152.654-.111.654,2.343v2.133l-.917-.029a3.825,3.825,0,0,1-1.286-.158,2,2,0,0,1-1.1-.976,1.958,1.958,0,0,1-.187-.993,2.456,2.456,0,0,1,.105-1.069,2.065,2.065,0,0,1,.842-1.1A2.844,2.844,0,0,1,613.22-261.462Z" transform="translate(-532.483 -60.009)" fill="#d00"/>
      <path id="Path_2035" data-name="Path 2035" d="M867.069-108.518c-.935.216-1.49.771-1.5,1.508a.713.713,0,0,0,.123.462l.123.164-.409-.035-.409-.035v1.186h4.149v-1.169h-.655a5.55,5.55,0,0,1-.923-.064c-.438-.1-.631-.386-.468-.7.111-.21.684-.292,1.268-.181l.251.047.035-.21c.018-.117.07-.374.111-.579s.053-.38.018-.4A6.444,6.444,0,0,0,867.069-108.518Z" transform="translate(-774.316 -205.66)" fill="#d00"/>
      <path id="Path_2036" data-name="Path 2036" d="M98.191-105.35a.929.929,0,0,0-.608.351,1.073,1.073,0,0,0,.847,1.753,1.06,1.06,0,0,0,.8-1.73A1.05,1.05,0,0,0,98.191-105.35Z" transform="translate(-51.514 -208.676)" fill="#d00"/>
      <path id="Path_2037" data-name="Path 2037" d="M143.748-105.4a1.092,1.092,0,0,0-.777,1.443,1.09,1.09,0,0,0,1.414.579,1.308,1.308,0,0,0,.631-.731A1.072,1.072,0,0,0,143.748-105.4Z" transform="translate(-94.417 -208.63)" fill="#d00"/>
      <path id="Path_2038" data-name="Path 2038" d="M758.959-105.625a1.084,1.084,0,0,0-.485,1.566.979.979,0,0,0,.923.462.762.762,0,0,0,.608-.169,1.123,1.123,0,0,0,.432-.982A1.081,1.081,0,0,0,758.959-105.625Z" transform="translate(-673.856 -208.354)" fill="#d00"/>
      <path id="Path_2039" data-name="Path 2039" d="M804.68-105.723a1.11,1.11,0,0,0-.5,1.753,1.217,1.217,0,0,0,1.257.275,1.581,1.581,0,0,0,.538-.555,1.264,1.264,0,0,0-.058-.976A1.153,1.153,0,0,0,804.68-105.723Z" transform="translate(-716.807 -208.309)" fill="#d00"/>
    </g>
  </g>
</svg>
