<svg xmlns="http://www.w3.org/2000/svg" width="17.996" height="17.997" viewBox="0 0 17.996 17.997">
  <g id="gear" transform="translate(-116 584.026)">
    <path id="Path_3235" data-name="Path 3235" d="M124.017-583.969a1.636,1.636,0,0,0-.745.436,1.621,1.621,0,0,0-.489,1.23V-582l-.218.081c-.123.042-.38.148-.573.232l-.348.155-.2-.19a1.7,1.7,0,0,0-1.67-.5c-.359.095-.562.243-1.146.823s-.728.787-.822,1.146a1.7,1.7,0,0,0,.5,1.67l.19.2-.155.348c-.084.193-.19.45-.232.569l-.081.221h-.306a1.639,1.639,0,0,0-1.234.489c-.408.411-.489.692-.489,1.726s.081,1.315.489,1.726a1.639,1.639,0,0,0,1.234.489h.306l.081.218c.042.123.148.38.232.573l.155.348-.19.2a1.7,1.7,0,0,0-.5,1.67c.095.359.243.562.822,1.146s.787.728,1.146.822a1.7,1.7,0,0,0,1.67-.5l.2-.19.348.155c.193.084.45.19.573.232l.218.081v.306a1.621,1.621,0,0,0,.489,1.23c.422.415.689.492,1.726.492s1.315-.081,1.726-.489a1.639,1.639,0,0,0,.489-1.234v-.306l.221-.081c.12-.042.376-.148.569-.232l.348-.155.2.19a1.7,1.7,0,0,0,1.67.5c.366-.1.534-.218,1.128-.808s.745-.8.84-1.16a1.71,1.71,0,0,0-.5-1.673l-.193-.193.12-.264c.067-.144.172-.4.235-.569l.116-.306h.3a1.606,1.606,0,0,0,1.234-.489c.415-.422.492-.689.492-1.726s-.077-1.3-.492-1.726a1.606,1.606,0,0,0-1.234-.489h-.3l-.081-.221c-.042-.12-.148-.376-.232-.569l-.155-.348.19-.2a1.7,1.7,0,0,0,.5-1.67c-.095-.362-.239-.562-.84-1.16s-.763-.71-1.128-.808a1.679,1.679,0,0,0-1.627.457l-.243.225-.348-.151c-.19-.084-.446-.19-.566-.232l-.221-.081v-.306a1.639,1.639,0,0,0-.489-1.234,1.61,1.61,0,0,0-.766-.436A8.526,8.526,0,0,0,124.017-583.969Zm1.814,1.072a.54.54,0,0,1,.239.221c.081.141.088.183.088.647,0,.555.042.735.207.844a3.984,3.984,0,0,0,.548.214,7.485,7.485,0,0,1,.942.394,3.193,3.193,0,0,0,.573.243c.176,0,.351-.116.7-.457.366-.359.467-.422.671-.422s.306.067.8.552.59.622.59.83-.063.309-.422.678c-.344.348-.457.52-.457.7a2.547,2.547,0,0,0,.207.5,6.939,6.939,0,0,1,.5,1.2c.151.506.25.562.991.562.464,0,.506.007.647.088.264.155.3.274.3,1.072s-.032.917-.3,1.072c-.141.081-.183.088-.647.088-.756,0-.837.049-1.009.615a8.13,8.13,0,0,1-.541,1.283c-.232.429-.193.555.313,1.068.359.366.422.468.422.671s-.067.306-.552.8-.622.591-.83.591-.309-.063-.678-.422c-.517-.51-.64-.545-1.069-.313a8.014,8.014,0,0,1-1.286.545c-.562.169-.612.25-.612,1.005,0,.464-.007.506-.088.647-.155.264-.274.3-1.072.3s-.917-.032-1.072-.3c-.081-.141-.088-.183-.088-.647,0-.724-.063-.847-.51-.974a8.44,8.44,0,0,1-1.258-.51,2.59,2.59,0,0,0-.506-.211c-.172,0-.348.116-.692.457-.366.359-.467.422-.671.422s-.306-.067-.8-.555-.583-.615-.583-.829.063-.309.422-.675c.344-.348.457-.52.457-.7a3.084,3.084,0,0,0-.243-.573,8.3,8.3,0,0,1-.394-.942,3.4,3.4,0,0,0-.214-.548c-.109-.165-.288-.207-.844-.207-.464,0-.506-.007-.647-.088-.264-.155-.3-.274-.3-1.072s.032-.917.3-1.072c.141-.081.183-.088.647-.088.555,0,.735-.042.844-.207a3.863,3.863,0,0,0,.214-.545,9.174,9.174,0,0,1,.39-.945,3.139,3.139,0,0,0,.246-.576c0-.172-.116-.348-.457-.692-.359-.366-.422-.467-.422-.675s.088-.337.583-.829.594-.555.8-.555.306.063.671.422c.344.341.52.457.692.457a3.142,3.142,0,0,0,.576-.246,9.169,9.169,0,0,1,.946-.39,3.873,3.873,0,0,0,.545-.214c.165-.109.207-.288.207-.844,0-.464.007-.506.088-.643a.559.559,0,0,1,.236-.225c.137-.067.211-.074.833-.074S125.694-582.964,125.831-582.9Z"/>
    <path id="Path_3236" data-name="Path 3236" d="M264.69-438.767a3.945,3.945,0,0,0-3,2.84,2.9,2.9,0,0,0-.091.991,2.9,2.9,0,0,0,.091.991,3.986,3.986,0,0,0,2.8,2.8,2.9,2.9,0,0,0,.991.091,2.9,2.9,0,0,0,.991-.091,3.986,3.986,0,0,0,2.8-2.8,2.9,2.9,0,0,0,.091-.991,2.9,2.9,0,0,0-.091-.991,3.962,3.962,0,0,0-2.787-2.791A4.675,4.675,0,0,0,264.69-438.767Zm1.448,1.054a2.827,2.827,0,0,1,2.19,2.777,2.818,2.818,0,0,1-2.847,2.847,2.739,2.739,0,0,1-2.028-.847,2.73,2.73,0,0,1-.819-2,2.838,2.838,0,0,1,2.172-2.777A3.27,3.27,0,0,1,266.138-437.713Z" transform="translate(-140.482 -140.091)"/>
  </g>
</svg>
