<svg xmlns="http://www.w3.org/2000/svg" width="30.324" height="37.002" viewBox="0 0 30.324 37.002">
  <g id="Screenshot_2024-03-26_at_8.09.44_PM" data-name="Screenshot 2024-03-26 at 8.09.44 PM" transform="translate(-133.529 1183.901)">
    <path id="Path_5188" data-name="Path 5188" d="M147.915-1183.617c-.362.156-.8.344-.976.422s-.734.323-1.242.543c-1.5.656-3.882,1.71-4.187,1.852-.156.071-2.008.9-4.116,1.834s-3.842,1.714-3.857,1.724c-.035.039.035,10.963.078,11.762a17.626,17.626,0,0,0,.571,3.47,20.275,20.275,0,0,0,1.558,4.2,21.713,21.713,0,0,0,3.136,4.754c.373.433,1.547,1.608,2.008,2a18.584,18.584,0,0,0,7.469,4.063l.319.092.674-.195a18.8,18.8,0,0,0,7.987-4.748,21.8,21.8,0,0,0,6.33-12.577c.114-.8.138-1.969.163-7.6l.021-5.233-1.59-.706c-.876-.387-3.03-1.344-4.786-2.122s-3.537-1.568-3.956-1.749-1.281-.557-1.916-.834c-1.806-.787-2.9-1.242-2.966-1.238A6.78,6.78,0,0,0,147.915-1183.617Zm-5.056,11.087a39.659,39.659,0,0,1,3,2.906l2.821,2.82,2.838-2.835a40.9,40.9,0,0,1,3.012-2.913,1.087,1.087,0,0,1,.805-.011.971.971,0,0,1,.578.88c.007.454.163.273-2.98,3.424l-2.853,2.856,2.821,2.821c3.122,3.122,3.016,3,3.016,3.441a.965.965,0,0,1-.972.965c-.415,0-.291.11-3.4-3l-2.849-2.845-2.845,2.845c-1.568,1.561-2.9,2.867-2.955,2.9a1.39,1.39,0,0,1-.294.089.971.971,0,0,1-1.068-1.345,28.184,28.184,0,0,1,2.92-3.041l2.842-2.845-2.846-2.849c-3.083-3.08-2.995-2.984-3-3.374A.964.964,0,0,1,142.859-1172.529Z" transform="translate(0 0)" fill="#c00"/>
  </g>
</svg>
