<svg xmlns="http://www.w3.org/2000/svg" width="27.117" height="25.61" viewBox="0 0 27.117 25.61">
  <g id="Screenshot_2024-02-09_at_5.17.39_PM" data-name="Screenshot 2024-02-09 at 5.17.39 PM" transform="translate(-47 313.961)">
    <path id="Path_3414" data-name="Path 3414" d="M51.787-313.829c-.464.2-.654.579-.711,1.457l-.047.772-1.232.058a8.068,8.068,0,0,0-1.479.154,2.477,2.477,0,0,0-1.071,1.061l-.246.444v18.8l.256.482a2.292,2.292,0,0,0,1.469,1.129c.464.106,11.962.145,12.6.048.436-.077.578-.289.322-.482-.142-.106-1.337-.135-6.465-.125-7.071,0-6.683.039-7.27-.714l-.294-.376-.019-8.933c-.019-4.92,0-9.165.028-9.435a1.749,1.749,0,0,1,.872-1.293,8.994,8.994,0,0,1,2.37-.125c.19.048.209.106.209.772,0,.83.152,1.206.6,1.476a1.345,1.345,0,0,0,1.763-.347c.161-.2.2-.4.2-.945a2.713,2.713,0,0,1,.085-.82,5.061,5.061,0,0,1,1.934-.116c.133.01.161.106.161.637a1.837,1.837,0,0,0,.521,1.5c.209.2.351.241.825.241.531,0,.588-.019.891-.357a1.074,1.074,0,0,0,.341-.868c.019-.888.038-1.032.085-1.09a6.92,6.92,0,0,1,1.754-.077l.3.048.038.733a3.564,3.564,0,0,0,.2,1.042,1.364,1.364,0,0,0,1.8.434c.446-.289.55-.531.607-1.408.047-.695.085-.82.237-.878a10.584,10.584,0,0,1,1.886.1s.038.4.076.859c.066.772.1.878.37,1.148a1.314,1.314,0,0,0,2-.232,3.01,3.01,0,0,0,.18-1l.038-.791.446-.058a5.639,5.639,0,0,1,2.152.174,1.916,1.916,0,0,1,.512.463l.237.318.028,4.4c.019,4.148.038,4.409.2,4.563s.19.154.332,0,.161-.56.133-4.563l-.028-4.4-.265-.453a2.185,2.185,0,0,0-1.109-.994,9.212,9.212,0,0,0-1.422-.135L68-311.6l-.057-.772c-.066-.888-.171-1.109-.664-1.389a1.215,1.215,0,0,0-1.3-.01c-.389.241-.559.637-.626,1.447a2.318,2.318,0,0,1-.133.695,3.674,3.674,0,0,1-1.024.058l-.938-.029-.057-.762a4.312,4.312,0,0,0-.171-.965,1.331,1.331,0,0,0-1.791-.444c-.483.28-.607.55-.664,1.466l-.047.753H59.5c-.758,0-1.033-.029-1.033-.125-.019-1.013-.085-1.428-.284-1.7a1.2,1.2,0,0,0-1.716-.367,1.661,1.661,0,0,0-.654,1.534v.656H54.782c-1.194,0-1.128.048-1.137-.945a1.383,1.383,0,0,0-.209-.9A1.315,1.315,0,0,0,51.787-313.829Zm1.09.695c.114.116.152.492.171,1.852.028,1.544.009,1.737-.142,1.929a.6.6,0,0,1-.919.1l-.256-.222-.009-1.727-.009-1.727.265-.232A.617.617,0,0,1,52.877-313.135Zm9.507.058c.142.174.161.415.161,1.91v1.727l-.256.2a.646.646,0,0,1-.9-.068c-.152-.135-.171-.357-.171-1.91s.019-1.775.171-1.9A.632.632,0,0,1,62.384-313.077Zm-4.73,0c.123.174.152.531.152,1.872,0,1.466-.019,1.679-.171,1.872a.707.707,0,0,1-.976.039c-.161-.154-.18-.318-.18-1.9,0-1.978.038-2.093.673-2.093A.516.516,0,0,1,57.654-313.077Zm9.488-.019c.142.164.161.386.152,1.9-.009,1.708-.009,1.717-.256,1.929a.509.509,0,0,1-.844-.029c-.237-.251-.237-.289-.237-1.91,0-1.92.047-2.084.654-2.084A.689.689,0,0,1,67.142-313.1Z" transform="translate(0 0)"/>
    <path id="Path_3415" data-name="Path 3415" d="M129.574-237.764c-.438.233-.574.681-.574,1.877,0,1.916.214,2.1,2.344,2.043,1.255-.039,1.362-.049,1.6-.272.321-.3.418-.72.418-1.838,0-1.761-.195-1.936-2.2-1.945A4.209,4.209,0,0,0,129.574-237.764Zm3.006.652a6.313,6.313,0,0,1,0,2.49,7.861,7.861,0,0,1-2.782,0,6.363,6.363,0,0,1,.01-2.539A10.89,10.89,0,0,1,132.579-237.112Z" transform="translate(-74.247 -68.731)"/>
    <path id="Path_3416" data-name="Path 3416" d="M185.463-237.7a1.086,1.086,0,0,0-.768.749c-.01.107-.019.681-.019,1.274-.029,1.819.156,1.994,1.994,1.994,2.15,0,2.315-.146,2.315-1.994,0-1.274-.136-1.741-.554-1.955A15.219,15.219,0,0,0,185.463-237.7Zm2.724.73a6.312,6.312,0,0,1,0,2.49,3.883,3.883,0,0,1-1.41.117c-1.177,0-1.294-.019-1.391-.185a6.489,6.489,0,0,1,.029-2.422A6.5,6.5,0,0,1,188.187-236.969Z" transform="translate(-124.655 -68.875)"/>
    <path id="Path_3417" data-name="Path 3417" d="M240.759-237.6a1.137,1.137,0,0,0-.506.292c-.243.243-.253.282-.253,1.624,0,2,.107,2.1,2.169,2.1,1.187,0,1.333-.019,1.624-.224.438-.282.506-.622.467-2.082-.029-1.158-.039-1.2-.3-1.459s-.282-.272-1.6-.282A15.855,15.855,0,0,0,240.759-237.6Zm2.84.846a5.7,5.7,0,0,1,.088,1.187c0,1.323.029,1.3-1.6,1.3-1.226,0-1.3-.01-1.41-.2a5.509,5.509,0,0,1,.107-2.422,6.824,6.824,0,0,1,1.44-.1C243.492-236.992,243.511-236.992,243.6-236.758Z" transform="translate(-174.75 -68.969)"/>
    <path id="Path_3418" data-name="Path 3418" d="M195.5-186.7a6.937,6.937,0,0,0-2.471,1.012,7.757,7.757,0,0,0-2.529,3.054,7.71,7.71,0,0,0-.5,2.548,6.827,6.827,0,0,0,5.009,6.546,9.666,9.666,0,0,0,3.307.029c.885-.243,1.216-.418,1.216-.652,0-.331-.126-.36-.768-.146a5.739,5.739,0,0,1-4.474-.2,6.092,6.092,0,0,1-3.375-3.755,4.125,4.125,0,0,1-.243-1.77,5.554,5.554,0,0,1,1.819-4.348,5.49,5.49,0,0,1,3.969-1.761,5.012,5.012,0,0,1,2.928.622,6.385,6.385,0,0,1,2.325,1.916,7.224,7.224,0,0,1,.992,2.286,7.007,7.007,0,0,1-.1,2.947,4.908,4.908,0,0,1-.963,1.809c-.068-.019-.126-.292-.146-.7-.019-.739-.126-.934-.389-.768-.136.088-.175.311-.214,1.342a7.053,7.053,0,0,0,.029,1.381,5.926,5.926,0,0,0,2.655-.01c.3-.126.331-.165.233-.34s-.2-.195-.875-.195c-.846,0-.895-.039-.574-.5a8.614,8.614,0,0,0,.953-2.208,11.1,11.1,0,0,0,0-3.006A6.839,6.839,0,0,0,195.5-186.7Z" transform="translate(-129.745 -114.965)"/>
    <path id="Path_3419" data-name="Path 3419" d="M74.467-184.776c-.409.35-.467.564-.467,1.838,0,.953.029,1.255.156,1.44.321.467.379.486,2.043.486h1.576l.253-.3c.243-.292.253-.34.253-1.6,0-2.023-.058-2.082-2.169-2.082C74.817-185,74.71-184.981,74.467-184.776Zm3.142.661a7.84,7.84,0,0,1-.039,2.393,11.123,11.123,0,0,1-2.558.078l-.331-.058v-1.245a6.73,6.73,0,0,1,.068-1.3,7.676,7.676,0,0,1,1.4-.068C77.414-184.319,77.5-184.309,77.609-184.115Z" transform="translate(-24.374 -116.534)"/>
    <path id="Path_3420" data-name="Path 3420" d="M129.467-184.776c-.409.35-.467.564-.467,1.819,0,1.294.107,1.634.554,1.838a8.528,8.528,0,0,0,1.712.107c2.043-.01,2.072-.029,2.023-2.043-.049-1.906-.088-1.936-2.1-1.945C129.817-185,129.71-184.99,129.467-184.776Zm3.113.574a3.272,3.272,0,0,1,.117,1.265c0,1.148,0,1.157-.253,1.245a8.8,8.8,0,0,1-2.578,0c-.165-.1-.185-.214-.185-1.3a6.276,6.276,0,0,1,.068-1.255A10.619,10.619,0,0,1,132.579-184.2Z" transform="translate(-74.246 -116.534)"/>
    <path id="Path_3421" data-name="Path 3421" d="M235.305-165.832a1.579,1.579,0,0,0-.068.584c0,.574-.019.593-.681.768a2.259,2.259,0,0,0-1.323.944,2.194,2.194,0,0,0-.01,1.556,1.919,1.919,0,0,0,1.138.934,8.264,8.264,0,0,0,1.284.175c1.187.078,1.615.292,1.829.895a.7.7,0,0,1-.049.778c-.292.535-.691.72-1.683.768a1.927,1.927,0,0,1-1.381-.233,1.23,1.23,0,0,1-.72-.691c-.146-.311-.243-.409-.418-.409-.195,0-.224.049-.224.37a1.7,1.7,0,0,0,1.138,1.342,2.858,2.858,0,0,0,.71.233c.253,0,.331.156.389.778.049.5.068.535.292.535s.243-.039.292-.554a2.356,2.356,0,0,1,.107-.6,3.02,3.02,0,0,1,.632-.214,1.875,1.875,0,0,0,1.6-1.77c0-1.157-.934-1.868-2.48-1.868a2.137,2.137,0,0,1-1.8-.613c-.593-.963.175-1.819,1.634-1.819,1.021,0,1.6.311,1.858.992.126.35.467.37.554.039.146-.584-.681-1.44-1.508-1.576-.506-.078-.574-.175-.613-.817-.029-.457-.058-.535-.224-.564A.368.368,0,0,0,235.305-165.832Z" transform="translate(-168.432 -133.881)"/>
    <path id="Path_3422" data-name="Path 3422" d="M75.021-131.75a3.06,3.06,0,0,1-.37.1c-.506.117-.652.535-.652,1.906,0,1.936.2,2.1,2.471,2.023l1.255-.049.272-.3c.282-.311.282-.321.282-1.673s0-1.362-.272-1.673l-.282-.3-1.3-.039C75.7-131.769,75.08-131.769,75.021-131.75Zm2.558.759a6.072,6.072,0,0,1-.01,2.441c-.107.146-.282.165-1.478.146l-1.362-.029-.029-1.206c-.01-.671,0-1.274.019-1.342A7.837,7.837,0,0,1,77.579-130.991Z" transform="translate(-24.374 -164.639)"/>
    <path id="Path_3423" data-name="Path 3423" d="M129.875-131.585c-.749.224-.875.506-.875,1.926,0,1.926.175,2.091,2.189,2.091,1.965,0,2.14-.165,2.179-2.1.029-1.07-.107-1.6-.457-1.78A15.584,15.584,0,0,0,129.875-131.585Zm2.665.671c.126.049.156.253.156,1.245a3.4,3.4,0,0,1-.117,1.3,7.861,7.861,0,0,1-2.782,0,6.362,6.362,0,0,1,.01-2.539A17.1,17.1,0,0,1,132.541-130.914Z" transform="translate(-74.247 -164.774)"/>
  </g>
</svg>
