<svg xmlns="http://www.w3.org/2000/svg" width="223.402" height="208.59" viewBox="0 0 223.402 208.59">
  <g id="Upgrade-pana_1_" data-name="Upgrade-pana (1)" transform="translate(-13 -49.57)">
    <g id="freepik--background-complete--inject-9" transform="translate(13 49.57)">
      <path id="Path_3663" data-name="Path 3663" d="M27.217,383.319a16.181,16.181,0,0,0-6.925-2.374,4.6,4.6,0,0,0-3.274.6.677.677,0,0,0-.339.6.711.711,0,0,0,.319.406,9.914,9.914,0,0,0,10.218.779" transform="translate(-14.9 -220.673)" fill="#e0e0e0"/>
      <path id="Path_3664" data-name="Path 3664" d="M30.226,373.906a33.978,33.978,0,0,1-4.473-3.936,11.33,11.33,0,0,1-2.8-5.184,2.1,2.1,0,0,1,.222-1.736c3.564,2.785,6.364,6.388,7.055,10.856" transform="translate(-18.088 -211.459)" fill="#e0e0e0"/>
      <path id="Path_3665" data-name="Path 3665" d="M38.147,374.416a16.287,16.287,0,0,1,.082-5.871,7.95,7.95,0,0,1,3.129-4.836,6.937,6.937,0,0,1-.082,4.6,22.38,22.38,0,0,1-3.1,6.528" transform="translate(-25.869 -211.799)" fill="#e0e0e0"/>
      <path id="Path_3666" data-name="Path 3666" d="M36.3,398.8a10.22,10.22,0,0,0-5.556,2.81,10.5,10.5,0,0,0-3.172,5.455A7.443,7.443,0,0,0,32.7,403.82c1.257-1.649,2.166-3.448,3.574-4.986" transform="translate(-20.524 -229.921)" fill="#e0e0e0"/>
      <path id="Path_3667" data-name="Path 3667" d="M46.17,387.035a13.68,13.68,0,0,1,1.581-12.955,16.49,16.49,0,0,1-1.581,12.955" transform="translate(-29.637 -217.155)" fill="#e0e0e0"/>
      <path id="Path_3668" data-name="Path 3668" d="M46.48,412.22a9.908,9.908,0,0,0-9.473,5.45.745.745,0,0,0-.063.745.7.7,0,0,0,.629.184,8.22,8.22,0,0,0,4.884-2.524,47.908,47.908,0,0,1,4.062-3.869" transform="translate(-25.328 -236.841)" fill="#e0e0e0"/>
      <path id="Path_3669" data-name="Path 3669" d="M55.585,397.613a17.636,17.636,0,0,1-.174-9.85,4.789,4.789,0,0,1,2.1-3.2.4.4,0,0,1,.319-.058.411.411,0,0,1,.2.237,5.929,5.929,0,0,1,.484,2.824,17.977,17.977,0,0,1-.445,2.863c-.368,1.746-.566,3.627-1.523,5.136a10.151,10.151,0,0,0-.609,1.127c-.184.382-.184.517-.353.822" transform="translate(-34.583 -222.534)" fill="#e0e0e0"/>
      <path id="Path_3670" data-name="Path 3670" d="M81.348,403.8a12.7,12.7,0,0,1,2.224-10.445c.16-.208.372-.43.633-.406.4.034.484.571.484.967a18.859,18.859,0,0,1-3.342,9.879" transform="translate(-48.121 -226.898)" fill="#e0e0e0"/>
      <path id="Path_3671" data-name="Path 3671" d="M83.979,413.084a15.174,15.174,0,0,0,12.467-2.534,10.1,10.1,0,0,0-6.77-.827,9.608,9.608,0,0,0-5.716,3.361" transform="translate(-49.645 -235.433)" fill="#e0e0e0"/>
      <path id="Path_3672" data-name="Path 3672" d="M85.91,405.213a14.415,14.415,0,0,1,11.316-6.543,6.978,6.978,0,0,1-3.7,4.091,20.587,20.587,0,0,1-5.431,1.591,3.843,3.843,0,0,0-2.181.861" transform="translate(-50.652 -229.854)" fill="#e0e0e0"/>
      <path id="Path_3673" data-name="Path 3673" d="M80.456,375.112a33,33,0,0,0,1.451-6.63,11.007,11.007,0,0,0-1.32-6.552,14.422,14.422,0,0,0-.193,13.41" transform="translate(-46.997 -210.88)" fill="#e0e0e0"/>
      <path id="Path_3674" data-name="Path 3674" d="M97.43,371.988a17.754,17.754,0,0,1,13.057-8.888c-2.041,5.077-7.6,9-13.057,8.888" transform="translate(-56.602 -211.484)" fill="#e0e0e0"/>
      <path id="Path_3675" data-name="Path 3675" d="M94.1,382.555c3.82.58,7.07,3.018,10.639,4.5a4.7,4.7,0,0,0,2.418.459,1.881,1.881,0,0,0,1.18-3.327,5.193,5.193,0,0,0-1.751-1.064,19.459,19.459,0,0,0-12.147-.677" transform="translate(-54.882 -221.137)" fill="#e0e0e0"/>
      <path id="Path_3676" data-name="Path 3676" d="M89.515,388.713a4.491,4.491,0,0,1,1.847,1.277,19.88,19.88,0,0,0,8.052,4.144c.309.077.711.106.866-.169s-.034-.542-.208-.754A11.122,11.122,0,0,0,95.2,389.9c-1.862-.7-3.472-1.528-5.7-1.349" transform="translate(-52.506 -224.617)" fill="#e0e0e0"/>
      <path id="Path_3677" data-name="Path 3677" d="M84.38,355.018a15.257,15.257,0,0,0,11.7,3.98.8.8,0,0,0,.537-.189c.295-.319-.063-.817-.406-1.083a13.471,13.471,0,0,0-11.833-2.708" transform="translate(-49.862 -207.097)" fill="#e0e0e0"/>
      <path id="Path_3678" data-name="Path 3678" d="M90.49,349.824a16.321,16.321,0,0,1,14.609-2.418,11.63,11.63,0,0,1-6.963,3.056,22.051,22.051,0,0,1-7.645-.648" transform="translate(-53.018 -202.986)" fill="#e0e0e0"/>
      <path id="Path_3679" data-name="Path 3679" d="M85.949,326.817c-.339-3.433-.121-6.146-.358-9.6,0-.276-.077-.6-.334-.706-.363-.14-.662.3-.779.672a10.982,10.982,0,0,0,1.451,9.555" transform="translate(-49.652 -187.412)" fill="#e0e0e0"/>
      <path id="Path_3680" data-name="Path 3680" d="M87.55,327.108a20.257,20.257,0,0,0,5.692-5.532c1.122-1.538,2.07-3.385,1.813-5.266a5.445,5.445,0,0,0-4.106,2.036,11.442,11.442,0,0,0-2.089,4.212c-.484,1.509-.779,3.061-1.311,4.55" transform="translate(-51.499 -187.321)" fill="#e0e0e0"/>
      <path id="Path_3681" data-name="Path 3681" d="M99.053,326.233a45.814,45.814,0,0,0,14.024-8.255,7.15,7.15,0,0,0-5.261.4A16.587,16.587,0,0,0,99,326.2" transform="translate(-57.412 -188.003)" fill="#e0e0e0"/>
      <path id="Path_3682" data-name="Path 3682" d="M90.785,338.191a27.744,27.744,0,0,0,7.776.039,33.123,33.123,0,0,0,7.254-2.418.832.832,0,0,0,.484-.372.576.576,0,0,0-.174-.624,1.552,1.552,0,0,0-.619-.29,13.376,13.376,0,0,0-7.848.484A36.607,36.607,0,0,0,90.77,338.2" transform="translate(-53.162 -196.527)" fill="#e0e0e0"/>
      <path id="Path_3683" data-name="Path 3683" d="M58.888,343.543a13.768,13.768,0,0,1-.126-11.383,8.7,8.7,0,0,1,1.011,5.658c-.193,1.944-.788,3.951-.827,5.9" transform="translate(-36.029 -195.506)" fill="#e0e0e0"/>
      <path id="Path_3684" data-name="Path 3684" d="M33.1,348.349a15.9,15.9,0,0,0-11.8,5.029,11.03,11.03,0,0,0,6.461-1.2,32.814,32.814,0,0,0,5.537-3.7" transform="translate(-17.286 -203.866)" fill="#e0e0e0"/>
      <path id="Path_3685" data-name="Path 3685" d="M24.079,344.857c-2.157-.174-4.231-.445-6.286.193A7.563,7.563,0,0,0,13,349.118a11.379,11.379,0,0,0,5.9-1.112,34.127,34.127,0,0,0,5.2-3.148" transform="translate(-13 -201.956)" fill="#e0e0e0"/>
      <path id="Path_3686" data-name="Path 3686" d="M36.921,341.7a19.8,19.8,0,0,0-6.185-3.09,6.736,6.736,0,0,0-6.446,1.562,12.045,12.045,0,0,0,6.161,1.2,21.361,21.361,0,0,1,6.712.677" transform="translate(-18.83 -198.722)" fill="#e0e0e0"/>
      <path id="Path_3687" data-name="Path 3687" d="M46.417,330.98c-3.312-3.254-4.565-9.1-3.235-13.54a20.605,20.605,0,0,1,3.235,13.54" transform="translate(-28.316 -187.905)" fill="#e0e0e0"/>
      <path id="Path_3688" data-name="Path 3688" d="M69.27,314.962c.629-1.451,1.069-2.979,1.625-4.459a12.674,12.674,0,0,1,2.321-4.106,6.083,6.083,0,0,1,4.1-2.128,16.5,16.5,0,0,1-7.965,10.711" transform="translate(-42.059 -181.103)" fill="#e0e0e0"/>
      <path id="Path_3689" data-name="Path 3689" d="M56.709,324.114a20.533,20.533,0,0,0-3.627-4.42,6.08,6.08,0,0,0-4.942-1.3,11.514,11.514,0,0,0,8.569,5.716" transform="translate(-31.147 -188.336)" fill="#e0e0e0"/>
      <path id="Path_3690" data-name="Path 3690" d="M64.654,315.217a24.4,24.4,0,0,1-1.634-5.3,8.221,8.221,0,0,1,.827-5.382c1.818,3.438,2.418,7.128.9,10.716" transform="translate(-38.759 -181.243)" fill="#e0e0e0"/>
      <path id="Path_3691" data-name="Path 3691" d="M69.3,296.771c1.03-3.385,4.149-5.914,7.52-7.065a2.824,2.824,0,0,1,1.32-.2,1.156,1.156,0,0,1,.967.808c.121.58-.358,1.1-.808,1.485a25.6,25.6,0,0,1-9,4.971" transform="translate(-42.075 -173.474)" fill="#e0e0e0"/>
      <path id="Path_3692" data-name="Path 3692" d="M69.313,286.546a24.961,24.961,0,0,1,.967-6.509,8.176,8.176,0,0,1,4.1-4.947c.338,2.22-.638,4.43-1.818,6.34s-2.606,3.709-3.317,5.842" transform="translate(-42.044 -166.034)" fill="#e0e0e0"/>
      <path id="Path_3693" data-name="Path 3693" d="M62.459,289.149c-.851-2.486-.938-5.639-2.418-7.8-1.04-1.509-2.708-2.544-3.6-4.144a6.32,6.32,0,0,0,.208,4.705,13.719,13.719,0,0,0,2.752,3.941c1.1,1.175,2.046,2.06,3.066,3.3" transform="translate(-35.249 -167.124)" fill="#e0e0e0"/>
      <path id="Path_3694" data-name="Path 3694" d="M69.17,374.131c-.068,0-.126-16.572-.131-37s.048-37.008.111-37.008.126,16.567.131,37.008S69.238,374.131,69.17,374.131Z" transform="translate(-41.94 -178.96)" fill="#e0e0e0"/>
      <path id="Path_3695" data-name="Path 3695" d="M83.761,350.53a3.793,3.793,0,0,1-.6.227l-1.712.58c-1.451.484-3.433,1.2-5.59,2.089a22.2,22.2,0,0,0-5.31,2.65,3.965,3.965,0,0,0-1.064,1.407c-.164.392-.193.629-.218.624a.59.59,0,0,1,0-.174,2.872,2.872,0,0,1,.121-.484,3.767,3.767,0,0,1,1.04-1.5,9.409,9.409,0,0,1,2.3-1.427c.919-.426,1.934-.875,3.018-1.32,2.162-.885,4.164-1.576,5.624-2.026.73-.227,1.325-.4,1.741-.508A3.865,3.865,0,0,1,83.761,350.53Z" transform="translate(-42.052 -204.993)" fill="#e0e0e0"/>
      <path id="Path_3696" data-name="Path 3696" d="M89.73,326.42a1.036,1.036,0,0,1-.174.189c-.145.131-.319.295-.532.484l-1.987,1.8-6.606,5.895c-2.577,2.3-4.807,4.492-6.354,6.141-.774.827-1.378,1.509-1.794,1.987-.2.218-.353.4-.484.546s-.169.189-.179.184a1.176,1.176,0,0,1,.145-.213c.1-.135.247-.334.445-.58.392-.484.967-1.194,1.746-2.041a84.182,84.182,0,0,1,6.316-6.2c2.587-2.287,4.942-4.352,6.654-5.827l2.036-1.746.561-.484A1.1,1.1,0,0,1,89.73,326.42Z" transform="translate(-43.273 -192.542)" fill="#e0e0e0"/>
      <path id="Path_3697" data-name="Path 3697" d="M84.074,342.42c-.068-.029.484-1.272,1.011-2.848s.793-2.9.866-2.9a9.759,9.759,0,0,1-.638,2.964,20,20,0,0,1-.793,2.031A3.061,3.061,0,0,1,84.074,342.42Z" transform="translate(-49.701 -197.835)" fill="#e0e0e0"/>
      <path id="Path_3698" data-name="Path 3698" d="M59.084,356.41a2.852,2.852,0,0,1-.4-.459l-1.02-1.306c-.856-1.107-2.036-2.631-3.361-4.3s-2.544-3.167-3.429-4.231l-1.04-1.286a3.472,3.472,0,0,1-.358-.484,3.115,3.115,0,0,1,.43.43c.266.29.643.711,1.1,1.243.919,1.054,2.157,2.539,3.487,4.207s2.486,3.221,3.308,4.352c.411.566.74,1.025.967,1.349a2.813,2.813,0,0,1,.314.488Z" transform="translate(-31.839 -201.796)" fill="#e0e0e0"/>
      <path id="Path_3699" data-name="Path 3699" d="M61.007,355.51a5.836,5.836,0,0,1-1.34-2.49,7.215,7.215,0,0,1-.3-2.51h.106q-.073.29-.1.29v-.31h.106a11.408,11.408,0,0,0,.426,2.442A18.731,18.731,0,0,0,61.007,355.51Z" transform="translate(-36.939 -204.972)" fill="#e0e0e0"/>
      <path id="Path_3700" data-name="Path 3700" d="M46.641,349.119a4.568,4.568,0,0,0-.928-.542,6.286,6.286,0,0,0-2.577-.2,15.723,15.723,0,0,0-2.6.421,8.59,8.59,0,0,1-1.069.256,3.689,3.689,0,0,1,1.02-.421,11.776,11.776,0,0,1,2.626-.484,5.619,5.619,0,0,1,2.66.285A1.663,1.663,0,0,1,46.641,349.119Z" transform="translate(-26.67 -203.736)" fill="#e0e0e0"/>
      <path id="Path_3701" data-name="Path 3701" d="M41.523,345.981c0,.034-.542-.218-1.422-.522a14.9,14.9,0,0,0-3.554-.75,14.732,14.732,0,0,0-3.622.184c-.919.164-1.451.339-1.485.3a1.3,1.3,0,0,1,.377-.164,9.391,9.391,0,0,1,1.074-.3,12.65,12.65,0,0,1,7.254.556,8.392,8.392,0,0,1,1.016.459,1.4,1.4,0,0,1,.363.237Z" transform="translate(-22.523 -201.846)" fill="#e0e0e0"/>
      <path id="Path_3702" data-name="Path 3702" d="M67.3,328.938a29.8,29.8,0,0,1-1.035-3.6,30.315,30.315,0,0,1-.808-3.665,28.275,28.275,0,0,1,1.04,3.6,28.663,28.663,0,0,1,.8,3.666Z" transform="translate(-40.092 -190.089)" fill="#e0e0e0"/>
      <path id="Path_3703" data-name="Path 3703" d="M66.358,332.527a17.2,17.2,0,0,0-1.165-2.157A9.6,9.6,0,0,0,63.5,328.62a1.634,1.634,0,0,1,.653.339,5.272,5.272,0,0,1,1.252,1.3,4.807,4.807,0,0,1,.953,2.273Z" transform="translate(-39.079 -193.678)" fill="#e0e0e0"/>
      <path id="Path_3704" data-name="Path 3704" d="M53.1,409.074s-.077-.4-.261-1.1a15.754,15.754,0,0,0-1.107-2.868,39.368,39.368,0,0,0-5.875-8.274c-1.31-1.5-2.582-2.9-3.666-4.265a30.775,30.775,0,0,1-2.621-3.782,18.12,18.12,0,0,1-1.32-2.8c-.121-.343-.213-.614-.261-.8a1.451,1.451,0,0,1-.068-.285s.145.382.416,1.054a19.825,19.825,0,0,0,1.383,2.752,31.388,31.388,0,0,0,2.645,3.728c1.083,1.34,2.36,2.747,3.67,4.246a37.479,37.479,0,0,1,5.846,8.361,14.41,14.41,0,0,1,1.049,2.9c.073.358.126.638.145.832a1.19,1.19,0,0,1,.024.31Z" transform="translate(-25.869 -222.737)" fill="#e0e0e0"/>
      <path id="Path_3705" data-name="Path 3705" d="M82.4,404.34a6.541,6.541,0,0,1-.687.387,15.142,15.142,0,0,0-1.78,1.175,20.267,20.267,0,0,0-2.336,2.142c-.822.866-1.664,1.871-2.529,2.945-1.722,2.166-3.332,4.077-4.3,5.6-.484.759-.846,1.4-1.078,1.847a6.56,6.56,0,0,1-.377.687.493.493,0,0,1,.063-.193c.063-.126.121-.309.232-.537a16.928,16.928,0,0,1,1.006-1.905,61.386,61.386,0,0,1,4.255-5.663c.861-1.078,1.717-2.084,2.553-2.95a18.9,18.9,0,0,1,2.418-2.113,12.177,12.177,0,0,1,1.838-1.122c.227-.116.411-.184.537-.237a.667.667,0,0,1,.184-.068Z" transform="translate(-42.08 -232.782)" fill="#e0e0e0"/>
      <path id="Path_3706" data-name="Path 3706" d="M87.235,414.237a10.279,10.279,0,0,1-1.451.208,19.257,19.257,0,0,0-3.438.677,10.451,10.451,0,0,0-3.076,1.615c-.711.551-1.045,1-1.078.967s.058-.131.213-.334a5.668,5.668,0,0,1,.754-.774,9.346,9.346,0,0,1,3.114-1.712,15.594,15.594,0,0,1,3.491-.619A7.8,7.8,0,0,1,87.235,414.237Z" transform="translate(-46.663 -237.882)" fill="#e0e0e0"/>
      <path id="Path_3707" data-name="Path 3707" d="M79.064,415.113c-.073-.043.58-1.04,1.083-2.384s.59-2.539.672-2.529a2.1,2.1,0,0,1,0,.779,8.1,8.1,0,0,1-.421,1.833,8.735,8.735,0,0,1-.885,1.683,2.3,2.3,0,0,1-.45.619Z" transform="translate(-47.114 -235.808)" fill="#e0e0e0"/>
      <path id="Path_3708" data-name="Path 3708" d="M86.637,377.72a.966.966,0,0,1-.232.126l-.682.309c-.3.126-.662.29-1.069.484s-.885.43-1.383.73l-.793.45c-.271.16-.546.343-.832.527-.585.353-1.17.788-1.789,1.233a33.285,33.285,0,0,0-3.738,3.283,33.965,33.965,0,0,0-3.158,3.869c-.426.638-.841,1.238-1.17,1.833-.174.3-.353.571-.484.851l-.426.8c-.28.508-.484,1-.677,1.412s-.353.783-.484,1.083-.213.508-.285.691a.991.991,0,0,1-.116.237.861.861,0,0,1,.068-.251c.068-.189.145-.421.247-.711s.242-.682.43-1.1.382-.919.653-1.451l.411-.817c.145-.285.319-.566.484-.866.329-.6.74-1.209,1.161-1.857a32.074,32.074,0,0,1,3.167-3.869,32.687,32.687,0,0,1,3.777-3.3c.633-.445,1.223-.875,1.818-1.223.29-.179.566-.363.846-.517l.8-.44c.484-.29.967-.484,1.407-.7s.783-.353,1.088-.484l.7-.266A1.206,1.206,0,0,1,86.637,377.72Z" transform="translate(-42.085 -219.035)" fill="#e0e0e0"/>
      <path id="Path_3709" data-name="Path 3709" d="M83.71,390.226a1.707,1.707,0,0,1,.571-.846,3.608,3.608,0,0,1,2.3-.88,6.218,6.218,0,0,1,2.418.484,3.516,3.516,0,0,1,.914.445,5.413,5.413,0,0,1-.967-.285,7.327,7.327,0,0,0-2.35-.392,3.758,3.758,0,0,0-2.191.769,7.107,7.107,0,0,0-.692.706Z" transform="translate(-49.516 -224.602)" fill="#e0e0e0"/>
      <path id="Path_3710" data-name="Path 3710" d="M80.51,390.753a8.221,8.221,0,0,0,.653-2.113,8.535,8.535,0,0,0-.145-2.21,1.451,1.451,0,0,1,.271.614,4.425,4.425,0,0,1,.111,1.625,4.26,4.26,0,0,1-.484,1.552C80.713,390.574,80.534,390.772,80.51,390.753Z" transform="translate(-47.864 -223.533)" fill="#e0e0e0"/>
      <path id="Path_3711" data-name="Path 3711" d="M45.64,439.81a54.868,54.868,0,0,0,5.2,19.285H63.6a55.4,55.4,0,0,0,4.889-19.285Z" transform="translate(-29.856 -251.099)" fill="#e0e0e0"/>
      <path id="Path_3712" data-name="Path 3712" d="M68.582,460.871c0,.068-4.2.121-9.386.121s-9.386-.053-9.386-.121,4.2-.121,9.386-.121S68.582,460.8,68.582,460.871Z" transform="translate(-32.01 -261.913)" fill="#fafafa"/>
      <path id="Path_3713" data-name="Path 3713" d="M69.207,465.621c0,.063-3.941.116-8.8.116s-8.8-.053-8.8-.116,3.936-.121,8.8-.121S69.207,465.553,69.207,465.621Z" transform="translate(-32.939 -264.366)" fill="#fafafa"/>
      <path id="Path_3714" data-name="Path 3714" d="M56.7,448.41a35.813,35.813,0,0,1,0,5.88A37.3,37.3,0,0,1,56.7,448.41Z" transform="translate(-35.506 -255.541)" fill="#fafafa"/>
      <path id="Path_3715" data-name="Path 3715" d="M70.876,448.41a38.388,38.388,0,0,1,0,6.088A39.984,39.984,0,0,1,70.876,448.41Z" transform="translate(-42.829 -255.541)" fill="#fafafa"/>
      <path id="Path_3716" data-name="Path 3716" d="M84.111,448.3a39.985,39.985,0,0,1,0,6.214A39.989,39.989,0,0,1,84.111,448.3Z" transform="translate(-49.661 -255.484)" fill="#fafafa"/>
      <path id="Path_3717" data-name="Path 3717" d="M68.557,448.281c0,.068-4.932.121-11.011.121s-11.006-.053-11.006-.121,4.928-.121,11.006-.121S68.557,448.213,68.557,448.281Z" transform="translate(-30.321 -255.412)" fill="#fafafa"/>
      <rect id="Rectangle_3158" data-name="Rectangle 3158" width="35.615" height="37.124" transform="translate(19.454 35.494)" fill="#e0e0e0"/>
      <rect id="Rectangle_3159" data-name="Rectangle 3159" width="35.615" height="37.124" transform="translate(17.041 35.494)" fill="#fafafa"/>
      <path id="Path_3718" data-name="Path 3718" d="M83.855,160.124H48.22V123H83.855ZM48.239,160.1h35.6V123h-35.6Z" transform="translate(-31.188 -87.491)" fill="#e0e0e0"/>
      <rect id="Rectangle_3160" data-name="Rectangle 3160" width="26.041" height="27.143" transform="translate(21.829 40.485)" fill="#fafafa"/>
      <path id="Path_3719" data-name="Path 3719" d="M53.069,189.8a4.454,4.454,0,0,1-.643.745c-.416.44-1,1.035-1.654,1.678s-1.257,1.219-1.7,1.63a4.265,4.265,0,0,1-.75.624,4.087,4.087,0,0,1,.638-.74c.416-.44,1-1.035,1.659-1.683s1.257-1.223,1.7-1.63A3.767,3.767,0,0,1,53.069,189.8Z" transform="translate(-31.24 -121.988)" fill="#e0e0e0"/>
      <path id="Path_3720" data-name="Path 3720" d="M112,189.66a4.092,4.092,0,0,1,.75.643c.435.416,1.03,1,1.678,1.654s1.219,1.257,1.625,1.7a4.187,4.187,0,0,1,.629.75,4,4,0,0,1-.745-.638c-.44-.416-1.035-1-1.683-1.659s-1.223-1.262-1.63-1.7A4.267,4.267,0,0,1,112,189.66Z" transform="translate(-64.126 -121.916)" fill="#e0e0e0"/>
      <path id="Path_3721" data-name="Path 3721" d="M111.84,128.441a4.353,4.353,0,0,1,.643-.75c.416-.435,1-1.03,1.654-1.678s1.257-1.219,1.7-1.625a3.917,3.917,0,0,1,.754-.629,4,4,0,0,1-.638.745c-.416.44-1,1.035-1.659,1.683s-1.262,1.223-1.707,1.63A4.067,4.067,0,0,1,111.84,128.441Z" transform="translate(-64.043 -87.883)" fill="#e0e0e0"/>
      <path id="Path_3722" data-name="Path 3722" d="M53.006,128.5a4.456,4.456,0,0,1-.745-.643c-.44-.416-1.035-1-1.678-1.659s-1.219-1.252-1.63-1.7a3.985,3.985,0,0,1-.624-.754,4.086,4.086,0,0,1,.74.638c.44.416,1.035,1,1.683,1.659s1.223,1.262,1.63,1.707a3.83,3.83,0,0,1,.624.75Z" transform="translate(-31.245 -87.878)" fill="#e0e0e0"/>
      <path id="Path_3723" data-name="Path 3723" d="M84.056,160.263V158.3c0-1.286,0-3.158-.029-5.532,0-4.758-.029-11.528-.048-19.638l.1.1H58.113l.116-.116v27.143l-.1-.1,18.8.048,5.285.029h.039L77,160.268l-18.859.053h-.1V132.96H84.226v.1c0,8.134-.039,14.928-.048,19.7,0,2.365,0,4.226-.029,5.508v1.818a.421.421,0,0,1-.092.174Z" transform="translate(-36.26 -92.635)" fill="#e0e0e0"/>
      <rect id="Rectangle_3161" data-name="Rectangle 3161" width="8.69" height="8.69" transform="translate(30.504 49.712)" fill="#ebebeb"/>
      <rect id="Rectangle_3162" data-name="Rectangle 3162" width="29.677" height="30.939" transform="translate(58.019)" fill="#e0e0e0"/>
      <rect id="Rectangle_3163" data-name="Rectangle 3163" width="29.677" height="30.939" transform="translate(56.013)" fill="#fafafa"/>
      <path id="Path_3724" data-name="Path 3724" d="M158.506,80.519h-29.7V49.57h29.7Zm-29.682,0h29.663V49.58H128.825Z" transform="translate(-72.807 -49.57)" fill="#e0e0e0"/>
      <rect id="Rectangle_3164" data-name="Rectangle 3164" width="21.698" height="22.622" transform="translate(60.002 4.159)" fill="#fafafa"/>
      <path id="Path_3725" data-name="Path 3725" d="M132.85,105.26a4.076,4.076,0,0,1-.537.624c-.348.363-.837.861-1.378,1.4s-1.049,1.016-1.422,1.354a3.2,3.2,0,0,1-.624.522,3.386,3.386,0,0,1,.537-.638c.348-.363.832-.861,1.383-1.4s1.049-1.016,1.417-1.359a3.385,3.385,0,0,1,.624-.5Z" transform="translate(-72.848 -78.33)" fill="#e0e0e0"/>
      <path id="Path_3726" data-name="Path 3726" d="M182,105.14a3.753,3.753,0,0,1,.624.537c.363.348.861.832,1.4,1.378s1.016,1.049,1.354,1.417a3.3,3.3,0,0,1,.522.629,3.385,3.385,0,0,1-.619-.532c-.363-.348-.861-.837-1.4-1.383s-1.016-1.049-1.359-1.422A3.264,3.264,0,0,1,182,105.14Z" transform="translate(-100.276 -78.268)" fill="#e0e0e0"/>
      <path id="Path_3727" data-name="Path 3727" d="M181.83,54.132a3.181,3.181,0,0,1,.532-.624c.348-.368.837-.861,1.383-1.4s1.069-1.025,1.417-1.359a3.651,3.651,0,0,1,.619-.522,3.2,3.2,0,0,1-.532.619c-.343.368-.832.861-1.383,1.4s-1.049,1.02-1.417,1.359A3.87,3.87,0,0,1,181.83,54.132Z" transform="translate(-100.188 -49.911)" fill="#e0e0e0"/>
      <path id="Path_3728" data-name="Path 3728" d="M132.838,54.18a3.386,3.386,0,0,1-.619-.537c-.368-.343-.861-.832-1.4-1.378s-1.016-1.049-1.354-1.417a3.3,3.3,0,0,1-.522-.629,3.65,3.65,0,0,1,.619.532c.368.348.861.837,1.4,1.383s1.016,1.049,1.359,1.422a3.453,3.453,0,0,1,.517.624Z" transform="translate(-72.874 -49.906)" fill="#e0e0e0"/>
      <path id="Path_3729" data-name="Path 3729" d="M158.668,80.728a.424.424,0,0,1,0-.111V74.471c0-3.96-.024-9.6-.044-16.364l.087.082h-21.64l.092-.1V80.714l-.082-.082,15.668.039h.039l-15.721.044h-.087V58h21.771v.082c0,6.77-.034,12.442-.044,16.442v6.1A.116.116,0,0,1,158.668,80.728Z" transform="translate(-77.026 -53.923)" fill="#e0e0e0"/>
      <rect id="Rectangle_3165" data-name="Rectangle 3165" width="7.239" height="7.239" transform="translate(67.232 11.848)" fill="#ebebeb"/>
      <circle id="Ellipse_637" data-name="Ellipse 637" cx="4.217" cy="4.217" r="4.217" transform="translate(203.919 106.914)" fill="#e0e0e0"/>
      <circle id="Ellipse_638" data-name="Ellipse 638" cx="4.492" cy="4.492" r="4.492" transform="translate(191.129 106.638)" fill="#e0e0e0"/>
      <circle id="Ellipse_639" data-name="Ellipse 639" cx="4.768" cy="4.768" r="4.768" transform="matrix(0.229, -0.973, 0.973, 0.229, 180.276, 106.746)" fill="#e0e0e0"/>
      <circle id="Ellipse_640" data-name="Ellipse 640" cx="4.981" cy="4.981" r="4.981" transform="translate(179.063 85.989)" fill="#e0e0e0"/>
      <circle id="Ellipse_641" data-name="Ellipse 641" cx="5.145" cy="5.145" r="5.145" transform="translate(183.463 84.058) rotate(-81.951)" fill="#e0e0e0"/>
      <path id="Path_3730" data-name="Path 3730" d="M430.019,200.845a5.609,5.609,0,1,1-5.609-5.6A5.609,5.609,0,0,1,430.019,200.845Z" transform="translate(-222.565 -124.798)" fill="#e0e0e0"/>
      <circle id="Ellipse_642" data-name="Ellipse 642" cx="4.072" cy="4.072" r="4.072" transform="matrix(0.229, -0.973, 0.973, 0.229, 212.529, 106.106)" fill="#e0e0e0"/>
      <circle id="Ellipse_643" data-name="Ellipse 643" cx="3.782" cy="3.782" r="3.782" transform="translate(215.839 87.048)" fill="#e0e0e0"/>
      <path id="Path_3731" data-name="Path 3731" d="M453.925,211.593a3.453,3.453,0,1,1-3.453-3.453,3.453,3.453,0,0,1,3.453,3.453Z" transform="translate(-237.138 -131.459)" fill="#e0e0e0"/>
    </g>
    <g id="freepik--Character--inject-9" transform="translate(67.992 55.229)">
      <path id="Path_3732" data-name="Path 3732" d="M171.737,175.742l-1.678,4.043a14.416,14.416,0,0,1,.875,2.858,38.357,38.357,0,0,1-.677,4.9,1.006,1.006,0,0,1-1.03-.759,16.135,16.135,0,0,1,.155-2.326h0a1,1,0,0,0-1.683.169c-.484.967-1.035,2.108-1.132,2.239a13.114,13.114,0,0,0,.222,2.689.667.667,0,0,1-1.18.527.31.31,0,0,1-.073-.169s-.633.928-1.257-.779c0,0-1.257-.638-1.286-1.683a6.731,6.731,0,0,1-1.3-2.055c-.155-.769,2.471-5.416,2.471-5.416l3.23-6.673Z" transform="translate(-144.778 -119.132)" fill="#ffbe9d"/>
      <path id="Path_3733" data-name="Path 3733" d="M169.339,195.53a2.9,2.9,0,0,0-.571.73,4.836,4.836,0,0,0-.827,2.089,4.454,4.454,0,0,0,.44,2.205,2.926,2.926,0,0,0,.44.812,4.838,4.838,0,0,0-.285-.875,5,5,0,0,1-.358-2.118,5.61,5.61,0,0,1,.735-2.026A4.377,4.377,0,0,0,169.339,195.53Z" transform="translate(-148.004 -130.606)" fill="#eb996e"/>
      <path id="Path_3734" data-name="Path 3734" d="M166.832,194.94a2.018,2.018,0,0,0-.556.643,6.45,6.45,0,0,0-.435.812,2.9,2.9,0,0,0-.28,1.117,4.988,4.988,0,0,0,.184,1.117c.082.3.16.6.232.88a2.983,2.983,0,0,0,.28.779,3.216,3.216,0,0,0-.111-.837c-.044-.251-.106-.556-.179-.89a5.731,5.731,0,0,1-.164-1.074,3.036,3.036,0,0,1,.247-1.03c.126-.309.261-.585.377-.812A8.141,8.141,0,0,0,166.832,194.94Z" transform="translate(-146.778 -130.302)" fill="#eb996e"/>
      <path id="Path_3735" data-name="Path 3735" d="M164.079,194.518a6.313,6.313,0,0,0-.88,1.876.933.933,0,0,0-.044.484,2.059,2.059,0,0,0,.063.4,3.919,3.919,0,0,0,.2.643c.145.353.3.542.329.522a3.192,3.192,0,0,0-.169-.58,5.686,5.686,0,0,1-.14-.629c0-.116-.039-.242-.048-.372a.783.783,0,0,1,.034-.358c.208-.537.372-1.02.484-1.378A2.621,2.621,0,0,0,164.079,194.518Z" transform="translate(-145.529 -130.083)" fill="#eb996e"/>
      <path id="Path_3736" data-name="Path 3736" d="M322.84,155.73l1.688-1.722a.856.856,0,0,1,.445-.295c.319-.053.595.271.609.59a1.518,1.518,0,0,1-.334.885,2.263,2.263,0,0,0-.421.851" transform="translate(-228.001 -109.009)" fill="#ffbe9d"/>
      <path id="Path_3737" data-name="Path 3737" d="M329.409,127.953,320.5,143.428l-16.669.121h0a1.489,1.489,0,0,1,1.354-1.557l14.585-.295,7.578-12.994a1.433,1.433,0,0,1,2.065-.74Z" transform="translate(-218.182 -95.623)" fill="#263238"/>
      <path id="Path_3738" data-name="Path 3738" d="M320.493,160.18c.082,0-5.266,0-4.966.082.029.058.053.116.077.174l.7,3.056a31.58,31.58,0,0,0,4.671-.914,8.094,8.094,0,0,0,1.678-1.306v-1.1Z" transform="translate(-224.218 -112.346)" fill="#ffbe9d"/>
      <path id="Path_3739" data-name="Path 3739" d="M289.609,144.9l-12.679-.527-5.861-13.821-6.228,8.922,5.015,9.019a6.427,6.427,0,0,0,5.9,3.293l14.778-1.693Z" transform="translate(-198.049 -97.049)" fill="#fb7070"/>
      <path id="Path_3740" data-name="Path 3740" d="M310.872,293.7l.967,8.922s9.3,1.378,9.633,2.993l-17.128,3.158-2.094-13.84Z" transform="translate(-217.368 -181.304)" fill="#fb7070"/>
      <g id="Group_6534" data-name="Group 6534" transform="translate(88.636 121.304)" opacity="0.6">
        <path id="Path_3741" data-name="Path 3741" d="M310.423,312.169a.711.711,0,0,0-.372.87.687.687,0,0,0,.866.377.754.754,0,0,0,.387-.928.711.711,0,0,0-.943-.29" transform="translate(-310.013 -312.121)" fill="#fff"/>
      </g>
      <g id="Group_6535" data-name="Group 6535" transform="translate(86.778 123.601)" opacity="0.6">
        <path id="Path_3742" data-name="Path 3742" d="M306.383,320.739l-.213-1.393,16.645-2.476a1.209,1.209,0,0,1,.808.817Z" transform="translate(-306.17 -316.87)" fill="#fff"/>
      </g>
      <path id="Path_3743" data-name="Path 3743" d="M321.123,311.838c0,.082-.406.184-.783.513s-.542.716-.624.7-.029-.527.43-.919S321.128,311.756,321.123,311.838Z" transform="translate(-226.371 -190.646)" fill="#263238"/>
      <path id="Path_3744" data-name="Path 3744" d="M325.561,312.859c.029.077-.314.276-.546.672s-.261.783-.348.793-.2-.459.1-.967S325.547,312.777,325.561,312.859Z" transform="translate(-228.894 -191.183)" fill="#263238"/>
      <path id="Path_3745" data-name="Path 3745" d="M329.224,315.4c-.077.029-.256-.372-.106-.866s.517-.735.561-.667-.16.343-.276.75S329.307,315.377,329.224,315.4Z" transform="translate(-231.213 -191.713)" fill="#263238"/>
      <path id="Path_3746" data-name="Path 3746" d="M319.828,307.52c-.024.082-.426,0-.9.126s-.817.3-.875.242.261-.421.817-.532S319.857,307.447,319.828,307.52Z" transform="translate(-225.525 -188.339)" fill="#263238"/>
      <g id="Group_6536" data-name="Group 6536" transform="translate(85.134 114.166)" opacity="0.3">
        <path id="Path_3747" data-name="Path 3747" d="M311.334,297.36l.174,1.586-8.477,1.161-.261-1.668Z" transform="translate(-302.77 -297.36)"/>
      </g>
      <path id="Path_3748" data-name="Path 3748" d="M318.271,302.845a1.635,1.635,0,0,1-.861.121,4.078,4.078,0,0,1-.967-.145,3.545,3.545,0,0,1-.532-.193,1.059,1.059,0,0,1-.29-.164.368.368,0,0,1-.106-.44.484.484,0,0,1,.343-.247,1.078,1.078,0,0,1,.329,0,3.447,3.447,0,0,1,.566.106,3.1,3.1,0,0,1,.87.406c.455.314.638.609.609.629s-.266-.2-.716-.45a3.477,3.477,0,0,0-.837-.319,3.306,3.306,0,0,0-.517-.082c-.189,0-.343,0-.377.087s0,.048.034.1a.774.774,0,0,0,.213.121,4.158,4.158,0,0,0,.484.193,4.751,4.751,0,0,0,.88.2A5.157,5.157,0,0,1,318.271,302.845Z" transform="translate(-224.201 -185.468)" fill="#263238"/>
      <path id="Path_3749" data-name="Path 3749" d="M320.644,301.265a1.486,1.486,0,0,1-.348-.8,2.857,2.857,0,0,1,0-.967,2.755,2.755,0,0,1,.14-.556.721.721,0,0,1,.484-.513.406.406,0,0,1,.4.189,1.154,1.154,0,0,1,.135.3,1.934,1.934,0,0,1,.082.585,2.006,2.006,0,0,1-.237.943c-.271.484-.609.648-.619.619a6.538,6.538,0,0,0,.43-.711,1.969,1.969,0,0,0,.155-.851,1.792,1.792,0,0,0-.087-.484c-.053-.179-.145-.319-.213-.29a.636.636,0,0,0-.261.329,3.231,3.231,0,0,0-.145.484,3.13,3.13,0,0,0-.039.885C320.552,300.946,320.688,301.246,320.644,301.265Z" transform="translate(-226.666 -183.743)" fill="#263238"/>
      <path id="Path_3750" data-name="Path 3750" d="M155.282,295.495l-8.337,3.332s1.185,9.318-.295,10.083L139,293.255l12.771-5.725Z" transform="translate(-133.062 -178.118)" fill="#fb7070"/>
      <g id="Group_6537" data-name="Group 6537" transform="translate(11.176 115.22)" opacity="0.6">
        <path id="Path_3751" data-name="Path 3751" d="M151.054,299.8a.716.716,0,0,0-.967-.121.682.682,0,0,0-.126.933.75.75,0,0,0,1,.126.716.716,0,0,0,0-.967" transform="translate(-149.831 -299.54)" fill="#fff"/>
      </g>
      <g id="Group_6538" data-name="Group 6538" transform="translate(5.938 114.563)" opacity="0.6">
        <path id="Path_3752" data-name="Path 3752" d="M139,298.755l1.286-.575,6.862,15.387a1.209,1.209,0,0,1-.575.967Z" transform="translate(-139 -298.18)" fill="#fff"/>
      </g>
      <path id="Path_3753" data-name="Path 3753" d="M154.193,310.168c-.082.034-.285-.343-.706-.614s-.837-.329-.837-.416.484-.169,1,.169S154.27,310.154,154.193,310.168Z" transform="translate(-140.111 -189.237)" fill="#263238"/>
      <path id="Path_3754" data-name="Path 3754" d="M154.172,314.709c-.068.048-.353-.227-.8-.348s-.827-.039-.856-.121.387-.319.938-.164S154.245,314.675,154.172,314.709Z" transform="translate(-140.042 -191.8)" fill="#263238"/>
      <path id="Path_3755" data-name="Path 3755" d="M152.665,318.873c-.048-.063.29-.343.808-.334s.841.3.793.363-.377-.063-.8-.068S152.7,318.946,152.665,318.873Z" transform="translate(-140.116 -194.132)" fill="#263238"/>
      <path id="Path_3756" data-name="Path 3756" d="M158.689,307.612c-.087,0-.135-.4-.358-.832s-.517-.706-.484-.774.484.135.73.638S158.766,307.626,158.689,307.612Z" transform="translate(-142.793 -187.653)" fill="#263238"/>
      <g id="Group_6539" data-name="Group 6539" transform="translate(15.692 110.177)" opacity="0.3">
        <path id="Path_3757" data-name="Path 3757" d="M164.044,296.968l-1.485.595-3.39-7.858,1.315-.595Z" transform="translate(-159.17 -289.11)"/>
      </g>
      <path id="Path_3758" data-name="Path 3758" d="M162.509,304.813a1.7,1.7,0,0,1-.348-.8,4.145,4.145,0,0,1-.111-.967,4.572,4.572,0,0,1,.039-.566,1.029,1.029,0,0,1,.082-.324.367.367,0,0,1,.4-.222.484.484,0,0,1,.329.266.967.967,0,0,1,.092.314,3.385,3.385,0,0,1,.048.571,3.162,3.162,0,0,1-.155.967,1.494,1.494,0,0,1-.44.754c-.044-.024.121-.31.237-.812a3.535,3.535,0,0,0,.087-.89,2.745,2.745,0,0,0-.063-.517c-.029-.189-.092-.334-.184-.343s-.048,0-.082.053a.884.884,0,0,0-.058.242,4.079,4.079,0,0,0-.058.527,4.689,4.689,0,0,0,.048.9A5.833,5.833,0,0,1,162.509,304.813Z" transform="translate(-144.965 -185.554)" fill="#263238"/>
      <path id="Path_3759" data-name="Path 3759" d="M162.718,306.879a1.522,1.522,0,0,1,.677-.551,2.9,2.9,0,0,1,.924-.276,2.481,2.481,0,0,1,.571,0,.725.725,0,0,1,.629.329.411.411,0,0,1-.073.43,1.219,1.219,0,0,1-.256.213,1.935,1.935,0,0,1-.537.237,1.983,1.983,0,0,1-.967.024c-.551-.131-.788-.411-.764-.43a7.9,7.9,0,0,0,.8.222,1.959,1.959,0,0,0,.866-.077,1.777,1.777,0,0,0,.455-.218c.155-.1.266-.222.218-.28a.484.484,0,0,0-.382-.164,2.7,2.7,0,0,0-.522,0,3.179,3.179,0,0,0-.861.2C163,306.705,162.747,306.918,162.718,306.879Z" transform="translate(-145.309 -187.674)" fill="#263238"/>
      <path id="Path_3760" data-name="Path 3760" d="M270.621,65.087c-1.306-.808-3.124.077-4.507-.595-.841-.406-1.32-1.291-2-1.934a4.686,4.686,0,0,0-4.009-1.219,3.4,3.4,0,0,0-2.824,2.041c-.933-.919-3.124,0-4.1,1.146A6.065,6.065,0,0,0,252,68.631,20.161,20.161,0,0,0,253.41,76.3c.087.218.247.484.484.43s.251-.193.314-.338a16.726,16.726,0,0,0,.967-3.97,10.106,10.106,0,0,1,1.277-3.869,3.92,3.92,0,0,1,3.385-1.934,4.352,4.352,0,0,1,2.645,1.34c.725.7,1.306,1.538,1.973,2.292A5.551,5.551,0,0,0,266.873,72a2.645,2.645,0,0,0,2.781-.658,1.76,1.76,0,0,0-.392-2.606,1.983,1.983,0,0,0,1.368-3.641Z" transform="translate(-191.416 -61.273)" fill="#263238"/>
      <path id="Path_3761" data-name="Path 3761" d="M258.9,88.783l.6-2.858s3.907.266,4.8-3.5c.435-1.818,1.025-5.634,1.518-9.091a7.215,7.215,0,0,0-5.551-8.052l-.363-.082c-3.98-.658-6.77,2.355-7.307,6.349L249.54,86.858a4.778,4.778,0,0,0,3.719,5.614l-.106,1.451C255.74,94.45,258.366,91.36,258.9,88.783Z" transform="translate(-190.099 -63.256)" fill="#ffbe9d"/>
      <path id="Path_3762" data-name="Path 3762" d="M265.364,105.47a8.985,8.985,0,0,1-4.6-2.51s.546,2.979,4.391,3.487Z" transform="translate(-195.942 -82.801)" fill="#eb996e"/>
      <path id="Path_3763" data-name="Path 3763" d="M279.29,87a.556.556,0,0,1-.643.426.532.532,0,0,1-.445-.614.556.556,0,0,1,.643-.426.532.532,0,0,1,.445.614Z" transform="translate(-204.945 -74.239)" fill="#263238"/>
      <path id="Path_3764" data-name="Path 3764" d="M278.522,84.657c-.082.058-.426-.338-1.006-.484a4.435,4.435,0,0,0-1.117,0c-.048-.063.073-.15.29-.242a1.528,1.528,0,0,1,.914-.073,1.451,1.451,0,0,1,.779.484C278.531,84.492,278.56,84.632,278.522,84.657Z" transform="translate(-204.012 -72.917)" fill="#263238"/>
      <path id="Path_3765" data-name="Path 3765" d="M267.711,84.6a.546.546,0,0,1-.638.426.532.532,0,0,1-.45-.609.556.556,0,0,1,.663-.426A.532.532,0,0,1,267.711,84.6Z" transform="translate(-198.966 -72.996)" fill="#263238"/>
      <path id="Path_3766" data-name="Path 3766" d="M266.722,82.225c-.082.053-.426-.339-1.006-.484a4.435,4.435,0,0,0-1.117,0c-.048-.063.073-.15.29-.247a1.538,1.538,0,0,1,.914-.068,1.451,1.451,0,0,1,.779.484A.461.461,0,0,1,266.722,82.225Z" transform="translate(-197.918 -71.66)" fill="#263238"/>
      <path id="Path_3767" data-name="Path 3767" d="M271.3,87.758a3.912,3.912,0,0,1,.967.044c.155,0,.3,0,.348-.073a.783.783,0,0,0,0-.484c-.058-.387-.121-.8-.184-1.223a20.242,20.242,0,0,1-.319-3.172,19.412,19.412,0,0,1,.575,3.138c.053.426.111.837.16,1.228a.875.875,0,0,1-.053.6.382.382,0,0,1-.29.16,1.064,1.064,0,0,1-.261,0A3.815,3.815,0,0,1,271.3,87.758Z" transform="translate(-201.385 -72.416)" fill="#263238"/>
      <path id="Path_3768" data-name="Path 3768" d="M267.385,93c.1,0-.048.643.392,1.214s1.122.648,1.107.74-.174.087-.459.029a1.6,1.6,0,0,1-.933-.58,1.4,1.4,0,0,1-.29-1.011C267.235,93.14,267.342,93,267.385,93Z" transform="translate(-199.264 -77.658)" fill="#263238"/>
      <path id="Path_3769" data-name="Path 3769" d="M267.579,76.2c-.1.145-.658-.063-1.354-.131s-1.291,0-1.349-.174c-.029-.077.1-.2.358-.3a2.37,2.37,0,0,1,2.06.232C267.521,75.982,267.618,76.136,267.579,76.2Z" transform="translate(-198.065 -68.599)" fill="#263238"/>
      <path id="Path_3770" data-name="Path 3770" d="M279.07,81.081c-.131.111-.484-.116-.967-.232s-.909-.111-.967-.271c-.024-.077.068-.193.276-.276a1.451,1.451,0,0,1,1.567.406C279.1,80.873,279.128,81.018,279.07,81.081Z" transform="translate(-204.396 -71.058)" fill="#263238"/>
      <path id="Path_3771" data-name="Path 3771" d="M252.179,83.961c-.063-.039-2.418-1.349-2.9,1.248a1.991,1.991,0,0,0,2.229,2.49C251.527,87.621,252.179,83.961,252.179,83.961Z" transform="translate(-189.982 -72.801)" fill="#ffbe9d"/>
      <path id="Path_3772" data-name="Path 3772" d="M251.564,87.427a.323.323,0,0,0-.135.044.454.454,0,0,1-.339-.058,1.136,1.136,0,0,1-.324-1.1,1.474,1.474,0,0,1,.251-.624.527.527,0,0,1,.406-.285.227.227,0,0,1,.242.179v.135c0,.01.063-.034.063-.145a.29.29,0,0,0-.073-.184.338.338,0,0,0-.237-.116.653.653,0,0,0-.551.314,1.576,1.576,0,0,0-.295.692,1.209,1.209,0,0,0,.445,1.252.484.484,0,0,0,.426,0C251.55,87.49,251.574,87.432,251.564,87.427Z" transform="translate(-190.663 -73.666)" fill="#eb996e"/>
      <path id="Path_3773" data-name="Path 3773" d="M269.554,72.179a5.6,5.6,0,0,1-4.6-2.181c-.74-.967-1.194-2.263-2.268-2.9a3.124,3.124,0,0,0-2.418-.208,6.083,6.083,0,0,0-2.147,1.233c.295,2.079-.677,4.11-1.625,5.992a1.064,1.064,0,0,1-.435.527c-.358.164-.774-.121-.967-.459a3.274,3.274,0,0,1-.319-1.842,10.823,10.823,0,0,1,.967-4.178,7.413,7.413,0,0,1,2.8-3.163,7.046,7.046,0,0,1,5.213-.73,8.622,8.622,0,0,1,4.483,2.843,5.092,5.092,0,0,1,1.17,2.186" transform="translate(-192.839 -62.712)" fill="#263238"/>
      <path id="Path_3774" data-name="Path 3774" d="M277.24,67.826a.628.628,0,0,1-.073.218,1.073,1.073,0,0,1-.484.45,1.659,1.659,0,0,1-1.035.106,3.089,3.089,0,0,1-.633-.184,1.421,1.421,0,0,1-.585-.455.933.933,0,0,1-.16-.8.817.817,0,0,1,.7-.532,1.02,1.02,0,0,1,.484.044.861.861,0,0,1,.4.3,1.2,1.2,0,0,1,.179.967,1.368,1.368,0,0,1-.619.856,2.1,2.1,0,0,1-1.054.319,3.472,3.472,0,0,1-2.152-.735,10.063,10.063,0,0,1-1.649-1.581,12.362,12.362,0,0,0-1.48-1.494,3.922,3.922,0,0,0-1.664-.812,3.762,3.762,0,0,0-1.634.048,4.715,4.715,0,0,0-2.065,1.17,5.805,5.805,0,0,0-.45.484c-.1.111-.15.174-.15.169s0,0,.029-.048a1.049,1.049,0,0,1,.1-.14,5.466,5.466,0,0,1,.435-.484,4.643,4.643,0,0,1,2.075-1.223,3.869,3.869,0,0,1,1.678-.063,4.067,4.067,0,0,1,1.731.841,12.953,12.953,0,0,1,1.5,1.5,10,10,0,0,0,1.63,1.562,3.414,3.414,0,0,0,2.055.7,1.987,1.987,0,0,0,.991-.3,1.252,1.252,0,0,0,.571-.774,1.088,1.088,0,0,0-.155-.895.808.808,0,0,0-.769-.3.716.716,0,0,0-.614.459.851.851,0,0,0,.135.716,1.3,1.3,0,0,0,.546.43,2.873,2.873,0,0,0,.614.189,1.678,1.678,0,0,0,1-.077,1.083,1.083,0,0,0,.484-.421C277.221,67.9,277.23,67.821,277.24,67.826Z" transform="translate(-197.155 -62.856)" fill="#455a64"/>
      <path id="Path_3775" data-name="Path 3775" d="M252.47,70.464a4.638,4.638,0,0,0,.745.387,2.277,2.277,0,0,0,.885.1,3.868,3.868,0,0,0,1.074-.247,3.1,3.1,0,0,0,1.494-1.277,6.688,6.688,0,0,0,.353-.759.731.731,0,0,1-.039.227,2.59,2.59,0,0,1-.232.58,3,3,0,0,1-1.533,1.349,3.559,3.559,0,0,1-1.112.247,2.34,2.34,0,0,1-.924-.135,2.157,2.157,0,0,1-.542-.314C252.523,70.532,252.465,70.474,252.47,70.464Z" transform="translate(-191.66 -65.093)" fill="#455a64"/>
      <path id="Path_3776" data-name="Path 3776" d="M251.84,74.4a4.6,4.6,0,0,0,.788.193,3.617,3.617,0,0,0,3.458-1.306c.314-.387.44-.677.459-.667s0,.077-.073.208a3.485,3.485,0,0,1-3.864,1.862,2.936,2.936,0,0,1-.575-.179A.668.668,0,0,1,251.84,74.4Z" transform="translate(-191.335 -67.133)" fill="#455a64"/>
      <path id="Path_3777" data-name="Path 3777" d="M263.743,87.165a.073.073,0,1,1,0-.145.063.063,0,0,1,.063.073.073.073,0,0,1-.063.073Z" transform="translate(-197.444 -74.569)" fill="#eb996e"/>
      <path id="Path_3778" data-name="Path 3778" d="M266.163,87.134c-.034,0-.063-.039-.063-.082a.082.082,0,0,1,.068-.082.077.077,0,0,1,.063.087C266.231,87.1,266.2,87.139,266.163,87.134Z" transform="translate(-198.699 -74.543)" fill="#eb996e"/>
      <path id="Path_3779" data-name="Path 3779" d="M267.723,87.393c-.034,0-.058-.053-.053-.111s.039-.1.077-.1.058.053.053.116S267.761,87.4,267.723,87.393Z" transform="translate(-199.509 -74.652)" fill="#eb996e"/>
      <path id="Path_3780" data-name="Path 3780" d="M264.567,88.915a.055.055,0,0,1-.058-.058c0-.024.039-.034.073,0s.063.034.058.053S264.6,88.915,264.567,88.915Z" transform="translate(-197.877 -75.506)" fill="#eb996e"/>
      <path id="Path_3781" data-name="Path 3781" d="M266.777,88.839a.073.073,0,0,1-.058-.082.069.069,0,0,1,.077-.068.073.073,0,0,1,.053.082.068.068,0,0,1-.073.068Z" transform="translate(-199.018 -75.431)" fill="#eb996e"/>
      <path id="Path_3782" data-name="Path 3782" d="M278,90a.068.068,0,0,1-.063-.077A.066.066,0,1,1,278,90Z" transform="translate(-204.813 -76.031)" fill="#eb996e"/>
      <path id="Path_3783" data-name="Path 3783" d="M279.6,90.194a.077.077,0,0,1-.053-.092.071.071,0,0,1,.073-.073.084.084,0,0,1-.019.164Z" transform="translate(-205.643 -76.123)" fill="#eb996e"/>
      <path id="Path_3784" data-name="Path 3784" d="M276.613,89.766a.068.068,0,0,1-.063-.063.063.063,0,0,1,.068-.053.058.058,0,0,1,.063.058.063.063,0,0,1-.068.058Z" transform="translate(-204.096 -75.927)" fill="#eb996e"/>
      <path id="Path_3785" data-name="Path 3785" d="M277.4,91.55a.072.072,0,0,1-.082-.063.077.077,0,0,1,.053-.087.078.078,0,0,1,.029.15Z" transform="translate(-204.492 -76.831)" fill="#eb996e"/>
      <path id="Path_3786" data-name="Path 3786" d="M278.839,91.633a.058.058,0,0,1-.034-.077.068.068,0,0,1,.116.063.058.058,0,0,1-.082.015Z" transform="translate(-205.258 -76.9)" fill="#eb996e"/>
      <path id="Path_3787" data-name="Path 3787" d="M190.184,216.27l-7.22,23.758-21.384,10.7,4.613,10.74,30.146-11.282,9.41-28.923Z" transform="translate(-144.723 -141.317)" fill="#263238"/>
      <path id="Path_3788" data-name="Path 3788" d="M196.924,109.47l-19.565,12.418a4.836,4.836,0,0,0-2.012,2.6l-6.137,18.932,6.746,2.384,7.118-17.7,17.617-7.3Z" transform="translate(-148.663 -86.163)" fill="#fb7070"/>
      <path id="Path_3789" data-name="Path 3789" d="M240.7,112.494l.561-.774-1.02-2.945-2.766,4.193-.74-2.287-5.551-6.61-2.418,1.765-9.106.846.053.251-1.741,13.439-1.059,14.435-2.123,7.07-.895.967a2.365,2.365,0,0,0-.571,2.162l.063.251,22.351,7.254,1.731-2.7,6.949-32.917Z" transform="translate(-171.409 -83.374)" fill="#fb7070"/>
      <path id="Path_3790" data-name="Path 3790" d="M261.09,211.89a11.069,11.069,0,0,0-7.7-9.4l-19.193-6.045-22.462-7.215a19.827,19.827,0,0,0-1.673,9.12c.271,4.454,5.136,8.7,10,9.957l27.9,7.036,5.261,27.564,11.079-.885Z" transform="translate(-169.743 -127.353)" fill="#263238"/>
      <path id="Path_3791" data-name="Path 3791" d="M252.048,232.72a1.666,1.666,0,0,1-.363-.058l-1.02-.227c-.885-.2-2.162-.517-3.728-.924-3.143-.808-7.452-2.036-12.273-3.167a103,103,0,0,1-12.123-3.733c-1.518-.575-2.727-1.088-3.559-1.451-.416-.179-.735-.334-.967-.435a2.292,2.292,0,0,1-.324-.164,1.934,1.934,0,0,1,.343.121l.967.392c.841.339,2.06.822,3.583,1.378a116.474,116.474,0,0,0,12.138,3.641c4.836,1.127,9.13,2.384,12.259,3.235l3.709,1,1.011.271a2.468,2.468,0,0,1,.348.121Z" transform="translate(-173.699 -144.565)" fill="#455a64"/>
      <path id="Path_3792" data-name="Path 3792" d="M291.285,236.729a4.632,4.632,0,0,1-1.151,1.862,4.579,4.579,0,0,1-1.736,1.33c-.044-.063.759-.614,1.552-1.5S291.217,236.7,291.285,236.729Z" transform="translate(-210.214 -151.882)" fill="#455a64"/>
      <path id="Path_3793" data-name="Path 3793" d="M292.966,241.983a5.426,5.426,0,0,1-2.21.691,5.488,5.488,0,0,1-2.316-.039c0-.077,1.035-.029,2.278-.208S292.942,241.886,292.966,241.983Z" transform="translate(-210.236 -154.588)" fill="#455a64"/>
      <path id="Path_3794" data-name="Path 3794" d="M233.42,195.769c0-.063,6.77,2,15.03,4.608s14.991,4.778,14.952,4.836-6.77-2-15.03-4.608S233.4,195.836,233.42,195.769Z" transform="translate(-181.822 -130.729)" fill="#455a64"/>
      <path id="Path_3795" data-name="Path 3795" d="M231.047,119.55a6.316,6.316,0,0,0,.8-1.576,8.307,8.307,0,0,0,.368-1.881,7.737,7.737,0,0,0-.14-2.331,5.5,5.5,0,0,0-1.016-2.079,5.392,5.392,0,0,0-1.427-1.252,12.018,12.018,0,0,0-1.63-.73,1.741,1.741,0,0,1,.484.082,5.347,5.347,0,0,1,1.228.484,5.149,5.149,0,0,1,1.523,1.262,5.527,5.527,0,0,1,1.074,2.166,7.359,7.359,0,0,1,.131,2.418,7.609,7.609,0,0,1-.435,1.934,4.177,4.177,0,0,1-.624,1.17A1.138,1.138,0,0,1,231.047,119.55Z" transform="translate(-179.023 -86.282)" fill="#263238"/>
      <g id="Group_6540" data-name="Group 6540" transform="translate(45.688 35.232)" opacity="0.3">
        <path id="Path_3796" data-name="Path 3796" d="M222.07,135.9A26.546,26.546,0,0,0,226,134.13c-1.591,4.183-3.3,9.188-4.8,13.4.435-3.9.435-7.737.87-11.64" transform="translate(-221.2 -134.13)"/>
      </g>
      <path id="Path_3797" data-name="Path 3797" d="M192.608,143.12a4.009,4.009,0,0,1,1.5,1.088,3.956,3.956,0,0,1,1.049,1.528c-.063.039-.527-.633-1.228-1.349S192.564,143.183,192.608,143.12Z" transform="translate(-160.745 -103.541)" fill="#263238"/>
      <path id="Path_3798" data-name="Path 3798" d="M195.87,137.7a6.717,6.717,0,0,1,1.151,5.058,23.939,23.939,0,0,0-.309-2.587,23.85,23.85,0,0,0-.841-2.471Z" transform="translate(-162.431 -100.742)" fill="#263238"/>
      <path id="Path_3799" data-name="Path 3799" d="M216,161.416c0,.073,0,.131-.048.131s-.044-.058-.044-.131,0-.126.044-.126S216,161.348,216,161.416Z" transform="translate(-172.78 -112.924)" fill="#263238"/>
      <path id="Path_3800" data-name="Path 3800" d="M263.35,168.6a1.191,1.191,0,0,1,.039-.29l.164-.822c.16-.745.372-1.765.638-3.013l2.089-9.937c.817-3.869,1.552-7.37,2.094-9.942.271-1.243.484-2.263.653-3.008l.189-.817a2.2,2.2,0,0,1,.082-.28,1.085,1.085,0,0,1-.029.29c-.039.218-.087.484-.145.827-.14.75-.339,1.775-.575,3.027-.484,2.548-1.2,6.074-2.021,9.957s-1.581,7.389-2.162,9.923c-.295,1.267-.537,2.292-.716,3-.087.329-.155.6-.208.808a1.276,1.276,0,0,1-.092.281Z" transform="translate(-197.279 -102.182)" fill="#263238"/>
      <path id="Path_3801" data-name="Path 3801" d="M286.127,162.789a3.835,3.835,0,0,1,.508-2.06,3.9,3.9,0,0,1,1.344-1.649c.058.058-.609.73-1.117,1.76S286.2,162.8,286.127,162.789Z" transform="translate(-209.04 -111.783)" fill="#263238"/>
      <path id="Path_3802" data-name="Path 3802" d="M288.256,163.923A6.393,6.393,0,0,1,289,159c.072.034-.421,1.059-.614,2.418A23.993,23.993,0,0,0,288.256,163.923Z" transform="translate(-210.038 -111.741)" fill="#263238"/>
      <path id="Path_3803" data-name="Path 3803" d="M332.85,160.11l-3.69.034.459,1.17,3.2-.754Z" transform="translate(-231.265 -112.315)" fill="#ffbe9d"/>
      <g id="Group_6541" data-name="Group 6541" transform="translate(70.017 40.358)" opacity="0.3">
        <path id="Path_3804" data-name="Path 3804" d="M271.51,152.554s2.457,4.294,2.418,4.183a43.428,43.428,0,0,0-.8-12.007" transform="translate(-271.51 -144.73)"/>
      </g>
      <path id="Path_3805" data-name="Path 3805" d="M253.392,112.712c0,.024-.334.324-.895.87s-1.33,1.349-2.336,2.181l-.111.092-.068-.126-1.112-2.06c-.9-1.639-1.76-3.1-2.384-4.154l-.745-1.272a2.119,2.119,0,0,1-.242-.484,2.165,2.165,0,0,1,.329.421c.193.28.484.692.8,1.209.667,1.035,1.547,2.486,2.452,4.13.4.725.774,1.451,1.1,2.07l-.179-.039c1-.8,1.789-1.6,2.389-2.1A5.44,5.44,0,0,1,253.392,112.712Z" transform="translate(-188.061 -85.28)" fill="#263238"/>
      <path id="Path_3806" data-name="Path 3806" d="M267.006,119.3a1.611,1.611,0,0,1-.31.484c-.213.3-.556.716-.909,1.214l-.135.184-.068-.213c-.14-.435-.285-.9-.445-1.4l-.285-.967.213.044a16.228,16.228,0,0,1-1.717,1.934,16.06,16.06,0,0,1,1.523-2.094l.14-.179.073.222.295.933q.218.735.421,1.393l-.2-.029c.387-.484.745-.885.991-1.165S266.982,119.287,267.006,119.3Z" transform="translate(-197.279 -90.728)" fill="#263238"/>
      <path id="Path_3807" data-name="Path 3807" d="M262.57,120.24a2.519,2.519,0,0,1-.484-1.223,5.494,5.494,0,0,1-.247-1.277,2.539,2.539,0,0,1,.484,1.219A5.828,5.828,0,0,1,262.57,120.24Z" transform="translate(-196.499 -90.434)" fill="#263238"/>
      <path id="Path_3808" data-name="Path 3808" d="M253.675,193.75a1.4,1.4,0,0,1,.484.595,2.089,2.089,0,0,1-1.489,2.935,1.093,1.093,0,0,1-.759-.034c0-.039.29,0,.716-.135a2.046,2.046,0,0,0,1.369-2.7C253.84,193.992,253.641,193.779,253.675,193.75Z" transform="translate(-191.371 -129.687)" fill="#263238"/>
      <path id="Path_3809" data-name="Path 3809" d="M259.1,124.25a1.677,1.677,0,0,1,0,.343c0,.251,0,.58-.034.967-.029.856-.1,2.094-.218,3.622-.222,3.056-.653,7.254-1.368,11.9s-1.586,8.772-2.3,11.751c-.353,1.494-.662,2.694-.89,3.52l-.266.967a1.6,1.6,0,0,1-.111.329,2.423,2.423,0,0,1,.063-.339c.053-.247.131-.566.218-.967.2-.832.484-2.041.817-3.535.667-2.988,1.5-7.138,2.224-11.751s1.17-8.825,1.451-11.877c.135-1.523.232-2.761.295-3.612.034-.406.058-.735.082-.967A1.582,1.582,0,0,1,259.1,124.25Z" transform="translate(-192.404 -93.796)" fill="#263238"/>
      <path id="Path_3810" data-name="Path 3810" d="M251.343,192.247a4.11,4.11,0,0,1-1.185.251,11.876,11.876,0,0,1-2.9,0,12.164,12.164,0,0,1-2.834-.7,4.169,4.169,0,0,1-1.083-.532,22.92,22.92,0,0,0,3.946.967,22.633,22.633,0,0,0,4.057.01Z" transform="translate(-186.945 -128.407)" fill="#263238"/>
      <path id="Path_3811" data-name="Path 3811" d="M221.709,184.9a14.334,14.334,0,0,1-5.319-2.539c.039-.063,1.17.624,2.64,1.32S221.734,184.837,221.709,184.9Z" transform="translate(-173.028 -123.806)" fill="#263238"/>
      <path id="Path_3812" data-name="Path 3812" d="M208.061,174.646c0,.073-.024.126-.058.126s-.053-.053-.053-.126.024-.126.053-.126S208.061,174.578,208.061,174.646Z" transform="translate(-168.669 -119.756)" fill="#263238"/>
      <path id="Path_3813" data-name="Path 3813" d="M206.262,128.947a13.241,13.241,0,0,1,.571-3.617,6.455,6.455,0,0,1-.16,1.828A6.866,6.866,0,0,1,206.262,128.947Z" transform="translate(-167.794 -94.353)" fill="#fff"/>
      <path id="Path_3814" data-name="Path 3814" d="M221.369,128.216a5.654,5.654,0,0,1-1.04-.769c-.556-.43-1.045-.74-1.011-.808a2.51,2.51,0,0,1,1.165.609C221.064,127.694,221.417,128.173,221.369,128.216Z" transform="translate(-174.539 -95.03)" fill="#fff"/>
      <path id="Path_3815" data-name="Path 3815" d="M190.083,137.4a2.587,2.587,0,0,1-1.016-.445c-.527-.309-.924-.6-.89-.667a2.558,2.558,0,0,1,1.015.45C189.72,137.044,190.117,137.339,190.083,137.4Z" transform="translate(-158.457 -100.013)" fill="#fff"/>
      <path id="Path_3816" data-name="Path 3816" d="M186.229,151.25a6.519,6.519,0,0,1-1.678.663,6.441,6.441,0,0,1-1.751.416,6.839,6.839,0,0,1,1.678-.658A6.568,6.568,0,0,1,186.229,151.25Z" transform="translate(-155.681 -107.739)" fill="#fff"/>
      <path id="Path_3817" data-name="Path 3817" d="M180.979,169.263a6.437,6.437,0,0,1-.484-3.283,39.866,39.866,0,0,1,.484,3.283Z" transform="translate(-154.469 -115.346)" fill="#fff"/>
      <path id="Path_3818" data-name="Path 3818" d="M212.616,138.26a11.263,11.263,0,0,1-1.741.595,11.091,11.091,0,0,1-1.755.551A7.539,7.539,0,0,1,212.616,138.26Z" transform="translate(-169.273 -101.031)" fill="#fff"/>
      <path id="Path_3819" data-name="Path 3819" d="M225.387,116.232a9.831,9.831,0,0,1-2.205-.285,10.034,10.034,0,0,1-2.162-.537,9.739,9.739,0,0,1,2.21.29A10.01,10.01,0,0,1,225.387,116.232Z" transform="translate(-175.419 -89.231)" fill="#fff"/>
      <path id="Path_3820" data-name="Path 3820" d="M240.73,114.326a10.592,10.592,0,0,1,1.02-3.076,10.594,10.594,0,0,1-1.02,3.076Z" transform="translate(-185.598 -87.082)" fill="#fff"/>
      <path id="Path_3821" data-name="Path 3821" d="M247.888,126.489a7.253,7.253,0,0,1-2.118-2.669,8.569,8.569,0,0,1,1.1,1.306A8.191,8.191,0,0,1,247.888,126.489Z" transform="translate(-188.2 -93.574)" fill="#fff"/>
      <path id="Path_3822" data-name="Path 3822" d="M239.656,136.013a5.58,5.58,0,0,1-.261-1.63,5.676,5.676,0,0,1,0-1.654,5.32,5.32,0,0,1,.261,1.634,5.257,5.257,0,0,1,0,1.649Z" transform="translate(-184.877 -98.175)" fill="#fff"/>
      <path id="Path_3823" data-name="Path 3823" d="M227.242,143.5c-.044.053-.484-.256-.938-.691s-.817-.832-.769-.88.484.261.938.692S227.291,143.448,227.242,143.5Z" transform="translate(-177.748 -102.921)" fill="#fff"/>
      <path id="Path_3824" data-name="Path 3824" d="M231.812,152.65a4.434,4.434,0,0,1-2.592.721,5.8,5.8,0,0,1,1.286-.406A5.322,5.322,0,0,1,231.812,152.65Z" transform="translate(-179.653 -108.462)" fill="#fff"/>
      <path id="Path_3825" data-name="Path 3825" d="M253.332,143.378a6.049,6.049,0,0,1-.411-3.148,30.234,30.234,0,0,1,.411,3.148Z" transform="translate(-191.864 -102.048)" fill="#fff"/>
      <path id="Path_3826" data-name="Path 3826" d="M248.223,158.087a4.656,4.656,0,0,1-.8-1.306,4.784,4.784,0,0,1-.58-1.422,4.657,4.657,0,0,1,.8,1.306A4.783,4.783,0,0,1,248.223,158.087Z" transform="translate(-188.753 -109.862)" fill="#fff"/>
      <path id="Path_3827" data-name="Path 3827" d="M234.71,166.844a7.279,7.279,0,0,1,.484-1.818,6.946,6.946,0,0,1,.745-1.736,7.276,7.276,0,0,1-.484,1.818,6.942,6.942,0,0,1-.745,1.736Z" transform="translate(-182.489 -113.957)" fill="#fff"/>
      <path id="Path_3828" data-name="Path 3828" d="M227.578,176.318a3.153,3.153,0,0,1-.517-1.093,2.9,2.9,0,0,1-.28-1.175,3.042,3.042,0,0,1,.517,1.093A2.9,2.9,0,0,1,227.578,176.318Z" transform="translate(-178.393 -119.514)" fill="#fff"/>
      <path id="Path_3829" data-name="Path 3829" d="M247.048,177.27a6.316,6.316,0,0,1-1.518.924,6.4,6.4,0,0,1-1.639.7,6.538,6.538,0,0,1,1.523-.924,6.4,6.4,0,0,1,1.635-.7Z" transform="translate(-187.229 -121.177)" fill="#fff"/>
      <path id="Path_3830" data-name="Path 3830" d="M236.116,187.27a2.2,2.2,0,0,1-.222-1.011c-.053-.571-.044-1.035.029-1.04a2.21,2.21,0,0,1,.222,1.016C236.2,186.8,236.189,187.266,236.116,187.27Z" transform="translate(-183.083 -125.282)" fill="#fff"/>
      <path id="Path_3831" data-name="Path 3831" d="M219.523,187.478c-.053.039-.377-.377-.517-1a1.625,1.625,0,0,1,.024-1.122,6.032,6.032,0,0,1,.222,1.064A6.228,6.228,0,0,1,219.523,187.478Z" transform="translate(-174.333 -125.354)" fill="#fff"/>
      <path id="Path_3832" data-name="Path 3832" d="M245.3,195.67a3.6,3.6,0,0,1-1.228.532,3.749,3.749,0,0,1-1.3.295,3.549,3.549,0,0,1,1.223-.532A3.762,3.762,0,0,1,245.3,195.67Z" transform="translate(-186.651 -130.679)" fill="#fff"/>
      <path id="Path_3833" data-name="Path 3833" d="M259.647,197.889c-.068,0-.2-.377-.29-.866s-.116-.9-.048-.914.2.372.3.866S259.72,197.875,259.647,197.889Z" transform="translate(-195.172 -130.906)" fill="#fff"/>
      <path id="Path_3834" data-name="Path 3834" d="M260.547,183.466a2.988,2.988,0,0,1-.609-1.04,2.956,2.956,0,0,1-.377-1.136,3,3,0,0,1,.609,1.035,2.964,2.964,0,0,1,.377,1.141Z" transform="translate(-195.322 -123.253)" fill="#fff"/>
      <path id="Path_3835" data-name="Path 3835" d="M264.013,170.51c.039.058-.411.4-1,.754a3.1,3.1,0,0,1-1.127.542,3.269,3.269,0,0,1,1-.754A3.132,3.132,0,0,1,264.013,170.51Z" transform="translate(-196.525 -117.686)" fill="#fff"/>
      <path id="Path_3836" data-name="Path 3836" d="M265.851,159.251a2.331,2.331,0,0,1-.513-1.112,2.268,2.268,0,0,1-.1-1.219,4.6,4.6,0,0,1,.343,1.156A4.3,4.3,0,0,1,265.851,159.251Z" transform="translate(-198.232 -110.667)" fill="#fff"/>
      <path id="Path_3837" data-name="Path 3837" d="M268.639,141.6a5.228,5.228,0,0,1-1.19,1.025,5.1,5.1,0,0,1-1.34.827,5.044,5.044,0,0,1,1.19-1.03A4.779,4.779,0,0,1,268.639,141.6Z" transform="translate(-198.704 -102.756)" fill="#fff"/>
      <path id="Path_3838" data-name="Path 3838" d="M270.749,133.383c-.039.053-.484-.218-.885-.735a1.741,1.741,0,0,1-.484-1.049c.068-.029.3.416.672.895S270.792,133.325,270.749,133.383Z" transform="translate(-200.393 -97.59)" fill="#fff"/>
      <path id="Path_3839" data-name="Path 3839" d="M279.53,145.923a9.6,9.6,0,0,1,.542-3.013,4.734,4.734,0,0,1-.145,1.528A4.8,4.8,0,0,1,279.53,145.923Z" transform="translate(-205.63 -103.432)" fill="#fff"/>
      <path id="Path_3840" data-name="Path 3840" d="M281.389,157.483a3.729,3.729,0,0,1-1.31-.358,3.64,3.64,0,0,1-1.219-.595,3.869,3.869,0,0,1,1.31.358A3.8,3.8,0,0,1,281.389,157.483Z" transform="translate(-205.289 -110.466)" fill="#fff"/>
      <path id="Path_3841" data-name="Path 3841" d="M281.779,169.731a3.438,3.438,0,0,1-.648-1.117,3.322,3.322,0,0,1-.421-1.223,6.659,6.659,0,0,1,1.069,2.341Z" transform="translate(-206.244 -116.074)" fill="#fff"/>
      <path id="Path_3842" data-name="Path 3842" d="M295.506,164.57a58.791,58.791,0,0,1-2.336,2.592,4.549,4.549,0,0,1,1-1.451A4.468,4.468,0,0,1,295.506,164.57Z" transform="translate(-212.679 -114.618)" fill="#fff"/>
      <path id="Path_3843" data-name="Path 3843" d="M305.235,164.443a4.31,4.31,0,0,1-1.054-.967,4.231,4.231,0,0,1-.87-1.146,8.366,8.366,0,0,1,1.934,2.118Z" transform="translate(-217.915 -113.461)" fill="#fff"/>
      <path id="Path_3844" data-name="Path 3844" d="M325.146,134.832V132.1H323.71l2.205-3.09,2.205,3.09h-1.383v2.732Z" transform="translate(-228.45 -96.254)" fill="#fb7070"/>
      <path id="Path_3845" data-name="Path 3845" d="M319.526,141.522v-1.91H318.52l1.547-2.162,1.543,2.162h-.967v1.91Z" transform="translate(-225.77 -100.613)" fill="#fb7070"/>
      <path id="Path_3846" data-name="Path 3846" d="M202.018,298.875a2.167,2.167,0,0,1-.237.039l-.711.092c-.314.029-.7.082-1.156.164s-.967.155-1.567.29a33.367,33.367,0,0,0-15.3,7.694,32.064,32.064,0,0,0-5.353,6.195,33.193,33.193,0,0,0-5.5,17.941v.426l-.227-.358a19.71,19.71,0,0,0-4.662-4.976,26.975,26.975,0,0,0-20.223-5.145l-1.2.251a3.476,3.476,0,0,0-.585.155l-.575.184c-.377.131-.769.223-1.127.382l-1.083.484a10.449,10.449,0,0,0-1.045.513l-1.011.537-.967.6a9.882,9.882,0,0,0-.919.624,26.6,26.6,0,0,0-5.759,5.726,31.915,31.915,0,0,0-3.385,5.8l-.566,1.32c-.169.426-.314.846-.459,1.248-.309.793-.484,1.547-.716,2.21-.368,1.349-.619,2.418-.745,3.134-.068.353-.121.629-.16.822s-.063.28-.063.28a2.537,2.537,0,0,1,.039-.285c.029-.193.077-.484.135-.827a32.229,32.229,0,0,1,.7-3.148c.2-.672.387-1.451.692-2.229.145-.4.285-.822.455-1.252l.561-1.33a31.784,31.784,0,0,1,3.385-5.851,26.533,26.533,0,0,1,5.8-5.8,10.02,10.02,0,0,1,.924-.629l.967-.614L141.4,323a9.245,9.245,0,0,1,1.054-.517l1.093-.484c.363-.164.759-.256,1.141-.392l.58-.184a3.6,3.6,0,0,1,.595-.16l1.214-.256a27.121,27.121,0,0,1,20.412,5.174,19.889,19.889,0,0,1,4.72,5.044l-.227.063a33.285,33.285,0,0,1,5.566-18.062,31.989,31.989,0,0,1,5.4-6.219,33.8,33.8,0,0,1,5.8-4.12,32.787,32.787,0,0,1,9.584-3.53c.59-.131,1.117-.2,1.576-.271s.846-.121,1.161-.145l.711-.068C201.935,298.875,202.018,298.875,202.018,298.875Z" transform="translate(-126.72 -183.974)" fill="#263238"/>
    </g>
    <g id="freepik--Levels--inject-9" transform="translate(40.81 174.347)">
      <rect id="Rectangle_3166" data-name="Rectangle 3166" width="33.004" height="83.499" transform="translate(146.62)" fill="#fb7070"/>
      <g id="Group_6542" data-name="Group 6542" transform="translate(146.62)" opacity="0.3">
        <rect id="Rectangle_3167" data-name="Rectangle 3167" width="33.004" height="83.499"/>
      </g>
      <rect id="Rectangle_3168" data-name="Rectangle 3168" width="33.004" height="83.499" transform="translate(138.554)" fill="#fb7070"/>
      <g id="Group_6543" data-name="Group 6543" transform="translate(149.502 32.748)" opacity="0.4">
        <path id="Path_3847" data-name="Path 3847" d="M383.906,376.71v4.618h-.88l-2.3-2.8v2.8H379.67V376.71h.885l2.3,2.8v-2.8Z" transform="translate(-379.67 -376.038)" fill="#fff"/>
        <path id="Path_3848" data-name="Path 3848" d="M389.878,376.751a1.262,1.262,0,1,1,1.252,1.093,1.141,1.141,0,0,1-1.252-1.093Zm1.8,0a.551.551,0,1,0-.551.551A.551.551,0,0,0,391.677,376.751Z" transform="translate(-384.936 -375.32)" fill="#fff"/>
        <path id="Path_3849" data-name="Path 3849" d="M399.92,380.356h-.75v.967h-1.045v-.967H395.64v-.721l2.176-2.926h1.122l-2.017,2.776h1.238v-.866h1.011v.866h.749Z" transform="translate(-387.917 -376.038)" fill="#fff"/>
      </g>
      <path id="Path_3850" data-name="Path 3850" d="M433.495,315.52a2.326,2.326,0,0,1-.271.484l-.817,1.286c-.7,1.083-1.673,2.563-2.771,4.193s-2.1,3.095-2.843,4.144a12.511,12.511,0,0,1-1.262,1.659.657.657,0,0,1,.068-.126l.218-.353c.227-.348.484-.774.827-1.281.706-1.074,1.688-2.558,2.785-4.183s2.1-3.095,2.834-4.149l.88-1.243A2.32,2.32,0,0,1,433.495,315.52Z" transform="translate(-253.851 -311.69)" fill="#fb7070"/>
      <path id="Path_3851" data-name="Path 3851" d="M433.495,346.62a2.326,2.326,0,0,1-.271.484l-.817,1.286c-.7,1.083-1.673,2.563-2.771,4.193s-2.1,3.09-2.843,4.144a12.508,12.508,0,0,1-1.262,1.659.773.773,0,0,1,.068-.131c.068-.106.14-.218.218-.353.227-.343.484-.774.827-1.277.706-1.078,1.688-2.558,2.785-4.183s2.1-3.095,2.834-4.149l.88-1.243A2.324,2.324,0,0,1,433.495,346.62Z" transform="translate(-253.851 -327.751)" fill="#fb7070"/>
      <path id="Path_3852" data-name="Path 3852" d="M433.495,377.71a2.418,2.418,0,0,1-.271.484l-.817,1.286c-.7,1.078-1.673,2.563-2.771,4.193s-2.1,3.09-2.843,4.139a12.4,12.4,0,0,1-1.262,1.664.779.779,0,0,1,.068-.131l.218-.353.827-1.277c.706-1.078,1.688-2.558,2.785-4.188s2.1-3.09,2.834-4.149l.88-1.238a2.5,2.5,0,0,1,.353-.43Z" transform="translate(-253.851 -343.806)" fill="#fb7070"/>
      <path id="Path_3853" data-name="Path 3853" d="M433.495,408.81a2.42,2.42,0,0,1-.271.484l-.817,1.286c-.7,1.078-1.673,2.563-2.771,4.188s-2.1,3.095-2.843,4.144a12.09,12.09,0,0,1-1.262,1.659,1.422,1.422,0,0,1,.068-.126c.068-.106.14-.222.218-.353l.827-1.277c.706-1.078,1.688-2.558,2.785-4.188s2.1-3.095,2.834-4.149l.88-1.243A2.322,2.322,0,0,1,433.495,408.81Z" transform="translate(-253.851 -359.867)" fill="#fb7070"/>
      <path id="Path_3854" data-name="Path 3854" d="M433.495,439.91a2.326,2.326,0,0,1-.271.484l-.817,1.291c-.7,1.078-1.673,2.563-2.771,4.188s-2.1,3.095-2.843,4.144a12.511,12.511,0,0,1-1.262,1.659,1.424,1.424,0,0,1,.068-.126l.218-.353c.227-.348.484-.774.827-1.281.706-1.074,1.688-2.553,2.785-4.183s2.1-3.095,2.834-4.149l.88-1.243a2.32,2.32,0,0,1,.353-.43Z" transform="translate(-253.851 -375.928)" fill="#fb7070"/>
      <path id="Path_3855" data-name="Path 3855" d="M438.561,471a16.575,16.575,0,0,1-1.5,2.466,16.836,16.836,0,0,1-1.717,2.326,16.6,16.6,0,0,1,1.509-2.466A16.254,16.254,0,0,1,438.561,471Z" transform="translate(-258.917 -391.984)" fill="#fb7070"/>
      <rect id="Rectangle_3169" data-name="Rectangle 3169" width="33.004" height="67.899" transform="translate(100.598 15.6)" fill="#fb7070"/>
      <g id="Group_6544" data-name="Group 6544" transform="translate(100.598 15.6)" opacity="0.3">
        <rect id="Rectangle_3170" data-name="Rectangle 3170" width="33.004" height="67.899"/>
      </g>
      <rect id="Rectangle_3171" data-name="Rectangle 3171" width="33.004" height="67.899" transform="translate(92.532 15.6)" fill="#fb7070"/>
      <g id="Group_6545" data-name="Group 6545" transform="translate(103.514 41.728)" opacity="0.4">
        <path id="Path_3856" data-name="Path 3856" d="M288.8,395.22v4.657h-.875l-2.3-2.829v2.829H284.57V395.22h.88l2.3,2.829V395.22Z" transform="translate(-284.57 -394.577)" fill="#fff"/>
        <path id="Path_3857" data-name="Path 3857" d="M294.77,395.3a1.257,1.257,0,1,1,1.252,1.107,1.141,1.141,0,0,1-1.252-1.107Zm1.8,0a.551.551,0,1,0-.551.551A.551.551,0,0,0,296.574,395.3Z" transform="translate(-289.833 -393.89)" fill="#fff"/>
        <path id="Path_3858" data-name="Path 3858" d="M303.9,398.466c0,.788-.6,1.5-1.934,1.5a3.163,3.163,0,0,1-1.76-.484l.416-.822a2.224,2.224,0,0,0,1.32.416c.532,0,.861-.218.861-.6s-.256-.571-.861-.571h-.484V397.2l.967-1.083h-1.963v-.866h3.23v.7l-1.04,1.194a1.32,1.32,0,0,1,1.248,1.32Z" transform="translate(-292.647 -394.592)" fill="#fff"/>
      </g>
      <path id="Path_3859" data-name="Path 3859" d="M338.284,345.48a2.418,2.418,0,0,1-.271.484l-.817,1.3c-.7,1.088-1.673,2.587-2.771,4.226s-2.1,3.119-2.843,4.178a12.9,12.9,0,0,1-1.262,1.678.483.483,0,0,1,.068-.131c.068-.106.135-.222.218-.358l.827-1.286c.706-1.088,1.688-2.577,2.785-4.222s2.094-3.119,2.834-4.183l.88-1.252A2.278,2.278,0,0,1,338.284,345.48Z" transform="translate(-204.682 -327.162)" fill="#fb7070"/>
      <path id="Path_3860" data-name="Path 3860" d="M338.285,376.84a2.418,2.418,0,0,1-.271.484l-.817,1.3c-.7,1.093-1.673,2.587-2.771,4.226s-2.1,3.119-2.843,4.178a12.472,12.472,0,0,1-1.262,1.678.483.483,0,0,1,.068-.131l.218-.353c.222-.353.484-.783.827-1.291.706-1.088,1.688-2.577,2.785-4.222s2.094-3.119,2.834-4.183l.88-1.253a2.279,2.279,0,0,1,.353-.43Z" transform="translate(-204.682 -343.357)" fill="#fb7070"/>
      <path id="Path_3861" data-name="Path 3861" d="M338.284,408.2a2.418,2.418,0,0,1-.271.484l-.817,1.3c-.7,1.088-1.673,2.582-2.771,4.222s-2.1,3.119-2.843,4.183a12.572,12.572,0,0,1-1.262,1.673.483.483,0,0,1,.068-.131l.218-.353c.222-.353.484-.783.827-1.291.706-1.083,1.688-2.577,2.785-4.222s2.094-3.119,2.834-4.183l.88-1.252A2.5,2.5,0,0,1,338.284,408.2Z" transform="translate(-204.682 -359.552)" fill="#fb7070"/>
      <path id="Path_3862" data-name="Path 3862" d="M338.285,439.56a2.419,2.419,0,0,1-.271.484l-.817,1.3c-.7,1.088-1.673,2.582-2.771,4.226s-2.1,3.119-2.843,4.178a12.565,12.565,0,0,1-1.262,1.673.484.484,0,0,1,.068-.13l.218-.353c.222-.348.484-.779.827-1.291.706-1.083,1.688-2.577,2.785-4.217s2.094-3.124,2.834-4.188l.88-1.252A2.5,2.5,0,0,1,338.285,439.56Z" transform="translate(-204.682 -375.747)" fill="#fb7070"/>
      <path id="Path_3863" data-name="Path 3863" d="M343.351,470.92a16.7,16.7,0,0,1-1.5,2.486,16.962,16.962,0,0,1-1.717,2.35,16.706,16.706,0,0,1,1.5-2.486A16.969,16.969,0,0,1,343.351,470.92Z" transform="translate(-209.748 -391.942)" fill="#fb7070"/>
      <rect id="Rectangle_3172" data-name="Rectangle 3172" width="33.004" height="50.016" transform="translate(54.335 33.483)" fill="#fb7070"/>
      <g id="Group_6546" data-name="Group 6546" transform="translate(54.335 33.483)" opacity="0.3">
        <rect id="Rectangle_3173" data-name="Rectangle 3173" width="33.004" height="50.016"/>
      </g>
      <rect id="Rectangle_3174" data-name="Rectangle 3174" width="33.004" height="50.016" transform="translate(46.269 33.483)" fill="#fb7070"/>
      <g id="Group_6547" data-name="Group 6547" transform="translate(57.246 52.623)" opacity="0.4">
        <path id="Path_3864" data-name="Path 3864" d="M193.126,417.78v4.652h-.88l-2.3-2.824v2.824H188.89V417.78h.885l2.3,2.824V417.78Z" transform="translate(-188.89 -417.122)" fill="#fff"/>
        <path id="Path_3865" data-name="Path 3865" d="M199.1,417.842a1.262,1.262,0,1,1,1.252,1.1,1.141,1.141,0,0,1-1.252-1.1Zm1.8,0a.551.551,0,1,0-.551.551A.551.551,0,0,0,200.9,417.842Z" transform="translate(-194.157 -416.42)" fill="#fff"/>
        <path id="Path_3866" data-name="Path 3866" d="M208.579,421.5v.875h-3.491V421.7l1.784-1.7c.406-.392.484-.629.484-.856,0-.367-.251-.58-.74-.58a1.122,1.122,0,0,0-.967.484l-.779-.508a2.128,2.128,0,0,1,1.833-.866c1.03,0,1.717.532,1.717,1.378a1.809,1.809,0,0,1-.774,1.451l-1.064,1.011Z" transform="translate(-197.142 -417.067)" fill="#fff"/>
      </g>
      <path id="Path_3867" data-name="Path 3867" d="M242.61,376.84a2.418,2.418,0,0,1-.271.484c-.218.353-.484.783-.812,1.3-.7,1.093-1.678,2.587-2.776,4.226s-2.1,3.119-2.843,4.178a12.254,12.254,0,0,1-1.257,1.678.24.24,0,0,1,.068-.131l.218-.353q.334-.527.827-1.291c.7-1.088,1.683-2.577,2.781-4.222s2.1-3.119,2.834-4.183l.885-1.253A2.418,2.418,0,0,1,242.61,376.84Z" transform="translate(-155.276 -343.357)" fill="#fb7070"/>
      <path id="Path_3868" data-name="Path 3868" d="M242.61,408.2a2.418,2.418,0,0,1-.271.484l-.812,1.3c-.7,1.088-1.678,2.582-2.776,4.222s-2.1,3.119-2.843,4.183a12.355,12.355,0,0,1-1.257,1.673.24.24,0,0,1,.068-.131l.218-.353q.334-.532.827-1.291c.7-1.083,1.683-2.577,2.781-4.222s2.1-3.119,2.834-4.183l.885-1.252A2.658,2.658,0,0,1,242.61,408.2Z" transform="translate(-155.276 -359.552)" fill="#fb7070"/>
      <path id="Path_3869" data-name="Path 3869" d="M242.61,439.56a2.419,2.419,0,0,1-.271.484l-.812,1.3c-.7,1.088-1.678,2.582-2.776,4.226s-2.1,3.119-2.843,4.178a12.351,12.351,0,0,1-1.257,1.673.24.24,0,0,1,.068-.13l.218-.353.827-1.291c.7-1.083,1.683-2.577,2.781-4.217s2.1-3.124,2.834-4.188l.885-1.252A2.655,2.655,0,0,1,242.61,439.56Z" transform="translate(-155.276 -375.747)" fill="#fb7070"/>
      <path id="Path_3870" data-name="Path 3870" d="M247.676,470.92a16.7,16.7,0,0,1-1.5,2.486,17.189,17.189,0,0,1-1.712,2.35,16.706,16.706,0,0,1,1.5-2.486A17.189,17.189,0,0,1,247.676,470.92Z" transform="translate(-160.342 -391.942)" fill="#fb7070"/>
      <rect id="Rectangle_3175" data-name="Rectangle 3175" width="33.004" height="34.851" transform="translate(8.066 48.648)" fill="#fb7070"/>
      <g id="Group_6548" data-name="Group 6548" transform="translate(8.066 48.648)" opacity="0.3">
        <rect id="Rectangle_3176" data-name="Rectangle 3176" width="33.004" height="34.851"/>
      </g>
      <rect id="Rectangle_3177" data-name="Rectangle 3177" width="33.004" height="34.851" transform="translate(0 48.648)" fill="#fb7070"/>
      <g id="Group_6549" data-name="Group 6549" transform="translate(10.982 62.758)" opacity="0.4">
        <path id="Path_3871" data-name="Path 3871" d="M97.466,438.74v4.652h-.875l-2.3-2.824v2.824H93.22V438.74h.861l2.3,2.824V438.74Z" transform="translate(-93.22 -438.082)" fill="#fff"/>
        <path id="Path_3872" data-name="Path 3872" d="M103.419,438.8a1.262,1.262,0,1,1,1.243,1.1,1.141,1.141,0,0,1-1.243-1.1Zm1.8,0a.551.551,0,1,0-.546.551.517.517,0,0,0,.546-.551Z" transform="translate(-98.482 -437.38)" fill="#fff"/>
        <path id="Path_3873" data-name="Path 3873" d="M111.342,438.74v4.652h-1.069V439.6h-.924v-.861Z" transform="translate(-101.55 -438.082)" fill="#fff"/>
      </g>
      <path id="Path_3874" data-name="Path 3874" d="M146.934,408.2a2.419,2.419,0,0,1-.271.484l-.817,1.3c-.7,1.088-1.678,2.582-2.771,4.222s-2.1,3.119-2.843,4.183a12.573,12.573,0,0,1-1.262,1.673.483.483,0,0,1,.068-.131l.218-.353c.222-.353.484-.783.827-1.291.706-1.083,1.688-2.577,2.781-4.222s2.1-3.119,2.839-4.183l.88-1.252A2.5,2.5,0,0,1,146.934,408.2Z" transform="translate(-105.864 -359.552)" fill="#fb7070"/>
      <path id="Path_3875" data-name="Path 3875" d="M146.935,439.56a2.419,2.419,0,0,1-.271.484l-.817,1.3c-.7,1.088-1.678,2.582-2.771,4.226s-2.1,3.119-2.843,4.178a12.568,12.568,0,0,1-1.262,1.673.484.484,0,0,1,.068-.13l.218-.353c.222-.348.484-.779.827-1.291.706-1.083,1.688-2.577,2.781-4.217s2.1-3.124,2.839-4.188l.88-1.252a2.5,2.5,0,0,1,.353-.43Z" transform="translate(-105.864 -375.747)" fill="#fb7070"/>
      <path id="Path_3876" data-name="Path 3876" d="M152,470.92a17.22,17.22,0,0,1-1.5,2.486,16.964,16.964,0,0,1-1.717,2.35,16.7,16.7,0,0,1,1.5-2.486A16.967,16.967,0,0,1,152,470.92Z" transform="translate(-110.931 -391.942)" fill="#fb7070"/>
    </g>
    <g id="freepik--Floor--inject-9" transform="translate(19.228 257.716)">
      <path id="Path_3877" data-name="Path 3877" d="M242.638,480.135c0,.068-48.527.126-108.374.126S25.88,480.2,25.88,480.135,74.4,480,134.259,480,242.638,480.063,242.638,480.135Z" transform="translate(-25.88 -480)" fill="#263238"/>
    </g>
  </g>
</svg>
