<svg xmlns="http://www.w3.org/2000/svg" width="13.967" height="18.365" viewBox="0 0 13.967 18.365">
  <g id="hand-icon" transform="translate(0 0.01)">
    <path id="Path_4074" data-name="Path 4074" d="M.35,9.334l-.039.04L0,9.25V4.664a1.081,1.081,0,0,1,.17-.581h0a.86.86,0,0,1,.069-.1A.94.94,0,0,1,.318,3.9l0,0a1.072,1.072,0,0,1,.282-.2h0L.66,3.665l.006,0a1.066,1.066,0,0,1,.42-.087h.006a1.092,1.092,0,0,1,.974.6l0,.006.024.052v0a1.066,1.066,0,0,1,.087.42h0v3.9l-.169.01A2.525,2.525,0,0,0,.77,8.989q-.108.072-.206.152a2.426,2.426,0,0,0-.188.172L.35,9.334Zm9.456,3.113.184.069.079.058a.209.209,0,0,0,.049.046h0l.024.013h0a.187.187,0,0,0,.081.018h0a.194.194,0,0,0,.073-.013l.018-.009.018-.01.006,0,.006,0a2.5,2.5,0,0,0,.306-.224c.12-.1.256-.223.39-.348.263-.248.562-.547.681-.665l.006-.006a1.767,1.767,0,0,1,1.1-.575,1.128,1.128,0,0,1,.2,0,1.012,1.012,0,0,1,.191.04h0l.007,0h0a1.036,1.036,0,0,1,.332.179l0,0,.046.04.009.007.043.043.007.009h0v0h0a1.1,1.1,0,0,1,.2.323l0,0,.022.063,0,.013.018.064v.016h0a1.532,1.532,0,0,1-.281,1.221,2.356,2.356,0,0,1-.193.247,2.845,2.845,0,0,1-.242.242h0l-.012.01-.015.013-.01.01-.006.006L9.51,17.072l-.127.139L9.374,17.2a5.377,5.377,0,0,1-.6.478,3.771,3.771,0,0,1-.732.39,3.864,3.864,0,0,1-.8.218,5.59,5.59,0,0,1-.888.067H3.982a3.94,3.94,0,0,1-2.146-.632h0a4.027,4.027,0,0,1-.663-.539l0,0h0A4.068,4.068,0,0,1,.423,16.13C.386,16.053.35,15.975.317,15.9A4.076,4.076,0,0,1,0,14.327H0V11.188a2.33,2.33,0,0,1,.149-.82h0c.018-.046.039-.1.061-.145h0c.022-.048.046-.1.072-.142v0l0-.007,0-.006a2.279,2.279,0,0,1,.327-.4l0,0L.69,9.594l.006,0,.072-.061.006-.006,0,0h0A2.245,2.245,0,0,1,1.3,9.2h0c.043-.018.085-.036.114-.045h0a2.179,2.179,0,0,1,.749-.132h.1l.043.006.04.01.031,0H7.8a2.21,2.21,0,0,1,1.054.267h0c.063.034.123.07.178.108h0c.054.036.111.078.166.123h0l0,0h0a2.237,2.237,0,0,1,.635.837,1.79,1.79,0,0,1,.075.2h0c.022.067.04.136.057.2h0v.01l0,.016a.185.185,0,0,0,.006.033h0v0h0l.006.016h0l0,.009.018.054.009.1v.006l0,.039v.006l0,.069v.042h0v.91l-.236-.078a5.9,5.9,0,0,0-1.051-.248h0c-.075-.01-.146-.018-.212-.025s-.137-.012-.208-.015l-.152,0A3.443,3.443,0,0,0,7,11.906c-.076.027-.148.054-.212.082s-.134.061-.2.1l-.106.061a2.492,2.492,0,0,0-.82.8c-.043.069-.084.134-.117.2s-.069.14-.1.215h0v0h0a3.263,3.263,0,0,0-.217.8c-.009.066-.018.13-.022.191s-.01.1-.012.158l.4,0a3.272,3.272,0,0,1,.085-.574h0c.013-.055.027-.108.04-.154h0c.013-.045.03-.1.049-.146h0l.048-.123h0a2.2,2.2,0,0,1,.568-.8c.048-.042.1-.082.148-.12s.108-.076.158-.106h0l0,0h0a2.472,2.472,0,0,1,.882-.312c.067-.01.14-.021.215-.027s.149-.01.223-.013h.154a4.749,4.749,0,0,1,1.112.16h0c.091.022.176.048.257.073s.181.058.264.087Zm-7.454-3.4Zm4.857-.477h-2V1.082h0a1.092,1.092,0,0,1,.6-.974h0L5.865.081l.006,0a1.06,1.06,0,0,1,.42-.087H6.3a1.089,1.089,0,0,1,.771.32,1.126,1.126,0,0,1,.2.281l0,0L7.3.649l0,.006a1.06,1.06,0,0,1,.087.42h0V8.567H7.209Zm.805.007-.033,0L7.814,8.56V2.832h0a1.089,1.089,0,0,1,.32-.771,1.107,1.107,0,0,1,.282-.2l.006,0,.052-.024,0,0a1.06,1.06,0,0,1,.42-.087H8.9a1.081,1.081,0,0,1,.581.17h0a.829.829,0,0,1,.094.067h0a.885.885,0,0,1,.088.078l0,0a1.089,1.089,0,0,1,.2.281v0L9.9,2.4l0,.006a1.066,1.066,0,0,1,.087.42h0V9.243l-.309.126-.03-.03a2.62,2.62,0,0,0-1.119-.665,2.734,2.734,0,0,0-.522-.1ZM4.585,8.569h-2v-3.9h0V2.814h0a1.086,1.086,0,0,1,.17-.583h0A1.11,1.11,0,0,1,2.9,2.046l0,0a1.107,1.107,0,0,1,.282-.2h0l.052-.024.006,0a1.06,1.06,0,0,1,.42-.087h.006a1.089,1.089,0,0,1,.771.32,1.126,1.126,0,0,1,.2.281v0l.025.052,0,.006a1.066,1.066,0,0,1,.087.42h0V8.567H4.585Z" fill="#ff9d01"/>
  </g>
</svg>
