<svg xmlns="http://www.w3.org/2000/svg" width="30.076" height="29.501" viewBox="0 0 30.076 29.501">
  <g id="_27_receipt" data-name="27 receipt" transform="translate(-3.5 -4.05)">
    <path id="Path_4471" data-name="Path 4471" d="M31.972,4.05H5.1a1.6,1.6,0,0,0-1.6,1.6v5.377a1.6,1.6,0,0,0,1.6,1.6H7.8v19.9a.528.528,0,0,0,.359.5.54.54,0,0,0,.591-.185A7.734,7.734,0,0,1,12.1,30.279a7.485,7.485,0,0,1,4.105-.39,7.848,7.848,0,0,1,2.105.7,9.4,9.4,0,0,1,1.261.807c.2.142.4.285.6.422a9,9,0,0,0,4.527,1.7c.28.016.559.026.85.026.57,0,1.171-.032,1.82-.09a6.527,6.527,0,0,0,1.119-.169c.522-.137.786-.4.786-.77v-19.9h2.7a1.6,1.6,0,0,0,1.6-1.6V5.649A1.6,1.6,0,0,0,31.972,4.05ZM7.8,9.421H6.7V7.253H7.8ZM28.22,32.269c-.011.005-.016.005-.026.011a5.352,5.352,0,0,1-.913.132,18.1,18.1,0,0,1-2.522.063,8.04,8.04,0,0,1-4-1.53c-.2-.132-.385-.264-.57-.4a10.18,10.18,0,0,0-1.409-.9,8.7,8.7,0,0,0-2.385-.8,8.578,8.578,0,0,0-4.686.448,8.717,8.717,0,0,0-2.855,1.836V7.253H28.22Zm4.3-21.243a.547.547,0,0,1-.549.543h-2.7V10.477H30.9a.528.528,0,0,0,.528-.528V6.725A.528.528,0,0,0,30.9,6.2H6.175a.528.528,0,0,0-.528.528V9.949a.528.528,0,0,0,.528.528H7.8v1.092H5.1a.547.547,0,0,1-.549-.543V5.649A.547.547,0,0,1,5.1,5.105H31.972a.547.547,0,0,1,.549.543Zm-3.245-1.6V7.253h1.1V9.421Z" fill="#c00"/>
    <path id="Path_4472" data-name="Path 4472" d="M21.019,13.738a.528.528,0,0,1-.528.528H17.268a.528.528,0,0,1,0-1.055h3.224A.528.528,0,0,1,21.019,13.738Z" transform="translate(-6.254 -4.327)" fill="#c00"/>
    <path id="Path_4473" data-name="Path 4473" d="M32.225,13.738a.528.528,0,0,1-.528.528H28.468a.528.528,0,1,1,0-1.055H31.7A.528.528,0,0,1,32.225,13.738Z" transform="translate(-11.544 -4.327)" fill="#c00"/>
    <path id="Path_4474" data-name="Path 4474" d="M43.429,13.738a.528.528,0,0,1-.528.528H39.678a.528.528,0,1,1,0-1.055H42.9A.528.528,0,0,1,43.429,13.738Z" transform="translate(-16.839 -4.327)" fill="#c00"/>
    <path id="Path_4475" data-name="Path 4475" d="M32.067,21.885A1.47,1.47,0,0,1,30.98,22.9v.285a.528.528,0,0,1-1.055,0v-.369a4.121,4.121,0,0,1-.681-.359c-.084-.053-.169-.106-.248-.148a.528.528,0,1,1,.512-.923c.095.053.2.111.3.174a1.583,1.583,0,0,0,.807.338.47.47,0,0,0,.438-.29c.016-.063.016-.142-.111-.227l-1.293-.865a1.316,1.316,0,0,1-.58-.881,1.214,1.214,0,0,1,.264-.955,1.441,1.441,0,0,1,.6-.438v-.406a.528.528,0,0,1,1.055,0v.354a1.483,1.483,0,0,1,.448.2l.517.343a.528.528,0,0,1,.142.733.521.521,0,0,1-.728.142l-.517-.343a.559.559,0,0,0-.691.069.169.169,0,0,0-.042.142.269.269,0,0,0,.121.164l1.3.865A1.237,1.237,0,0,1,32.067,21.885Z" transform="translate(-11.915 -6.263)" fill="#c00"/>
    <path id="Path_4476" data-name="Path 4476" d="M26.934,44.3a.528.528,0,0,1-.528.528H17.268a.528.528,0,1,1,0-1.055h9.139A.528.528,0,0,1,26.934,44.3Z" transform="translate(-6.254 -18.762)" fill="#c00"/>
    <path id="Path_4477" data-name="Path 4477" d="M43.429,32.078a.528.528,0,0,1-.528.528H39.678a.528.528,0,0,1,0-1.055H42.9A.528.528,0,0,1,43.429,32.078Z" transform="translate(-16.839 -12.99)" fill="#c00"/>
    <path id="Path_4478" data-name="Path 4478" d="M43.429,36.148a.528.528,0,0,1-.528.528H39.678a.528.528,0,1,1,0-1.055H42.9A.528.528,0,0,1,43.429,36.148Z" transform="translate(-16.839 -14.912)" fill="#c00"/>
    <path id="Path_4479" data-name="Path 4479" d="M43.429,40.218a.528.528,0,0,1-.528.528H39.678a.528.528,0,1,1,0-1.055H42.9A.528.528,0,0,1,43.429,40.218Z" transform="translate(-16.839 -16.835)" fill="#c00"/>
    <path id="Path_4480" data-name="Path 4480" d="M43.429,44.3a.528.528,0,0,1-.528.528H39.678a.528.528,0,1,1,0-1.055H42.9A.528.528,0,0,1,43.429,44.3Z" transform="translate(-16.839 -18.762)" fill="#c00"/>
    <path id="Path_4481" data-name="Path 4481" d="M26.934,40.218a.528.528,0,0,1-.528.528H17.268a.528.528,0,1,1,0-1.055h9.139A.528.528,0,0,1,26.934,40.218Z" transform="translate(-6.254 -16.835)" fill="#c00"/>
    <path id="Path_4482" data-name="Path 4482" d="M26.934,36.148a.528.528,0,0,1-.528.528H17.268a.528.528,0,1,1,0-1.055h9.139A.528.528,0,0,1,26.934,36.148Z" transform="translate(-6.254 -14.912)" fill="#c00"/>
    <path id="Path_4483" data-name="Path 4483" d="M26.934,32.078a.528.528,0,0,1-.528.528H17.268a.528.528,0,0,1,0-1.055h9.139A.528.528,0,0,1,26.934,32.078Z" transform="translate(-6.254 -12.99)" fill="#c00"/>
  </g>
</svg>
