<svg xmlns="http://www.w3.org/2000/svg" width="28.344" height="28.344" viewBox="0 0 28.344 28.344">
  <path id="upload-svgrepo-com" d="M15.422,1.25a.989.989,0,0,1,.751.345l3.955,4.614a.989.989,0,1,1-1.5,1.287L16.411,4.912V19.377a.989.989,0,0,1-1.977,0V4.912L12.218,7.5a.989.989,0,0,1-1.5-1.287L14.671,1.6A.989.989,0,0,1,15.422,1.25Zm-6.6,9.231a.989.989,0,0,1,.011,1.977,19.871,19.871,0,0,0-3.239.188,2.65,2.65,0,0,0-1.5.679,2.973,2.973,0,0,0-.733,1.844,35.415,35.415,0,0,0-.136,4.208V20.7A35.415,35.415,0,0,0,3.363,24.9,2.972,2.972,0,0,0,4.1,26.748a2.972,2.972,0,0,0,1.844.733,35.434,35.434,0,0,0,4.208.136H20.7a35.435,35.435,0,0,0,4.208-.136,2.972,2.972,0,0,0,1.844-.733A2.972,2.972,0,0,0,27.48,24.9a35.435,35.435,0,0,0,.136-4.208V19.377a35.435,35.435,0,0,0-.136-4.208,2.973,2.973,0,0,0-.733-1.844,2.65,2.65,0,0,0-1.5-.679,19.873,19.873,0,0,0-3.239-.188.989.989,0,1,1,.011-1.977,21.569,21.569,0,0,1,3.585.22,4.6,4.6,0,0,1,2.542,1.225,4.9,4.9,0,0,1,1.294,2.979,36.166,36.166,0,0,1,.154,4.4v1.463a36.168,36.168,0,0,1-.154,4.4,4.9,4.9,0,0,1-1.294,2.979,4.9,4.9,0,0,1-2.979,1.294,36.141,36.141,0,0,1-4.4.154H10.076a36.14,36.14,0,0,1-4.4-.154A4.9,4.9,0,0,1,2.7,28.146,4.9,4.9,0,0,1,1.4,25.167a36.146,36.146,0,0,1-.154-4.4V19.3a36.142,36.142,0,0,1,.154-4.4A4.9,4.9,0,0,1,2.7,11.926,4.6,4.6,0,0,1,5.24,10.7,21.57,21.57,0,0,1,8.825,10.481Z" transform="translate(-1.25 -1.25)" fill="#c00" fill-rule="evenodd"/>
</svg>
