<svg xmlns="http://www.w3.org/2000/svg" width="30.985" height="31.001" viewBox="0 0 30.985 31.001">
  <g id="Screenshot_2024-02-10_at_10.33.23_PM" data-name="Screenshot 2024-02-10 at 10.33.23 PM" transform="translate(-69.5 574.731)">
    <path id="Path_3878" data-name="Path 3878" d="M83.84-574.711a15.838,15.838,0,0,0-8.234,3.129,19.922,19.922,0,0,0-2.65,2.565,15.9,15.9,0,0,0-3.347,7.67,20.688,20.688,0,0,0,0,4.245,15.451,15.451,0,0,0,1.473,4.73,14.661,14.661,0,0,0,3.008,4.166,15.281,15.281,0,0,0,8.61,4.335,18.7,18.7,0,0,0,4.584,0,15.281,15.281,0,0,0,8.61-4.335,15.482,15.482,0,0,0,4.481-8.9,20.688,20.688,0,0,0,0-4.245,15.45,15.45,0,0,0-1.473-4.73,14.661,14.661,0,0,0-3.008-4.166,15.22,15.22,0,0,0-8.58-4.323A22.61,22.61,0,0,0,83.84-574.711Zm2.668,4.845a5.034,5.034,0,0,1,2.522,1.734,5.12,5.12,0,0,1-.3,6.646,5.063,5.063,0,0,1-2.856,1.564,4.546,4.546,0,0,1-1.765,0,4.928,4.928,0,0,1-2.626-1.328,5.072,5.072,0,0,1-1.067-6.009,5.086,5.086,0,0,1,3.511-2.735,5.319,5.319,0,0,1,1.213-.061A3.8,3.8,0,0,1,86.508-569.866Zm2.759,12.691a5.174,5.174,0,0,1,3.42,2.874,6.347,6.347,0,0,1,.346.958,4.554,4.554,0,0,1,.03,1.849,2.8,2.8,0,0,1-.994,1.261,11.417,11.417,0,0,1-7.537,2.444,11.29,11.29,0,0,1-6.615-2.444,2.541,2.541,0,0,1-.994-2.959,5.187,5.187,0,0,1,4.342-4.087c.2-.03,1.977-.048,3.941-.042C88.7-557.308,88.794-557.308,89.267-557.175Z" fill="#d8d8d8"/>
  </g>
</svg>
