<svg xmlns="http://www.w3.org/2000/svg" width="27.357" height="27.542" viewBox="0 0 27.357 27.542">
  <g id="Utilities" transform="translate(-163.949 835)">
    <path id="Path_4077" data-name="Path 4077" d="M516.145-834.9a1.553,1.553,0,0,0-.307.575c-.1.256-.183.47-.186.474a4.061,4.061,0,0,1-.493-.027,7.582,7.582,0,0,0-1.453.05c-.081.008-.081.008-.346-.594-.19-.431-.291-.544-.5-.544a2.977,2.977,0,0,0-.559.2c-1.363.586-1.356.583-1.422.7-.1.167-.082.268.128.765a4.517,4.517,0,0,1,.194.5.9.9,0,0,1-.221.218,7.177,7.177,0,0,0-.979,1c-.085.113-.163.214-.171.221a3.11,3.11,0,0,1-.509-.179c-.513-.2-.579-.218-.738-.155-.144.054-.19.144-.575,1.1-.466,1.161-.466,1.161.35,1.484l.474.186-.027.377a6.291,6.291,0,0,0,0,1.212l.031.451-.206.086c-.7.291-.785.338-.854.451a.506.506,0,0,0-.07.218,14.086,14.086,0,0,0,.823,1.927.453.453,0,0,0,.2.113c.124.023.179,0,.827-.268l.319-.136.218.264a7.012,7.012,0,0,0,1.029.994c.1.078.194.144.194.148s-.179.462-.287.711c-.124.3-.132.478-.012.614a9.6,9.6,0,0,0,1.989.8c.128,0,.171-.019.272-.136a1.67,1.67,0,0,0,.21-.385c.05-.136.124-.326.167-.423l.074-.179.785,0c.431,0,.89,0,1.014-.016l.233-.019.194.455c.334.769.4.8,1.227.447.287-.124.672-.287.855-.365.509-.214.61-.369.474-.722-.043-.113-.14-.346-.218-.525l-.136-.322.085-.07a6.928,6.928,0,0,0,1.216-1.224l.116-.148.505.2c.532.214.66.229.827.089a14.65,14.65,0,0,0,.785-1.888c.023-.291-.058-.377-.528-.571-.214-.085-.435-.175-.489-.2l-.1-.043.02-.7a8.081,8.081,0,0,0-.02-.994c-.027-.194-.031-.3,0-.33a3.905,3.905,0,0,1,.493-.233c.361-.159.47-.225.54-.326a.5.5,0,0,0,.089-.2,16.977,16.977,0,0,0-.82-1.907c-.159-.19-.3-.183-.843.043-.26.109-.489.2-.509.2a1.258,1.258,0,0,1-.249-.264,6.443,6.443,0,0,0-.967-.936,1.313,1.313,0,0,1-.225-.194c0-.016.089-.241.194-.505a3.7,3.7,0,0,0,.194-.552.482.482,0,0,0-.233-.365c-.264-.136-1.775-.719-1.865-.719A.425.425,0,0,0,516.145-834.9Zm1.309,1.247a3.625,3.625,0,0,1-.175.489,3.506,3.506,0,0,0-.175.505c0,.14.14.3.443.5a6.192,6.192,0,0,1,1.3,1.274c.318.454.4.474,1,.214a2.983,2.983,0,0,1,.454-.175,3.036,3.036,0,0,1,.377.8,1.768,1.768,0,0,1-.451.233,1.847,1.847,0,0,0-.524.284c-.089.117-.1.315-.016.688a6.36,6.36,0,0,1-.008,1.779c-.1.544-.054.6.8.925.132.05.241.113.241.136a7.321,7.321,0,0,1-.318.812,2.189,2.189,0,0,1-.455-.156,2.539,2.539,0,0,0-.563-.175.515.515,0,0,0-.416.3,5.451,5.451,0,0,1-1.305,1.375,2.513,2.513,0,0,0-.4.342c-.07.132-.043.287.14.715a2.419,2.419,0,0,1,.163.455,2.662,2.662,0,0,1-.823.346,2.173,2.173,0,0,1-.155-.338c-.214-.521-.26-.6-.4-.66-.113-.058-.163-.054-.528,0a5.237,5.237,0,0,1-1.488.066c-.843-.109-.909-.1-1.014.054-.035.05-.136.284-.233.513-.1.264-.186.416-.218.408-.093-.023-.75-.291-.781-.319a1.785,1.785,0,0,1,.148-.47,1.34,1.34,0,0,0,.163-.59c-.027-.19-.051-.217-.439-.478a5.466,5.466,0,0,1-1.247-1.224c-.229-.315-.357-.423-.513-.423a5.423,5.423,0,0,0-.851.326c-.109.054-.2.047-.2-.019a.821.821,0,0,0-.074-.2c-.194-.435-.233-.544-.218-.571a.725.725,0,0,1,.225-.109c.536-.206.726-.311.792-.451s.058-.159,0-.493a5.687,5.687,0,0,1-.066-1.569c.1-.777.1-.773-.019-.9a1.665,1.665,0,0,0-.521-.284c-.225-.089-.42-.175-.435-.186a2.3,2.3,0,0,1,.361-.835,3.765,3.765,0,0,1,.435.163c.385.159.59.194.73.12a2.337,2.337,0,0,0,.307-.385,5.372,5.372,0,0,1,1.235-1.262c.307-.218.435-.369.435-.517a3.426,3.426,0,0,0-.194-.513c-.109-.245-.194-.458-.194-.474a2.8,2.8,0,0,1,.629-.287l.221-.089.132.319c.074.171.155.373.183.443a.492.492,0,0,0,.408.318,2.261,2.261,0,0,0,.416-.066,6.222,6.222,0,0,1,1.822,0c.474.1.6.027.769-.412.039-.113.117-.3.171-.423l.1-.218.412.159A1.22,1.22,0,0,1,517.454-833.648Z" transform="translate(-330.39 0)"/>
    <path id="Path_4078" data-name="Path 4078" d="M601.981-743.009a3.458,3.458,0,0,0-2.742,2.719,3.482,3.482,0,0,0,1.216,3.352,3.461,3.461,0,0,0,3.414.528,3.5,3.5,0,0,0,1.635-1.321,3.433,3.433,0,0,0-.361-4.226A3.413,3.413,0,0,0,601.981-743.009Zm1.5.921a2.64,2.64,0,0,1,1.7,1.989,2.677,2.677,0,0,1-.233,1.655,2.707,2.707,0,0,1-1.161,1.154,2.542,2.542,0,0,1-2.358-.015,2.675,2.675,0,0,1-1.126-1.138,2.532,2.532,0,0,1-.284-1.185,2.6,2.6,0,0,1,1.806-2.478,2.042,2.042,0,0,1,.893-.089A1.979,1.979,0,0,1,603.485-742.088Z" transform="translate(-418.316 -88.359)"/>
    <path id="Path_4079" data-name="Path 4079" d="M171.541-584.042c-.214.093-.249.237-.249,1.006v.68l-.319.086a8.237,8.237,0,0,0-1.942.82.34.34,0,0,1-.155.074,3.414,3.414,0,0,1-.5-.451,5.414,5.414,0,0,0-.552-.505.406.406,0,0,0-.443.031c-.175.128-1.628,1.593-1.682,1.69a.618.618,0,0,0-.043.229c0,.132.039.183.5.656a3.907,3.907,0,0,1,.505.563.2.2,0,0,1-.054.113,8.732,8.732,0,0,0-.862,2.012l-.07.276-.719.016c-.785.012-.874.035-.967.248a18.027,18.027,0,0,0,0,2.591c.089.2.2.221.979.221h.719l.027.144a7.378,7.378,0,0,0,.765,1.946,2.99,2.99,0,0,1,.186.357,4.708,4.708,0,0,1-.462.493,6.674,6.674,0,0,0-.505.544.635.635,0,0,0-.043.229c0,.14.047.194.882,1.033.924.928.994.979,1.224.89a4.4,4.4,0,0,0,.594-.528l.489-.49.229.14a8.141,8.141,0,0,0,1.9.793l.291.074.019.73c.019.8.035.862.256.967a5,5,0,0,0,1.3.058c1.581,0,1.488.062,1.515-1.026l.019-.73.357-.093a7.9,7.9,0,0,0,1.9-.812l.163-.1.493.489a4.467,4.467,0,0,0,.594.524c.225.089.3.035,1.22-.89l.882-.886v-.373l-.5-.513c-.276-.283-.5-.528-.5-.544a.389.389,0,0,1,.074-.132,8.4,8.4,0,0,0,.835-1.966l.085-.315.738-.019c.781-.019.862-.039.944-.221a18.024,18.024,0,0,0,0-2.591c-.093-.214-.183-.237-.963-.248l-.719-.016-.124-.439a7.913,7.913,0,0,0-.672-1.62,4.059,4.059,0,0,1-.194-.365,4.734,4.734,0,0,1,.42-.443c.555-.548.59-.594.59-.8,0-.171,0-.175-.792-.971-.89-.9-1-.987-1.169-.987-.155,0-.26.082-.8.614l-.439.435-.12-.078a8.181,8.181,0,0,0-1.993-.855l-.322-.086v-.7c0-.785-.027-.89-.253-.987A14.149,14.149,0,0,0,171.541-584.042Zm1.966,1.441c0,.878.05.983.524,1.049a5.6,5.6,0,0,1,.579.144,6.334,6.334,0,0,1,1.744.8c.559.353.559.353,1.189-.276l.489-.49.486.486.482.486-.493.5c-.482.49-.493.505-.493.672,0,.14.035.221.2.462a6.506,6.506,0,0,1,.925,2.191c.085.385.159.575.245.633a6.12,6.12,0,0,0,.769.051l.719.019.012.6c0,.33,0,.641-.012.688-.019.089-.027.089-.684.089a2.175,2.175,0,0,0-.773.058c-.124.066-.21.256-.272.629a6.825,6.825,0,0,1-.917,2.175c-.171.256-.21.346-.21.482,0,.159.016.183.493.664l.493.5-.462.466a4.472,4.472,0,0,1-.5.466,3.682,3.682,0,0,1-.466-.431c-.443-.443-.571-.54-.73-.54a1.718,1.718,0,0,0-.458.237,6.533,6.533,0,0,1-2.187.913,4.641,4.641,0,0,0-.5.136c-.152.082-.186.268-.186.948v.641h-1.36v-.66c0-.7-.031-.843-.186-.928a4.375,4.375,0,0,0-.505-.14,6.97,6.97,0,0,1-2.245-.952c-.454-.3-.5-.284-1.123.346a3.685,3.685,0,0,1-.466.431,4.472,4.472,0,0,1-.5-.466l-.462-.466.493-.5c.474-.482.493-.505.493-.664,0-.128-.039-.221-.2-.462a6.849,6.849,0,0,1-.928-2.2c-.043-.194-.1-.392-.117-.447-.078-.19-.163-.214-.913-.233l-.7-.019v-1.36l.723-.019c.769-.019.82-.035.893-.225.019-.054.074-.264.117-.466a6.713,6.713,0,0,1,.905-2.144c.179-.272.218-.361.218-.5,0-.167-.012-.183-.493-.672l-.493-.5.462-.466a4.474,4.474,0,0,1,.5-.466,5.313,5.313,0,0,1,.517.474c.474.478.474.478.66.478a.539.539,0,0,0,.377-.14,6.928,6.928,0,0,1,2.467-1.026c.454-.074.5-.179.5-1.049v-.641h1.36Z" transform="translate(0 -241.154)"/>
    <path id="Path_4080" data-name="Path 4080" d="M288.267-463.633a4.29,4.29,0,0,0-3.411,2.684,3.528,3.528,0,0,0-.256,1.5,3.623,3.623,0,0,0,.249,1.492,4.28,4.28,0,0,0,3.368,2.688,4.241,4.241,0,0,0,4.358-2.319,4.063,4.063,0,0,0,.42-2.016,4.185,4.185,0,0,0-3.275-3.943A5.175,5.175,0,0,0,288.267-463.633Zm1.27.9a3.351,3.351,0,0,1,1.667.94,3.208,3.208,0,0,1,.952,2.362,3.041,3.041,0,0,1-.353,1.5,3.3,3.3,0,0,1-3.011,1.857,3.231,3.231,0,0,1-2.432-1.045,3.308,3.308,0,0,1-.851-1.554,2.382,2.382,0,0,1-.066-.89,3.024,3.024,0,0,1,.1-.816,3.445,3.445,0,0,1,2.544-2.366A3.938,3.938,0,0,1,289.537-462.736Z" transform="translate(-115.964 -356.92)"/>
  </g>
</svg>
