<svg id="coconut-tree-icon" xmlns="http://www.w3.org/2000/svg" width="14.879" height="18.008" viewBox="0 0 14.879 18.008">
  <path id="Path_4073" data-name="Path 4073" d="M3.771,12.878c.278-3.233.835-5.888,3.151-6.942,1.3,3.939.273,7.712-1.244,12.073H8.041C9.524,11.031,8.77,8.474,7.867,6.2c1.426.9,2.7,2.833,3.913,5.9,1.707-3.183.623-5.519-3.431-7.037,2.318-.717,4.492.2,6.53,2C13.788,2.95,10.673,1.954,7.892,4.3,8.271,1.356,7.055.646,5.425,0a6.156,6.156,0,0,1,1.26,3.781C4.171,1.473,2.08,2.327.147,4.36,2,3.926,3.919,3.744,5.538,4.829,2.632,4.46,1.005,6.1,0,8.249A6.571,6.571,0,0,1,3.577,6.283c-1.275,2.311-.711,4.354.193,6.595Z" fill="#c00" fill-rule="evenodd"/>
</svg>
