<svg xmlns="http://www.w3.org/2000/svg" width="21.635" height="25.032" viewBox="0 0 21.635 25.032">
  <g id="coconut-tree-icon" transform="translate(1.324 1.048)">
    <path id="Path_4073" data-name="Path 4073" d="M4.917,16.793C5.28,12.577,6.007,9.114,9.026,7.74c1.7,5.137.355,10.056-1.623,15.744h3.083c1.934-9.1.95-12.434-.227-15.4,1.859,1.17,3.516,3.694,5.1,7.7,2.226-4.151.812-7.2-4.474-9.177,3.023-.935,5.857.258,8.516,2.611-1.424-5.364-5.485-6.664-9.112-3.6C10.786,1.768,9.2.843,7.075,0A8.028,8.028,0,0,1,8.718,4.931c-3.279-3.01-6.007-1.9-8.527.755,2.418-.566,4.919-.8,7.031.612C3.432,5.815,1.311,7.952,0,10.758A8.569,8.569,0,0,1,4.665,8.193c-1.663,3.014-.927,5.678.252,8.6Z" fill="none" stroke="#919191" stroke-width="1" fill-rule="evenodd"/>
  </g>
</svg>
