<svg xmlns="http://www.w3.org/2000/svg" width="78.556" height="113.049" viewBox="0 0 78.556 113.049">
  <g id="_21186078_cjkm_di76_201109" data-name="21186078_cjkm_di76_201109" transform="translate(0 0)">
    <g id="Group_8732" data-name="Group 8732" transform="translate(0 0)">
      <g id="Group_8728" data-name="Group 8728" transform="translate(0 35.696)">
        <g id="Group_8725" data-name="Group 8725" transform="translate(35.544)">
          <g id="Group_8722" data-name="Group 8722" transform="translate(0)">
            <g id="Group_8721" data-name="Group 8721" transform="translate(0)">
              <g id="Group_8720" data-name="Group 8720" transform="translate(0)">
                <path id="Path_9195" data-name="Path 9195" d="M139.159,111.535a5.1,5.1,0,0,0,5.1-5.1V39.752a5.1,5.1,0,1,0-10.191,0v66.687A5.1,5.1,0,0,0,139.159,111.535Z" transform="translate(-133.826 -34.418)" fill="#c67f44"/>
                <path id="Path_9196" data-name="Path 9196" d="M139.158,34.894a4.872,4.872,0,0,0-4.858,4.858v66.687a4.872,4.872,0,0,0,4.858,4.858h0a4.872,4.872,0,0,0,4.858-4.858V39.752a4.872,4.872,0,0,0-4.858-4.858h0m0-.476a5.339,5.339,0,0,1,5.333,5.333v66.687a5.333,5.333,0,0,1-10.666,0V39.752a5.339,5.339,0,0,1,5.333-5.334Z" transform="translate(-133.825 -34.418)" fill="#7f4620"/>
              </g>
            </g>
          </g>
          <g id="Group_8723" data-name="Group 8723" transform="translate(8.041 1.307)">
            <path id="Path_9197" data-name="Path 9197" d="M134.341,110.067V36.123c0-.136-.029-.265-.041-.4a4.864,4.864,0,0,1,2.15,4.027V106.44a4.862,4.862,0,0,1-2.15,4.027C134.312,110.332,134.341,110.2,134.341,110.067Z" transform="translate(-134.3 -35.725)" fill="#c67f44"/>
          </g>
          <g id="Group_8724" data-name="Group 8724" transform="translate(0.475 0.476)" opacity="0.5">
            <path id="Path_9198" data-name="Path 9198" d="M142.5,34.894a4.765,4.765,0,0,1,1.52.269,4.858,4.858,0,0,0-3.338,4.589V106.44a4.859,4.859,0,0,0,3.338,4.589,4.77,4.77,0,0,1-1.52.269,4.872,4.872,0,0,1-4.858-4.858V39.752A4.872,4.872,0,0,1,142.5,34.894Z" transform="translate(-137.638 -34.894)" fill="#c67f44"/>
          </g>
        </g>
        <g id="Group_8726" data-name="Group 8726" transform="translate(0 38.538)">
          <path id="Path_9199" data-name="Path 9199" d="M144.859,77.031c7.289-.275,20.955,4.791,28.376,4.126a4.067,4.067,0,0,1,1.642-.462c1.6-.281,2.734-.455,3.736,1.158,1.13,1.817,2.641,6.174-.23,6.992h-.01c-1.431,1.2-4.255,1.271-6.045,1.577A94.784,94.784,0,0,1,159.2,91.765c-2.89.088-11.887-.021-14.8-.41-.085-.025-.167-.057-.252-.083Z" transform="translate(-144.141 -72.956)" fill="#cb6925"/>
          <path id="Path_9200" data-name="Path 9200" d="M145.665,77.887c7.567.1,20.942,5.086,28.8,3.519.11-.028.4-.28.247-.3.421-.072.922-.059,1.246-.083a2.584,2.584,0,0,1,2.667,1.349,9.314,9.314,0,0,1,.942,2.6c.39,1.294.995,2.847-.727,3.563a1.035,1.035,0,0,0-.219.186c-.527.2-1.912.439-2.217.514a47.235,47.235,0,0,1-5.05.936,75.031,75.031,0,0,1-12.01.9c-2.823.012-11.514-.245-14.31-.621Z" transform="translate(-144.991 -72.956)" fill="#f4bd92"/>
          <path id="Path_9201" data-name="Path 9201" d="M145.149,88.121c2.911,1.055,12.037,1.591,15.1,1.64,3.418.06,6.689-.636,10.058-.98,1.382-.138,3.705-.141,3.836-1.954a15.689,15.689,0,0,0-.485-3.226,15.721,15.721,0,0,1-.123-2.046c.313-.036.623-.089.926-.149.11-.028.4-.28.247-.3.421-.072.922-.059,1.246-.083a2.584,2.584,0,0,1,2.667,1.349,9.314,9.314,0,0,1,.942,2.6c.39,1.294.995,2.847-.727,3.563a1.035,1.035,0,0,0-.219.186c-.527.2-1.912.439-2.217.514a47.235,47.235,0,0,1-5.05.936,75.031,75.031,0,0,1-12.01.9c-2.823.012-11.514-.245-14.31-.621Z" transform="translate(-144.991 -72.956)" fill="#f7bb7d" opacity="0.5"/>
          <path id="Path_9202" data-name="Path 9202" d="M145.445,93.414c.014-1.233-.441-2.588-.542-3.842a33.075,33.075,0,0,0-.653-4.554,7.269,7.269,0,0,0,.325-.738c.629-1.6-.287-3.146,1.6-4.247a13.971,13.971,0,0,0,2.62-1.9c1.063-1.026,2.718-3,1.569-4.588-.567-.782-1.26-.7-2.072-.249-2.085,1.11-5.36,1.23-7.15,2.825a7.338,7.338,0,0,0-2.252,3.709,14.33,14.33,0,0,0-1.206,7.059c.294,3.9,4.052,5.523,7.331,6.735a.413.413,0,0,0,.1.01.432.432,0,0,0,.318-.118C145.479,93.482,145.488,93.447,145.445,93.414Z" transform="translate(-108.354 -72.956)" fill="#cb6925"/>
          <path id="Path_9203" data-name="Path 9203" d="M138.818,87.469a10.3,10.3,0,0,1-.2-2.11,7.7,7.7,0,0,1,1.2-5.672,7.378,7.378,0,0,1,3.127-3.624,31.532,31.532,0,0,1,4.231-1.634c.818-.354,2.636-1.348,3.028-.117.672,2.13-1.953,3.944-3.351,4.943-.768.557-1.4.786-1.819,1.148-.3,1.815-.521,3.84-1.537,5.4a2.93,2.93,0,0,1-1.234,1.4c-.167.146-.356.295-.547.432.1-.037.214-.07.318-.111a4.488,4.488,0,0,0,2.3-1.883,22.872,22.872,0,0,0,.278,3.575c.173,1.3.706,2.708.8,4.008C142.6,92.126,139.448,90.59,138.818,87.469Z" transform="translate(-108.782 -72.956)" fill="#f4bd92"/>
          <path id="Path_9204" data-name="Path 9204" d="M144.342,89.217a22.863,22.863,0,0,1-.278-3.575,4.484,4.484,0,0,1-2.3,1.883c-.1.041-.212.073-.318.111.191-.137.38-.286.547-.432a2.939,2.939,0,0,0,1.234-1.4c1.016-1.557,1.242-3.582,1.537-5.4.42-.361,1.05-.59,1.819-1.148,1.4-1,4.023-2.813,3.351-4.943a.739.739,0,0,0-.4-.5,7.151,7.151,0,0,1-1.806,2.839c-1.083.96-2.645,1.489-3.593,2.555-1.238,1.413-.477,3.351-1.041,4.978a6.42,6.42,0,0,1-1.483,2.4c-.99.97-2.218,1.5-3.1.566.021.114.033.209.047.316.63,3.12,3.779,4.656,6.59,5.756C145.048,91.926,144.515,90.518,144.342,89.217Z" transform="translate(-108.519 -72.956)" fill="#f7bb7d" opacity="0.5"/>
          <path id="Path_9205" data-name="Path 9205" d="M156.75,80.125a79.86,79.86,0,0,1,12.454.334,43.286,43.286,0,0,1,9.823,2.775c.14.064-.209.318-.318.281A114.972,114.972,0,0,0,167.376,81c-1.556-.226-9.047-.571-10.642-.562Z" transform="translate(-155.759 -72.956)" fill="#f7bb7d"/>
          <path id="Path_9206" data-name="Path 9206" d="M148.693,75.795c-3.029,1.195-5.441,2.519-5.949,6.084-.036.231.491.063.558-.061a36.468,36.468,0,0,1,2-3.674c.9-1.221,2.254-1.574,3.5-2.279C148.926,75.8,148.755,75.77,148.693,75.795Z" transform="translate(-111.555 -72.956)" fill="#f7bb7d"/>
        </g>
        <g id="Group_8727" data-name="Group 8727" transform="translate(41.991 40.734)">
          <path id="Path_9207" data-name="Path 9207" d="M136.589,89.532c-.013-.055-.077-.058-.152-.049a1.463,1.463,0,0,0,.177-.153c.792-.764,1.248-2.507.135-3.235a3.588,3.588,0,0,0,1.037-1.73c.527-1.932.317-4.195-1.3-5.4a4.211,4.211,0,0,0,.075-1.71c-.312-1.974-2.9-2.215-4.719-2.072a1.076,1.076,0,0,0-.63.061.106.106,0,0,0-.035,0,3.3,3.3,0,0,0-.393.941.18.18,0,0,0,.015.042,4.4,4.4,0,0,0,.226,1.852c-1.859.956-3.854,2.521-3.578,4.638a1.768,1.768,0,0,0,2.063,1.771,1.9,1.9,0,0,0-.763,1.864,1.3,1.3,0,0,0,.739.92c-.686.659-1.262,1.631-.628,2.47a2.948,2.948,0,0,0,1.749.985,2.179,2.179,0,0,0-.891,1.946c.023,1.133,1.313,1.3,2.18,1.289A6.777,6.777,0,0,0,135.335,93,2.844,2.844,0,0,0,136.589,89.532Z" transform="translate(-127.418 -75.152)" fill="#cb6925"/>
          <path id="Path_9208" data-name="Path 9208" d="M129.589,82.735a3.638,3.638,0,0,1,1.315-2.849,7.047,7.047,0,0,1,1.856-1.538h.013c.348-.277.709-.548,1.072-.822-.227.092-.458.2-.7.3-.028-.247-.1-.507-.143-.741a3.338,3.338,0,0,1,.088-1.68l-.013.007c0-.013-.015-.008-.01-.019s.035-.012.054-.022c1.567.141,2.917.309,3.983,1.675,1.486,1.916-1.508,4.819-2.747,5.437a12.52,12.52,0,0,0-1.171.731,2.147,2.147,0,0,1-1.514.555C130.759,84.065,129.687,83.956,129.589,82.735Z" transform="translate(-129.052 -75.152)" fill="#f4bd92"/>
          <path id="Path_9209" data-name="Path 9209" d="M132.417,83.668a14.034,14.034,0,0,1,2.545-1.572c1.384-1.026,3.422-3.4,2.149-5.046a2.8,2.8,0,0,0-.232-.247c.24,1.709-1.44,3.652-3.23,4.644-.964.538-3.171,2.034-3.908.511-.024-.055-.034-.106-.056-.157a2.872,2.872,0,0,0-.1.935c.1,1.221,1.17,1.33,2.089,1.038A2.2,2.2,0,0,0,132.417,83.668Z" transform="translate(-129.052 -75.152)" fill="#f7bb7d" opacity="0.5"/>
          <path id="Path_9210" data-name="Path 9210" d="M128.526,86.547c-.83-.663-.064-1.608.721-2.262a5.439,5.439,0,0,0,1.18-.576c.109-.072.229-.145.354-.226.506-.233.968-.561,1.473-.826A6.276,6.276,0,0,1,135.383,82c.059,0,.283-.091.141-.127a5.289,5.289,0,0,0-2.56.151,6.421,6.421,0,0,0,2.215-2.709c1.233,1.576,1.061,3.783.538,5.7C135.059,87.4,130.155,87.865,128.526,86.547Z" transform="translate(-126.237 -75.152)" fill="#f4bd92"/>
          <path id="Path_9211" data-name="Path 9211" d="M135.714,85.016c.523-1.914.7-4.122-.538-5.7a6.03,6.03,0,0,1-1.987,2.519c.106-.009.208-.034.317-.033a1.9,1.9,0,0,1,.424.029,4.743,4.743,0,0,1,1.591.043c.143.036-.081.127-.141.127a5.865,5.865,0,0,0-.816.018,1.511,1.511,0,0,1,.406,2.587,5.741,5.741,0,0,1-5.144,1.717,2.284,2.284,0,0,1-1.524-.934.847.847,0,0,0,.221,1.156C130.152,87.865,135.056,87.4,135.714,85.016Z" transform="translate(-126.235 -75.152)" fill="#f7bb7d" opacity="0.5"/>
          <path id="Path_9212" data-name="Path 9212" d="M128.836,89.03c-.189-.457.194-1.18.527-1.649a8.141,8.141,0,0,0,3.626.118,7.6,7.6,0,0,0,2.931-1.028,2.168,2.168,0,0,1,.2,2.213c-.514,1.266-2.477,1.526-3.647,1.708C131.264,90.578,129.39,90.353,128.836,89.03Z" transform="translate(-127.066 -75.152)" fill="#f4bd92"/>
          <path id="Path_9213" data-name="Path 9213" d="M135.815,88.684a2.168,2.168,0,0,0-.2-2.213,6.866,6.866,0,0,1-2.51.939,6.079,6.079,0,0,1,1.144.15.336.336,0,0,1,.256.4c-.6,1.812-3.957,2.487-5.724,1.481a3.771,3.771,0,0,0,3.383.947C133.337,90.21,135.3,89.949,135.815,88.684Z" transform="translate(-126.764 -75.152)" fill="#f7bb7d" opacity="0.5"/>
          <path id="Path_9214" data-name="Path 9214" d="M132.023,93.447c-.829.218-2.3.335-2.686-.632a2.342,2.342,0,0,1,.493-2,5.45,5.45,0,0,0,1.362-.038,9.048,9.048,0,0,0,3.748-1.1,14.852,14.852,0,0,1-.285,1.667C134.378,92.485,133.036,93.17,132.023,93.447Z" transform="translate(-126.164 -75.152)" fill="#f4bd92"/>
          <path id="Path_9215" data-name="Path 9215" d="M134.482,91.352a14.852,14.852,0,0,0,.285-1.667,4.972,4.972,0,0,1-1.335.613.331.331,0,0,1,.14.25c.1,1.972-2.605,3.12-4.3,2.441.484.766,1.82.663,2.583.458C132.863,93.17,134.205,92.485,134.482,91.352Z" transform="translate(-125.991 -75.152)" fill="#f7bb7d" opacity="0.5"/>
          <path id="Path_9216" data-name="Path 9216" d="M135.55,78.562a7.621,7.621,0,0,0-1.609.794c-.388.29-1.041.748-1.171,1.218-.094.29.588.082.681.035a4.792,4.792,0,0,0,.98-1.033,12.065,12.065,0,0,1,1.258-.959C135.791,78.534,135.587,78.545,135.55,78.562Z" transform="translate(-130.434 -75.152)" fill="#f7bb7d"/>
        </g>
      </g>
      <g id="Group_8731" data-name="Group 8731" transform="translate(4.104)">
        <g id="Group_8729" data-name="Group 8729">
          <ellipse id="Ellipse_737" data-name="Ellipse 737" cx="30.524" cy="30.524" rx="30.524" ry="30.524" transform="translate(15.371 74.452) rotate(-104.584)" fill="#c60000"/>
          <path id="Path_9217" data-name="Path 9217" d="M138.7,5.425a30.523,30.523,0,1,0,30.523,30.523A30.523,30.523,0,0,0,138.7,5.425M138.7,4a31.948,31.948,0,1,1-31.948,31.948A31.984,31.984,0,0,1,138.7,4Z" transform="translate(-101.467 1.278)" fill="#910000"/>
        </g>
        <g id="Group_8730" data-name="Group 8730" transform="translate(6.709 20.014)">
          <path id="Path_9218" data-name="Path 9218" d="M113.493,18.736a25.279,25.279,0,0,0,50.412,0,30.523,30.523,0,1,1-50.412,0Z" transform="translate(-108.176 -18.736)" fill="#c60000"/>
        </g>
        <rect id="Rectangle_3581" data-name="Rectangle 3581" width="6.651" height="47.169" transform="translate(22.908 56.254) rotate(-135)" fill="#fff"/>
        <rect id="Rectangle_3582" data-name="Rectangle 3582" width="47.169" height="6.651" transform="translate(51.559 56.253) rotate(-135)" fill="#fff"/>
      </g>
    </g>
  </g>
</svg>
