<svg id="Group_4038" data-name="Group 4038" xmlns="http://www.w3.org/2000/svg" width="45" height="26" viewBox="0 0 45 26">
  <g id="Rectangle_2726" data-name="Rectangle 2726" fill="#fff" stroke="#efefef" stroke-width="1">
    <rect width="45" height="26" rx="2" stroke="none"/>
    <rect x="0.5" y="0.5" width="44" height="25" rx="1.5" fill="none"/>
  </g>
  <g id="visa" transform="translate(5.075 7.706)">
    <path id="Path_2642" data-name="Path 2642" d="M184.8,190.378l1.774-9.978h2.772l-1.719,9.978Z" transform="translate(-171.994 -180.067)" fill="#3c58bf"/>
    <path id="Path_2643" data-name="Path 2643" d="M184.8,190.378l2.273-9.978h2.273l-1.719,9.978Z" transform="translate(-171.994 -180.067)" fill="#293688"/>
    <path id="Path_2644" data-name="Path 2644" d="M256.482,176.043a7.031,7.031,0,0,0-2.55-.443c-2.772,0-4.767,1.386-4.767,3.382,0,1.5,1.386,2.273,2.495,2.772s1.441.832,1.441,1.275c0,.665-.887,1-1.663,1a6.025,6.025,0,0,1-2.661-.554l-.388-.166L248,185.578a8.988,8.988,0,0,0,3.16.554c2.938,0,4.878-1.386,4.878-3.492,0-1.164-.721-2.051-2.384-2.772-1-.5-1.608-.776-1.608-1.275,0-.443.5-.887,1.608-.887a5.085,5.085,0,0,1,2.107.388l.277.111.443-2.162Z" transform="translate(-230.815 -175.6)" fill="#3c58bf"/>
    <path id="Path_2645" data-name="Path 2645" d="M256.482,176.043a7.031,7.031,0,0,0-2.55-.443c-2.772,0-4.269,1.386-4.269,3.382a2.9,2.9,0,0,0,2,2.772c1.109.5,1.441.832,1.441,1.275,0,.665-.887,1-1.663,1a6.025,6.025,0,0,1-2.661-.554l-.388-.166L248,185.578a8.988,8.988,0,0,0,3.16.554c2.938,0,4.878-1.386,4.878-3.492,0-1.164-.721-2.051-2.384-2.772-1-.5-1.608-.776-1.608-1.275,0-.443.5-.887,1.608-.887a5.085,5.085,0,0,1,2.107.388l.277.111.443-2.162Z" transform="translate(-230.815 -175.6)" fill="#293688"/>
    <path id="Path_2646" data-name="Path 2646" d="M364,180.4c-.665,0-1.164.055-1.441.721l-4.158,9.258h2.994l.554-1.663H365.5l.333,1.663h2.661l-2.328-9.978Zm-1.275,6.652c.166-.5,1.109-2.938,1.109-2.938s.222-.61.388-1l.166.942s.554,2.495.665,3.049h-2.328Z" transform="translate(-333.565 -180.067)" fill="#3c58bf"/>
    <path id="Path_2647" data-name="Path 2647" d="M364.664,180.4c-.665,0-1.164.055-1.441.721l-4.823,9.258h2.994l.554-1.663H365.5l.333,1.663h2.661l-2.328-9.978Zm-1.94,6.652c.222-.554,1.109-2.938,1.109-2.938s.222-.61.388-1l.166.942s.554,2.495.665,3.049h-2.328Z" transform="translate(-333.565 -180.067)" fill="#293688"/>
    <path id="Path_2648" data-name="Path 2648" d="M55.358,188.129l-.277-1.441a8.036,8.036,0,0,0-3.881-4.379l2.495,8.87h2.994l4.49-9.978H58.185Z" transform="translate(-47.652 -180.812)" fill="#3c58bf"/>
    <path id="Path_2649" data-name="Path 2649" d="M55.358,188.129l-.277-1.441a8.036,8.036,0,0,0-3.881-4.379l2.495,8.87h2.994l4.49-9.978H58.739Z" transform="translate(-47.652 -180.812)" fill="#293688"/>
    <path id="Path_2650" data-name="Path 2650" d="M0,180.4l.5.111c3.548.832,5.987,2.938,6.929,5.433l-1-4.712c-.166-.665-.665-.832-1.275-.832Z" transform="translate(0 -180.067)" fill="#ffbc00"/>
    <path id="Path_2651" data-name="Path 2651" d="M0,180.4H0c3.548.832,6.486,2.994,7.428,5.488l-.942-3.936a1.353,1.353,0,0,0-1.33-1.053Z" transform="translate(0 -180.067)" fill="#f7981d"/>
    <path id="Path_2652" data-name="Path 2652" d="M0,180.4H0c3.548.832,6.486,2.994,7.428,5.488l-.665-2.162A1.955,1.955,0,0,0,5.6,182.119Z" transform="translate(0 -180.067)" fill="#ed7c00"/>
    <g id="Group_4037" data-name="Group 4037" transform="translate(3.603 1.441)">
      <path id="Path_2653" data-name="Path 2653" d="M58.874,201.944l-1.885-1.885-.887,2.107-.222-1.386A8.036,8.036,0,0,0,52,196.4l2.495,8.87h2.994Z" transform="translate(-52 -196.4)" fill="#051244"/>
      <path id="Path_2654" data-name="Path 2654" d="M187.627,291.639l-2.384-2.439-.443,2.439Z" transform="translate(-175.598 -282.769)" fill="#051244"/>
      <path id="Path_2655" data-name="Path 2655" d="M252.823,274.8h0c.222.222.333.388.277.61,0,.665-.887,1-1.663,1a6.025,6.025,0,0,1-2.661-.554l-.388-.166L248,277.96a8.988,8.988,0,0,0,3.16.554,5.489,5.489,0,0,0,4.047-1.386Z" transform="translate(-234.418 -269.367)" fill="#051244"/>
      <path id="Path_2656" data-name="Path 2656" d="M364,226.862h2.605l.554-1.663h3.548l.333,1.663H373.7l-.942-4.047-3.326-3.215.166.887s.554,2.495.665,3.049h-2.328c.222-.554,1.109-2.938,1.109-2.938s.222-.61.388-1" transform="translate(-342.38 -217.992)" fill="#051244"/>
    </g>
  </g>
</svg>
