<svg xmlns="http://www.w3.org/2000/svg" width="41.49" height="26.174" viewBox="0 0 41.49 26.174">
  <g id="visa-4-logo-svgrepo-com" transform="translate(-2.834 -37.365)">
    <path id="Path_4500" data-name="Path 4500" d="M44.324,40.346c0-1.993-1.036-2.981-3.045-2.981H5.878a2.815,2.815,0,0,0-2.228.816,2.9,2.9,0,0,0-.816,2.166V60.558a2.923,2.923,0,0,0,.816,2.165,3.023,3.023,0,0,0,2.228.816h35.4c2.009,0,3.045-1,3.045-2.981ZM41.28,37.836a2.228,2.228,0,0,1,2.511,2.511V60.558a2.221,2.221,0,0,1-2.511,2.51H5.878a2.422,2.422,0,0,1-2.573-2.511V40.346a2.241,2.241,0,0,1,2.573-2.511Z" transform="translate(0 0)" fill="#315881" fill-rule="evenodd"/>
    <path id="Path_4501" data-name="Path 4501" d="M12.109,44.724a1.865,1.865,0,0,0-1.334.345,2.256,2.256,0,0,0-.3,1.349V50.8h38.1V46.419a1.492,1.492,0,0,0-1.695-1.695Z" transform="translate(-5.948 -5.727)" fill="#0e256b" fill-rule="evenodd"/>
    <path id="Path_4502" data-name="Path 4502" d="M10.477,124.743c0,1.161.549,1.757,1.632,1.757H46.882a1.531,1.531,0,0,0,1.695-1.757v-4.378h-38.1Z" transform="translate(-5.948 -64.593)" fill="#fe8e0e" fill-rule="evenodd"/>
    <path id="Path_4503" data-name="Path 4503" d="M41.32,77.059a.807.807,0,0,1-.11.471l-2.746,4.786-.173-5.838H33.9l1.475.706a1.2,1.2,0,0,1,.643,1.051l.408,6.2h2.15l5.147-7.956H41.085A.781.781,0,0,1,41.32,77.059Zm17.764-.345.172-.236H56.573c.094.094.126.141.126.173a3.012,3.012,0,0,1-.126.3l-3.907,7.124c-.094.126-.189.236-.3.361H54.58l-.11-.236a3.374,3.374,0,0,1,.345-1.114l.471-.879h2.275c.094.738.157,1.35.189,1.8l-.189.424h2.746l-.408-.6-.816-7.124Zm-1.632,4.378H55.82l1.4-2.683ZM50.673,76.07a3.618,3.618,0,0,0-2.213.706,1.783,1.783,0,0,0-1.051,1.569,2.519,2.519,0,0,0,.753,1.867l1.522,1.051c.549.393.816.738.816,1.052a.955.955,0,0,1-.408.769,1.47,1.47,0,0,1-.942.3,7.333,7.333,0,0,1-2.793-1.114v1.459a5.777,5.777,0,0,0,2.966.926,3.434,3.434,0,0,0,2.339-.816A2.059,2.059,0,0,0,51.9,80.4l-1.46-1.051c-.486-.392-.753-.738-.753-1,0-.612.361-.926,1.1-.926a4.934,4.934,0,0,1,2.228.879l.3-1.522a5.229,5.229,0,0,0-2.637-.706Zm-5.837,8.364c-.031-.33-.094-.628-.126-.942L46.7,77.059l.471-.581H44.3c.031.141.063.33.094.471a2.446,2.446,0,0,1-.031.471l-1.993,6.371-.408.644h2.872Z" transform="translate(-24.175 -30.121)" fill="#0e256b" fill-rule="evenodd"/>
  </g>
</svg>
