<svg xmlns="http://www.w3.org/2000/svg" width="36.968" height="30.176" viewBox="0 0 36.968 30.176">
  <g id="voucher" transform="translate(0 0)">
    <path id="Path_2823" data-name="Path 2823" d="M77.163-437.754c1.069.347,1.394.744,2.477,3.019l.852,1.813.368.079a3.208,3.208,0,0,1,2.015,1.668l.231.469.036,1.733.036,1.733.838,1.733a20.517,20.517,0,0,1,.932,2.123,2.937,2.937,0,0,1-1.416,3.127l-.383.21-.022,2.26-.022,2.253-.267.542a3.014,3.014,0,0,1-1.488,1.459l-.484.231-5.994.036-5.994.036-5.561,2.679c-3.062,1.473-5.742,2.723-5.951,2.773a2.931,2.931,0,0,1-2.658-.78c-.339-.347-.477-.6-1.993-3.792a3.24,3.24,0,0,0-.607-1.026c-.072-.022-.332-.144-.578-.26a2.967,2.967,0,0,1-1.343-1.423c-.231-.477-.231-.5-.267-1.892l-.043-1.408-.831-1.733a20.518,20.518,0,0,1-.932-2.123,2.943,2.943,0,0,1,1.416-3.127l.383-.209.022-2.578.022-2.578.238-.491a3.168,3.168,0,0,1,2.246-1.712c.246-.043,2.7-.072,6.688-.072H65.42l4.9-2.347c2.687-1.285,5.056-2.39,5.258-2.456A2.836,2.836,0,0,1,77.163-437.754Zm-3.669,2.275c-1.307.628-3,1.437-3.77,1.8l-1.387.664,2.716.022c1.488.007,3.907.007,5.373,0l2.658-.022-.679-1.444c-.737-1.553-.989-1.9-1.5-2.094C76.282-436.779,76.065-436.714,73.494-435.479Zm1.054,6.341c0,1.437.014,2.593.029,2.578s.13-.289.26-.607a2.847,2.847,0,0,1,1.719-1.921,2.952,2.952,0,0,1,2.051.1,3.129,3.129,0,0,1,1.2,1.177,2.626,2.626,0,0,1-.6,3.12,3.246,3.246,0,0,1-1.062.628c-.368.144-.686.282-.7.3s.982.029,2.217.029h2.253v-3.308c0-3.106-.014-3.315-.144-3.589a1.745,1.745,0,0,0-1.1-.982c-.347-.123-.672-.13-3.257-.137H74.548Zm-22.317-2.427a2.09,2.09,0,0,0-.563.4c-.506.513-.484.325-.506,4.052l-.022,3.38,9.555-.007c5.879,0,9.5-.029,9.411-.072s-.361-.159-.636-.267a2.8,2.8,0,0,1-1.755-1.733,3.138,3.138,0,0,1,.116-1.914,2.623,2.623,0,0,1,4.319-.664,3.659,3.659,0,0,1,.737,1.329c.209.52.39.946.4.946s.029-1.271.029-2.817v-2.817l-10.386.014C52.571-431.716,52.557-431.716,52.232-431.565Zm24.512,3.748a1.553,1.553,0,0,0-.448.412c-.159.275-1.343,3.228-1.307,3.264a28.593,28.593,0,0,0,3.423-1.473,1.4,1.4,0,0,0-.289-2.246A1.528,1.528,0,0,0,76.744-427.816Zm-7.164-.029a1.391,1.391,0,0,0-.166,2.34c.217.144,1.264.585,2.983,1.271l.347.137-.137-.347a31.121,31.121,0,0,0-1.264-2.99A1.407,1.407,0,0,0,69.58-427.845Zm13.563,4.918.007,1.466.238-.274a1.583,1.583,0,0,0,.383-1.235,5.787,5.787,0,0,0-.607-1.416C83.15-424.386,83.143-423.729,83.143-422.927Zm-33.569-.809a1.76,1.76,0,0,0,.051,2l.289.563.007-1.43C49.921-424.148,49.9-424.213,49.574-423.736Zm25.985,1.524a6.158,6.158,0,0,0,1.741,1.026,7.666,7.666,0,0,0,1.95.412h.209v1.249l-.571-.05a7.734,7.734,0,0,1-3.821-1.444l-.52-.4v6.926h5.958l.361-.173a1.7,1.7,0,0,0,.9-.91c.144-.311.152-.462.152-3.633v-3.3H78.571l-3.337.007Zm-24.411,3c0,3.171.007,3.322.152,3.633a1.7,1.7,0,0,0,.9.91l.361.173H73.321v-7.092l-.347.282a7.606,7.606,0,0,1-2.434,1.372,9.155,9.155,0,0,1-2.08.383h-.267v-1.213l.556-.051a6.5,6.5,0,0,0,3.243-1.278,1.994,1.994,0,0,0,.39-.361c0-.036-4.781-.058-10.617-.058H51.148Zm2.528,5.973c0,.014.376.816.831,1.784a7.648,7.648,0,0,0,1.148,2.066,1.5,1.5,0,0,0,1.6.354c.267-.094,8.118-3.857,8.587-4.109.2-.108-.209-.116-5.98-.123C56.464-413.264,53.676-413.249,53.676-413.235Z" transform="translate(-48.049 437.883)" fill="#c00"/>
    <path id="Path_2824" data-name="Path 2824" d="M356.228-325.772v1.228H355V-327h1.228Z" transform="translate(-341.428 335.008)" fill="#c00"/>
    <path id="Path_2825" data-name="Path 2825" d="M390.228-325.772v1.228H389V-327h1.228Z" transform="translate(-377.884 335.008)" fill="#c00"/>
    <path id="Path_2826" data-name="Path 2826" d="M424.3-325.772v1.228H423V-327h1.3Z" transform="translate(-414.412 335.008)" fill="#c00"/>
    <path id="Path_2827" data-name="Path 2827" d="M459.228-325.772v1.228H458V-327h1.228Z" transform="translate(-451.867 335.008)" fill="#c00"/>
    <path id="Path_2828" data-name="Path 2828" d="M356.228-164.386v.614H355V-165h1.228Z" transform="translate(-341.428 184.708)" fill="#c00"/>
    <path id="Path_2829" data-name="Path 2829" d="M390.228-164.386v.614H389V-165h1.228Z" transform="translate(-377.884 184.708)" fill="#c00"/>
    <path id="Path_2830" data-name="Path 2830" d="M424.3-164.386v.614H423V-165h1.3Z" transform="translate(-414.412 184.708)" fill="#c00"/>
    <path id="Path_2831" data-name="Path 2831" d="M459.228-164.386v.614H458V-165h1.228Z" transform="translate(-451.867 184.708)" fill="#c00"/>
  </g>
</svg>
