<svg xmlns="http://www.w3.org/2000/svg" width="34.908" height="36.407" viewBox="0 0 34.908 36.407">
  <g id="wallet" transform="translate(-1.865)">
    <g id="wallet-2" data-name="wallet" transform="translate(1.865)">
      <g id="fill" transform="translate(0.734 0.817)">
        <path id="Path_4484" data-name="Path 4484" d="M72.327,54.535H66.154A1.238,1.238,0,0,1,64.9,53.293V49.572a1.238,1.238,0,0,1,1.254-1.242h6.189a1.238,1.238,0,0,1,1.238,1.242v3.722a1.238,1.238,0,0,1-1.254,1.242Z" transform="translate(-40.135 -29.596)" fill="#b1b1b1"/>
        <path id="Path_4485" data-name="Path 4485" d="M29.7,36.278a1.238,1.238,0,0,1-1.254-1.242V31.315A1.238,1.238,0,0,1,29.7,30.073h6.189V22.629a2.48,2.48,0,0,0-2.476-2.48H6.156A2.48,2.48,0,0,1,3.68,17.67V43.721A2.48,2.48,0,0,0,6.156,46.2H33.4a2.48,2.48,0,0,0,2.476-2.48V36.278Z" transform="translate(-3.68 -11.339)" fill="#c1c1c1"/>
        <path id="Path_4486" data-name="Path 4486" d="M33.4,16.494H6.156a2.48,2.48,0,0,1-2.476-2.48h0A2.48,2.48,0,0,1,6.156,11.53H30.913a2.48,2.48,0,0,1,2.476,2.48Z" transform="translate(-3.68 -7.683)" fill="#e07885"/>
        <rect id="Rectangle_3350" data-name="Rectangle 3350" width="15.991" height="8.556" transform="translate(4.858)" fill="#ffeb97"/>
        <rect id="Rectangle_3351" data-name="Rectangle 3351" width="16.383" height="2.229" transform="translate(10.635 6.331)" fill="#fff"/>
      </g>
      <g id="outline">
        <path id="Path_4487" data-name="Path 4487" d="M71.279,54.192H65.106a1.97,1.97,0,0,1-1.966-1.97V48.5a1.97,1.97,0,0,1,1.966-1.97H71.3a1.97,1.97,0,0,1,1.966,1.97v3.722a1.97,1.97,0,0,1-1.982,1.97Zm-6.173-6.205a.514.514,0,0,0-.51.514v3.722a.514.514,0,0,0,.51.514H71.3a.514.514,0,0,0,.51-.514V48.5a.514.514,0,0,0-.51-.514Z" transform="translate(-38.353 -27.707)" fill="#576065"/>
        <path id="Path_4488" data-name="Path 4488" d="M32.325,45.857H5.084a3.212,3.212,0,0,1-3.2-3.208V16.6a.728.728,0,0,1,1.456,0A1.752,1.752,0,0,0,5.084,18.35H32.325a3.212,3.212,0,0,1,3.2,3.208V29a.728.728,0,0,1-.728.728H28.627a.514.514,0,0,0-.51.514v3.722a.514.514,0,0,0,.51.514h6.189a.728.728,0,0,1,.728.728V42.65a3.212,3.212,0,0,1-3.22,3.208ZM3.336,19.284V42.65A1.752,1.752,0,0,0,5.084,44.4H32.325a1.752,1.752,0,0,0,1.748-1.752V35.934H28.627a1.97,1.97,0,0,1-1.966-1.97V30.243a1.97,1.97,0,0,1,1.966-1.97h5.461V21.558a1.752,1.752,0,0,0-1.748-1.752H5.084a3.184,3.184,0,0,1-1.748-.522Z" transform="translate(-1.874 -9.45)" fill="#576065"/>
        <path id="Path_4489" data-name="Path 4489" d="M32.316,16.15H5.075a3.21,3.21,0,1,1,0-6.42H7.458a.728.728,0,0,1,0,1.456H5.075a1.754,1.754,0,1,0,0,3.507H31.587V12.942a1.752,1.752,0,0,0-1.756-1.756H23.448a.728.728,0,0,1,0-1.456h6.383a3.212,3.212,0,0,1,3.2,3.208v2.484a.728.728,0,0,1-.72.728Z" transform="translate(-1.865 -5.794)" fill="#576065"/>
        <path id="Path_4490" data-name="Path 4490" d="M70.567,55.364a1.347,1.347,0,1,1,1.347-1.347A1.347,1.347,0,0,1,70.567,55.364Zm0-1.456a.109.109,0,0,0-.109.109c0,.117.218.117.218,0A.109.109,0,0,0,70.567,53.908Z" transform="translate(-41.973 -31.364)" fill="#576065"/>
        <path id="Path_4491" data-name="Path 4491" d="M15.346,9.648H13.89V1.8a1.8,1.8,0,0,1,1.8-1.8H29.541a1.8,1.8,0,0,1,1.788,1.8V7.35H29.873V1.8a.34.34,0,0,0-.336-.34H15.686a.34.34,0,0,0-.336.34Z" transform="translate(-9.026 0)" fill="#576065"/>
        <path id="Path_4492" data-name="Path 4492" d="M69.926,31.4a.907.907,0,0,1-.138,0,.453.453,0,0,1-.138-.045.4.4,0,0,1-.125-.065.728.728,0,0,1-.109-.089.72.72,0,0,1,0-1.036.728.728,0,0,1,.109-.089.4.4,0,0,1,.125-.065.433.433,0,0,1,.138-.044.615.615,0,0,1,.283,0,.489.489,0,0,1,.138.044.51.51,0,0,1,.125.065l.109.089a.74.74,0,0,1,0,1.036l-.109.089a.874.874,0,0,1-.263.109A.91.91,0,0,1,69.926,31.4Z" transform="translate(-41.96 -17.834)" fill="#fff"/>
        <path id="Path_4493" data-name="Path 4493" d="M35.965,30.658a.728.728,0,0,1,.728-.728h0a.732.732,0,0,1,.736.728h0a.732.732,0,0,1-.736.728h0a.728.728,0,0,1-.728-.728Zm-2.933,0a.724.724,0,0,1,.728-.728h0a.732.732,0,0,1,.728.728h0a.732.732,0,0,1-.728.728h0a.724.724,0,0,1-.732-.728Zm-2.941,0a.724.724,0,0,1,.728-.728h0a.732.732,0,0,1,.728.728h0a.732.732,0,0,1-.728.728h0a.724.724,0,0,1-.732-.728Zm-2.941,0a.732.732,0,0,1,.728-.728h0a.732.732,0,0,1,.728.728h0a.732.732,0,0,1-.728.728h0a.732.732,0,0,1-.732-.728Zm-2.941,0a.732.732,0,0,1,.728-.728h0a.732.732,0,0,1,.728.728h0a.732.732,0,0,1-.728.728h0a.732.732,0,0,1-.732-.728Zm-2.941,0A.732.732,0,0,1,22,29.93h0a.732.732,0,0,1,.728.728h0a.732.732,0,0,1-.728.728h0a.732.732,0,0,1-.732-.728Zm-2.941,0a.732.732,0,0,1,.728-.728h0a.732.732,0,0,1,.728.728h0a.732.732,0,0,1-.728.728h0a.732.732,0,0,1-.736-.728Z" transform="translate(-11.664 -17.823)" fill="#fff"/>
        <path id="Path_4494" data-name="Path 4494" d="M11.789,31.4a.728.728,0,0,1-.518-1.246.752.752,0,0,1,1.027,0,.728.728,0,0,1-.51,1.246Z" transform="translate(-7.338 -17.834)" fill="#fff"/>
        <path id="Path_4495" data-name="Path 4495" d="M34.911,80.988a.728.728,0,0,1,.728-.728h0a.724.724,0,0,1,.728.728h0a.72.72,0,0,1-.728.728h0a.724.724,0,0,1-.728-.728Zm-2.913,0a.732.732,0,0,1,.736-.728h0a.724.724,0,0,1,.72.728h0a.72.72,0,0,1-.72.728h0a.728.728,0,0,1-.74-.728Zm-2.913,0a.728.728,0,0,1,.728-.728h0a.724.724,0,0,1,.728.728h0a.72.72,0,0,1-.728.728h0a.724.724,0,0,1-.728-.728Zm-2.913,0a.728.728,0,0,1,.728-.728h0a.724.724,0,0,1,.728.728h0a.72.72,0,0,1-.728.728h0a.724.724,0,0,1-.728-.728Zm-2.913,0A.732.732,0,0,1,24,80.26h0a.724.724,0,0,1,.716.728h0a.72.72,0,0,1-.72.728h0a.728.728,0,0,1-.732-.728Zm-2.913,0a.728.728,0,0,1,.728-.728h0a.724.724,0,0,1,.728.728h0a.72.72,0,0,1-.728.728h0a.724.724,0,0,1-.728-.728Zm-2.913,0a.728.728,0,0,1,.728-.728h0a.724.724,0,0,1,.728.728h0a.72.72,0,0,1-.728.728h0a.724.724,0,0,1-.732-.728Zm-2.913,0a.728.728,0,0,1,.728-.728h0a.724.724,0,0,1,.728.728h0a.72.72,0,0,1-.728.728h0a.724.724,0,0,1-.728-.728Zm-2.913,0a.728.728,0,0,1,.728-.728h0a.724.724,0,0,1,.728.728h0a.72.72,0,0,1-.728.728h0a.724.724,0,0,1-.728-.728Z" transform="translate(-7.668 -47.793)" fill="#fff"/>
        <path id="Path_4496" data-name="Path 4496" d="M75.6,33.571a.732.732,0,0,1,.728-.728h0a.724.724,0,0,1,.728.728h0a.724.724,0,0,1-.728.728h0A.732.732,0,0,1,75.6,33.571Zm0-2.913a.732.732,0,0,1,.728-.728h0a.724.724,0,0,1,.728.728h0a.724.724,0,0,1-.728.728h0A.732.732,0,0,1,75.6,30.658Z" transform="translate(-45.772 -17.823)" fill="#fff"/>
        <path id="Path_4497" data-name="Path 4497" d="M75.6,76.091a.732.732,0,0,1,.728-.728h0a.724.724,0,0,1,.728.728h0a.724.724,0,0,1-.728.728h0a.732.732,0,0,1-.728-.728Zm0-2.913a.732.732,0,0,1,.728-.728h0a.724.724,0,0,1,.728.728h0a.724.724,0,0,1-.728.728h0A.732.732,0,0,1,75.6,73.178Z" transform="translate(-45.772 -43.142)" fill="#fff"/>
        <path id="Path_4498" data-name="Path 4498" d="M45.756,18.778H44.3V16.832a.4.4,0,0,0-.4-.4H28.871a.4.4,0,0,0-.4.4v1.946H27.01V16.832A1.845,1.845,0,0,1,28.871,15H43.915a1.845,1.845,0,0,1,1.841,1.845Z" transform="translate(-16.838 -8.932)" fill="#576065"/>
      </g>
    </g>
  </g>
</svg>
